v 7.673525 10.830640 0.945171
v 7.126995 10.830640 0.366405
v 7.131895 0.000000 0.366405
v 7.673525 0.000000 0.945171
v -7.015494 10.830640 0.366405
v -7.673525 10.830640 0.945171
v -7.673525 0.000000 0.945171
v -6.998305 0.000000 0.366405
v -0.094365 27.664391 -0.884033
v -0.094365 21.661270 -0.884033
v 4.985325 21.661270 -0.884033
v 3.015195 25.835390 -0.884033
v 4.825535 22.662630 -0.884033
v 4.190985 24.230350 -0.884033
v 1.596785 26.917860 -0.884033
v -4.356805 24.249010 -0.884033
v -4.954035 22.774611 -0.884041
v -5.098755 21.661270 -0.884041
v -1.407995 27.085829 -0.884033
v -3.143695 25.854052 -0.884033
v -7.027504 18.402081 0.366405
v -7.673525 18.402081 0.945171
v -0.094365 20.908279 -0.884033
v 5.105495 20.908279 -0.884026
v -5.196645 20.908279 -0.884041
v 5.135015 0.674190 -0.773521
v 5.180105 10.830640 -0.773521
v -0.094365 10.830640 -0.773521
v -0.094365 0.674190 -0.773521
v -5.172325 0.674190 -0.773521
v -5.262486 10.830640 -0.773521
v 7.673525 18.402081 0.945171
v 7.104005 18.402081 0.366405
v -4.288465 17.553450 -0.119972
v -4.148245 17.732920 -0.119972
v -4.221155 17.912399 -0.119972
v -4.137025 18.402081 -0.119972
v -4.148245 18.002140 -0.119972
v -5.329685 18.402081 -0.119972
v -5.310805 16.274691 -0.119972
v -4.782035 16.773830 -0.119972
v -5.017595 16.398050 -0.119972
v -4.619375 17.132790 -0.119972
v -4.159465 17.301062 -0.119972
v -4.316505 17.127190 -0.119972
v -5.017595 16.398050 -0.773521
v -5.310805 16.274691 -0.773521
v -0.094365 18.402081 -0.773521
v -4.137025 18.402081 -0.773521
v -4.148245 18.002140 -0.773521
v -4.148245 17.732920 -0.773521
v -4.221155 17.912399 -0.773521
v -4.288465 17.553450 -0.773521
v -4.159465 17.301062 -0.773521
v -4.316505 17.127190 -0.773521
v -4.782035 16.773830 -0.773521
v -4.619375 17.132790 -0.773521
v 4.056155 18.057180 -0.773521
v 4.044685 18.402081 -0.773521
v 4.067625 17.736181 -0.773521
v 5.070765 16.274460 -0.773521
v 5.204185 16.257179 -0.773521
v 4.812815 16.509481 -0.773521
v 4.216665 17.271872 -0.773521
v 4.669505 16.950871 -0.773521
v 4.440225 17.283331 -0.773521
v 4.124935 17.392250 -0.773521
v 4.210925 17.638731 -0.773521
v 4.136415 17.971201 -0.773521
v 5.070765 16.274460 -0.119957
v 5.204185 16.257179 -0.119957
v 5.213705 18.402081 -0.119957
v 4.669505 16.950871 -0.119957
v 4.044685 18.402081 -0.119957
v 4.056155 18.057180 -0.119957
v 4.136415 17.971201 -0.119957
v 4.067625 17.736181 -0.119957
v 4.210925 17.638731 -0.119957
v 4.124935 17.392250 -0.119957
v 4.216665 17.271872 -0.119957
v 4.440225 17.283331 -0.119957
v 4.812815 16.509481 -0.119957
v 5.213705 18.402081 0.366405
v 5.180105 10.830640 0.366405
v -5.329685 18.402081 0.366405
v -0.094365 18.402081 0.366405
v 5.135015 0.674190 0.366405
v -0.094365 0.674190 0.366405
v -5.172325 0.674190 0.366405
v -5.262486 10.830640 0.366405
v -7.032684 21.661270 0.366405
v -7.673525 21.661270 0.945171
v 7.673525 21.661270 0.945171
v 7.094105 21.661270 0.366405
v -0.094365 20.908279 0.366405
v 5.105495 20.908279 0.366417
v -5.196645 20.908279 0.366405
v -5.098755 21.661270 0.366405
v -4.954035 22.774611 0.366405
v -4.356805 24.249010 0.366405
v -3.143695 25.854052 0.366405
v -1.407995 27.085829 0.366405
v -0.094365 27.664391 0.366405
v 1.596785 26.917860 0.366405
v 3.015195 25.835390 0.366405
v 4.190985 24.230350 0.366405
v 4.825535 22.662630 0.366405
v 4.985325 21.661270 0.366405
v 7.673525 0.000000 -0.945175
v -0.094365 0.000000 -0.945175
v -0.094365 0.000000 0.366405
v -7.673525 10.830640 -0.945175
v -7.673525 0.000000 -0.945175
v 7.673525 18.402081 -0.945175
v 7.673525 21.661270 -0.945175
v 1.620625 29.797920 -0.945175
v -0.094365 30.260122 -0.945175
v -0.094365 30.260122 0.945171
v 1.620625 29.797920 0.945171
v 3.653115 28.781073 -0.945175
v 3.653115 28.781073 0.945171
v 5.177475 27.357481 -0.945175
v 5.177475 27.357481 0.945171
v 6.701825 25.083431 -0.945175
v 6.701825 25.083431 0.945171
v 7.464015 22.827871 -0.945175
v 7.464015 22.827871 0.945171
v -1.529725 29.871870 -0.945175
v -1.529725 29.871870 0.945171
v -3.054095 29.206301 -0.945175
v -3.054095 29.206301 0.945171
v -4.713955 27.986080 -0.945175
v -4.713955 27.986080 0.945171
v -6.204445 26.155739 -0.945175
v -6.204445 26.155739 0.945171
v -7.220685 24.048090 -0.945175
v -7.673525 21.661270 -0.945175
v -7.220685 24.048090 0.945171
v -7.673525 18.402081 -0.945175
v 7.673525 10.830640 -0.945175
v 1.525885 29.262112 0.366405
v 3.244465 28.299709 0.366405
v -0.094365 29.605831 0.366405
v -6.517105 23.900122 0.366405
v -5.554685 25.756201 0.366405
v -4.145445 27.577902 0.366405
v -2.564345 28.746542 0.366405
v 4.722455 26.924831 0.366405
v 6.337925 24.793791 0.366405
v 6.863765 22.615480 0.366405
vt -0.000000 0.336100
vt 0.017500 0.336100
vt 0.017400 -0.000000
vt 0.000000 0.000000
vt 0.471500 0.336100
vt 0.492600 0.336100
vt 0.492600 0.000000
vt 0.470900 0.000000
vt 0.249300 0.858500
vt 0.249300 0.672200
vt 0.086300 0.672200
vt 0.149500 0.801700
vt 0.091400 0.703300
vt 0.111800 0.751900
vt 0.195000 0.835300
vt 0.386100 0.752500
vt 0.405300 0.706800
vt 0.409900 0.672200
vt 0.291500 0.840600
vt 0.347200 0.802300
vt 0.471800 0.571100
vt 0.492600 0.571100
vt 0.249300 0.648800
vt 0.082400 0.648800
vt 0.413100 0.648800
vt 0.081500 0.020900
vt 0.080000 0.336100
vt 0.249300 0.336100
vt 0.249300 0.020900
vt 0.412300 0.020900
vt 0.415200 0.336100
vt -0.000000 0.571100
vt 0.018300 0.571100
vt 0.383900 0.544700
vt 0.379400 0.550300
vt 0.381800 0.555900
vt 0.379100 0.571100
vt 0.379400 0.558700
vt 0.417300 0.571100
vt 0.416700 0.505100
vt 0.399800 0.520500
vt 0.407300 0.508900
vt 0.394500 0.531700
vt 0.379800 0.536900
vt 0.384800 0.531500
vt 0.249300 0.571100
vt 0.116100 0.560400
vt 0.116500 0.571100
vt 0.115700 0.550400
vt 0.083500 0.505000
vt 0.079300 0.504500
vt 0.091800 0.512300
vt 0.111000 0.536000
vt 0.096400 0.526000
vt 0.103800 0.536400
vt 0.113900 0.539700
vt 0.111100 0.547400
vt 0.113500 0.557700
vt 0.078900 0.571100
vt 0.026100 0.567200
vt 0.041000 0.567200
vt 0.041000 0.501500
vt 0.026100 0.335300
vt 0.434500 0.520700
vt 0.454400 0.520700
vt 0.454400 0.471900
vt 0.434500 0.306200
vt 0.022400 0.347800
vt 0.022400 0.371600
vt 0.061100 0.371600
vt 0.061100 0.347800
vt 0.481200 0.471900
vt 0.481200 0.306200
vt 0.481200 0.136600
vt 0.454400 0.136600
vt 0.061100 0.370000
vt 0.061100 0.349400
vt 0.022400 0.349400
vt 0.022400 0.370000
vt 0.061100 0.363200
vt 0.061100 0.356200
vt 0.022400 0.356200
vt 0.022400 0.363200
vt 0.061100 0.367000
vt 0.061100 0.352400
vt 0.022400 0.352400
vt 0.022400 0.367000
vt 0.061100 0.364800
vt 0.061100 0.354600
vt 0.022400 0.354600
vt 0.022400 0.364800
vt 0.061100 0.367400
vt 0.061100 0.352000
vt 0.022400 0.352000
vt 0.022400 0.367400
vt 0.061100 0.364200
vt 0.061100 0.355200
vt 0.022400 0.355200
vt 0.022400 0.364200
vt 0.022400 0.353100
vt 0.022400 0.366300
vt 0.061100 0.366300
vt 0.061100 0.353100
vt 0.061100 0.373400
vt 0.061100 0.345900
vt 0.022400 0.345900
vt 0.022400 0.373400
vt 0.061100 0.363700
vt 0.061100 0.355700
vt 0.022400 0.355700
vt 0.022400 0.363700
vt 0.061000 0.501500
vt 0.061000 0.335300
vt 0.061000 0.024100
vt 0.026100 0.024100
vt 0.151100 0.019000
vt 0.255400 0.019000
vt 0.255400 0.003700
vt 0.151100 0.003700
vt 0.356600 0.019000
vt 0.356600 0.003700
vt 0.435000 0.021200
vt 0.435000 0.337100
vt 0.470400 0.337100
vt 0.470400 0.021200
vt 0.435000 0.506400
vt 0.455300 0.506400
vt 0.022400 0.198900
vt 0.022400 0.217700
vt 0.061100 0.217700
vt 0.061100 0.198900
vt 0.022400 0.244000
vt 0.061100 0.244000
vt 0.022400 0.267400
vt 0.061100 0.267400
vt 0.022400 0.285300
vt 0.061100 0.285300
vt 0.022400 0.299200
vt 0.061100 0.299200
vt 0.022400 0.316000
vt 0.061100 0.316000
vt 0.022400 0.329500
vt 0.061100 0.329500
vt 0.022400 0.341000
vt 0.061100 0.341000
vt 0.455300 0.572600
vt 0.470400 0.572600
vt 0.454400 0.088700
vt 0.434500 0.088700
vt 0.472000 0.672200
vt 0.492600 0.672200
vt -0.000000 0.672200
vt 0.018600 0.672200
vt 0.068600 0.429300
vt 0.068600 0.290500
vt 0.028200 0.290500
vt 0.028200 0.429300
vt 0.068600 0.154200
vt 0.028200 0.154200
vt 0.068600 0.134100
vt 0.028200 0.134100
vt 0.068600 0.104400
vt 0.028200 0.104400
vt 0.068600 0.065000
vt 0.028200 0.065000
vt 0.068600 0.022200
vt 0.028200 0.022200
vt 0.068600 0.725200
vt 0.068600 0.678900
vt 0.028200 0.678900
vt 0.028200 0.725200
vt 0.068600 0.643800
vt 0.028200 0.643800
vt 0.068600 0.598700
vt 0.028200 0.598700
vt 0.068600 0.560800
vt 0.028200 0.560800
vt 0.068600 0.518000
vt 0.028200 0.518000
vt 0.068600 0.476100
vt 0.028200 0.476100
vt 0.068600 0.449400
vt 0.028200 0.449400
vt 0.017700 0.549700
vt 0.063600 0.549700
vt 0.063600 0.530800
vt 0.017700 0.277700
vt 0.063600 0.277700
vt 0.017700 0.415700
vt 0.017700 0.708200
vt 0.063600 0.708200
vt 0.063600 0.415700
vt 0.017700 0.000700
vt 0.017700 0.114900
vt 0.063600 0.114900
vt 0.063600 0.000700
vt 0.017700 0.012300
vt 0.063600 0.036000
vt 0.063600 0.012300
vt 0.017700 0.438900
vt 0.017700 0.498900
vt 0.063600 0.498900
vt 0.063600 0.438900
vt 0.017700 0.367700
vt 0.063600 0.367700
vt 0.017700 0.314300
vt 0.063600 0.314300
vt 0.017700 0.234700
vt 0.063600 0.234700
vt 0.017700 0.155700
vt 0.063600 0.155700
vt 0.017700 0.549200
vt 0.063600 0.549200
vt 0.017700 0.602600
vt 0.063600 0.602600
vt 0.017700 0.660700
vt 0.063600 0.660700
vt 0.017700 0.724800
vt 0.063600 0.724800
vt 0.017700 0.058800
vt 0.017700 0.123300
vt 0.063600 0.123300
vt 0.063600 0.058800
vt 0.017700 0.001900
vt 0.063600 0.001900
vt 0.017700 0.211300
vt 0.063600 0.211300
vt 0.017700 0.008300
vt 0.017700 0.387600
vt 0.063600 0.387600
vt 0.063600 0.008300
vt 0.017700 0.652700
vt 0.063600 0.652700
vt 0.197300 0.908100
vt 0.142200 0.878200
vt 0.129000 0.893200
vt 0.194300 0.924700
vt 0.249300 0.918800
vt 0.455500 0.741700
vt 0.478000 0.746300
vt 0.249300 -0.000000
vt 0.424600 0.799300
vt 0.445400 0.811700
vt 0.379300 0.855800
vt 0.397600 0.868500
vt 0.328600 0.892100
vt 0.344300 0.906400
vt 0.295400 0.927000
vt 0.249300 0.939100
vt 0.094700 0.835600
vt 0.080100 0.849000
vt 0.042900 0.769400
vt 0.031200 0.778400
vt 0.026000 0.701800
vt 0.006700 0.708400
vn -0.727100 -0.000200 0.686500
vn -0.726600 -0.000200 0.687100
vn -0.730000 -0.000000 0.683400
vn -0.730100 0.000000 0.683300
vn 0.660400 0.000100 0.750900
vn 0.660400 0.000000 0.750900
vn 0.651300 0.001000 0.758800
vn 0.650800 0.001000 0.759300
vn -0.000000 -0.000000 1.000000
vn -0.000000 0.000000 1.000000
vn 0.000000 0.000000 1.000000
vn 0.000000 -0.000000 1.000000
vn 0.667300 0.001100 0.744800
vn 0.667300 0.000900 0.744800
vn -0.713300 -0.001000 0.700900
vn -0.712300 -0.001200 0.701900
vn -1.000000 0.004400 0.000000
vn -1.000000 0.004400 -0.000000
vn 0.000000 -1.000000 -0.000000
vn 0.937600 -0.347800 -0.000000
vn 0.999600 -0.028000 -0.000000
vn -0.999400 -0.033200 -0.000000
vn -0.924100 -0.382100 -0.000000
vn -0.731000 -0.682400 -0.000000
vn -0.959700 0.280900 -0.000000
vn -0.562300 -0.826900 -0.000000
vn -0.944200 0.329400 -0.000000
vn -0.795400 -0.606100 -0.000000
vn 0.051200 -0.998700 -0.000000
vn -0.823200 -0.567700 -0.000000
vn -0.896600 -0.442900 -0.000000
vn -0.840300 -0.542100 -0.000000
vn -0.420400 -0.907300 -0.000000
vn -0.128500 -0.991700 -0.000000
vn 0.000000 1.000000 -0.000000
vn 1.000000 0.008900 -0.000000
vn 1.000000 0.008900 0.000000
vn 0.387800 -0.921700 -0.000000
vn 0.647700 -0.761900 -0.000000
vn 0.881100 -0.473000 -0.000000
vn 0.910800 -0.412700 -0.000000
vn -0.018500 -0.999800 -0.000000
vn 0.742100 -0.670300 -0.000000
vn 0.890400 0.455100 -0.000000
vn 0.788000 -0.615700 -0.000000
vn 0.926500 0.376400 -0.000000
vn 0.776100 -0.630600 -0.000000
vn 0.662500 -0.068000 0.745900
vn 0.669000 -0.060300 0.740800
vn -0.705900 -0.061400 0.705700
vn -0.696200 -0.074100 0.714000
vn -0.000000 1.000000 -0.000000
vn 0.991700 -0.128900 0.000000
vn 0.967100 -0.254200 0.000000
vn 0.869800 -0.493400 0.000000
vn 0.696400 -0.717600 0.000000
vn 0.493400 -0.869800 0.000000
vn 0.403100 -0.915200 -0.000000
vn 0.403100 -0.915200 0.000000
vn -0.403800 -0.914800 0.000000
vn -0.508800 -0.860900 0.000000
vn -0.403800 -0.914800 -0.000000
vn -0.714000 -0.700100 0.000000
vn -0.873500 -0.486800 0.000000
vn -0.963400 -0.268100 0.000000
vn -0.987500 -0.157600 0.000000
vn -0.000000 -1.000000 -0.000000
vn -0.000000 -1.000000 0.000000
vn -1.000000 0.000000 -0.000000
vn 1.000000 0.000000 -0.000000
vn 0.996100 0.088700 -0.000000
vn 0.355600 0.934600 -0.000000
vn -0.000500 1.000000 -0.000000
vn 0.570900 0.821000 -0.000000
vn 0.761600 0.648100 -0.000000
vn 0.896900 0.442300 -0.000000
vn 0.968500 0.249100 -0.000000
vn -0.331500 0.943400 -0.000000
vn -0.499300 0.866400 -0.000000
vn -0.689400 0.724400 -0.000000
vn -0.843900 0.536600 -0.000000
vn -0.949700 0.313000 -0.000000
vn -0.995600 0.093600 -0.000000
vn -0.250000 -0.682300 0.687000
vn -0.396800 -0.548600 0.735900
vn -0.402100 -0.553100 0.729700
vn -0.239100 -0.683800 0.689400
vn 0.588700 -0.214300 0.779400
vn 0.602400 -0.203800 0.771800
vn 0.508900 -0.333100 0.793800
vn 0.510800 -0.331400 0.793200
vn 0.444100 -0.466900 0.764700
vn 0.449400 -0.453600 0.769600
vn 0.312900 -0.581200 0.751200
vn 0.341900 -0.572600 0.745100
vn 0.013400 -0.660100 0.751100
vn 0.212300 -0.609300 0.764000
vn 0.000300 -0.662600 0.749000
vn -0.521800 -0.447000 0.726600
vn -0.514800 -0.441100 0.735100
vn -0.690200 -0.346800 0.635100
vn -0.682700 -0.366600 0.632100
vn -0.655800 -0.158300 0.738200
vn -0.677100 -0.161800 0.717900
f 1/1/1 2/2/2 3/3/3
f 1/1/1 3/3/3 4/4/4
f 5/5/5 6/6/6 7/7/7
f 5/5/5 7/7/7 8/8/8
f 9/9/9 10/10/10 11/11/10
f 9/9/9 11/11/10 12/12/11
f 11/11/10 13/13/11 14/14/11
f 11/11/10 14/14/11 12/12/11
f 15/15/11 9/9/9 12/12/11
f 16/16/12 17/17/10 18/18/9
f 16/16/12 18/18/9 9/9/9
f 18/18/9 10/10/10 9/9/9
f 16/16/12 9/9/9 19/19/11
f 16/16/12 19/19/11 20/20/11
f 5/5/5 21/21/13 22/22/14
f 5/5/5 22/22/14 6/6/6
f 23/23/10 24/24/10 11/11/10
f 23/23/10 11/11/10 10/10/10
f 23/23/10 10/10/10 18/18/9
f 23/23/10 18/18/9 25/25/10
f 26/26/11 27/27/11 28/28/11
f 26/26/11 28/28/11 29/29/11
f 30/30/11 29/29/11 28/28/11
f 30/30/11 28/28/11 31/31/11
f 2/2/2 1/1/1 32/32/15
f 2/2/2 32/32/15 33/33/16
f 34/34/11 35/35/11 36/36/11
f 34/34/11 36/36/11 37/37/11
f 36/36/11 38/38/11 37/37/11
f 37/37/11 39/39/11 40/40/11
f 37/37/11 40/40/11 41/41/11
f 40/40/11 42/42/11 41/41/11
f 37/37/11 41/41/11 43/43/11
f 37/37/11 43/43/11 34/34/11
f 44/44/11 34/34/11 43/43/11
f 44/44/11 43/43/11 45/45/11
f 46/42/11 47/40/11 31/31/11
f 46/42/11 31/31/11 48/46/11
f 31/31/11 28/28/11 48/46/11
f 48/46/11 49/37/11 50/38/11
f 48/46/11 50/38/11 51/35/11
f 50/38/11 52/36/11 51/35/11
f 51/35/11 53/34/11 54/44/11
f 51/35/11 54/44/11 48/46/11
f 48/46/11 54/44/11 55/45/11
f 48/46/11 55/45/11 46/42/11
f 56/41/11 46/42/11 55/45/11
f 56/41/11 55/45/11 57/43/11
f 58/47/11 59/48/11 48/46/11
f 58/47/11 48/46/11 60/49/11
f 48/46/11 28/28/11 27/27/11
f 48/46/11 27/27/11 61/50/11
f 27/27/11 62/51/11 61/50/11
f 48/46/11 61/50/11 63/52/11
f 48/46/11 63/52/11 64/53/11
f 63/52/11 65/54/11 66/55/11
f 63/52/11 66/55/11 64/53/11
f 48/46/11 64/53/11 67/56/11
f 48/46/11 67/56/11 60/49/11
f 67/56/11 68/57/11 60/49/11
f 69/58/11 58/47/11 60/49/11
f 70/50/11 71/51/11 72/59/11
f 70/50/11 72/59/11 73/54/11
f 72/59/11 74/48/11 75/47/11
f 72/59/11 75/47/11 76/58/11
f 76/58/11 77/49/11 78/57/11
f 76/58/11 78/57/11 72/59/11
f 78/57/11 79/56/11 80/53/11
f 78/57/11 80/53/11 81/55/11
f 72/59/11 78/57/11 81/55/11
f 72/59/11 81/55/11 73/54/11
f 70/50/11 73/54/11 82/52/11
f 83/60/17 72/61/18 71/62/17
f 83/60/17 71/62/17 84/63/17
f 85/64/19 39/65/19 37/66/19
f 85/64/19 37/66/19 86/67/19
f 50/68/20 49/69/21 37/70/21
f 50/68/20 37/70/21 38/71/20
f 37/66/19 49/72/19 48/73/19
f 37/66/19 48/73/19 86/67/19
f 48/73/19 59/74/19 74/75/19
f 48/73/19 74/75/19 86/67/19
f 59/76/22 58/77/23 75/78/23
f 59/76/22 75/78/23 74/79/22
f 58/80/23 69/81/24 76/82/24
f 58/80/23 76/82/24 75/83/23
f 69/84/25 60/85/25 77/86/25
f 69/84/25 77/86/25 76/87/25
f 60/88/26 68/89/26 78/90/26
f 60/88/26 78/90/26 77/91/26
f 68/92/27 67/93/27 79/94/27
f 68/92/27 79/94/27 78/95/27
f 67/96/28 64/97/28 80/98/28
f 67/96/28 80/98/28 79/99/28
f 64/100/29 66/101/29 81/102/29
f 64/100/29 81/102/29 80/103/29
f 66/70/30 65/71/31 73/68/31
f 66/70/30 73/68/31 81/69/30
f 65/104/31 63/105/32 82/106/32
f 65/104/31 82/106/32 73/107/31
f 63/76/32 61/77/33 70/78/33
f 63/76/32 70/78/33 82/79/32
f 61/108/33 62/109/34 71/110/34
f 61/108/33 71/110/34 70/111/33
f 71/62/17 62/112/18 27/113/18
f 71/62/17 27/113/18 84/63/17
f 27/113/18 26/114/18 87/115/18
f 27/113/18 87/115/18 84/63/17
f 26/116/35 29/117/35 88/118/35
f 26/116/35 88/118/35 87/119/35
f 29/117/35 30/120/35 89/121/35
f 29/117/35 89/121/35 88/118/35
f 30/122/36 31/123/36 90/124/37
f 30/122/36 90/124/37 89/125/36
f 31/123/36 47/126/36 40/127/37
f 31/123/36 40/127/37 90/124/37
f 47/128/38 46/129/39 42/130/39
f 47/128/38 42/130/39 40/131/38
f 46/129/39 56/132/40 41/133/40
f 46/129/39 41/133/40 42/130/39
f 56/132/40 57/134/41 43/135/41
f 56/132/40 43/135/41 41/133/40
f 57/134/42 55/136/42 45/137/42
f 57/134/42 45/137/42 43/135/42
f 55/136/43 54/138/43 44/139/43
f 55/136/43 44/139/43 45/137/43
f 54/138/44 53/140/44 34/141/44
f 54/138/44 34/141/44 44/139/44
f 53/140/45 51/142/45 35/143/45
f 53/140/45 35/143/45 34/141/45
f 51/142/46 52/144/46 36/145/46
f 51/142/46 36/145/46 35/143/46
f 52/144/47 50/68/20 38/71/20
f 52/144/47 38/71/20 36/145/47
f 40/127/37 39/146/36 85/147/37
f 40/127/37 85/147/37 90/124/37
f 74/75/19 72/148/19 83/149/19
f 74/75/19 83/149/19 86/67/19
f 91/150/48 92/151/49 22/22/14
f 91/150/48 22/22/14 21/21/13
f 33/33/16 32/32/15 93/152/50
f 33/33/16 93/152/50 94/153/51
f 24/154/35 23/155/35 95/156/35
f 24/154/35 95/156/35 96/157/35
f 23/155/35 25/158/52 97/159/52
f 23/155/35 97/159/52 95/156/35
f 25/158/53 18/160/53 98/161/53
f 25/158/53 98/161/53 97/159/53
f 18/160/53 17/162/54 99/163/54
f 18/160/53 99/163/54 98/161/53
f 17/162/54 16/164/55 100/165/55
f 17/162/54 100/165/55 99/163/54
f 16/164/55 20/166/56 101/167/56
f 16/164/55 101/167/56 100/165/55
f 20/168/56 19/169/57 102/170/57
f 20/168/56 102/170/57 101/171/56
f 19/169/57 9/172/58 103/173/59
f 19/169/57 103/173/59 102/170/57
f 9/172/60 15/174/61 104/175/61
f 9/172/60 104/175/61 103/173/62
f 15/174/61 12/176/63 105/177/63
f 15/174/61 105/177/63 104/175/61
f 12/176/63 14/178/64 106/179/64
f 12/176/63 106/179/64 105/177/63
f 14/178/64 13/180/65 107/181/65
f 14/178/64 107/181/65 106/179/64
f 13/180/65 11/182/66 108/183/66
f 13/180/65 108/183/66 107/181/65
f 11/182/66 24/154/66 96/157/66
f 11/182/66 96/157/66 108/183/66
f 109/184/19 4/185/19 3/186/19
f 109/184/19 3/186/19 110/187/67
f 111/188/68 110/187/67 3/186/19
f 112/189/69 113/190/69 7/191/69
f 112/189/69 7/191/69 6/192/69
f 114/193/70 115/194/71 93/195/71
f 114/193/70 93/195/71 32/196/70
f 113/197/68 110/187/67 111/188/68
f 113/197/68 111/188/68 8/198/68
f 7/199/19 113/197/68 8/198/68
f 116/200/72 117/201/73 118/202/73
f 116/200/72 118/202/73 119/203/72
f 120/204/74 116/200/72 119/203/72
f 120/204/74 119/203/72 121/205/74
f 122/206/75 120/204/74 121/205/74
f 122/206/75 121/205/74 123/207/75
f 124/208/76 122/206/75 123/207/75
f 124/208/76 123/207/75 125/209/76
f 115/194/71 126/210/77 127/211/77
f 115/194/71 127/211/77 93/195/71
f 126/210/77 124/208/76 125/209/76
f 126/210/77 125/209/76 127/211/77
f 117/201/73 128/212/78 129/213/78
f 117/201/73 129/213/78 118/202/73
f 128/212/78 130/214/79 131/215/79
f 128/212/78 131/215/79 129/213/78
f 130/214/79 132/216/80 133/217/80
f 130/214/79 133/217/80 131/215/79
f 132/216/80 134/218/81 135/219/81
f 132/216/80 135/219/81 133/217/80
f 136/220/82 137/221/83 92/222/83
f 136/220/82 92/222/83 138/223/82
f 134/224/81 136/220/82 138/223/82
f 134/224/81 138/223/82 135/225/81
f 139/226/69 112/189/69 6/192/69
f 139/226/69 6/192/69 22/227/69
f 109/228/70 140/229/70 1/230/70
f 109/228/70 1/230/70 4/231/70
f 140/229/70 114/232/70 32/233/70
f 140/229/70 32/233/70 1/230/70
f 137/221/83 139/226/69 22/227/69
f 137/221/83 22/227/69 92/222/83
f 2/2/11 84/27/11 87/26/11
f 2/2/11 87/26/11 3/3/11
f 33/33/12 83/59/12 84/27/11
f 33/33/12 84/27/11 2/2/11
f 33/33/12 94/153/11 96/24/11
f 33/33/12 96/24/11 83/59/12
f 141/234/84 142/235/85 121/236/86
f 141/234/84 121/236/86 119/237/87
f 141/234/11 143/238/11 103/9/11
f 141/234/11 103/9/11 104/15/11
f 91/150/48 144/239/88 138/240/89
f 91/150/48 138/240/89 92/151/49
f 91/150/11 98/18/11 99/17/11
f 91/150/11 99/17/11 144/239/11
f 21/21/11 85/39/11 97/25/11
f 21/21/11 97/25/11 91/150/11
f 5/5/11 90/31/11 85/39/11
f 5/5/11 85/39/11 21/21/11
f 5/5/11 8/8/11 89/30/11
f 5/5/11 89/30/11 90/31/11
f 87/26/11 88/29/11 111/241/11
f 87/26/11 111/241/11 3/3/11
f 89/30/11 8/8/11 111/241/11
f 89/30/11 111/241/11 88/29/11
f 144/239/88 145/242/90 135/243/91
f 144/239/88 135/243/91 138/240/89
f 145/242/90 146/244/92 133/245/93
f 145/242/90 133/245/93 135/243/91
f 146/244/92 147/246/94 131/247/95
f 146/244/92 131/247/95 133/245/93
f 147/246/94 143/238/96 129/248/97
f 147/246/94 129/248/97 131/247/95
f 129/248/97 143/238/96 118/249/98
f 119/237/87 118/249/98 143/238/96
f 119/237/87 143/238/96 141/234/84
f 142/235/85 148/250/99 123/251/100
f 142/235/85 123/251/100 121/236/86
f 148/250/99 149/252/101 125/253/102
f 148/250/99 125/253/102 123/251/100
f 149/252/101 150/254/103 127/255/104
f 149/252/101 127/255/104 125/253/102
f 127/255/104 150/254/103 94/153/51
f 127/255/104 94/153/51 93/152/50
f 97/25/11 85/39/11 86/46/9
f 97/25/11 86/46/9 95/23/10
f 96/24/11 95/23/10 86/46/9
f 96/24/11 86/46/9 83/59/12
f 91/150/11 97/25/11 98/18/11
f 96/24/11 94/153/11 108/11/11
f 147/246/11 102/19/11 103/9/11
f 147/246/11 103/9/11 143/238/11
f 146/244/11 101/20/11 102/19/11
f 146/244/11 102/19/11 147/246/11
f 145/242/11 100/16/11 101/20/11
f 145/242/11 101/20/11 146/244/11
f 144/239/11 99/17/11 100/16/11
f 144/239/11 100/16/11 145/242/11
f 104/15/11 105/12/11 142/235/11
f 104/15/11 142/235/11 141/234/11
f 105/12/11 106/14/11 148/250/11
f 105/12/11 148/250/11 142/235/11
f 106/14/11 107/13/11 149/252/11
f 106/14/11 149/252/11 148/250/11
f 107/13/11 108/11/11 150/254/11
f 107/13/11 150/254/11 149/252/11
f 150/254/11 108/11/11 94/153/11
