v 93.550537 0.018471 22.264656
v 92.918747 0.000000 22.264656
v 93.550537 22.796173 22.264656
v 91.028244 6.994095 22.264656
v 87.326561 10.297760 22.264656
v 83.107712 12.506233 22.264656
v 83.107712 22.796173 22.264656
v 75.187180 6.994095 22.264656
v 74.412880 22.796173 22.264656
v 78.888870 10.297760 22.264656
v 74.412880 4.129478 22.264656
v 57.797504 7.102585 22.264656
v 56.053226 22.796173 22.264656
v 61.499187 10.667473 22.264656
v 55.854404 2.375206 22.264656
v 65.718048 22.796173 22.264656
v 65.718048 12.506233 22.264656
v 73.638573 6.994095 22.264656
v 69.936890 10.297760 22.264656
v 54.679184 5.089378 22.264656
v 51.961544 9.118217 22.264656
v 48.253204 11.633598 22.264656
v 45.912525 12.694298 22.264656
v 45.912525 22.796173 22.264656
v 44.024364 12.089943 22.264656
v 37.307724 22.796173 22.264656
v 39.980095 9.276436 22.264656
v 37.307724 5.868546 22.264656
v 34.830444 8.279892 22.264656
v 31.728804 10.907272 22.264656
v 28.627165 12.202652 22.264656
v 28.627165 22.796173 22.264656
v 25.054106 10.575554 22.264656
v 18.797573 22.796173 22.264656
v 21.481045 7.254585 22.264656
v 18.797573 1.779015 22.264656
v 15.814004 8.250656 22.264656
v 11.925104 10.961861 22.264656
v 8.941544 12.451927 22.264656
v 8.941544 22.796173 22.264656
v 6.319794 11.127014 22.264645
v -0.000257 22.796173 22.264656
v 3.004384 8.745354 22.264645
v -0.000006 5.797592 22.264645
v 93.550537 0.025314 20.799767
v 93.550537 22.796173 0.060405
v 93.550537 9.223045 3.943295
v 93.550537 12.015526 9.776686
v 93.550537 22.796173 9.776686
v 93.550537 9.223045 15.610065
v 93.550537 5.440125 1.026605
v 93.550537 5.440125 18.526756
v 93.550537 3.981705 0.060405
v 93.550537 0.018471 -22.264656
v 93.550537 22.796173 -22.264656
v 92.918747 0.000000 -22.264656
v 91.028244 6.994095 -22.264656
v 87.326561 10.297760 -22.264656
v 83.107712 22.796173 -22.264656
v 83.107712 12.506233 -22.264656
v 75.187180 6.994095 -22.264656
v 78.888870 10.297760 -22.264656
v 74.412880 22.796173 -22.264656
v 74.412880 4.129478 -22.264656
v 57.797504 7.102585 -22.264656
v 61.499187 10.667473 -22.264656
v 56.053226 22.796173 -22.264656
v 55.854404 2.375206 -22.264656
v 65.718048 12.506233 -22.264656
v 65.718048 22.796173 -22.264656
v 73.638573 6.994095 -22.264656
v 69.936890 10.297760 -22.264656
v 54.679184 5.089378 -22.264656
v 51.961544 9.118217 -22.264656
v 48.253204 11.633598 -22.264656
v 45.912525 22.796173 -22.264656
v 45.912525 12.694298 -22.264656
v 37.307724 22.796173 -22.264656
v 44.024364 12.089943 -22.264656
v 39.980095 9.276436 -22.264656
v 37.307724 5.868546 -22.264656
v 34.830444 8.279892 -22.264656
v 31.728804 10.907272 -22.264656
v 28.627165 22.796173 -22.264656
v 28.627165 12.202652 -22.264656
v 18.797573 22.796173 -22.264656
v 25.054106 10.575554 -22.264656
v 21.481045 7.254585 -22.264656
v 18.797573 1.779015 -22.264656
v 15.814004 8.250656 -22.264656
v 11.925104 10.961861 -22.264656
v 8.941544 22.796173 -22.264656
v 8.941544 12.451927 -22.264656
v -0.000006 22.796173 -22.264656
v 6.319794 11.127014 -22.264647
v 3.004384 8.745354 -22.264647
v 0.377224 5.797592 -22.264647
v 93.550537 0.025314 -20.410366
v 93.550537 12.015526 -9.655876
v 93.550537 9.223045 -3.822495
v 93.550537 22.796173 -9.655876
v 93.550537 9.223045 -15.489265
v 93.550537 5.440125 -0.905805
v 93.550537 5.440125 -18.405956
v -93.550537 0.018471 22.264656
v -93.550537 22.796173 22.264656
v -92.918762 0.000000 22.264656
v -90.462570 6.994095 22.264656
v -87.326591 10.297760 22.264656
v -83.107735 22.796173 22.264656
v -83.107735 12.506233 22.264656
v -75.187195 6.994095 22.264656
v -78.888870 10.297760 22.264656
v -74.412903 22.796173 22.264656
v -74.412903 4.129478 22.264656
v -57.797523 7.102585 22.264656
v -61.499199 10.667473 22.264656
v -56.053238 22.796173 22.264656
v -55.137844 2.375206 22.264656
v -65.718056 12.506233 22.264656
v -65.718056 22.796173 22.264656
v -73.015846 6.994095 22.264656
v -69.936920 10.297760 22.264656
v -54.333889 5.089378 22.264656
v -51.729988 9.118217 22.264656
v -48.253223 11.633598 22.264656
v -45.912544 22.796173 22.264656
v -45.912544 12.694298 22.264656
v -37.307735 22.796173 22.264656
v -44.024376 12.089943 22.264656
v -39.980106 9.276436 22.264656
v -36.606190 5.868546 22.264656
v -34.830456 8.279892 22.264656
v -31.728809 10.907272 22.264656
v -28.627178 22.796173 22.264656
v -28.627178 12.202652 22.264656
v -18.797586 22.796173 22.264656
v -25.054115 10.575554 22.264656
v -21.481056 7.254585 22.264656
v -18.236755 1.779015 22.264656
v -15.331457 8.250656 22.264656
v -11.925127 10.961861 22.264656
v -8.941556 22.796173 22.264656
v -8.941556 12.451927 22.264656
v -6.319817 11.127014 22.264645
v -3.004406 8.745354 22.264645
v -93.550537 0.025314 20.799767
v -93.550537 12.015526 9.776686
v -93.550537 9.223045 3.943295
v -93.550537 22.796173 0.060405
v -93.550537 22.796173 9.776686
v -93.550537 9.223045 15.610065
v -93.550537 5.440125 1.026605
v -93.550537 5.440125 18.526756
v -93.550537 3.981705 0.060405
v -93.550537 0.018471 -22.264656
v -92.918762 0.000000 -22.264656
v -93.550537 22.796173 -22.264656
v -90.563530 6.994095 -22.264656
v -87.326591 10.297760 -22.264656
v -83.107735 12.506233 -22.264656
v -83.107735 22.796173 -22.264656
v -75.187195 6.994095 -22.264656
v -74.412903 22.796173 -22.264656
v -78.888870 10.297760 -22.264656
v -74.412903 4.129478 -22.264656
v -57.797523 7.102585 -22.264656
v -56.053238 22.796173 -22.264656
v -61.499199 10.667473 -22.264656
v -55.225563 2.375206 -22.264656
v -65.718056 22.796173 -22.264656
v -65.718056 12.506233 -22.264656
v -72.899536 6.994095 -22.264656
v -69.936920 10.297760 -22.264656
v -54.372269 5.089378 -22.264656
v -51.752346 9.118217 -22.264656
v -48.253223 11.633598 -22.264656
v -45.912544 12.694298 -22.264656
v -45.912544 22.796173 -22.264656
v -44.024376 12.089943 -22.264656
v -37.307735 22.796173 -22.264656
v -39.980106 9.276436 -22.264656
v -36.589626 5.868546 -22.264656
v -34.830456 8.279892 -22.264656
v -31.728809 10.907272 -22.264656
v -28.627178 12.202652 -22.264656
v -28.627178 22.796173 -22.264656
v -25.054115 10.575554 -22.264656
v -18.797586 22.796173 -22.264656
v -21.481056 7.254585 -22.264656
v -18.374067 1.779015 -22.264656
v -15.352528 8.250656 -22.264656
v -11.925127 10.961861 -22.264656
v -8.941556 12.451927 -22.264656
v -8.941556 22.796173 -22.264656
v -6.319817 11.127014 -22.264647
v -3.004406 8.745354 -22.264647
v -93.550537 0.025314 -20.410366
v -93.550537 9.223045 -3.822495
v -93.550537 12.015526 -9.655876
v -93.550537 22.796173 -9.655876
v -93.550537 9.223045 -15.489265
v -93.550537 5.440125 -0.905805
v -93.550537 5.440125 -18.405956
vt -0.088300 0.445200
vt -0.057000 0.446100
vt -0.088300 -0.681400
vt 0.036500 0.100200
vt 0.219600 -0.063200
vt 0.428200 -0.172500
vt 0.428200 -0.681400
vt 0.820000 0.100200
vt 0.858300 -0.681400
vt 0.636900 -0.063200
vt 0.858300 0.241900
vt 1.680100 0.094800
vt 1.766400 -0.681400
vt 1.497000 -0.081500
vt 1.776200 0.328600
vt 1.288300 -0.681400
vt 1.288300 -0.172500
vt 0.896600 0.100200
vt 1.079700 -0.063200
vt 1.834300 0.194400
vt 1.968800 -0.004900
vt 2.152200 -0.129300
vt 2.268000 -0.181800
vt 2.268000 -0.681400
vt 2.361300 -0.151900
vt 2.693600 -0.681400
vt 2.561400 -0.012700
vt 2.693600 0.155800
vt 2.816100 0.036600
vt 2.969500 -0.093400
vt 3.122900 -0.157500
vt 3.122900 -0.681400
vt 3.299600 -0.077000
vt 3.609100 -0.681400
vt 3.476400 0.087300
vt 3.609100 0.358100
vt 3.756700 0.038000
vt 3.949000 -0.096100
vt 4.096600 -0.169800
vt 4.096600 -0.681400
vt 4.226300 -0.104200
vt 4.529300 -0.681400
vt 4.390300 0.013600
vt 4.529300 0.155600
vt 22.723301 0.445200
vt 22.723301 -0.681400
vt 22.673401 0.444900
vt 21.647600 -0.681400
vt 21.839600 -0.010100
vt 22.128201 -0.148200
vt 22.128201 -0.681400
vt 22.416700 -0.010100
vt 21.695400 0.177000
vt 22.560900 0.177000
vt 21.647600 0.249200
vt 20.571800 0.445200
vt 20.571800 -0.681400
vt 20.540600 0.446100
vt 20.447100 0.100200
vt 20.264000 -0.063200
vt 20.055300 -0.681400
vt 20.055300 -0.172500
vt 19.663500 0.100200
vt 19.846600 -0.063200
vt 19.625200 -0.681400
vt 19.625200 0.241900
vt 18.803400 0.094800
vt 18.986500 -0.081500
vt 18.717199 -0.681400
vt 18.707300 0.328600
vt 19.195200 -0.172500
vt 19.195200 -0.681400
vt 19.587000 0.100200
vt 19.403900 -0.063200
vt 18.649200 0.194400
vt 18.514799 -0.004900
vt 18.331400 -0.129300
vt 18.215599 -0.681400
vt 18.215599 -0.181800
vt 17.790001 -0.681400
vt 18.122200 -0.151900
vt 17.922100 -0.012700
vt 17.790001 0.155800
vt 17.667400 0.036600
vt 17.514000 -0.093400
vt 17.360600 -0.681400
vt 17.360600 -0.157500
vt 16.874399 -0.681400
vt 17.183901 -0.077000
vt 17.007200 0.087300
vt 16.874399 0.358100
vt 16.726900 0.038000
vt 16.534500 -0.096100
vt 16.386900 -0.681400
vt 16.386900 -0.169800
vt 15.954200 -0.681400
vt 16.257299 -0.104200
vt 16.093300 0.013600
vt 15.972200 0.155400
vt 20.635099 0.444900
vt 21.167000 -0.148200
vt 21.455500 -0.010100
vt 21.167000 -0.681400
vt 20.878500 -0.010100
vt 21.599800 0.177000
vt 20.734200 0.177000
vt 0.064400 0.100200
vt 1.811700 0.328600
vt 0.927400 0.100200
vt 1.851400 0.194400
vt 1.980200 -0.004900
vt 2.728300 0.155800
vt 3.636800 0.358100
vt 3.780500 0.038000
vt 20.424101 0.100200
vt 18.676201 0.328600
vt 19.550400 0.100200
vt 18.634001 0.194400
vt 18.504400 -0.004900
vt 17.754499 0.155800
vt 16.853500 0.358100
vt 16.704000 0.038000
vt 15.936700 0.155600
vn 0.000000 0.000000 -1.000000
vn -0.000000 0.000000 -1.000000
vn -1.000000 0.000000 -0.000000
vn 0.000000 0.000000 1.000000
vn -0.000000 0.000000 1.000000
vn 1.000000 0.000000 -0.000000
usemtl sponza/bricks
f 1/1/1 2/2/1 3/3/1
f 4/4/1 5/5/1 3/3/1
f 2/2/1 4/4/1 3/3/1
f 5/5/1 6/6/1 7/7/1
f 5/5/1 7/7/1 3/3/1
f 8/8/1 9/9/1 10/10/2
f 7/7/1 6/6/1 10/10/2
f 7/7/1 10/10/2 9/9/1
f 9/9/1 8/8/1 11/11/1
f 12/12/1 13/13/1 14/14/2
f 15/15/1 13/13/1 12/12/1
f 16/16/1 17/17/1 14/14/2
f 16/16/1 14/14/2 13/13/1
f 18/18/1 19/19/1 9/9/1
f 19/19/1 17/17/1 16/16/1
f 19/19/1 16/16/1 9/9/1
f 11/11/1 18/18/1 9/9/1
f 15/15/1 20/20/1 13/13/1
f 21/21/1 22/22/1 13/13/1
f 20/20/1 21/21/1 13/13/1
f 22/22/1 23/23/1 24/24/1
f 22/22/1 24/24/1 13/13/1
f 24/24/1 23/23/1 25/25/1
f 24/24/1 25/25/1 26/26/1
f 25/25/1 27/27/1 26/26/1
f 27/27/1 28/28/1 26/26/1
f 28/28/1 29/29/1 26/26/1
f 29/29/1 30/30/1 26/26/1
f 30/30/1 31/31/2 32/32/2
f 30/30/1 32/32/2 26/26/1
f 32/32/2 31/31/2 33/33/2
f 32/32/2 33/33/2 34/34/1
f 35/35/2 36/36/1 34/34/1
f 33/33/2 35/35/2 34/34/1
f 36/36/1 37/37/1 34/34/1
f 38/38/1 39/39/1 40/40/1
f 38/38/1 40/40/1 34/34/1
f 37/37/1 38/38/1 34/34/1
f 40/40/1 39/39/1 41/41/1
f 40/40/1 41/41/1 42/42/2
f 43/43/1 44/44/1 42/42/2
f 41/41/1 43/43/1 42/42/2
f 1/45/3 3/46/3 45/47/3
f 46/48/3 47/49/3 48/50/3
f 46/48/3 48/50/3 49/51/3
f 49/51/3 48/50/3 50/52/3
f 49/51/3 50/52/3 3/46/3
f 46/48/3 51/53/3 47/49/3
f 3/46/3 50/52/3 52/54/3
f 46/48/3 53/55/3 51/53/3
f 3/46/3 52/54/3 45/47/3
f 54/56/4 55/57/4 56/58/4
f 57/59/4 55/57/4 58/60/4
f 56/58/4 55/57/4 57/59/4
f 59/61/5 60/62/4 58/60/4
f 59/61/5 58/60/4 55/57/4
f 61/63/4 62/64/5 63/65/4
f 62/64/5 60/62/4 59/61/5
f 62/64/5 59/61/5 63/65/4
f 63/65/4 64/66/4 61/63/4
f 65/67/4 66/68/5 67/69/4
f 68/70/4 65/67/4 67/69/4
f 66/68/5 69/71/4 70/72/4
f 66/68/5 70/72/4 67/69/4
f 71/73/4 63/65/4 72/74/4
f 70/72/4 69/71/4 72/74/4
f 70/72/4 72/74/4 63/65/4
f 64/66/4 63/65/4 71/73/4
f 68/70/4 67/69/4 73/75/4
f 74/76/4 67/69/4 75/77/4
f 73/75/4 67/69/4 74/76/4
f 75/77/4 67/69/4 76/78/4
f 75/77/4 76/78/4 77/79/4
f 76/78/4 78/80/4 79/81/4
f 76/78/4 79/81/4 77/79/4
f 79/81/4 78/80/4 80/82/4
f 80/82/4 78/80/4 81/83/4
f 81/83/4 78/80/4 82/84/4
f 82/84/4 78/80/4 83/85/4
f 83/85/4 78/80/4 84/86/5
f 83/85/4 84/86/5 85/87/5
f 84/86/5 86/88/4 87/89/5
f 84/86/5 87/89/5 85/87/5
f 88/90/4 86/88/4 89/91/4
f 87/89/5 86/88/4 88/90/4
f 89/91/4 86/88/4 90/92/4
f 91/93/4 86/88/4 92/94/4
f 91/93/4 92/94/4 93/95/4
f 90/92/4 86/88/4 91/93/4
f 92/94/4 94/96/4 95/97/4
f 92/94/4 95/97/4 93/95/4
f 96/98/5 94/96/4 97/99/5
f 95/97/4 94/96/4 96/98/5
f 54/56/3 98/100/3 55/57/3
f 99/101/3 100/102/3 46/48/3
f 99/101/3 46/48/3 101/103/3
f 102/104/3 99/101/3 101/103/3
f 102/104/3 101/103/3 55/57/3
f 100/102/3 103/105/3 46/48/3
f 55/57/3 104/106/3 102/104/3
f 103/105/3 53/55/3 46/48/3
f 55/57/3 98/100/3 104/106/3
f 105/1/1 106/3/1 107/2/1
f 108/107/1 106/3/1 109/5/2
f 107/2/1 106/3/1 108/107/1
f 110/7/2 111/6/2 109/5/2
f 110/7/2 109/5/2 106/3/1
f 112/8/1 113/10/1 114/9/1
f 113/10/1 111/6/2 110/7/2
f 113/10/1 110/7/2 114/9/1
f 114/9/1 115/11/1 112/8/1
f 116/12/1 117/14/1 118/13/1
f 119/108/1 116/12/1 118/13/1
f 117/14/1 120/17/2 121/16/2
f 117/14/1 121/16/2 118/13/1
f 122/109/1 114/9/1 123/19/2
f 121/16/2 120/17/2 123/19/2
f 121/16/2 123/19/2 114/9/1
f 115/11/1 114/9/1 122/109/1
f 119/108/1 118/13/1 124/110/1
f 125/111/1 118/13/1 126/22/1
f 124/110/1 118/13/1 125/111/1
f 126/22/1 118/13/1 127/24/1
f 126/22/1 127/24/1 128/23/1
f 127/24/1 129/26/2 130/25/1
f 127/24/1 130/25/1 128/23/1
f 130/25/1 129/26/2 131/27/2
f 131/27/2 129/26/2 132/112/2
f 132/112/2 129/26/2 133/29/2
f 133/29/2 129/26/2 134/30/2
f 134/30/2 129/26/2 135/32/1
f 134/30/2 135/32/1 136/31/1
f 135/32/1 137/34/2 138/33/1
f 135/32/1 138/33/1 136/31/1
f 139/35/1 137/34/2 140/113/2
f 138/33/1 137/34/2 139/35/1
f 140/113/2 137/34/2 141/114/2
f 142/38/2 137/34/2 143/40/2
f 142/38/2 143/40/2 144/39/2
f 141/114/2 137/34/2 142/38/2
f 143/40/2 42/42/2 145/41/2
f 143/40/2 145/41/2 144/39/2
f 146/43/2 42/42/2 44/44/1
f 145/41/2 42/42/2 146/43/2
f 105/45/6 147/47/6 106/46/6
f 148/50/6 149/49/6 150/48/6
f 148/50/6 150/48/6 151/51/6
f 152/52/6 148/50/6 151/51/6
f 152/52/6 151/51/6 106/46/6
f 150/48/6 149/49/6 153/53/6
f 106/46/6 154/54/6 152/52/6
f 150/48/6 153/53/6 155/55/6
f 106/46/6 147/47/6 154/54/6
f 156/56/4 157/58/4 158/57/4
f 159/115/4 160/60/5 158/57/4
f 157/58/4 159/115/4 158/57/4
f 160/60/5 161/62/5 162/61/5
f 160/60/5 162/61/5 158/57/4
f 163/63/4 164/65/4 165/64/4
f 162/61/5 161/62/5 165/64/4
f 162/61/5 165/64/4 164/65/4
f 164/65/4 163/63/4 166/66/4
f 167/67/4 168/69/4 169/68/4
f 170/116/4 168/69/4 167/67/4
f 171/72/5 172/71/5 169/68/4
f 171/72/5 169/68/4 168/69/4
f 173/117/4 174/74/5 164/65/4
f 174/74/5 172/71/5 171/72/5
f 174/74/5 171/72/5 164/65/4
f 166/66/4 173/117/4 164/65/4
f 170/116/4 175/118/4 168/69/4
f 176/119/4 177/77/4 168/69/4
f 175/118/4 176/119/4 168/69/4
f 177/77/4 178/79/4 179/78/4
f 177/77/4 179/78/4 168/69/4
f 179/78/4 178/79/4 180/81/4
f 179/78/4 180/81/4 181/80/5
f 180/81/4 182/82/5 181/80/5
f 182/82/5 183/120/5 181/80/5
f 183/120/5 184/84/5 181/80/5
f 184/84/5 185/85/5 181/80/5
f 185/85/5 186/87/4 187/86/4
f 185/85/5 187/86/4 181/80/5
f 187/86/4 186/87/4 188/89/4
f 187/86/4 188/89/4 189/88/5
f 190/90/5 191/121/5 189/88/5
f 188/89/4 190/90/5 189/88/5
f 191/121/5 192/122/5 189/88/5
f 193/93/5 194/95/5 195/94/5
f 193/93/5 195/94/5 189/88/5
f 192/122/5 193/93/5 189/88/5
f 195/94/5 194/95/5 196/97/5
f 195/94/5 196/97/5 94/96/4
f 197/98/4 97/123/5 94/96/4
f 196/97/5 197/98/4 94/96/4
f 156/56/6 158/57/6 198/100/6
f 150/48/6 199/102/6 200/101/6
f 150/48/6 200/101/6 201/103/6
f 201/103/6 200/101/6 202/104/6
f 201/103/6 202/104/6 158/57/6
f 199/102/6 150/48/6 203/105/6
f 158/57/6 202/104/6 204/106/6
f 203/105/6 150/48/6 155/55/6
f 158/57/6 204/106/6 198/100/6
