v 2.320835 0.386869 0.169811
v 2.383995 1.033310 0.087624
v 2.383995 1.033310 0.780792
v 2.320835 0.386869 0.780792
v -2.328171 1.033310 0.018982
v 2.328167 1.033310 0.018982
v 2.261211 0.386869 0.096615
v -2.261269 0.386869 0.096615
v -2.811638 2.623331 -0.576256
v -2.808777 3.059641 -0.576256
v 2.808750 3.059641 -0.576256
v 2.811630 2.623331 -0.576256
v -2.868668 2.623331 0.780792
v -2.868668 3.059641 0.780792
v -2.868668 3.059641 -0.502705
v -2.868668 2.623331 -0.506237
v 2.274456 0.000000 0.228138
v 2.453251 0.193430 0.015755
v 2.453251 0.193430 0.780792
v 2.274456 0.000000 0.780792
v -2.386658 0.193430 -0.066059
v 2.386654 0.193430 -0.066059
v 2.213730 0.000000 0.153545
v -2.213791 0.000000 0.153545
v 2.868595 3.059641 -0.502705
v 3.035160 3.277790 -0.699474
v 3.035160 3.277790 0.780792
v 2.868595 3.059641 0.780792
v -2.968964 3.277790 -0.780796
v 2.968929 3.277790 -0.780796
v 2.868595 3.495951 -0.494934
v 2.868595 3.495951 0.780792
v -2.802429 3.495951 -0.576256
v 2.802422 3.495951 -0.576256
v 2.598015 1.933201 -0.172466
v 2.868595 2.623331 -0.506237
v 2.868595 2.623331 0.780792
v 2.598015 1.933201 0.780792
v 2.539883 1.933201 -0.243855
v -2.539886 1.933201 -0.243855
v -2.320839 0.386869 0.169811
v -2.384064 1.033310 0.087624
v -2.453255 0.193430 0.015755
v -2.274475 0.000000 0.228138
v -3.035164 3.277790 -0.699474
v -2.868668 3.495951 -0.494934
v -2.598038 1.933201 -0.172466
v -2.868668 3.495951 0.780792
v -2.384064 1.033310 0.780792
v -2.320839 0.386869 0.780792
v -2.453255 0.193430 0.780792
v -2.274529 0.000000 0.780792
v -3.035164 3.277790 0.780792
v -2.598038 1.933201 0.780792
vt 0.550400 0.888100
vt 0.552600 0.908400
vt 0.533700 0.908400
vt 0.533700 0.888100
vt 0.761400 0.910000
vt 0.605300 0.910000
vt 0.607600 0.889700
vt 0.759200 0.889700
vt 0.777600 0.960000
vt 0.777500 0.973700
vt 0.589200 0.973700
vt 0.589100 0.960000
vt 0.828700 0.959600
vt 0.828700 0.973300
vt 0.793700 0.973300
vt 0.793600 0.959600
vt 0.986500 0.767200
vt 0.995900 0.779100
vt 0.963200 0.779100
vt 0.961900 0.767200
vt 0.252400 0.779000
vt 0.011100 0.779000
vt 0.011200 0.767200
vt 0.252500 0.767200
vt 0.533700 0.882000
vt 0.554600 0.882000
vt 0.603400 0.883600
vt 0.763400 0.883600
vt 0.568700 0.972100
vt 0.574100 0.979000
vt 0.533700 0.979000
vt 0.533700 0.972100
vt 0.782900 0.980600
vt 0.583900 0.980600
vt 0.568500 0.985900
vt 0.533700 0.985900
vt 0.777300 0.987500
vt 0.589400 0.987500
vt 0.559700 0.936700
vt 0.568800 0.958400
vt 0.533700 0.958400
vt 0.533700 0.936700
vt 0.598200 0.938300
vt 0.768500 0.938300
vt 0.602800 0.909400
vt 0.605000 0.890700
vt 0.809500 0.890200
vt 0.812100 0.889200
vt 0.809800 0.909600
vt 0.807300 0.909000
vt 0.586700 0.972600
vt 0.586500 0.959300
vt 0.791200 0.972100
vt 0.791000 0.958900
vt 0.600700 0.886200
vt 0.805200 0.885700
vt 0.807900 0.883200
vt 0.007800 0.778900
vt 0.007900 0.767200
vt 0.255900 0.779000
vt 0.255800 0.767200
vt 0.581500 0.980600
vt 0.788400 0.980100
vt 0.786000 0.980100
vt 0.587100 0.990000
vt 0.793900 0.987000
vt 0.791600 0.989600
vt 0.595700 0.937200
vt 0.800200 0.936700
vt 0.802700 0.937900
vt 0.009100 0.897600
vt 0.009100 0.876000
vt 0.010900 0.874600
vt 0.167400 0.876000
vt 0.165500 0.874600
vt 0.167400 0.897600
vt 0.828700 0.909600
vt 0.828700 0.889200
vt 0.287400 0.779000
vt 0.280300 0.767200
vt 0.828700 0.883200
vt 0.828700 0.980100
vt 0.828700 0.987000
vt 0.828700 0.937900
vt 0.277300 0.674200
vt 0.277300 0.691100
vt 0.447600 0.691100
vt 0.447600 0.674200
vt 0.445300 0.693300
vt 0.279500 0.693300
vn 0.995300 -0.097200 -0.000000
vn 0.984900 -0.172900 -0.000000
vn 0.986300 -0.164700 -0.000000
vn 0.000000 -0.208500 -0.978000
vn 0.000000 -0.119200 -0.992900
vn 0.000000 0.000000 -1.000000
vn -1.000000 0.000000 -0.000000
vn 0.734300 -0.678800 -0.000000
vn 0.000000 -0.750400 -0.661000
vn 0.825200 0.564900 -0.000000
vn 0.000000 0.643600 -0.765400
vn 0.794800 -0.606900 -0.000000
vn 0.000000 -0.684000 -0.729500
vn 0.794800 0.606900 -0.000000
vn 0.000000 0.684000 -0.729500
vn 0.949700 -0.313100 -0.000000
vn 0.931000 -0.365000 -0.000000
vn 0.954300 -0.298900 -0.000000
vn 0.000000 -0.433900 -0.900900
vn 0.000000 -0.371600 -0.928400
vn 0.766100 -0.154200 -0.623900
vn 0.750400 -0.253600 -0.610500
vn 0.751600 -0.247300 -0.611500
vn 0.766100 -0.154200 -0.624000
vn -0.766300 -0.154200 -0.623700
vn -0.766300 -0.154300 -0.623600
vn -0.751300 -0.247300 -0.611900
vn -0.750000 -0.253500 -0.610900
vn 0.775700 0.005100 -0.631000
vn 0.775700 0.005100 -0.631100
vn -0.775400 0.005100 -0.631500
vn -0.775400 0.005100 -0.631400
vn -0.775300 0.005100 -0.631500
vn 0.539100 0.718700 -0.439000
vn 0.539100 0.718700 -0.439100
vn 0.539200 0.718800 -0.439000
vn 0.539200 0.718800 -0.438900
vn -0.539300 0.718700 -0.438900
vn -0.539200 0.718700 -0.439000
vn 0.448600 -0.815700 -0.365200
vn -0.448700 -0.815700 -0.365200
vn -0.448700 -0.815700 -0.365300
vn 0.506000 -0.757800 -0.411800
vn 0.505900 -0.757800 -0.412100
vn 0.505900 -0.757800 -0.412000
vn 0.506100 -0.757800 -0.411800
vn -0.506000 -0.757800 -0.412000
vn 0.500300 0.764000 -0.407500
vn 0.500300 0.763900 -0.407500
vn 0.500500 0.764000 -0.407300
vn 0.500500 0.764000 -0.407200
vn -0.500400 0.764000 -0.407400
vn -0.500300 0.763900 -0.407500
vn 0.696600 -0.439500 -0.567100
vn 0.662400 -0.520400 -0.538900
vn 0.700300 -0.429400 -0.570200
vn -0.696400 -0.439500 -0.567300
vn -0.700200 -0.429400 -0.570400
vn -0.662100 -0.520400 -0.539300
vn 0.000000 1.000000 -0.000000
vn -0.986300 -0.164700 -0.000000
vn -0.984900 -0.172900 -0.000000
vn -0.995200 -0.097400 -0.000000
vn -0.995300 -0.097400 -0.000000
vn 1.000000 0.000000 -0.000000
vn -0.734400 -0.678700 -0.000000
vn -0.734400 -0.678800 -0.000000
vn -0.734500 -0.678700 -0.000100
vn -0.825200 0.564900 -0.000000
vn -0.794900 -0.606700 -0.000000
vn -0.794900 0.606700 -0.000000
vn -0.931000 -0.365100 -0.000000
vn -0.949700 -0.313100 -0.000000
vn -0.954300 -0.298900 -0.000000
vn 0.000000 -1.000000 -0.000000
f 1/1/1 2/2/2 3/3/3
f 1/1/1 3/3/3 4/4/1
f 5/5/4 6/6/4 7/7/5
f 5/5/4 7/7/5 8/8/5
f 9/9/6 10/10/6 11/11/6
f 9/9/6 11/11/6 12/12/6
f 13/13/7 14/14/7 15/15/7
f 13/13/7 15/15/7 16/16/7
f 17/17/8 18/18/8 19/19/8
f 17/17/8 19/19/8 20/20/8
f 21/21/9 22/22/9 23/23/9
f 21/21/9 23/23/9 24/24/9
f 1/1/10 4/4/10 19/25/10
f 1/1/10 19/25/10 18/26/10
f 8/8/11 7/7/11 22/27/11
f 8/8/11 22/27/11 21/28/11
f 25/29/12 26/30/12 27/31/12
f 25/29/12 27/31/12 28/32/12
f 29/33/13 30/34/13 11/11/13
f 29/33/13 11/11/13 10/10/13
f 31/35/14 32/36/14 27/31/14
f 31/35/14 27/31/14 26/30/14
f 33/37/15 34/38/15 30/34/15
f 33/37/15 30/34/15 29/33/15
f 35/39/16 36/40/17 37/41/17
f 35/39/16 37/41/17 38/42/18
f 9/9/19 12/12/19 39/43/20
f 9/9/19 39/43/20 40/44/20
f 2/2/2 35/39/16 38/42/18
f 2/2/2 38/42/18 3/3/3
f 40/44/20 39/43/20 6/6/4
f 40/44/20 6/6/4 5/5/4
f 7/7/21 6/6/22 2/45/23
f 7/7/21 2/45/23 1/46/24
f 8/47/25 41/48/26 42/49/27
f 8/47/25 42/49/27 5/50/28
f 12/12/29 11/11/30 25/51/30
f 12/12/29 25/51/30 36/52/29
f 16/16/31 15/15/32 10/53/31
f 16/16/31 10/53/31 9/54/33
f 7/7/34 1/46/35 18/55/36
f 7/7/34 18/55/36 22/27/37
f 8/47/38 21/56/39 43/57/39
f 8/47/38 43/57/39 41/48/38
f 18/58/40 17/59/40 23/23/40
f 18/58/40 23/23/40 22/22/40
f 43/60/41 21/21/42 24/24/41
f 43/60/41 24/24/41 44/61/41
f 11/11/43 30/34/44 26/62/45
f 11/11/43 26/62/45 25/51/46
f 10/53/47 15/15/47 45/63/47
f 10/53/47 45/63/47 29/64/47
f 26/62/48 30/34/49 34/38/50
f 26/62/48 34/38/50 31/65/51
f 45/63/52 46/66/53 33/67/53
f 45/63/52 33/67/53 29/64/52
f 39/43/54 12/12/55 36/52/55
f 39/43/54 36/52/55 35/68/56
f 40/69/57 47/70/58 16/16/59
f 40/69/57 16/16/59 9/54/59
f 6/6/22 39/43/54 35/68/56
f 6/6/22 35/68/56 2/45/23
f 5/50/28 42/49/27 47/70/58
f 5/50/28 47/70/58 40/69/57
f 32/71/60 31/72/60 34/73/60
f 32/71/60 34/73/60 46/74/60
f 34/73/60 33/75/60 46/74/60
f 48/76/60 32/71/60 46/74/60
f 49/77/61 42/49/62 41/48/63
f 49/77/61 41/48/63 50/78/64
f 37/41/65 36/40/65 25/29/65
f 37/41/65 25/29/65 28/32/65
f 51/79/66 43/60/67 44/61/66
f 51/79/66 44/61/66 52/80/68
f 51/81/69 50/78/69 41/48/69
f 51/81/69 41/48/69 43/57/69
f 53/82/70 45/63/70 15/15/70
f 53/82/70 15/15/70 14/14/70
f 53/82/71 48/83/71 46/66/71
f 53/82/71 46/66/71 45/63/71
f 13/13/72 16/16/72 47/70/73
f 13/13/72 47/70/73 54/84/74
f 54/84/74 47/70/73 42/49/62
f 54/84/74 42/49/62 49/77/61
f 52/85/75 44/86/75 17/87/75
f 52/85/75 17/87/75 20/88/75
f 23/89/75 17/87/75 44/86/75
f 23/89/75 44/86/75 24/90/75
