v 3.442731 18.818298 -3.523550
v -3.442719 18.818298 -3.523550
v -3.524030 18.818298 -3.442230
v 3.524050 18.818298 3.442240
v -3.524030 18.818298 3.442240
v -3.442719 18.818298 3.523550
v 3.442731 18.818298 3.523550
v 3.524050 18.818298 -3.442230
v -2.726970 1.320248 -2.793749
v -2.719550 15.322350 -2.793749
v 2.719561 15.322350 -2.793749
v 2.726991 1.320248 -2.793749
v -2.794129 1.320248 2.726589
v -2.794129 15.322350 2.719168
v -2.794129 15.322350 -2.719162
v -2.794129 1.320248 -2.726580
v 2.726991 1.320248 2.793760
v 2.719561 15.322350 2.793760
v -2.719550 15.322350 2.793760
v -2.726970 1.320248 2.793760
v 2.794150 1.320248 -2.726580
v 2.794150 15.322350 -2.719162
v 2.794150 15.322350 2.719168
v 2.794150 1.320248 2.726589
v -2.860080 16.355652 -2.928301
v 2.860091 16.355659 -2.928301
v 2.777880 15.709206 -2.850679
v -2.777869 15.709206 -2.850679
v -2.928720 16.355652 2.859678
v -2.928720 16.355652 -2.859671
v -2.851080 15.709206 -2.777481
v -2.851080 15.709206 2.777489
v 2.860091 16.355652 2.928308
v -2.860080 16.355652 2.928308
v -2.777869 15.709206 2.850689
v 2.777880 15.709206 2.850689
v 2.928741 16.355659 -2.859671
v 2.928741 16.355652 2.859678
v 2.851090 15.709206 2.777489
v 2.851090 15.709206 -2.777481
v -3.454009 17.945679 -3.523550
v -3.450500 18.381981 -3.523550
v 3.450510 18.381981 -3.523550
v 3.454041 17.945679 -3.523550
v -3.524030 17.945679 3.453539
v -3.524030 18.381981 3.450010
v -3.524030 18.381981 -3.449999
v -3.524030 17.945679 -3.453531
v 3.454041 17.945679 3.523550
v 3.450510 18.381981 3.523550
v -3.450500 18.381981 3.523550
v -3.454009 17.945679 3.523550
v 3.524050 17.945679 -3.453531
v 3.524050 18.381981 -3.449999
v 3.524050 18.381981 3.450010
v 3.524050 17.945679 3.453539
v -2.931960 15.515778 -3.013351
v 2.931971 15.515778 -3.013351
v -3.013770 15.515778 2.931540
v -3.013770 15.515778 -2.931540
v 2.931971 15.515778 3.013350
v -2.931960 15.515778 3.013350
v 3.013781 15.515778 -2.931540
v 3.013781 15.515778 2.931540
v -3.647280 18.600136 -3.728090
v 3.647302 18.600136 -3.728090
v -3.728610 18.600136 3.646780
v -3.728610 18.600136 -3.646770
v 3.647302 18.600136 3.728088
v -3.647280 18.600136 3.728088
v 3.728611 18.600136 -3.646770
v 3.728611 18.600136 3.646780
v 3.120211 17.255554 -3.191149
v -3.120200 17.255554 -3.191149
v -3.191589 17.255554 -3.119761
v -3.191589 17.255554 3.119759
v -3.120200 17.255554 3.191160
v 3.120211 17.255554 3.191160
v 3.191621 17.255554 3.119759
v 3.191621 17.255554 -3.119761
v 2.855730 1.162441 2.786730
v 3.549581 0.470089 3.463820
v 3.549581 0.470089 -3.463812
v 2.855730 1.162441 -2.786722
v 2.787131 1.162441 2.855330
v 3.464321 0.470089 3.549078
v -2.787109 1.162441 2.855330
v -3.464299 0.470089 3.549078
v -2.855720 1.162441 2.786730
v -3.549569 0.470089 3.463820
v -2.855720 1.162441 -2.786722
v -3.549569 0.470089 -3.463812
v -2.787109 1.162441 -2.855322
v -3.464299 0.470089 -3.549082
v 2.787131 1.162441 -2.855322
v 3.464321 0.470089 -3.549082
v 3.695251 0.470089 3.524149
v 3.695251 0.235050 3.524149
v 3.695251 0.235050 -3.524141
v 3.695251 0.470089 -3.524141
v 3.524660 0.470089 3.694738
v 3.524660 0.235050 3.694738
v -3.524639 0.470089 3.694738
v -3.524639 0.235050 3.694738
v -3.695230 0.470089 3.524160
v -3.695230 0.235050 3.524160
v -3.695230 0.470089 -3.524130
v -3.695230 0.235050 -3.524130
v -3.524639 0.470089 -3.694742
v -3.524639 0.235050 -3.694742
v 3.524660 0.470089 -3.694742
v 3.524660 0.235050 -3.694742
v 2.906931 1.241341 -2.836660
v 2.906931 1.241341 2.836668
v 2.837081 1.241341 2.906519
v -2.837059 1.241341 2.906519
v -2.906919 1.241341 2.836668
v -2.906919 1.241341 -2.836660
v -2.837059 1.241341 -2.906521
v 2.837081 1.241341 -2.906521
v 3.549581 0.000000 3.463820
v 3.549581 0.000000 -3.463812
v 3.549581 0.235050 -3.463812
v 3.549581 0.235050 3.463820
v 3.464321 0.000000 3.549078
v 3.464321 0.235050 3.549078
v -3.464299 0.000000 3.549078
v -3.464299 0.235050 3.549078
v -3.549569 0.000000 3.463820
v -3.549569 0.235050 3.463820
v -3.549569 0.000000 -3.463812
v -3.549569 0.235050 -3.463812
v -3.464299 0.000000 -3.549082
v -3.464299 0.235050 -3.549082
v 3.464321 0.000000 -3.549082
v 3.464321 0.235050 -3.549082
vt 0.165500 -0.993800
vt 0.010900 -0.993800
vt 0.009100 -0.992400
vt 0.167400 -0.876000
vt 0.009100 -0.876000
vt 0.010900 -0.874600
vt 0.165500 -0.874600
vt 0.167400 -0.992400
vt 0.742100 -0.012200
vt 0.741800 -0.767200
vt 0.500600 -0.767200
vt 0.500300 -0.012200
vt 0.986800 -0.012200
vt 0.986500 -0.767200
vt 0.745100 -0.767200
vt 0.745100 -0.012200
vt 0.252800 -0.012200
vt 0.252500 -0.767200
vt 0.011200 -0.767200
vt 0.010900 -0.012200
vt 0.497500 -0.012200
vt 0.497100 -0.767200
vt 0.255800 -0.767200
vt 0.255800 -0.012200
vt 0.347700 -0.908900
vt 0.191600 -0.908900
vt 0.193900 -0.888500
vt 0.345500 -0.888500
vt 0.552600 -0.908400
vt 0.396500 -0.908400
vt 0.398800 -0.888100
vt 0.550400 -0.888100
vt 0.761400 -0.910000
vt 0.605300 -0.910000
vt 0.607600 -0.889700
vt 0.759200 -0.889700
vt 0.965900 -0.909600
vt 0.809800 -0.909600
vt 0.812100 -0.889200
vt 0.963700 -0.889200
vt 0.363900 -0.958900
vt 0.363800 -0.972600
vt 0.175500 -0.972600
vt 0.175400 -0.958900
vt 0.568800 -0.958400
vt 0.568700 -0.972100
vt 0.380400 -0.972100
vt 0.380300 -0.958400
vt 0.777600 -0.960000
vt 0.777500 -0.973700
vt 0.589200 -0.973700
vt 0.589100 -0.960000
vt 0.982100 -0.959600
vt 0.982000 -0.973300
vt 0.793700 -0.973300
vt 0.793600 -0.959600
vt 0.741800 -0.779000
vt 0.500500 -0.779300
vt 0.995900 -0.779100
vt 0.745300 -0.779200
vt 0.252400 -0.779000
vt 0.011100 -0.779000
vt 0.496900 -0.779300
vt 0.255900 -0.779000
vt 0.189700 -0.882500
vt 0.349700 -0.882500
vt 0.394600 -0.882000
vt 0.554600 -0.882000
vt 0.603400 -0.883600
vt 0.763400 -0.883600
vt 0.807900 -0.883200
vt 0.967900 -0.883200
vt 0.369200 -0.979400
vt 0.170100 -0.979400
vt 0.574100 -0.979000
vt 0.375100 -0.979000
vt 0.782900 -0.980600
vt 0.583900 -0.980600
vt 0.987400 -0.980100
vt 0.788400 -0.980100
vt 0.363600 -0.986300
vt 0.175700 -0.986300
vt 0.568500 -0.985900
vt 0.380600 -0.985900
vt 0.777300 -0.987500
vt 0.589400 -0.987500
vt 0.981800 -0.987000
vt 0.793900 -0.987000
vt 0.184500 -0.937200
vt 0.354800 -0.937200
vt 0.389400 -0.936700
vt 0.559700 -0.936700
vt 0.598200 -0.938300
vt 0.768500 -0.938300
vt 0.802700 -0.937900
vt 0.973000 -0.937900
vt 0.975400 -0.936800
vt 0.984900 -0.958900
vt 0.007900 -0.767200
vt 0.007900 -0.012200
vt 0.348000 -0.889500
vt 0.350300 -0.908300
vt 0.602800 -0.909400
vt 0.605000 -0.890700
vt 0.807300 -0.909000
vt 0.809500 -0.890200
vt 0.984800 -0.972100
vt 0.366500 -0.958200
vt 0.366300 -0.971400
vt 0.586700 -0.972600
vt 0.586500 -0.959300
vt 0.791200 -0.972100
vt 0.791000 -0.958900
vt 0.352300 -0.885000
vt 0.970500 -0.885700
vt 0.966400 -0.890200
vt 0.600700 -0.886200
vt 0.805200 -0.885700
vt 0.007800 -0.778900
vt 0.990700 -0.980100
vt 0.371600 -0.979400
vt 0.581500 -0.980600
vt 0.786000 -0.980100
vt 0.984200 -0.989600
vt 0.366000 -0.988900
vt 0.587100 -0.990000
vt 0.791600 -0.989600
vt 0.968600 -0.909000
vt 0.357400 -0.936000
vt 0.595700 -0.937200
vt 0.800200 -0.936700
vt 0.752100 -0.867300
vt 0.740700 -0.844000
vt 0.978700 -0.844000
vt 0.967400 -0.867300
vt 0.723100 -0.867300
vt 0.734400 -0.844000
vt 0.507700 -0.868500
vt 0.496400 -0.844000
vt 0.478700 -0.868500
vt 0.490000 -0.844000
vt 0.263400 -0.868300
vt 0.252100 -0.844000
vt 0.234400 -0.868300
vt 0.245700 -0.844000
vt 0.018500 -0.868200
vt 0.009500 -0.844700
vt 0.983300 -0.843300
vt 0.983000 -0.866500
vt 0.740400 -0.839800
vt 0.740400 -0.831800
vt 0.979000 -0.831800
vt 0.979000 -0.839800
vt 0.734700 -0.839800
vt 0.734700 -0.831800
vt 0.496100 -0.839800
vt 0.496100 -0.831800
vt 0.490300 -0.839800
vt 0.490300 -0.831800
vt 0.251800 -0.839800
vt 0.251800 -0.831800
vt 0.246000 -0.839800
vt 0.246000 -0.831800
vt 0.007500 -0.839800
vt 0.007500 -0.831800
vt 0.984700 -0.831800
vt 0.984700 -0.839800
vt 0.968200 -0.870500
vt 0.751200 -0.869900
vt 0.723900 -0.869900
vt 0.506900 -0.871100
vt 0.479600 -0.871100
vt 0.262600 -0.870900
vt 0.235200 -0.870900
vt 0.016800 -0.870800
vt 0.983000 -0.870200
vt 0.745000 -0.817900
vt 0.503600 -0.817900
vt 0.503600 -0.809700
vt 0.745000 -0.809700
vt 0.747900 -0.817900
vt 0.747900 -0.809700
vt 0.989300 -0.817900
vt 0.989300 -0.809700
vt 0.992200 -0.817900
vt 0.992200 -0.809700
vt 0.256400 -0.817900
vt 0.015000 -0.817900
vt 0.015000 -0.809700
vt 0.256400 -0.809700
vt 0.259300 -0.817900
vt 0.259300 -0.809700
vt 0.500700 -0.817900
vt 0.500700 -0.809700
vt 0.255700 -0.006200
vt 0.497400 -0.006200
vt 0.011000 -0.006200
vt 0.252700 -0.006200
vt 0.745000 -0.006200
vt 0.991700 -0.006200
vt 0.500200 -0.006200
vt 0.742000 -0.006200
vt 0.007900 -0.006200
vt 0.978700 -0.827600
vt 0.740700 -0.827600
vt 0.983300 -0.827600
vt 0.245700 -0.827600
vt 0.009500 -0.827600
vt 0.252100 -0.827600
vt 0.490000 -0.827600
vt 0.496400 -0.827600
vt 0.734400 -0.827600
vn 0.000000 1.000000 -0.000000
vn 0.000000 0.000000 -1.000000
vn -1.000000 0.000000 -0.000000
vn 0.000000 0.000000 1.000000
vn 1.000000 0.000000 -0.000000
vn 0.000000 -0.210200 -0.977700
vn 0.000000 -0.119200 -0.992900
vn -0.977700 -0.210200 -0.000000
vn -0.992900 -0.119200 -0.000000
vn 0.000000 -0.210200 0.977700
vn 0.000000 -0.119200 0.992900
vn 0.977600 -0.210200 -0.000000
vn 0.992900 -0.119300 -0.000000
vn 0.000000 -0.750400 -0.661000
vn -0.660900 -0.750500 -0.000000
vn 0.000000 -0.750400 0.661000
vn 0.660900 -0.750400 -0.000000
vn 0.000000 0.643600 -0.765400
vn -0.765300 0.643700 -0.000000
vn 0.000000 0.643600 0.765400
vn 0.765300 0.643700 -0.000000
vn 0.000000 -0.684000 -0.729500
vn -0.729400 -0.684000 -0.000000
vn 0.000000 -0.684000 0.729500
vn 0.729500 -0.684000 -0.000000
vn 0.000000 0.684000 -0.729500
vn -0.729400 0.684000 -0.000000
vn 0.000000 0.684000 0.729500
vn 0.729500 0.684000 -0.000000
vn 0.000000 -0.433900 -0.900900
vn 0.000000 -0.374300 -0.927300
vn -0.900900 -0.434000 -0.000000
vn -0.927300 -0.374400 -0.000000
vn 0.000000 -0.433900 0.900900
vn 0.000000 -0.374300 0.927300
vn 0.900900 -0.434000 -0.000000
vn 0.927300 -0.374300 -0.000000
vn -0.707100 0.000400 -0.707100
vn 0.584000 -0.563800 -0.584000
vn 0.622400 -0.474600 -0.622500
vn 0.622400 -0.474500 -0.622500
vn -0.707100 0.000400 0.707100
vn 0.707100 0.000400 0.707100
vn -0.696500 -0.172200 -0.696600
vn -0.679200 -0.277700 -0.679400
vn 0.707100 0.000400 -0.707100
vn -0.696500 -0.172200 0.696600
vn -0.679300 -0.277700 0.679300
vn 0.696500 -0.172200 0.696600
vn 0.679200 -0.277700 0.679400
vn 0.707100 0.005700 -0.707100
vn -0.707100 0.005700 -0.707100
vn -0.707200 0.005700 -0.707000
vn -0.707100 0.005700 -0.707000
vn -0.707100 0.005700 0.707100
vn -0.707200 0.005700 0.707000
vn -0.707100 0.005700 0.707000
vn 0.707100 0.005700 0.707100
vn -0.462200 0.756800 -0.462200
vn 0.462200 0.756800 -0.462200
vn -0.462200 0.756800 0.462200
vn 0.462200 0.756800 0.462200
vn -0.378300 -0.844900 -0.378300
vn 0.378300 -0.844900 -0.378300
vn -0.378300 -0.844900 0.378300
vn 0.378300 -0.844900 0.378300
vn 0.431000 -0.792800 -0.431000
vn 0.431000 -0.792800 -0.430900
vn -0.431000 -0.792800 -0.430900
vn -0.430900 -0.792800 -0.431000
vn -0.431000 -0.792800 0.430900
vn -0.430900 -0.792800 0.431000
vn 0.431000 -0.792800 0.431000
vn 0.431000 -0.792800 0.430900
vn 0.425800 0.798400 -0.425700
vn 0.425700 0.798400 -0.425700
vn -0.425700 0.798400 -0.425800
vn -0.425800 0.798400 -0.425700
vn -0.425700 0.798400 0.425800
vn -0.425800 0.798400 0.425700
vn 0.425800 0.798400 0.425700
vn 0.425800 0.798400 0.425800
vn 0.679200 -0.277700 -0.679400
vn 0.696500 -0.172200 -0.696600
vn -0.622400 -0.474500 -0.622400
vn -0.584000 -0.563800 -0.584000
vn -0.622400 -0.474500 0.622400
vn -0.584000 -0.563800 0.584000
vn -0.622400 -0.474600 0.622400
vn 0.622400 -0.474600 0.622500
vn 0.584000 -0.563800 0.584000
vn 0.622400 -0.474500 0.622500
vn 0.706300 0.707900 -0.000000
vn 0.410900 0.813800 0.411000
vn 0.411000 0.813800 0.410900
vn 0.411000 0.813800 0.411000
vn 0.000000 0.707800 0.706400
vn -0.410900 0.813800 0.411000
vn -0.411000 0.813800 0.411000
vn -0.706300 0.707900 -0.000000
vn -0.410900 0.813800 -0.411000
vn 0.000000 0.707800 -0.706400
vn 0.410900 0.813800 -0.411000
vn 0.411000 0.813800 -0.411000
vn 0.707100 0.000000 0.707100
vn -0.707100 0.000000 0.707100
vn -0.707200 0.000000 -0.707100
vn 0.707100 0.000000 -0.707100
vn 0.838900 -0.544400 -0.000000
vn 0.000000 -0.544200 0.838900
vn -0.838900 -0.544400 -0.000000
vn 0.000000 -0.544300 -0.838900
vn 0.523900 -0.671600 -0.523900
vn -0.523900 -0.671600 -0.523900
vn -0.523900 -0.671600 -0.524000
vn 0.523900 -0.671600 0.523900
vn -0.523900 -0.671600 0.524000
vn -0.523900 -0.671500 0.523900
vn -0.707100 0.000000 -0.707100
vn 0.477200 0.868600 -0.133600
vn 0.477200 0.868600 0.133600
vn 0.418700 0.884700 0.205200
vn 0.418700 0.884700 -0.205200
vn 0.133600 0.868500 0.477300
vn -0.133600 0.868500 0.477300
vn -0.205200 0.884600 0.418700
vn 0.205200 0.884700 0.418700
vn -0.477200 0.868600 0.133600
vn -0.477200 0.868600 -0.133600
vn -0.418600 0.884700 -0.205200
vn -0.418600 0.884700 0.205200
vn -0.133700 0.868500 -0.477200
vn 0.133600 0.868500 -0.477200
vn 0.205200 0.884700 -0.418600
vn -0.205200 0.884700 -0.418700
vn 0.000000 -1.000000 -0.000000
usemtl sponza/column_c
f 1/1/1 2/2/1 3/3/1
f 1/1/1 3/3/1 4/4/1
f 3/3/1 5/5/1 6/6/1
f 3/3/1 6/6/1 4/4/1
f 6/6/1 7/7/1 4/4/1
f 8/8/1 1/1/1 4/4/1
f 9/9/2 10/10/2 11/11/2
f 9/9/2 11/11/2 12/12/2
f 13/13/3 14/14/3 15/15/3
f 13/13/3 15/15/3 16/16/3
f 17/17/4 18/18/4 19/19/4
f 17/17/4 19/19/4 20/20/4
f 21/21/5 22/22/5 23/23/5
f 21/21/5 23/23/5 24/24/5
f 25/25/6 26/26/6 27/27/7
f 25/25/6 27/27/7 28/28/7
f 29/29/8 30/30/8 31/31/9
f 29/29/8 31/31/9 32/32/9
f 33/33/10 34/34/10 35/35/11
f 33/33/10 35/35/11 36/36/11
f 37/37/12 38/38/12 39/39/13
f 37/37/12 39/39/13 40/40/13
f 41/41/2 42/42/2 43/43/2
f 41/41/2 43/43/2 44/44/2
f 45/45/3 46/46/3 47/47/3
f 45/45/3 47/47/3 48/48/3
f 49/49/4 50/50/4 51/51/4
f 49/49/4 51/51/4 52/52/4
f 53/53/5 54/54/5 55/55/5
f 53/53/5 55/55/5 56/56/5
f 57/57/14 58/58/14 11/11/14
f 57/57/14 11/11/14 10/10/14
f 59/59/15 60/60/15 15/15/15
f 59/59/15 15/15/15 14/14/15
f 61/61/16 62/62/16 19/19/16
f 61/61/16 19/19/16 18/18/16
f 63/63/17 64/64/17 23/23/17
f 63/63/17 23/23/17 22/22/17
f 28/28/18 27/27/18 58/65/18
f 28/28/18 58/65/18 57/66/18
f 32/32/19 31/31/19 60/67/19
f 32/32/19 60/67/19 59/68/19
f 36/36/20 35/35/20 62/69/20
f 36/36/20 62/69/20 61/70/20
f 40/40/21 39/39/21 64/71/21
f 40/40/21 64/71/21 63/72/21
f 65/73/22 66/74/22 43/43/22
f 65/73/22 43/43/22 42/42/22
f 67/75/23 68/76/23 47/47/23
f 67/75/23 47/47/23 46/46/23
f 69/77/24 70/78/24 51/51/24
f 69/77/24 51/51/24 50/50/24
f 71/79/25 72/80/25 55/55/25
f 71/79/25 55/55/25 54/54/25
f 2/81/26 1/82/26 66/74/26
f 2/81/26 66/74/26 65/73/26
f 5/83/27 3/84/27 68/76/27
f 5/83/27 68/76/27 67/75/27
f 7/85/28 6/86/28 70/78/28
f 7/85/28 70/78/28 69/77/28
f 8/87/29 4/88/29 72/80/29
f 8/87/29 72/80/29 71/79/29
f 41/41/30 44/44/30 73/89/31
f 41/41/30 73/89/31 74/90/31
f 45/45/32 48/48/32 75/91/33
f 45/45/32 75/91/33 76/92/33
f 49/49/34 52/52/34 77/93/35
f 49/49/34 77/93/35 78/94/35
f 53/53/36 56/56/36 79/95/37
f 53/53/36 79/95/37 80/96/37
f 74/90/31 73/89/31 26/26/6
f 74/90/31 26/26/6 25/25/6
f 76/92/33 75/91/33 30/30/8
f 76/92/33 30/30/8 29/29/8
f 78/94/35 77/93/35 34/34/10
f 78/94/35 34/34/10 33/33/10
f 80/96/37 79/95/37 38/38/12
f 80/96/37 38/38/12 37/37/12
f 16/16/38 15/15/38 10/10/38
f 16/16/38 10/10/38 9/9/38
f 53/53/39 80/96/40 73/97/41
f 53/53/39 73/97/41 44/98/39
f 20/20/42 19/19/42 14/99/42
f 20/20/42 14/99/42 13/100/42
f 24/24/43 23/23/43 18/18/43
f 24/24/43 18/18/43 17/17/43
f 31/101/44 30/102/45 25/25/45
f 31/101/44 25/25/45 28/28/44
f 22/22/46 21/21/46 12/12/46
f 22/22/46 12/12/46 11/11/46
f 35/35/47 34/34/48 29/103/48
f 35/35/47 29/103/48 32/104/47
f 39/39/49 38/38/50 33/105/50
f 39/39/49 33/105/50 36/106/49
f 44/98/51 43/107/51 54/54/51
f 44/98/51 54/54/51 53/53/51
f 48/108/52 47/109/53 42/42/54
f 48/108/52 42/42/54 41/41/52
f 52/52/55 51/51/56 46/110/57
f 52/52/55 46/110/57 45/111/55
f 56/56/58 55/55/58 50/112/58
f 56/56/58 50/112/58 49/113/58
f 28/28/59 57/66/59 60/114/59
f 28/28/59 60/114/59 31/101/59
f 40/40/60 63/72/60 58/115/60
f 40/40/60 58/115/60 27/116/60
f 32/104/61 59/117/61 62/69/61
f 32/104/61 62/69/61 35/35/61
f 36/106/62 61/118/62 64/71/62
f 36/106/62 64/71/62 39/39/62
f 57/57/63 10/10/63 15/15/63
f 57/57/63 15/15/63 60/60/63
f 63/63/64 22/22/64 11/11/64
f 63/63/64 11/11/64 58/58/64
f 59/119/65 14/99/65 19/19/65
f 59/119/65 19/19/65 62/62/65
f 61/61/66 18/18/66 23/23/66
f 61/61/66 23/23/66 64/64/66
f 43/107/67 66/120/68 71/79/68
f 43/107/67 71/79/68 54/54/67
f 47/109/69 68/121/70 65/73/70
f 47/109/69 65/73/70 42/42/69
f 51/51/71 70/78/72 67/122/72
f 51/51/71 67/122/72 46/110/71
f 55/55/73 72/80/74 69/123/74
f 55/55/73 69/123/74 50/112/73
f 66/120/75 1/124/76 8/87/75
f 66/120/75 8/87/75 71/79/75
f 68/121/77 3/125/78 2/81/78
f 68/121/77 2/81/78 65/73/77
f 70/78/79 6/86/80 5/126/80
f 70/78/79 5/126/80 67/122/79
f 72/80/81 4/88/82 7/127/81
f 72/80/81 7/127/81 69/123/81
f 37/37/83 40/40/84 27/116/84
f 37/37/83 27/116/84 26/128/83
f 75/129/85 48/108/86 41/41/86
f 75/129/85 41/41/86 74/90/85
f 77/93/87 52/52/88 45/111/88
f 77/93/87 45/111/88 76/130/89
f 79/95/90 56/56/91 49/113/91
f 79/95/90 49/113/91 78/131/92
f 26/128/83 73/97/41 80/96/40
f 26/128/83 80/96/40 37/37/83
f 30/102/45 75/129/85 74/90/85
f 30/102/45 74/90/85 25/25/45
f 34/34/48 77/93/87 76/130/89
f 34/34/48 76/130/89 29/103/48
f 38/38/50 79/95/90 78/131/92
f 38/38/50 78/131/92 33/105/50
f 81/132/93 82/133/93 83/134/93
f 81/132/93 83/134/93 84/135/93
f 85/136/94 86/137/95 82/133/96
f 85/136/94 82/133/96 81/132/94
f 87/138/97 88/139/97 86/137/97
f 87/138/97 86/137/97 85/136/97
f 89/140/98 90/141/99 88/139/99
f 89/140/98 88/139/99 87/138/98
f 91/142/100 92/143/100 90/141/100
f 91/142/100 90/141/100 89/140/100
f 93/144/101 94/145/101 92/143/101
f 93/144/101 92/143/101 91/142/101
f 95/146/102 96/147/102 94/145/102
f 95/146/102 94/145/102 93/144/102
f 84/135/103 83/134/104 96/148/104
f 84/135/103 96/148/104 95/149/103
f 97/150/5 98/151/5 99/152/5
f 97/150/5 99/152/5 100/153/5
f 101/154/105 102/155/105 98/151/105
f 101/154/105 98/151/105 97/150/105
f 103/156/4 104/157/4 102/155/4
f 103/156/4 102/155/4 101/154/4
f 105/158/106 106/159/106 104/157/106
f 105/158/106 104/157/106 103/156/106
f 107/160/3 108/161/3 106/159/3
f 107/160/3 106/159/3 105/158/3
f 109/162/107 110/163/107 108/161/107
f 109/162/107 108/161/107 107/160/107
f 111/164/2 112/165/2 110/163/2
f 111/164/2 110/163/2 109/162/2
f 100/153/108 99/152/108 112/166/108
f 100/153/108 112/166/108 111/167/108
f 113/168/109 114/169/109 81/132/109
f 113/168/109 81/132/109 84/135/109
f 115/170/110 116/171/110 87/138/110
f 115/170/110 87/138/110 85/136/110
f 117/172/111 118/173/111 91/142/111
f 117/172/111 91/142/111 89/140/111
f 119/174/112 120/175/112 95/146/112
f 119/174/112 95/146/112 93/144/112
f 120/176/113 113/168/113 84/135/113
f 120/176/113 84/135/113 95/149/113
f 118/173/114 119/174/115 93/144/114
f 118/173/114 93/144/114 91/142/114
f 114/169/116 115/170/116 85/136/116
f 114/169/116 85/136/116 81/132/116
f 116/171/117 117/172/117 89/140/117
f 116/171/117 89/140/117 87/138/118
f 121/177/5 122/178/5 123/179/5
f 121/177/5 123/179/5 124/180/5
f 125/181/105 121/177/105 124/180/105
f 125/181/105 124/180/105 126/182/105
f 127/183/4 125/181/4 126/182/4
f 127/183/4 126/182/4 128/184/4
f 129/185/106 127/183/106 128/184/106
f 129/185/106 128/184/106 130/186/106
f 131/187/3 129/188/3 130/189/3
f 131/187/3 130/189/3 132/190/3
f 133/191/119 131/187/119 132/190/119
f 133/191/119 132/190/119 134/192/119
f 135/193/2 133/191/2 134/192/2
f 135/193/2 134/192/2 136/194/2
f 122/178/108 135/193/108 136/194/108
f 122/178/108 136/194/108 123/179/108
f 21/21/120 24/24/121 114/195/122
f 21/21/120 114/195/122 113/196/123
f 17/17/124 20/20/125 116/197/126
f 17/17/124 116/197/126 115/198/127
f 13/13/128 16/16/129 118/199/130
f 13/13/128 118/199/130 117/200/131
f 9/9/132 12/12/133 120/201/134
f 9/9/132 120/201/134 119/202/135
f 12/12/133 21/21/120 113/196/123
f 12/12/133 113/196/123 120/201/134
f 16/16/129 9/9/132 119/202/135
f 16/16/129 119/202/135 118/199/130
f 24/24/121 17/17/124 115/198/127
f 24/24/121 115/198/127 114/195/122
f 20/20/125 13/100/128 117/203/131
f 20/20/125 117/203/131 116/197/126
f 82/133/1 97/150/1 100/153/1
f 82/133/1 100/153/1 83/134/1
f 86/137/1 101/154/1 97/150/1
f 86/137/1 97/150/1 82/133/1
f 88/139/1 103/156/1 101/154/1
f 88/139/1 101/154/1 86/137/1
f 90/141/1 105/158/1 103/156/1
f 90/141/1 103/156/1 88/139/1
f 92/143/1 107/160/1 105/158/1
f 92/143/1 105/158/1 90/141/1
f 94/145/1 109/162/1 107/160/1
f 94/145/1 107/160/1 92/143/1
f 96/147/1 111/164/1 109/162/1
f 96/147/1 109/162/1 94/145/1
f 83/134/1 100/153/1 111/167/1
f 83/134/1 111/167/1 96/148/1
f 123/204/136 99/152/136 98/151/136
f 123/204/136 98/151/136 124/205/136
f 136/206/136 112/166/136 99/152/136
f 136/206/136 99/152/136 123/204/136
f 134/207/136 110/163/136 112/165/136
f 134/207/136 112/165/136 136/208/136
f 132/209/136 108/161/136 110/163/136
f 132/209/136 110/163/136 134/207/136
f 130/210/136 106/159/136 108/161/136
f 130/210/136 108/161/136 132/209/136
f 128/211/136 104/157/136 106/159/136
f 128/211/136 106/159/136 130/210/136
f 126/212/136 102/155/136 104/157/136
f 126/212/136 104/157/136 128/211/136
f 124/205/136 98/151/136 102/155/136
f 124/205/136 102/155/136 126/212/136
