v -0.953148 0.678856 0.670057
v 0.000000 0.481285 0.670057
v 0.000000 0.962532 0.504189
v -0.761856 1.120461 0.504189
v -1.666931 2.281174 -1.024580
v -1.767330 2.993019 -1.024580
v -1.767330 2.993019 0.302618
v -1.666931 2.281174 0.302618
v -2.168690 3.902634 0.670057
v -2.393059 3.033287 0.670057
v -1.912598 3.002365 0.504118
v -1.733089 3.697090 0.504047
v -2.710117 1.906868 1.024578
v -2.257111 2.069405 0.670057
v -2.873352 3.064194 1.024578
v -2.710117 1.906868 -1.024580
v -2.873352 3.064194 -1.024580
v -0.651360 4.526146 -1.024580
v 0.000000 4.650276 -1.024580
v 0.000000 4.650276 0.302618
v -0.651360 4.526146 0.302618
v -1.058979 5.556770 1.024578
v -0.881969 5.109230 0.670057
v 0.000000 5.277306 0.670057
v 0.000000 5.758591 1.024578
v -1.058979 5.556770 -1.024580
v 0.000000 5.758591 -1.024580
v 0.953152 0.678856 0.670057
v 0.761860 1.120461 0.504189
v 1.767330 2.993019 -1.024580
v 1.666931 2.281174 -1.024580
v 1.666931 2.281174 0.302618
v 1.767330 2.993019 0.302618
v 2.393063 3.033287 0.670057
v 2.168678 3.902634 0.670057
v 1.733082 3.697090 0.504047
v 1.912594 3.002365 0.504118
v 2.257111 2.069405 0.670057
v 2.710110 1.906868 1.024578
v 2.873352 3.064194 1.024578
v 2.710110 1.906868 -1.024580
v 2.873352 3.064194 -1.024580
v 0.651363 4.526146 -1.024580
v 0.651363 4.526146 0.302618
v 0.881958 5.109230 0.670057
v 1.058979 5.556770 1.024578
v 1.058979 5.556770 -1.024580
v -1.749249 1.238991 0.670057
v -1.398190 1.568184 0.504189
v -1.804138 2.231941 0.504189
v -0.703918 1.254211 -1.024580
v -1.291859 1.667892 -1.024580
v -1.291859 1.667892 0.302618
v -0.703918 1.254211 0.302618
v -1.640301 4.628540 0.670057
v -1.310829 4.277184 0.504047
v -0.704819 4.661316 0.504047
v -1.144451 0.237221 1.024578
v -2.100319 0.909790 1.024578
v -1.144451 0.237221 -1.024580
v -2.100319 0.909790 -1.024580
v -1.601627 3.635056 -1.024580
v -1.211399 4.171150 -1.024580
v -1.211399 4.171150 0.302618
v -1.601627 3.635056 0.302618
v -2.603951 4.108032 1.024578
v -1.969509 4.979614 1.024578
v -2.603951 4.108032 -1.024580
v -1.969509 4.979614 -1.024580
v 1.804134 2.231956 0.504189
v 1.398190 1.568184 0.504189
v 1.749237 1.238991 0.670057
v 0.703934 1.254219 -1.024580
v 0.703934 1.254219 0.302618
v 1.291859 1.667892 0.302618
v 1.291859 1.667892 -1.024580
v 0.704823 4.661316 0.504047
v 1.310829 4.277184 0.504047
v 1.640305 4.628540 0.670057
v 1.144455 0.237221 1.024578
v 2.100319 0.909790 1.024578
v 1.144455 0.237221 -1.024580
v 2.100319 0.909790 -1.024580
v 1.601620 3.635056 -1.024580
v 1.601620 3.635056 0.302618
v 1.211403 4.171150 0.302618
v 1.211403 4.171150 -1.024580
v 2.603939 4.108032 1.024578
v 1.969509 4.979614 1.024578
v 2.603939 4.108032 -1.024580
v 1.969509 4.979614 -1.024580
v 0.000000 1.108299 -1.024580
v 0.000000 1.108299 0.302618
v 0.000000 4.795631 0.504047
v 0.000000 0.000000 1.024578
v 0.000000 0.000000 -1.024580
vt 0.127500 -0.187800
vt 0.003300 -0.187800
vt 0.003300 -0.162100
vt 0.127500 -0.162100
vt 0.375800 -0.063800
vt 0.499900 -0.063800
vt 0.499900 -0.145100
vt 0.375800 -0.145100
vt 0.614300 -0.187800
vt 0.499900 -0.187800
vt 0.499900 -0.162100
vt 0.614300 -0.162100
vt 0.375800 -0.216900
vt 0.375800 -0.187800
vt 0.499900 -0.216900
vt 0.375800 -0.326300
vt 0.499900 -0.326300
vt 0.843100 -0.063800
vt 0.957500 -0.063800
vt 0.957500 -0.145100
vt 0.843100 -0.145100
vt 0.843100 -0.216900
vt 0.843100 -0.187800
vt 0.957500 -0.187800
vt 0.957500 -0.216900
vt 0.843100 -0.326300
vt 0.957500 -0.326300
vt 0.251600 -0.187800
vt 0.251600 -0.162100
vt 0.375800 -0.162100
vt 0.127500 -0.063800
vt 0.251600 -0.063800
vt 0.251600 -0.145100
vt 0.127500 -0.145100
vt 0.728700 -0.187800
vt 0.728700 -0.162100
vt 0.843100 -0.162100
vt 0.127500 -0.216900
vt 0.251600 -0.216900
vt 0.127500 -0.326300
vt 0.251600 -0.326300
vt 0.614300 -0.063800
vt 0.728700 -0.063800
vt 0.728700 -0.145100
vt 0.614300 -0.145100
vt 0.614300 -0.216900
vt 0.728700 -0.216900
vt 0.614300 -0.326300
vt 0.728700 -0.326300
vt 0.003300 -0.063800
vt 0.003300 -0.145100
vt 0.957500 -0.162100
vt 0.003300 -0.216900
vt 0.003300 -0.326300
vn 0.190700 0.440300 0.877300
vn -0.000000 0.479900 0.877300
vn -0.000000 0.569400 0.822100
vn 0.226300 0.522500 0.822100
vn 0.941200 0.337700 -0.000000
vn 0.998400 -0.056200 -0.000000
vn 0.946100 -0.053000 0.319500
vn 0.891700 0.319900 0.320300
vn 0.432900 -0.204300 0.878000
vn 0.478600 -0.026700 0.877600
vn 0.569700 -0.032100 0.821200
vn 0.517200 -0.244100 0.820300
vn 0.558200 0.200300 0.805100
vn 0.451700 0.162100 0.877300
vn 0.592100 -0.033700 0.805100
vn -0.941200 -0.337700 -0.000000
vn -0.998400 0.056200 -0.000000
vn 0.367800 -0.929900 -0.000000
vn -0.000000 -1.000000 -0.000000
vn -0.000000 -0.947800 0.318800
vn 0.348600 -0.881400 0.318800
vn 0.218100 -0.551500 0.805100
vn 0.176100 -0.445200 0.878000
vn -0.000000 -0.478700 0.878000
vn -0.000000 -0.593100 0.805100
vn -0.367800 0.929900 -0.000000
vn 0.000000 1.000000 -0.000000
vn -0.190700 0.440300 0.877300
vn -0.226300 0.522500 0.822100
vn -0.998400 -0.056200 -0.000000
vn -0.941200 0.337700 -0.000000
vn -0.891700 0.319900 0.320300
vn -0.946100 -0.053000 0.319600
vn -0.478600 -0.026700 0.877600
vn -0.432900 -0.204300 0.878000
vn -0.517200 -0.244100 0.820300
vn -0.569800 -0.032100 0.821200
vn -0.451700 0.162100 0.877300
vn -0.558200 0.200300 0.805100
vn -0.592100 -0.033700 0.805100
vn 0.998400 0.056200 -0.000000
vn 0.941200 -0.337700 -0.000000
vn -0.367800 -0.929900 -0.000000
vn -0.348600 -0.881400 0.318800
vn -0.176100 -0.445200 0.878000
vn -0.218100 -0.551500 0.805100
vn 0.367800 0.929900 -0.000000
vn 0.350100 0.328300 0.877300
vn 0.415300 0.389500 0.822100
vn 0.535900 0.192300 0.822100
vn 0.397500 0.917600 -0.000000
vn 0.729500 0.684000 -0.000000
vn 0.691000 0.648000 0.320300
vn 0.376500 0.869300 0.320300
vn 0.327500 -0.349200 0.878000
vn 0.391200 -0.417200 0.820300
vn 0.210300 -0.531800 0.820300
vn 0.235700 0.544200 0.805100
vn 0.432600 0.405700 0.805100
vn -0.397500 -0.917600 -0.000000
vn -0.729500 -0.684000 -0.000000
vn 0.904400 -0.426700 -0.000000
vn 0.684000 -0.729500 -0.000000
vn 0.648300 -0.691400 0.318800
vn 0.857200 -0.404500 0.318800
vn 0.536400 -0.253100 0.805100
vn 0.405700 -0.432600 0.805100
vn -0.904400 0.426800 -0.000000
vn -0.684000 0.729500 -0.000000
vn -0.535900 0.192300 0.822100
vn -0.415300 0.389500 0.822100
vn -0.350100 0.328300 0.877300
vn -0.397500 0.917600 -0.000000
vn -0.376500 0.869300 0.320300
vn -0.691000 0.648000 0.320300
vn -0.729500 0.684000 -0.000000
vn -0.210400 -0.531800 0.820300
vn -0.391200 -0.417200 0.820300
vn -0.327500 -0.349200 0.878000
vn -0.235700 0.544200 0.805100
vn -0.432600 0.405700 0.805100
vn 0.397500 -0.917600 -0.000000
vn 0.729500 -0.684000 -0.000000
vn -0.904400 -0.426700 -0.000000
vn -0.857200 -0.404500 0.318800
vn -0.648300 -0.691400 0.318800
vn -0.684000 -0.729500 -0.000000
vn -0.536400 -0.253100 0.805100
vn -0.405700 -0.432600 0.805100
vn 0.904400 0.426700 -0.000000
vn 0.684000 0.729500 -0.000000
vn -0.000000 1.000000 -0.000000
vn -0.000000 0.947300 0.320300
vn 0.000000 -0.571900 0.820300
vn -0.000000 0.593100 0.805100
vn 0.000000 -1.000000 -0.000000
usemtl sponza/arch
f 1/1/1 2/2/2 3/3/3
f 1/1/1 3/3/3 4/4/4
f 5/5/5 6/6/6 7/7/7
f 5/5/5 7/7/7 8/8/8
f 9/9/9 10/10/10 11/11/11
f 9/9/9 11/11/11 12/12/12
f 13/13/13 14/14/14 10/10/10
f 13/13/13 10/10/10 15/15/15
f 16/16/16 13/13/16 15/15/17
f 16/16/16 15/15/17 17/17/17
f 18/18/18 19/19/19 20/20/20
f 18/18/18 20/20/20 21/21/21
f 22/22/22 23/23/23 24/24/24
f 22/22/22 24/24/24 25/25/25
f 26/26/26 22/22/26 25/25/27
f 26/26/26 25/25/27 27/27/27
f 2/2/2 28/1/28 29/4/29
f 2/2/2 29/4/29 3/3/3
f 30/6/30 31/5/31 32/8/32
f 30/6/30 32/8/32 33/7/33
f 34/10/34 35/9/35 36/12/36
f 34/10/34 36/12/36 37/11/37
f 34/10/34 38/14/38 39/13/39
f 34/10/34 39/13/39 40/15/40
f 40/15/41 39/13/42 41/16/42
f 40/15/41 41/16/42 42/17/41
f 19/19/19 43/18/43 44/21/44
f 19/19/19 44/21/44 20/20/20
f 24/24/24 45/23/45 46/22/46
f 24/24/24 46/22/46 25/25/25
f 25/25/27 46/22/47 47/26/47
f 25/25/27 47/26/47 27/27/27
f 14/14/14 48/28/48 49/29/49
f 14/14/14 49/29/49 50/30/50
f 51/31/51 52/32/52 53/33/53
f 51/31/51 53/33/53 54/34/54
f 23/23/23 55/35/55 56/36/56
f 23/23/23 56/36/56 57/37/57
f 58/38/58 1/1/1 48/28/48
f 58/38/58 48/28/48 59/39/59
f 60/40/60 58/38/60 59/39/61
f 60/40/60 59/39/61 61/41/61
f 62/42/62 63/43/63 64/44/64
f 62/42/62 64/44/64 65/45/65
f 66/46/66 9/9/9 55/35/55
f 66/46/66 55/35/55 67/47/67
f 68/48/68 66/46/68 67/47/69
f 68/48/68 67/47/69 69/49/69
f 38/14/38 70/30/70 71/29/71
f 38/14/38 71/29/71 72/28/72
f 73/31/73 74/34/74 75/33/75
f 73/31/73 75/33/75 76/32/76
f 45/23/45 77/37/77 78/36/78
f 45/23/45 78/36/78 79/35/79
f 28/1/28 80/38/80 81/39/81
f 28/1/28 81/39/81 72/28/72
f 80/38/82 82/40/82 83/41/83
f 80/38/82 83/41/83 81/39/83
f 84/42/84 85/45/85 86/44/86
f 84/42/84 86/44/86 87/43/87
f 35/9/35 88/46/88 89/47/89
f 35/9/35 89/47/89 79/35/79
f 88/46/90 90/48/90 91/49/91
f 88/46/90 91/49/91 89/47/91
f 48/28/48 1/1/1 4/4/4
f 48/28/48 4/4/4 49/29/49
f 52/32/52 5/5/5 8/8/8
f 52/32/52 8/8/8 53/33/53
f 55/35/55 9/9/9 12/12/12
f 55/35/55 12/12/12 56/36/56
f 59/39/59 48/28/48 14/14/14
f 59/39/59 14/14/14 13/13/13
f 61/41/61 59/39/61 13/13/16
f 61/41/61 13/13/16 16/16/16
f 63/43/63 18/18/18 21/21/21
f 63/43/63 21/21/21 64/44/64
f 67/47/67 55/35/55 23/23/23
f 67/47/67 23/23/23 22/22/22
f 69/49/69 67/47/69 22/22/26
f 69/49/69 22/22/26 26/26/26
f 72/28/72 71/29/71 29/4/29
f 72/28/72 29/4/29 28/1/28
f 76/32/76 75/33/75 32/8/32
f 76/32/76 32/8/32 31/5/31
f 79/35/79 78/36/78 36/12/36
f 79/35/79 36/12/36 35/9/35
f 72/28/72 81/39/81 39/13/39
f 72/28/72 39/13/39 38/14/38
f 81/39/83 83/41/83 41/16/42
f 81/39/83 41/16/42 39/13/42
f 87/43/87 86/44/86 44/21/44
f 87/43/87 44/21/44 43/18/43
f 79/35/79 89/47/89 46/22/46
f 79/35/79 46/22/46 45/23/45
f 89/47/91 91/49/91 47/26/47
f 89/47/91 47/26/47 46/22/47
f 10/10/10 14/14/14 50/30/50
f 10/10/10 50/30/50 11/11/11
f 92/50/92 51/31/51 54/34/54
f 92/50/92 54/34/54 93/51/93
f 24/24/24 23/23/23 57/37/57
f 24/24/24 57/37/57 94/52/94
f 95/53/95 2/2/2 1/1/1
f 95/53/95 1/1/1 58/38/58
f 96/54/96 95/53/96 58/38/60
f 96/54/96 58/38/60 60/40/60
f 6/6/6 62/42/62 65/45/65
f 6/6/6 65/45/65 7/7/7
f 15/15/15 10/10/10 9/9/9
f 15/15/15 9/9/9 66/46/66
f 17/17/17 15/15/17 66/46/68
f 17/17/17 66/46/68 68/48/68
f 34/10/34 37/11/37 70/30/70
f 34/10/34 70/30/70 38/14/38
f 92/50/92 93/51/93 74/34/74
f 92/50/92 74/34/74 73/31/73
f 24/24/24 94/52/94 77/37/77
f 24/24/24 77/37/77 45/23/45
f 2/2/2 95/53/95 80/38/80
f 2/2/2 80/38/80 28/1/28
f 95/53/96 96/54/96 82/40/82
f 95/53/96 82/40/82 80/38/82
f 30/6/30 33/7/33 85/45/85
f 30/6/30 85/45/85 84/42/84
f 34/10/34 40/15/40 88/46/88
f 34/10/34 88/46/88 35/9/35
f 40/15/41 42/17/41 90/48/90
f 40/15/41 90/48/90 88/46/90
f 11/11/11 50/30/50 8/8/8
f 11/11/11 8/8/8 7/7/7
f 94/52/94 57/37/57 21/21/21
f 94/52/94 21/21/21 20/20/20
f 70/30/70 37/11/37 33/7/33
f 70/30/70 33/7/33 32/8/32
f 77/37/77 94/52/94 20/20/20
f 77/37/77 20/20/20 44/21/44
f 49/29/49 4/4/4 54/34/54
f 49/29/49 54/34/54 53/33/53
f 56/36/56 12/12/12 65/45/65
f 56/36/56 65/45/65 64/44/64
f 29/4/29 71/29/71 75/33/75
f 29/4/29 75/33/75 74/34/74
f 36/12/36 78/36/78 86/44/86
f 36/12/36 86/44/86 85/45/85
f 50/30/50 49/29/49 53/33/53
f 50/30/50 53/33/53 8/8/8
f 57/37/57 56/36/56 64/44/64
f 57/37/57 64/44/64 21/21/21
f 71/29/71 70/30/70 32/8/32
f 71/29/71 32/8/32 75/33/75
f 78/36/78 77/37/77 44/21/44
f 78/36/78 44/21/44 86/44/86
f 4/4/4 3/3/3 93/51/93
f 4/4/4 93/51/93 54/34/54
f 12/12/12 11/11/11 7/7/7
f 12/12/12 7/7/7 65/45/65
f 3/3/3 29/4/29 74/34/74
f 3/3/3 74/34/74 93/51/93
f 37/11/37 36/12/36 85/45/85
f 37/11/37 85/45/85 33/7/33
