v 98.740524 0.000000 -28.154163
v 98.740524 0.459480 -28.154175
v 98.740562 0.459480 28.154137
v 98.740562 0.000011 28.154137
v -98.740547 0.000000 -28.154175
v -98.740562 0.459480 -28.154163
v -98.740547 0.000011 28.154175
v -98.740562 0.459480 28.154175
v 98.027054 0.833061 -27.440708
v 98.027092 0.833061 27.440666
v -98.027084 0.833061 -27.440708
v -98.027084 0.833061 27.440704
vt 22.785400 0.288500
vt 22.785400 0.329400
vt 20.227800 0.329400
vt 20.227800 0.288500
vt 8.700400 0.288600
vt 8.700400 0.329500
vt -0.269400 0.329500
vt -0.269400 0.288600
vt 11.258000 0.288600
vt 11.258000 0.329400
vt 22.753000 0.392900
vt 20.260201 0.392900
vt 8.668000 0.393000
vt -0.237000 0.393000
vt 11.225600 0.393000
vt 8.732800 0.393000
vt 20.195400 0.393000
vt 11.290400 0.393000
vn 1.000000 0.000000 -0.000000
vn -0.000000 0.000000 -1.000000
vn 0.000000 -0.000000 -1.000000
vn -1.000000 -0.000000 0.000000
vn 0.000000 0.000000 1.000000
vn 0.245500 0.937800 -0.245500
vn 0.245500 0.937800 0.245500
vn -0.245500 0.937800 -0.245500
vn -0.245500 0.937800 0.245500
usemtl sponza/arch
f 1/1/1 2/2/1 3/3/1
f 1/1/1 3/3/1 4/4/1
f 5/5/2 6/6/2 2/7/3
f 5/5/2 2/7/3 1/8/3
f 5/5/4 7/9/4 8/10/4
f 5/5/4 8/10/4 6/6/4
f 7/9/5 4/4/5 3/3/5
f 7/9/5 3/3/5 8/10/5
f 2/2/6 9/11/6 10/12/7
f 2/2/6 10/12/7 3/3/7
f 6/6/8 11/13/8 9/14/6
f 6/6/8 9/14/6 2/7/6
f 8/10/9 12/15/9 11/16/8
f 8/10/9 11/16/8 6/6/8
f 3/3/7 10/17/7 12/18/9
f 3/3/7 12/18/9 8/10/9
