v -0.001345 3.450241 -0.774855
v -0.001375 3.450241 0.774855
v -0.377895 3.349388 0.774855
v -0.377895 3.349388 -0.774855
v -0.653475 3.073814 0.774855
v -0.653475 3.073814 -0.774855
v -0.754335 2.697372 0.774855
v -0.754335 2.697372 -0.774855
v -0.688175 2.450424 0.774855
v -0.688175 2.450424 -0.774855
v -1.311555 2.415726 -0.774855
v -1.311555 2.415726 0.774855
v -1.587125 2.140160 0.774855
v -1.587125 2.140160 -0.774855
v -0.935116 2.516602 -0.774855
v -0.935116 2.516602 0.774855
v 0.375155 3.349388 -0.774855
v 0.375155 3.349388 0.774855
v 0.650724 3.073814 -0.774855
v 0.650724 3.073814 0.774855
v 0.751594 2.697372 -0.774855
v 0.751594 2.697372 0.774855
v 0.685424 2.450424 -0.774855
v 0.685424 2.450424 0.774855
v 1.681445 1.777908 -0.774855
v 1.681445 1.777908 0.774855
v 1.584385 2.140160 0.774855
v 1.584385 2.140160 -0.774855
v 1.308805 2.415726 0.774855
v 1.308805 2.415726 -0.774855
v 0.932374 2.516602 0.774855
v 0.932374 2.516602 -0.774855
v -1.684196 1.777908 0.774855
v -1.684196 1.777908 -0.774855
v -0.377895 0.206436 -0.774855
v -0.377895 0.206436 0.774855
v -0.001375 0.105576 0.774855
v -0.001375 0.105576 -0.774855
v -0.653475 0.482010 -0.774855
v -0.653475 0.482010 0.774855
v -0.754335 0.858444 -0.774855
v -0.754335 0.858444 0.774855
v -0.688175 1.105392 -0.774855
v -0.688175 1.105392 0.774855
v -1.587125 1.415665 -0.774855
v -1.587125 1.415665 0.774855
v -1.311555 1.140091 0.774855
v -1.311555 1.140091 -0.774855
v -0.935116 1.039223 0.774855
v -0.935116 1.039223 -0.774855
v 0.375155 0.206436 0.774855
v 0.375155 0.206436 -0.774855
v 0.650724 0.482010 0.774855
v 0.650724 0.482010 -0.774855
v 0.751594 0.858444 0.774855
v 0.751594 0.858444 -0.774855
v 0.685424 1.105392 0.774855
v 0.685424 1.105392 -0.774855
v 1.308805 1.140091 -0.774855
v 1.308805 1.140091 0.774855
v 1.584385 1.415665 0.774855
v 1.584385 1.415665 -0.774855
v 0.932374 1.039223 -0.774855
v 0.932374 1.039223 0.774855
v 1.666924 1.172874 -0.774855
v 1.291854 0.559586 -0.774855
v 0.703924 0.145912 -0.774855
v 1.767335 1.884720 -0.774855
v 1.601624 2.526756 -0.774855
v 1.211406 3.062843 -0.774855
v 0.651355 3.417847 -0.774855
v 0.000004 3.541969 -0.774855
v -0.651356 3.417847 -0.774855
v -1.211405 3.062843 -0.774855
v -1.601625 2.526756 -0.774855
v -1.767335 1.884720 -0.774855
v -1.666925 1.172874 -0.774855
v -1.291856 0.559586 -0.774855
v -0.703925 0.145897 -0.774855
v 0.000004 0.000000 -0.774855
vt 0.955100 0.594800
vt 0.815900 0.594800
vt 0.815900 0.628600
vt 0.955100 0.628600
vt 0.815900 0.653300
vt 0.955100 0.653300
vt 0.815900 0.687100
vt 0.955100 0.687100
vt 0.815900 0.709300
vt 0.955100 0.709300
vt 0.955100 0.762600
vt 0.815900 0.762600
vt 0.815900 0.797600
vt 0.955100 0.797600
vt 0.955100 0.732300
vt 0.815900 0.732300
vt 0.955100 0.560900
vt 0.815900 0.560900
vt 0.955100 0.536200
vt 0.815900 0.536200
vt 0.955100 0.502400
vt 0.815900 0.502400
vt 0.955100 0.480200
vt 0.815900 0.480200
vt 0.955100 0.361300
vt 0.815900 0.361300
vt 0.815900 0.395000
vt 0.955100 0.395000
vt 0.815900 0.425300
vt 0.955100 0.425300
vt 0.815900 0.460300
vt 0.955100 0.460300
vt 0.815900 0.826800
vt 0.955100 0.826800
vt 0.955100 0.087900
vt 0.815900 0.087900
vt 0.815900 0.121700
vt 0.955100 0.121700
vt 0.955100 0.052900
vt 0.815900 0.052900
vt 0.955100 0.022600
vt 0.815900 0.022600
vt 0.955100 0.944200
vt 0.815900 0.944200
vt 0.815900 0.967200
vt 0.955100 0.967200
vt 0.955100 0.856000
vt 0.815900 0.856000
vt 0.815900 0.891000
vt 0.955100 0.891000
vt 0.815900 0.921300
vt 0.955100 0.921300
vt 0.815900 0.155600
vt 0.955100 0.155600
vt 0.815900 0.190600
vt 0.955100 0.190600
vt 0.815900 0.220900
vt 0.955100 0.220900
vt 0.815900 0.243800
vt 0.955100 0.243800
vt 0.955100 0.297100
vt 0.815900 0.297100
vt 0.815900 0.332100
vt 0.955100 0.332100
vt 0.955100 0.266800
vt 0.815900 0.266800
vt 0.580400 0.603600
vt 0.546000 0.597600
vt 0.552400 0.619700
vt 0.611700 0.645400
vt 0.613300 0.591600
vt 0.676200 0.645400
vt 0.520100 0.576000
vt 0.508300 0.572600
vt 0.508500 0.544300
vt 0.487300 0.516800
vt 0.514600 0.509800
vt 0.488300 0.457300
vt 0.537000 0.483000
vt 0.511100 0.402200
vt 0.541000 0.460400
vt 0.528900 0.427500
vt 0.534900 0.393000
vt 0.552600 0.359500
vt 0.590300 0.354100
vt 0.606800 0.335000
vt 0.557400 0.366200
vt 0.624800 0.360100
vt 0.666300 0.332100
vt 0.651600 0.382600
vt 0.722700 0.351400
vt 0.674200 0.386500
vt 0.707100 0.374500
vt 0.741600 0.380500
vt 0.767400 0.402100
vt 0.768000 0.390000
vt 0.779000 0.433800
vt 0.797400 0.447500
vt 0.773000 0.468200
vt 0.801500 0.511900
vt 0.750600 0.495100
vt 0.779700 0.572700
vt 0.746600 0.517700
vt 0.758600 0.550600
vt 0.752600 0.585100
vt 0.735500 0.619800
vt 0.730200 0.611900
vt 0.697300 0.624000
vt 0.662800 0.618000
vt 0.635900 0.595500
vt 0.659500 0.404200
vt 0.558600 0.475100
vt 0.729000 0.503000
vt 0.628000 0.573900
vn -0.000000 -1.000000 -0.000000
vn 0.000000 -1.000000 -0.000000
vn 0.500000 -0.866100 0.000000
vn 0.500000 -0.866100 -0.000000
vn 0.866000 -0.500000 -0.000000
vn 1.000000 -0.000000 -0.000000
vn 0.965900 0.258800 -0.000000
vn 0.500000 -0.866000 -0.000000
vn -0.258800 -0.965900 -0.000000
vn -0.500000 -0.866000 -0.000000
vn -0.866000 -0.500000 -0.000000
vn -1.000000 -0.000000 -0.000000
vn -0.965900 0.258800 -0.000000
vn -1.000000 0.000000 -0.000000
vn 0.258800 -0.965900 -0.000000
vn 1.000000 0.000000 -0.000000
vn 0.500000 0.866000 -0.000000
vn 0.000000 1.000000 -0.000000
vn 0.866000 0.500000 -0.000000
vn 0.965900 -0.258800 -0.000000
vn -0.258800 0.965900 -0.000000
vn -0.500000 0.866000 -0.000000
vn -0.866000 0.500000 -0.000000
vn -0.965900 -0.258800 -0.000000
vn -0.000000 1.000000 -0.000000
vn 0.258800 0.965900 -0.000000
vn 0.000000 0.000000 -1.000000
f 1/1/1 2/2/2 3/3/3
f 1/1/1 3/3/3 4/4/4
f 4/4/4 3/3/3 5/5/5
f 4/4/4 5/5/5 6/6/5
f 6/6/5 5/5/5 7/7/6
f 6/6/5 7/7/6 8/8/6
f 8/8/6 7/7/6 9/9/7
f 8/8/6 9/9/7 10/10/7
f 11/11/8 12/12/8 13/13/5
f 11/11/8 13/13/5 14/14/5
f 15/15/2 16/16/2 12/12/8
f 15/15/2 12/12/8 11/11/8
f 10/10/9 9/9/9 16/16/2
f 10/10/9 16/16/2 15/15/2
f 17/17/10 18/18/10 2/2/2
f 17/17/10 2/2/2 1/1/1
f 19/19/11 20/20/11 18/18/10
f 19/19/11 18/18/10 17/17/10
f 21/21/12 22/22/12 20/20/11
f 21/21/12 20/20/11 19/19/11
f 23/23/13 24/24/13 22/22/12
f 23/23/13 22/22/12 21/21/12
f 25/25/14 26/26/12 27/27/11
f 25/25/14 27/27/11 28/28/11
f 28/28/11 27/27/11 29/29/10
f 28/28/11 29/29/10 30/30/10
f 30/30/10 29/29/10 31/31/1
f 30/30/10 31/31/1 32/32/1
f 32/32/1 31/31/1 24/24/15
f 32/32/1 24/24/15 23/23/15
f 14/14/5 13/13/5 33/33/16
f 14/14/5 33/33/16 34/34/6
f 35/35/17 36/36/17 37/37/18
f 35/35/17 37/37/18 38/38/18
f 39/39/19 40/40/19 36/36/17
f 39/39/19 36/36/17 35/35/17
f 41/41/6 42/42/6 40/40/19
f 41/41/6 40/40/19 39/39/19
f 43/43/20 44/44/20 42/45/6
f 43/43/20 42/45/6 41/46/6
f 45/47/19 46/48/19 47/49/17
f 45/47/19 47/49/17 48/50/17
f 48/50/17 47/49/17 49/51/18
f 48/50/17 49/51/18 50/52/18
f 50/52/18 49/51/18 44/44/21
f 50/52/18 44/44/21 43/43/21
f 38/38/18 37/37/18 51/53/22
f 38/38/18 51/53/22 52/54/22
f 52/54/22 51/53/22 53/55/23
f 52/54/22 53/55/23 54/56/23
f 54/56/23 53/55/23 55/57/12
f 54/56/23 55/57/12 56/58/12
f 56/58/12 55/57/12 57/59/24
f 56/58/12 57/59/24 58/60/24
f 59/61/22 60/62/22 61/63/23
f 59/61/22 61/63/23 62/64/23
f 63/65/25 64/66/25 60/62/22
f 63/65/25 60/62/22 59/61/22
f 58/60/26 57/59/26 64/66/25
f 58/60/26 64/66/25 63/65/25
f 34/34/6 33/33/16 46/48/19
f 34/34/6 46/48/19 45/47/19
f 62/64/23 61/63/23 26/26/12
f 62/64/23 26/26/12 25/25/14
f 59/67/27 62/68/27 65/69/27
f 59/67/27 65/69/27 66/70/27
f 63/71/27 59/67/27 66/70/27
f 63/71/27 66/70/27 67/72/27
f 62/68/27 25/73/27 68/74/27
f 62/68/27 68/74/27 65/69/27
f 68/74/27 25/73/27 28/75/27
f 68/74/27 28/75/27 69/76/27
f 69/76/27 28/75/27 30/77/27
f 69/76/27 30/77/27 70/78/27
f 70/78/27 30/77/27 32/79/27
f 70/78/27 32/79/27 71/80/27
f 32/79/27 21/81/27 19/82/27
f 32/79/27 19/82/27 71/80/27
f 71/80/27 19/82/27 17/83/27
f 71/80/27 17/83/27 72/84/27
f 4/85/27 73/86/27 72/84/27
f 4/85/27 72/84/27 1/87/27
f 73/86/27 4/85/27 6/88/27
f 73/86/27 6/88/27 74/89/27
f 74/89/27 6/88/27 8/90/27
f 74/89/27 8/90/27 75/91/27
f 8/90/27 15/92/27 11/93/27
f 8/90/27 11/93/27 75/91/27
f 14/94/27 34/95/27 76/96/27
f 14/94/27 76/96/27 75/91/27
f 76/96/27 34/95/27 45/97/27
f 76/96/27 45/97/27 77/98/27
f 77/98/27 45/97/27 48/99/27
f 77/98/27 48/99/27 78/100/27
f 78/100/27 48/99/27 50/101/27
f 78/100/27 50/101/27 79/102/27
f 50/101/27 41/103/27 39/104/27
f 50/101/27 39/104/27 79/102/27
f 35/105/27 80/106/27 79/102/27
f 35/105/27 79/102/27 39/104/27
f 80/106/27 38/107/27 52/108/27
f 80/106/27 52/108/27 67/72/27
f 54/109/27 56/110/27 63/71/27
f 54/109/27 63/71/27 67/72/27
f 8/90/27 10/111/27 15/92/27
f 11/93/27 14/94/27 75/91/27
f 17/83/27 1/87/27 72/84/27
f 23/112/27 21/81/27 32/79/27
f 35/105/27 38/107/27 80/106/27
f 43/113/27 41/103/27 50/101/27
f 52/108/27 54/109/27 67/72/27
f 56/110/27 58/114/27 63/71/27
