v -2.849022 0.000000 2.949690
v -2.891228 0.000000 2.932209
v -2.937477 0.000000 2.885948
v -2.954956 0.000000 -2.843750
v -2.954956 0.000000 2.768099
v -2.954956 0.000000 -2.726580
v -2.954956 0.000000 2.843748
v -2.937477 0.000000 -2.885952
v -2.891228 0.000000 -2.932201
v 2.849022 0.000000 -2.949692
v -2.717232 0.000000 -2.949692
v 2.751740 0.000000 -2.949692
v -2.849022 0.000000 -2.949692
v 2.891228 0.000000 -2.932211
v 2.937477 0.000000 -2.885952
v 2.954964 0.000000 2.843740
v 2.954964 0.000000 -2.728582
v 2.954964 0.000000 2.706518
v 2.954964 0.000000 -2.843750
v 2.937477 0.000000 2.885948
v 2.891228 0.000000 2.932209
v 2.720901 0.000000 2.949690
v -2.804039 0.000000 2.949690
v 2.849022 0.000000 2.949690
v 2.954964 0.847488 -2.843750
v 2.937477 0.847488 -2.885952
v 2.891228 0.847488 -2.932211
v -2.849022 0.847488 -2.949692
v 2.751740 0.847488 -2.949692
v -2.717232 0.847488 -2.949692
v 2.849022 0.847488 -2.949692
v -2.891228 0.847488 -2.932201
v -2.937477 0.847488 -2.885952
v -2.954956 0.847488 2.843748
v -2.954956 0.847488 -2.726580
v -2.954956 0.847488 2.768099
v -2.954956 0.847488 -2.843750
v -2.937477 0.847488 2.885948
v -2.891228 0.847488 2.932209
v 2.849022 0.847488 2.949690
v -2.804039 0.847488 2.949690
v 2.720901 0.847488 2.949690
v -2.849022 0.847488 2.949690
v 2.891228 0.847488 2.932209
v 2.937477 0.847488 2.885948
v 2.954964 0.847488 2.706518
v 2.954964 0.847488 -2.728582
v 2.954964 0.847488 2.843740
v 2.855911 0.034676 2.984369
v 2.855911 0.620369 2.984369
v 2.727486 0.423973 2.984369
v 2.727486 0.227570 2.984369
v -2.989639 0.034676 2.850639
v -2.989639 0.620369 2.850639
v -2.989639 0.423973 2.774809
v -2.989639 0.227570 2.774809
v -2.910873 0.034676 2.961609
v -2.910873 0.812813 2.961609
v -2.966881 0.812813 2.905600
v -2.966881 0.034676 2.905600
v 2.910866 0.034676 2.961609
v 2.966866 0.034676 2.905600
v 2.966866 0.812813 2.905600
v 2.910866 0.812813 2.961609
v -2.966881 0.034676 -2.905600
v -2.966881 0.812813 -2.905600
v -2.910873 0.812813 -2.961603
v -2.910873 0.034676 -2.961603
v -2.855919 0.620369 2.984369
v -2.855919 0.812813 2.984369
v -2.855919 0.034676 2.984369
v 2.855911 0.812813 2.984369
v -2.989639 0.034676 -2.850641
v -2.989639 0.620369 -2.850641
v -2.989639 0.812813 2.850639
v 2.989639 0.034676 2.850639
v 2.989639 0.620369 2.850639
v 2.989639 0.812813 2.850639
v -2.855919 0.620369 -2.984371
v -2.855919 0.034676 -2.984371
v -2.989639 0.034676 -2.733191
v -2.810814 0.034676 2.984369
v 2.727486 0.812813 2.984369
v -2.989639 0.812813 2.774809
v -2.855919 0.812813 -2.984371
v -2.989639 0.812813 -2.850641
v -2.723808 0.423973 -2.984371
v -2.723808 0.227570 -2.984371
v 2.989639 0.034676 -2.850641
v 2.989639 0.620369 -2.850641
v 2.989639 0.423973 -2.735193
v 2.989639 0.227570 -2.735193
v 2.910866 0.034676 -2.961611
v 2.910866 0.812813 -2.961611
v 2.966866 0.812813 -2.905600
v 2.966866 0.034676 -2.905600
v 2.855911 0.620369 -2.984371
v 2.855911 0.812813 -2.984371
v 2.855911 0.034676 -2.984371
v 2.989639 0.812813 -2.850641
v 2.989639 0.034676 2.713079
v 2.758392 0.034676 -2.984371
v -2.723808 0.812813 -2.984371
v 2.989639 0.812813 -2.735193
v -2.810814 0.620369 2.984369
v -2.989639 0.620369 -2.733191
v -2.989639 0.812813 -2.733191
v 2.758392 0.620369 -2.984371
v 2.989639 0.620369 2.713079
v 2.727486 0.034676 2.984369
v 2.679283 0.227570 2.984369
v -2.810814 0.812813 2.984369
v 2.727486 0.620369 2.984369
v -2.743469 0.620369 2.984369
v -2.810814 0.423973 2.984369
v -2.743469 0.423973 2.713148
v -2.810814 0.227570 2.984369
v -2.989639 0.227570 -2.733191
v -2.989639 0.034676 2.774809
v -2.989639 0.620369 -2.680822
v -2.989639 0.423973 -2.733191
v -2.794754 0.423973 -2.680822
v -2.989639 0.227570 2.702259
v -2.989639 0.620369 2.774809
v 2.758392 0.227570 -2.984371
v -2.723808 0.034676 -2.984371
v 2.758392 0.812813 -2.984371
v 2.701408 0.620369 -2.984371
v 2.758392 0.423973 -2.984371
v 2.701408 0.423973 -2.786081
v -2.660919 0.227570 -2.984371
v -2.723808 0.620369 -2.984371
v 2.989639 0.227570 2.713079
v 2.989639 0.034676 -2.735193
v 2.989639 0.812813 2.713079
v 2.989639 0.620369 2.647610
v 2.989639 0.423973 2.713079
v 2.744469 0.423973 2.647610
v 2.989639 0.227570 -2.684790
v 2.989639 0.620369 -2.735193
v 2.679283 0.423973 2.713148
v -2.794754 0.423973 2.702259
v -2.660919 0.423973 -2.786081
v 2.744469 0.423973 -2.684790
v 2.989639 0.620369 -2.684790
v 2.989639 0.227570 2.647610
v -2.660919 0.620369 -2.984371
v 2.701408 0.227570 -2.984371
v -2.989639 0.620369 2.702259
v -2.989639 0.227570 -2.680822
v 2.679283 0.620369 2.984369
v -2.743469 0.227570 2.984369
vt 0.673400 -0.662200
vt 0.671300 -0.663100
vt 0.668700 -0.665600
vt 0.667800 -0.976900
vt 0.667800 -0.672000
vt 0.667800 -0.970500
vt 0.667800 -0.667900
vt 0.668700 -0.979200
vt 0.671300 -0.981700
vt 0.983100 -0.982600
vt 0.680700 -0.982600
vt 0.977800 -0.982600
vt 0.673600 -0.982600
vt 0.985300 -0.981700
vt 0.987900 -0.979200
vt 0.988800 -0.667900
vt 0.988800 -0.970600
vt 0.988800 -0.675400
vt 0.988800 -0.976900
vt 0.987900 -0.665600
vt 0.985300 -0.663100
vt 0.976100 -0.662100
vt 0.675800 -0.662200
vt 0.983100 -0.662100
vt 0.563100 -0.653600
vt 0.562600 -0.652600
vt 0.561600 -0.651500
vt 0.427600 -0.651100
vt 0.558300 -0.651100
vt 0.430700 -0.651100
vt 0.560600 -0.651100
vt 0.426600 -0.651500
vt 0.425600 -0.652600
vt 0.425200 -0.786300
vt 0.425200 -0.656300
vt 0.425200 -0.784500
vt 0.425200 -0.653600
vt 0.425600 -0.787300
vt 0.426600 -0.788400
vt 0.560600 -0.788800
vt 0.428600 -0.788800
vt 0.557700 -0.788800
vt 0.427600 -0.788800
vt 0.561600 -0.788400
vt 0.562600 -0.787300
vt 0.563100 -0.783100
vt 0.563100 -0.656300
vt 0.563100 -0.786300
vt 0.014300 -0.623300
vt 0.045000 -0.623300
vt 0.034700 -0.616600
vt 0.024400 -0.616600
vt 0.014300 -0.315200
vt 0.045000 -0.315200
vt 0.034700 -0.311200
vt 0.024400 -0.311200
vt 0.014300 -0.321000
vt 0.055100 -0.321000
vt 0.055100 -0.318100
vt 0.014300 -0.318100
vt 0.014300 -0.626200
vt 0.014300 -0.629100
vt 0.055100 -0.629100
vt 0.055100 -0.626200
vt 0.014300 -0.013400
vt 0.055100 -0.013400
vt 0.055100 -0.010500
vt 0.014300 -0.010500
vt 0.045000 -0.323900
vt 0.055100 -0.323900
vt 0.014300 -0.323900
vt 0.055100 -0.623300
vt 0.014300 -0.016300
vt 0.045000 -0.016300
vt 0.055100 -0.315200
vt 0.014300 -0.632000
vt 0.045000 -0.632000
vt 0.055100 -0.632000
vt 0.045000 -0.007600
vt 0.014300 -0.007600
vt 0.012400 -0.016500
vt 0.012400 -0.022600
vt 0.014300 -0.022400
vt 0.012500 -0.324100
vt 0.012500 -0.326400
vt 0.014300 -0.326200
vt 0.056900 -0.623100
vt 0.056900 -0.616400
vt 0.055100 -0.616600
vt 0.057000 -0.315100
vt 0.057000 -0.311200
vt 0.055100 -0.311200
vt 0.012500 -0.626200
vt 0.012500 -0.629200
vt 0.012600 -0.318000
vt 0.012600 -0.321000
vt 0.012500 -0.010400
vt 0.012200 -0.013400
vt 0.057200 -0.629200
vt 0.056900 -0.626200
vt 0.056800 -0.321000
vt 0.057000 -0.318000
vt 0.057200 -0.013400
vt 0.057200 -0.010400
vt 0.012600 -0.623000
vt 0.057600 -0.007900
vt 0.055100 -0.007600
vt 0.012600 -0.631700
vt 0.012500 -0.315200
vt 0.012600 -0.007900
vt 0.057100 -0.631700
vt 0.056900 -0.324100
vt 0.055100 -0.016300
vt 0.057200 -0.016300
vt 0.034700 -0.616400
vt 0.024400 -0.616400
vt 0.034700 -0.309100
vt 0.024400 -0.309100
vt 0.012400 -0.023700
vt 0.014300 -0.023500
vt 0.012500 -0.329200
vt 0.014300 -0.329000
vt 0.056900 -0.616200
vt 0.055100 -0.616400
vt 0.057000 -0.309100
vt 0.055100 -0.309100
vt 0.045000 -0.326200
vt 0.045000 -0.022400
vt 0.055100 -0.022400
vt 0.045000 -0.329000
vt 0.045000 -0.023500
vt 0.014300 -0.616600
vt 0.024400 -0.614100
vt 0.012600 -0.616300
vt 0.056900 -0.326500
vt 0.055100 -0.326200
vt 0.045000 -0.616600
vt 0.045000 -0.329800
vt 0.034700 -0.326200
vt 0.034700 -0.329800
vt 0.024400 -0.326200
vt 0.024400 -0.022400
vt 0.012500 -0.311200
vt 0.014300 -0.311200
vt 0.057200 -0.022500
vt 0.045000 -0.025200
vt 0.034700 -0.022400
vt 0.034700 -0.025200
vt 0.024400 -0.307400
vt 0.045000 -0.311200
vt 0.024400 -0.329000
vt 0.012600 -0.616100
vt 0.014300 -0.616400
vt 0.055100 -0.329000
vt 0.056900 -0.329200
vt 0.045000 -0.332000
vt 0.034700 -0.329000
vt 0.034700 -0.332000
vt 0.024400 -0.613100
vt 0.045000 -0.616400
vt 0.024400 -0.023500
vt 0.012500 -0.309100
vt 0.014300 -0.309100
vt 0.055100 -0.023500
vt 0.057200 -0.023500
vt 0.045000 -0.026900
vt 0.034700 -0.023500
vt 0.034700 -0.026900
vt 0.024400 -0.306500
vt 0.045000 -0.309100
vt 0.034700 -0.614100
vt 0.034700 -0.307400
vt 0.034700 -0.613100
vt 0.034700 -0.306500
vt 0.045000 -0.306500
vt 0.024400 -0.026900
vt 0.045000 -0.613100
vt 0.024400 -0.332000
vt 0.045000 -0.307400
vt 0.024400 -0.025200
vt 0.045000 -0.614100
vt 0.024400 -0.329800
vn -0.081400 -0.908800 0.409200
vn -0.231800 -0.908800 0.346900
vn -0.346900 -0.908800 0.231800
vn -0.409200 -0.908800 -0.081400
vn -0.382700 -0.923900 -0.000000
vn -0.409200 -0.908800 0.081400
vn -0.346900 -0.908800 -0.231800
vn -0.231800 -0.908800 -0.346900
vn 0.081400 -0.908800 -0.409200
vn -0.000000 -0.923900 -0.382700
vn -0.081400 -0.908800 -0.409200
vn 0.231800 -0.908800 -0.346900
vn 0.346900 -0.908800 -0.231800
vn 0.409200 -0.908800 0.081400
vn 0.382700 -0.923900 -0.000000
vn 0.409200 -0.908800 -0.081400
vn 0.347000 -0.908800 0.231800
vn 0.231800 -0.908800 0.346900
vn 0.000000 -0.923900 0.382700
vn 0.081400 -0.908800 0.409200
vn 0.409200 0.908800 -0.081400
vn 0.347000 0.908800 -0.231800
vn 0.231800 0.908800 -0.346900
vn -0.081400 0.908800 -0.409200
vn -0.000000 0.923900 -0.382700
vn 0.081400 0.908800 -0.409200
vn -0.231800 0.908800 -0.346900
vn -0.346900 0.908800 -0.231800
vn -0.409200 0.908800 0.081400
vn -0.382700 0.923900 -0.000000
vn -0.409200 0.908800 -0.081400
vn -0.347000 0.908800 0.231800
vn -0.231800 0.908800 0.346900
vn 0.081400 0.908800 0.409200
vn 0.000000 0.923900 0.382700
vn -0.081400 0.908800 0.409200
vn 0.231800 0.908800 0.346900
vn 0.346900 0.908800 0.231800
vn 0.382700 0.923900 -0.000000
vn 0.409200 0.908800 0.081400
vn 0.181200 -0.371000 0.910800
vn 0.195100 0.000000 0.980800
vn 0.000000 0.000000 1.000000
vn -0.910800 -0.371000 0.181200
vn -0.980800 0.000000 0.195100
vn -1.000000 0.000000 -0.000000
vn -0.515900 -0.371000 0.772100
vn -0.515900 0.371000 0.772100
vn -0.772100 0.371000 0.515900
vn -0.772100 -0.370900 0.515900
vn 0.515900 -0.371000 0.772100
vn 0.772100 -0.371000 0.515900
vn 0.772100 0.370900 0.515900
vn 0.515900 0.371000 0.772100
vn -0.772100 -0.371000 -0.515900
vn -0.772100 0.371000 -0.515900
vn -0.515900 0.371000 -0.772100
vn -0.515900 -0.371000 -0.772100
vn -0.195100 0.000000 0.980800
vn -0.181200 0.371000 0.910800
vn -0.181200 -0.371000 0.910800
vn 0.181200 0.371000 0.910800
vn -0.910800 -0.371000 -0.181200
vn -0.980800 0.000000 -0.195100
vn -0.910800 0.371000 0.181200
vn 0.910800 -0.371000 0.181200
vn 0.980800 0.000000 0.195100
vn 0.910800 0.371000 0.181200
vn -0.195100 0.000000 -0.980800
vn -0.181200 -0.371000 -0.910800
vn -0.923900 -0.382700 -0.000000
vn 0.000000 -0.382700 0.923900
vn 0.000000 0.382700 0.923900
vn -0.923900 0.382700 -0.000000
vn -0.181200 0.371000 -0.910800
vn -0.910800 0.371000 -0.181200
vn 0.000000 0.000000 -1.000000
vn 0.910800 -0.371000 -0.181200
vn 0.980800 0.000000 -0.195100
vn 1.000000 0.000000 -0.000000
vn 0.515900 -0.371000 -0.772100
vn 0.515900 0.371000 -0.772100
vn 0.772100 0.371000 -0.515900
vn 0.772100 -0.370900 -0.515900
vn 0.195100 0.000000 -0.980800
vn 0.181200 0.371000 -0.910800
vn 0.181200 -0.371000 -0.910800
vn 0.910800 0.371000 -0.181200
vn 0.923900 -0.382700 -0.000000
vn -0.000000 -0.382700 -0.923900
vn -0.000000 0.382700 -0.923900
vn 0.923900 0.382700 -0.000000
vn 0.517200 -0.177400 0.837300
vn 0.898400 -0.000000 0.439100
vn 0.970500 -0.000000 0.241000
vn -0.967800 -0.251600 -0.000000
vn -0.887000 -0.119000 0.446300
vn -0.413400 -0.000000 0.910600
vn -0.259500 -0.000000 0.965700
vn -0.967800 0.251600 -0.000000
vn -0.000000 0.000000 -1.000000
vn -0.449400 -0.130400 -0.883800
vn -0.897400 -0.000000 -0.441100
vn -0.961100 -0.000000 -0.276200
vn 0.852400 -0.165400 -0.496100
vn 0.448600 -0.000000 -0.893700
vn 0.258000 -0.000000 -0.966100
vn -0.946100 -0.000000 0.323900
vn -0.984600 -0.000000 0.175000
vn -0.521300 0.128000 0.843700
vn -0.543700 -0.000000 -0.839300
vn -0.348900 -0.000000 -0.937200
vn -0.882800 0.162700 -0.440600
vn 0.877300 -0.000000 -0.480000
vn 0.953200 -0.000000 -0.302300
vn 0.447800 0.143400 -0.882600
vn 0.354800 -0.000000 0.934900
vn 0.201400 -0.000000 0.979500
vn 0.856700 0.128200 0.499600
vn 0.625200 -0.780500 -0.000000
vn 0.852400 0.165400 -0.496100
vn 0.625200 0.780500 -0.000000
vn 0.856700 -0.128200 0.499600
vn -0.000000 -0.710500 -0.703700
vn -0.449400 0.130400 -0.883800
vn -0.000000 0.710500 -0.703700
vn 0.447800 -0.143400 -0.882600
vn -1.000000 -0.000000 -0.000000
vn -0.887000 0.119000 0.446200
vn -0.882800 -0.162700 -0.440600
vn 0.000000 -0.809900 0.586500
vn 0.517100 0.177400 0.837300
vn 0.000000 0.809900 0.586500
vn -0.521300 -0.128000 0.843700
vn 0.000000 -0.000000 1.000000
vn -0.000000 -0.000000 -1.000000
usemtl sponza/column_b
f 1/1/1 2/2/2 3/3/3
f 1/1/1 3/3/3 4/4/4
f 5/5/5 6/6/5 3/3/3
f 5/5/5 3/3/3 7/7/6
f 3/3/3 6/6/5 4/4/4
f 4/4/4 8/8/7 9/9/8
f 4/4/4 9/9/8 10/10/9
f 11/11/10 12/12/10 9/9/8
f 11/11/10 9/9/8 13/13/11
f 9/9/8 12/12/10 10/10/9
f 10/10/9 14/14/12 15/15/13
f 10/10/9 15/15/13 16/16/14
f 17/17/15 18/18/15 15/15/13
f 17/17/15 15/15/13 19/19/16
f 15/15/13 18/18/15 16/16/14
f 10/10/9 16/16/14 1/1/1
f 10/10/9 1/1/1 4/4/4
f 16/16/14 20/20/17 21/21/18
f 16/16/14 21/21/18 1/1/1
f 21/21/18 22/22/19 23/23/19
f 21/21/18 23/23/19 1/1/1
f 24/24/20 22/22/19 21/21/18
f 25/25/21 26/26/22 27/27/23
f 25/25/21 27/27/23 28/28/24
f 29/29/25 30/30/25 27/27/23
f 29/29/25 27/27/23 31/31/26
f 27/27/23 30/30/25 28/28/24
f 28/28/24 32/32/27 33/33/28
f 28/28/24 33/33/28 34/34/29
f 35/35/30 36/36/30 33/33/28
f 35/35/30 33/33/28 37/37/31
f 33/33/28 36/36/30 34/34/29
f 34/34/29 38/38/32 39/39/33
f 34/34/29 39/39/33 40/40/34
f 41/41/35 42/42/35 39/39/33
f 41/41/35 39/39/33 43/43/36
f 39/39/33 42/42/35 40/40/34
f 34/34/29 40/40/34 25/25/21
f 34/34/29 25/25/21 28/28/24
f 40/40/34 44/44/37 45/45/38
f 40/40/34 45/45/38 25/25/21
f 45/45/38 46/46/39 47/47/39
f 45/45/38 47/47/39 25/25/21
f 48/48/40 46/46/39 45/45/38
f 49/49/41 50/50/42 51/51/43
f 49/49/41 51/51/43 52/52/43
f 53/53/44 54/54/45 55/55/46
f 53/53/44 55/55/46 56/56/46
f 57/57/47 58/58/48 59/59/49
f 57/57/47 59/59/49 60/60/50
f 61/61/51 62/62/52 63/63/53
f 61/61/51 63/63/53 64/64/54
f 65/65/55 66/66/56 67/67/57
f 65/65/55 67/67/57 68/68/58
f 69/69/59 70/70/60 58/58/48
f 69/69/59 58/58/48 57/57/47
f 71/71/61 69/69/59 57/57/47
f 50/50/42 49/49/41 61/61/51
f 50/50/42 61/61/51 64/64/54
f 72/72/62 50/50/42 64/64/54
f 65/65/55 73/73/63 74/74/64
f 65/65/55 74/74/64 66/66/56
f 54/54/45 53/53/44 59/59/49
f 54/54/45 59/59/49 75/75/65
f 60/60/50 59/59/49 53/53/44
f 62/62/52 76/76/66 77/77/67
f 62/62/52 77/77/67 63/63/53
f 63/63/53 77/77/67 78/78/68
f 68/68/58 67/67/57 79/79/69
f 68/68/58 79/79/69 80/80/70
f 4/81/4 6/82/5 81/83/71
f 4/81/4 81/83/71 73/73/63
f 1/84/1 23/85/19 82/86/72
f 1/84/1 82/86/72 71/71/61
f 40/87/34 42/88/35 83/89/73
f 40/87/34 83/89/73 72/72/62
f 34/90/29 36/91/30 84/92/74
f 34/90/29 84/92/74 75/75/65
f 61/61/51 21/93/18 20/94/17
f 61/61/51 20/94/17 62/62/52
f 60/60/50 3/95/3 2/96/2
f 60/60/50 2/96/2 57/57/47
f 68/68/58 9/97/8 8/98/7
f 68/68/58 8/98/7 65/65/55
f 63/63/53 45/99/38 44/100/37
f 63/63/53 44/100/37 64/64/54
f 58/58/48 39/101/33 38/102/32
f 58/58/48 38/102/32 59/59/49
f 66/66/56 33/103/28 32/104/27
f 66/66/56 32/104/27 67/67/57
f 49/49/41 24/105/20 21/93/18
f 49/49/41 21/93/18 61/61/51
f 57/57/47 2/96/2 1/84/1
f 57/57/47 1/84/1 71/71/61
f 65/65/55 8/98/7 4/81/4
f 65/65/55 4/81/4 73/73/63
f 64/64/54 44/100/37 40/87/34
f 64/64/54 40/87/34 72/72/62
f 59/59/49 38/102/32 34/90/29
f 59/59/49 34/90/29 75/75/65
f 67/67/57 32/104/27 28/106/24
f 67/67/57 28/106/24 85/107/75
f 62/62/52 20/94/17 16/108/14
f 62/62/52 16/108/14 76/76/66
f 53/53/44 7/109/6 3/95/3
f 53/53/44 3/95/3 60/60/50
f 80/80/70 13/110/11 9/97/8
f 80/80/70 9/97/8 68/68/58
f 78/78/68 48/111/40 45/99/38
f 78/78/68 45/99/38 63/63/53
f 70/70/60 43/112/36 39/101/33
f 70/70/60 39/101/33 58/58/48
f 86/113/76 37/114/31 33/103/28
f 86/113/76 33/103/28 66/66/56
f 80/49/70 79/50/69 87/115/77
f 80/49/70 87/115/77 88/116/77
f 89/53/78 90/54/79 91/117/80
f 89/53/78 91/117/80 92/118/80
f 93/57/81 94/58/82 95/59/83
f 93/57/81 95/59/83 96/60/84
f 97/69/85 98/70/86 94/58/82
f 97/69/85 94/58/82 93/57/81
f 99/71/87 97/69/85 93/57/81
f 90/54/79 89/53/78 95/59/83
f 90/54/79 95/59/83 100/75/88
f 96/60/84 95/59/83 89/53/78
f 16/81/14 18/119/15 101/120/89
f 16/81/14 101/120/89 76/73/66
f 10/84/9 12/121/10 102/122/90
f 10/84/9 102/122/90 99/71/87
f 28/87/24 30/123/25 103/124/91
f 28/87/24 103/124/91 85/72/75
f 25/90/21 47/125/39 104/126/92
f 25/90/21 104/126/92 100/75/88
f 96/60/84 15/95/13 14/96/12
f 96/60/84 14/96/12 93/57/81
f 94/58/82 27/101/23 26/102/22
f 94/58/82 26/102/22 95/59/83
f 93/57/81 14/96/12 10/84/9
f 93/57/81 10/84/9 99/71/87
f 95/59/83 26/102/22 25/90/21
f 95/59/83 25/90/21 100/75/88
f 89/53/78 19/109/16 15/95/13
f 89/53/78 15/95/13 96/60/84
f 98/70/86 31/112/26 27/101/23
f 98/70/86 27/101/23 94/58/82
f 69/69/59 105/127/43 70/70/60
f 74/74/64 106/128/46 107/129/74
f 74/74/64 107/129/74 86/113/76
f 97/69/85 108/130/77 98/70/86
f 77/74/67 109/131/80 78/113/68
f 110/132/72 52/52/43 111/133/43
f 110/132/72 22/134/19 24/105/20
f 110/132/72 24/105/20 49/49/41
f 42/88/35 41/135/35 112/136/73
f 42/88/35 112/136/73 83/89/73
f 83/89/73 113/137/43 72/72/62
f 113/137/43 51/51/43 50/50/42
f 23/85/19 22/134/19 110/132/72
f 23/85/19 110/132/72 82/86/72
f 112/136/73 105/127/43 114/138/43
f 114/138/93 105/127/43 115/139/94
f 114/138/93 115/139/94 116/140/95
f 82/86/72 117/141/43 71/71/61
f 112/136/73 41/135/35 43/112/36
f 112/136/73 43/112/36 70/70/60
f 81/83/71 118/142/46 73/73/63
f 6/82/5 5/143/5 119/144/71
f 6/82/5 119/144/71 81/83/71
f 107/129/74 35/145/30 37/114/31
f 107/129/74 37/114/31 86/113/76
f 107/129/74 106/128/46 120/146/96
f 120/146/97 106/128/46 121/147/98
f 120/146/97 121/147/98 122/148/99
f 119/144/71 56/56/46 123/149/100
f 36/91/30 35/145/30 107/129/74
f 36/91/30 107/129/74 84/92/74
f 119/144/71 5/143/5 7/109/6
f 119/144/71 7/109/6 53/53/44
f 84/92/74 124/150/46 75/75/65
f 124/150/46 55/55/46 54/54/45
f 102/122/90 125/151/77 99/71/87
f 12/121/10 11/152/10 126/153/90
f 12/121/10 126/153/90 102/122/90
f 127/154/91 29/155/25 31/112/26
f 127/154/91 31/112/26 98/70/86
f 127/154/91 108/130/77 128/156/101
f 128/156/102 108/130/77 129/157/103
f 128/156/102 129/157/103 130/158/104
f 126/153/90 88/116/77 131/159/101
f 30/123/25 29/155/25 127/154/91
f 30/123/25 127/154/91 103/124/91
f 126/153/90 11/152/10 13/105/11
f 126/153/90 13/105/11 80/49/70
f 103/124/91 132/160/77 79/50/69
f 103/124/91 79/50/69 85/72/75
f 132/160/77 87/115/77 79/50/69
f 101/120/89 133/161/80 76/73/66
f 18/119/15 17/162/15 134/163/89
f 18/119/15 134/163/89 101/120/89
f 135/164/92 46/165/39 48/114/40
f 135/164/92 48/114/40 78/113/68
f 135/164/92 109/131/80 136/166/80
f 136/166/105 109/131/80 137/167/106
f 136/166/105 137/167/106 138/168/107
f 134/163/89 92/118/80 139/169/80
f 47/125/39 46/165/39 135/164/92
f 47/125/39 135/164/92 104/126/92
f 134/163/89 17/162/15 19/109/16
f 134/163/89 19/109/16 89/53/78
f 104/126/92 140/170/80 100/75/88
f 140/170/80 91/117/80 90/54/79
f 51/51/108 141/171/109 111/133/110
f 51/51/108 111/133/110 52/52/43
f 55/55/111 142/172/112 123/149/113
f 55/55/111 123/149/113 56/56/46
f 87/115/114 143/173/115 131/159/116
f 87/115/114 131/159/116 88/116/77
f 91/117/117 144/174/118 139/169/119
f 91/117/117 139/169/119 92/118/80
f 136/166/120 138/168/120 144/174/120
f 136/166/120 144/174/120 145/175/120
f 146/176/121 138/168/107 137/167/106
f 146/176/121 137/167/106 133/161/80
f 139/169/122 144/174/122 138/168/122
f 139/169/122 138/168/122 146/176/122
f 145/175/123 144/174/118 91/117/117
f 145/175/123 91/117/117 140/170/80
f 128/156/124 130/158/124 143/173/124
f 128/156/124 143/173/124 147/177/124
f 148/178/125 130/158/104 129/157/103
f 148/178/125 129/157/103 125/151/77
f 131/159/126 143/173/126 130/158/126
f 131/159/126 130/158/126 148/178/126
f 147/177/127 143/173/115 87/115/114
f 147/177/127 87/115/114 132/160/77
f 120/146/96 122/148/128 142/172/128
f 120/146/96 142/172/128 149/179/96
f 150/180/129 122/148/99 121/147/98
f 150/180/129 121/147/98 118/142/46
f 123/149/100 142/172/128 122/148/128
f 123/149/100 122/148/128 150/180/100
f 149/179/130 142/172/112 55/55/111
f 149/179/130 55/55/111 124/150/46
f 114/138/131 116/140/131 141/171/131
f 114/138/131 141/171/131 151/181/131
f 152/182/132 116/140/95 115/139/94
f 152/182/132 115/139/94 117/141/43
f 111/133/133 141/171/133 116/140/133
f 111/133/133 116/140/133 152/182/133
f 151/181/134 141/171/109 51/51/108
f 151/181/134 51/51/108 113/137/43
f 69/69/59 115/139/43 105/127/43
f 84/92/74 149/179/96 124/150/46
f 119/144/71 123/149/100 150/180/100
f 119/144/71 150/180/100 81/83/71
f 112/136/73 114/138/43 151/181/135
f 112/136/73 151/181/135 83/89/73
f 82/86/72 152/182/135 117/141/43
f 107/129/74 120/146/96 149/179/96
f 107/129/74 149/179/96 84/92/74
f 81/83/71 150/180/100 118/142/46
f 74/74/64 121/147/46 106/128/46
f 126/153/90 131/159/101 148/178/136
f 126/153/90 148/178/136 102/122/90
f 103/124/91 147/177/136 132/160/77
f 127/154/91 128/156/101 147/177/136
f 127/154/91 147/177/136 103/124/91
f 97/69/85 129/157/77 108/130/77
f 134/163/89 139/169/80 146/176/80
f 134/163/89 146/176/80 101/120/89
f 104/126/92 145/175/80 140/170/80
f 102/122/90 148/178/136 125/151/77
f 77/74/67 137/167/80 109/131/80
f 83/89/73 151/181/135 113/137/43
f 110/132/72 111/133/43 152/182/135
f 110/132/72 152/182/135 82/86/72
f 101/120/89 146/176/80 133/161/80
f 135/164/92 136/166/80 145/175/80
f 135/164/92 145/175/80 104/126/92
f 53/53/44 56/56/46 119/144/71
f 75/75/65 124/150/46 54/54/45
f 70/70/60 105/127/43 112/136/73
f 71/71/61 117/141/43 115/139/43
f 71/71/61 115/139/43 69/69/59
f 66/66/56 74/74/64 86/113/76
f 79/79/69 67/67/57 85/107/75
f 80/49/70 88/116/77 126/153/90
f 73/73/63 118/142/46 121/147/46
f 73/73/63 121/147/46 74/74/64
f 100/75/88 140/170/80 90/54/79
f 99/71/87 125/151/77 129/157/77
f 99/71/87 129/157/77 97/69/85
f 89/53/78 92/118/80 134/163/89
f 98/70/86 108/130/77 127/154/91
f 78/113/68 109/131/80 135/164/92
f 72/72/62 113/137/43 50/50/42
f 49/49/41 52/52/43 110/132/72
f 76/73/66 133/161/80 137/167/80
f 76/73/66 137/167/80 77/74/67
