v 3.837696 22.345781 -3.843910
v -3.837696 22.345781 -3.843910
v -3.837696 22.345781 3.843910
v 3.837696 22.345781 3.843910
v 3.837696 21.543890 3.843910
v -3.837696 21.543890 3.843910
v -3.837696 21.034872 3.843910
v 3.837696 21.034872 3.843910
v -3.837696 21.543890 -3.843910
v -3.837696 21.034872 -3.843910
v 3.837696 21.543890 -3.843910
v 3.837696 21.034872 -3.843910
v 3.619015 20.654730 3.624870
v 3.619015 20.654730 -3.624870
v -3.619022 20.654730 -3.624870
v -3.619022 20.654730 3.624870
v 3.066353 20.363281 3.071310
v 3.066353 20.363281 -3.071320
v -3.066364 20.363281 -3.071320
v -3.066364 20.363281 3.071310
v -2.599766 18.911201 -1.095259
v -1.089066 18.911201 -2.605961
v -1.089066 0.000000 -2.605961
v -2.599766 0.000000 -1.095259
v 1.047382 18.911201 -2.605961
v 1.047382 0.000000 -2.605961
v 2.558075 18.911201 -1.095259
v 2.558075 0.000000 -1.095259
v 2.558075 18.911201 1.041180
v 2.558075 0.000000 1.041180
v 1.047379 18.911201 2.551880
v 1.047379 0.000000 2.551880
v -1.089066 18.911201 2.551880
v -1.089066 0.000000 2.551880
v -2.599766 18.911201 1.041180
v -2.599766 0.000000 1.041180
v -2.757214 19.496082 -1.160480
v -1.154282 19.496082 -2.763409
v -1.089066 19.368671 -2.605961
v -2.599766 19.368671 -1.095259
v 1.112606 19.496082 -2.763409
v 1.047382 19.368671 -2.605961
v 2.715523 19.496082 -1.160480
v 2.558075 19.368671 -1.095259
v 2.715523 19.496082 1.106411
v 2.558075 19.368671 1.041180
v 1.112606 19.496082 2.709332
v 1.047379 19.368671 2.551880
v -1.154282 19.496082 2.709332
v -1.089066 19.368671 2.551880
v -2.757214 19.496082 1.106411
v -2.599766 19.368671 1.041180
v -2.824329 20.172112 -1.188280
v -1.182083 20.172112 -2.830519
v -1.109146 19.878321 -2.654449
v -2.648251 19.878321 -1.115351
v 1.140381 20.172112 -2.830519
v 1.067463 19.878321 -2.654449
v 2.782639 20.172112 -1.188280
v 2.606575 19.878321 -1.115351
v 2.782623 20.172112 1.134201
v 2.606575 19.878321 1.061270
v 1.140381 20.172112 2.776440
v 1.067463 19.878321 2.600380
v -1.182083 20.172112 2.776440
v -1.109146 19.878321 2.600380
v -2.824329 20.172112 1.134201
v -2.648251 19.878321 1.061270
v -2.849270 19.139942 -1.198610
v -1.192425 19.139942 -2.855471
v 1.150726 19.139942 -2.855471
v 2.807583 19.139942 -1.198610
v 2.807583 19.139942 1.144541
v 1.150726 19.139942 2.801390
v -1.192425 19.139942 2.801390
v -2.849270 19.139942 1.144541
v -2.662136 19.623491 -1.121099
v -1.114902 19.623491 -2.668331
v 1.073212 19.623491 -2.668331
v 2.620453 19.623491 -1.121099
v 2.620453 19.623491 1.067020
v 1.073212 19.623491 2.614262
v -1.114902 19.623491 2.614262
v -2.662136 19.623491 1.067020
v 3.744839 21.767002 3.751049
v -3.744846 21.767002 3.751049
v -3.744846 21.543890 3.751049
v 3.744839 21.543890 3.751049
v -3.744846 21.767002 -3.751049
v -3.744846 21.543890 -3.751049
v 3.744839 21.767002 -3.751049
v 3.744839 21.543890 -3.751049
v 3.837696 21.767002 3.843910
v -3.837696 21.767002 3.843910
v -3.837696 21.767002 -3.843910
v 3.837696 21.767002 -3.843910
vt 0.296900 0.905000
vt 0.296900 0.713600
vt 0.105200 0.713600
vt 0.105200 0.905000
vt 0.041900 0.014900
vt 0.041900 0.255900
vt 0.057900 0.255900
vt 0.057900 0.014900
vt 0.041900 0.494400
vt 0.057700 0.494400
vt 0.041900 0.732500
vt 0.057700 0.732500
vt 0.041900 0.974000
vt 0.057900 0.974000
vt 0.069800 0.967100
vt 0.069800 0.739400
vt 0.069400 0.725700
vt 0.069400 0.501200
vt 0.069400 0.487600
vt 0.069400 0.262700
vt 0.069800 0.249100
vt 0.069800 0.021700
vt 0.087100 0.949700
vt 0.087100 0.756800
vt 0.086600 0.708600
vt 0.086600 0.518300
vt 0.086600 0.470400
vt 0.086600 0.279900
vt 0.087200 0.231700
vt 0.087200 0.039100
vt 0.821500 0.900300
vt 0.892700 0.900300
vt 0.892700 0.008600
vt 0.821500 0.008600
vt 0.993500 0.900300
vt 0.993500 0.008600
vt 0.305600 0.900300
vt 0.376800 0.900300
vt 0.376800 0.008600
vt 0.305600 0.008600
vt 0.477500 0.900300
vt 0.477500 0.008600
vt 0.548800 0.900300
vt 0.548800 0.008600
vt 0.649500 0.900300
vt 0.649500 0.008600
vt 0.720700 0.900300
vt 0.720700 0.008600
vt 0.135600 0.949300
vt 0.242800 0.949300
vt 0.242800 0.941400
vt 0.135600 0.941400
vt 0.350000 0.949300
vt 0.350000 0.941400
vt 0.457100 0.949300
vt 0.457100 0.941400
vt 0.564300 0.949300
vt 0.564300 0.941400
vt 0.671500 0.949300
vt 0.671500 0.941400
vt 0.778700 0.949300
vt 0.778700 0.941400
vt 0.885900 0.949300
vt 0.885900 0.941400
vt 0.993100 0.949300
vt 0.993100 0.941400
vt 0.135600 0.990800
vt 0.242800 0.990800
vt 0.242800 0.972700
vt 0.135600 0.972700
vt 0.350000 0.990800
vt 0.350000 0.972700
vt 0.457100 0.990800
vt 0.457100 0.972700
vt 0.564300 0.990800
vt 0.564300 0.972700
vt 0.671500 0.990800
vt 0.671500 0.972700
vt 0.778700 0.990800
vt 0.778700 0.972700
vt 0.885900 0.990800
vt 0.885900 0.972700
vt 0.993100 0.990800
vt 0.993100 0.972700
vt 0.094100 0.648800
vt 0.094100 0.576800
vt 0.145000 0.525800
vt 0.094100 0.412000
vt 0.094100 0.340000
vt 0.148000 0.224100
vt 0.096400 0.172500
vt 0.096400 0.099600
vt 0.148000 0.048000
vt 0.096100 0.888900
vt 0.096100 0.815900
vt 0.145000 0.699800
vt 0.135600 0.913300
vt 0.135600 0.927400
vt 0.242800 0.927400
vt 0.242800 0.913300
vt 0.350000 0.927400
vt 0.350000 0.913300
vt 0.457100 0.927400
vt 0.457100 0.913300
vt 0.564300 0.927400
vt 0.564300 0.913300
vt 0.671500 0.927400
vt 0.671500 0.913300
vt 0.778700 0.927400
vt 0.778700 0.913300
vt 0.885900 0.927400
vt 0.885900 0.913300
vt 0.993100 0.927400
vt 0.993100 0.913300
vt 0.135600 0.957100
vt 0.242800 0.957100
vt 0.350000 0.957100
vt 0.457100 0.957100
vt 0.564300 0.957100
vt 0.671500 0.957100
vt 0.778700 0.957100
vt 0.885900 0.957100
vt 0.993100 0.957100
vt 0.031800 0.017800
vt 0.031800 0.255900
vt 0.038900 0.255900
vt 0.038900 0.017800
vt 0.031800 0.494400
vt 0.038900 0.494400
vt 0.031800 0.732500
vt 0.038900 0.732500
vt 0.031800 0.971000
vt 0.038900 0.971000
vt 0.024300 0.494500
vt 0.005900 0.494500
vt 0.005900 0.738500
vt 0.024300 0.738500
vt 0.005900 0.982900
vt 0.024300 0.982900
vt 0.024300 0.006100
vt 0.005900 0.006100
vt 0.005900 0.250100
vt 0.024300 0.250100
vt 0.027200 0.735500
vt 0.027200 0.497400
vt 0.027200 0.491500
vt 0.027200 0.253000
vt 0.027200 0.247100
vt 0.027200 0.009000
vt 0.027200 0.979900
vt 0.027200 0.741400
vn 0.000000 1.000000 -0.000000
vn 0.707100 0.000000 0.707100
vn -0.707100 0.000000 0.707100
vn -0.675600 -0.295100 0.675700
vn 0.675600 -0.295100 0.675700
vn -0.707100 0.000000 -0.707100
vn -0.675600 -0.295100 -0.675700
vn 0.707100 0.000000 -0.707100
vn 0.675600 -0.295100 -0.675700
vn 0.462700 -0.756400 0.462400
vn 0.462700 -0.756400 -0.462400
vn -0.462700 -0.756400 -0.462400
vn -0.462700 -0.756400 0.462400
vn 0.216500 -0.952000 0.216200
vn 0.217700 -0.951600 -0.217000
vn -0.218300 -0.951200 -0.218000
vn -0.217100 -0.951700 0.217200
vn -0.923900 0.000000 -0.382700
vn -0.382700 0.000000 -0.923900
vn 0.000000 0.000000 -1.000000
vn 0.923900 0.000000 -0.382700
vn 0.923900 0.000000 0.382700
vn 0.000000 0.000000 1.000000
vn -0.382700 0.000000 0.923900
vn -1.000000 0.000000 -0.000000
vn -0.553200 -0.800900 -0.229100
vn -0.229100 -0.800900 -0.553200
vn 0.229100 -0.800900 -0.553200
vn 0.553200 -0.800900 -0.229100
vn 0.553200 -0.800900 0.229100
vn 0.229100 -0.800900 0.553200
vn -0.229100 -0.800900 0.553200
vn -0.553200 -0.800900 0.229100
vn -0.637800 -0.755900 -0.147600
vn -0.147600 -0.755100 -0.638800
vn -0.367800 -0.276400 -0.887900
vn -0.887900 -0.276400 -0.367800
vn 0.147300 -0.755100 -0.638900
vn 0.367800 -0.276400 -0.887900
vn 0.607900 -0.780100 -0.147900
vn 0.887900 -0.276400 -0.367800
vn 0.608000 -0.780100 0.147500
vn 0.887900 -0.276400 0.367800
vn 0.147700 -0.785700 0.600800
vn 0.367800 -0.276400 0.887900
vn -0.148000 -0.785600 0.600700
vn -0.367800 -0.276400 0.887900
vn -0.637900 -0.755900 0.147200
vn -0.887900 -0.276400 0.367800
vn -0.597100 -0.763100 -0.247300
vn -0.247300 -0.763100 -0.597100
vn 0.247300 -0.763100 -0.597100
vn 0.597100 -0.763100 -0.247300
vn 0.597100 -0.763100 0.247300
vn 0.247300 -0.763100 0.597100
vn -0.247300 -0.763100 0.597100
vn -0.597100 -0.763100 0.247300
vn -0.597100 0.763100 -0.247300
vn -0.247300 0.763100 -0.597100
vn 0.247300 0.763100 -0.597100
vn 0.597100 0.763100 -0.247300
vn 0.597100 0.763100 0.247300
vn 0.247300 0.763100 0.597100
vn -0.247300 0.763100 0.597100
vn -0.597100 0.763100 0.247300
vn -0.851300 0.388600 -0.352600
vn -0.352600 0.388600 -0.851300
vn 0.352600 0.388600 -0.851300
vn 0.851300 0.388600 -0.352600
vn 0.851300 0.388600 0.352600
vn 0.352600 0.388600 0.851300
vn -0.352600 0.388600 0.851300
vn -0.851300 0.388600 0.352600
vn -0.718700 0.628300 -0.297700
vn -0.297700 0.628300 -0.718700
vn 0.297700 0.628300 -0.718700
vn 0.718700 0.628300 -0.297700
vn 0.718700 0.628300 0.297700
vn 0.297700 0.628300 0.718700
vn -0.297700 0.628300 0.718700
vn -0.718700 0.628400 0.297700
vn 1.000000 0.000000 -0.000000
vn 0.000000 -1.000000 -0.000000
f 1/1/1 2/2/1 3/3/1
f 1/1/1 3/3/1 4/4/1
f 5/5/2 6/6/3 7/7/4
f 5/5/2 7/7/4 8/8/5
f 6/6/3 9/9/6 10/10/7
f 6/6/3 10/10/7 7/7/4
f 9/9/6 11/11/8 12/12/9
f 9/9/6 12/12/9 10/10/7
f 11/11/8 5/13/2 8/14/5
f 11/11/8 8/14/5 12/12/9
f 13/15/10 14/16/11 12/12/9
f 13/15/10 12/12/9 8/14/5
f 14/17/11 15/18/12 10/10/7
f 14/17/11 10/10/7 12/12/9
f 15/19/12 16/20/13 7/7/4
f 15/19/12 7/7/4 10/10/7
f 16/21/13 13/22/10 8/8/5
f 16/21/13 8/8/5 7/7/4
f 13/15/10 17/23/14 18/24/15
f 13/15/10 18/24/15 14/16/11
f 14/17/11 18/25/15 19/26/16
f 14/17/11 19/26/16 15/18/12
f 15/19/12 19/27/16 20/28/17
f 15/19/12 20/28/17 16/20/13
f 16/21/13 20/29/17 17/30/14
f 16/21/13 17/30/14 13/22/10
f 21/31/18 22/32/19 23/33/19
f 21/31/18 23/33/19 24/34/18
f 22/32/19 25/35/20 26/36/20
f 22/32/19 26/36/20 23/33/19
f 25/37/8 27/38/21 28/39/21
f 25/37/8 28/39/21 26/40/8
f 27/38/21 29/41/22 30/42/22
f 27/38/21 30/42/22 28/39/21
f 29/41/22 31/43/2 32/44/2
f 29/41/22 32/44/2 30/42/22
f 31/43/23 33/45/24 34/46/24
f 31/43/23 34/46/24 32/44/23
f 33/45/24 35/47/3 36/48/3
f 33/45/24 36/48/3 34/46/24
f 35/47/25 21/31/18 24/34/18
f 35/47/25 24/34/18 36/48/25
f 37/49/26 38/50/27 39/51/27
f 37/49/26 39/51/27 40/52/26
f 38/50/27 41/53/28 42/54/28
f 38/50/27 42/54/28 39/51/27
f 41/53/28 43/55/29 44/56/29
f 41/53/28 44/56/29 42/54/28
f 43/55/29 45/57/30 46/58/30
f 43/55/29 46/58/30 44/56/29
f 45/57/30 47/59/31 48/60/31
f 45/57/30 48/60/31 46/58/30
f 47/59/31 49/61/32 50/62/32
f 47/59/31 50/62/32 48/60/31
f 49/61/32 51/63/33 52/64/33
f 49/61/32 52/64/33 50/62/32
f 51/63/33 37/65/26 40/66/26
f 51/63/33 40/66/26 52/64/33
f 53/67/34 54/68/35 55/69/36
f 53/67/34 55/69/36 56/70/37
f 54/68/35 57/71/38 58/72/39
f 54/68/35 58/72/39 55/69/36
f 57/71/38 59/73/40 60/74/41
f 57/71/38 60/74/41 58/72/39
f 59/73/40 61/75/42 62/76/43
f 59/73/40 62/76/43 60/74/41
f 61/75/42 63/77/44 64/78/45
f 61/75/42 64/78/45 62/76/43
f 63/77/44 65/79/46 66/80/47
f 63/77/44 66/80/47 64/78/45
f 65/79/46 67/81/48 68/82/49
f 65/79/46 68/82/49 66/80/47
f 67/81/48 53/83/34 56/84/37
f 67/81/48 56/84/37 68/82/49
f 57/85/38 54/86/35 19/26/16
f 57/85/38 19/26/16 18/25/15
f 19/26/16 54/86/35 53/87/34
f 19/27/16 53/88/34 67/89/48
f 19/27/16 67/89/48 20/28/17
f 20/29/17 67/90/48 65/91/46
f 20/29/17 65/91/46 63/92/44
f 20/29/17 63/92/44 17/30/14
f 17/30/14 63/92/44 61/93/42
f 61/94/42 59/95/40 18/24/15
f 61/94/42 18/24/15 17/23/14
f 18/25/15 59/96/40 57/85/38
f 21/97/50 69/98/50 70/99/51
f 21/97/50 70/99/51 22/100/51
f 22/100/51 70/99/51 71/101/52
f 22/100/51 71/101/52 25/102/52
f 25/102/52 71/101/52 72/103/53
f 25/102/52 72/103/53 27/104/53
f 27/104/53 72/103/53 73/105/54
f 27/104/53 73/105/54 29/106/54
f 29/106/54 73/105/54 74/107/55
f 29/106/54 74/107/55 31/108/55
f 31/108/55 74/107/55 75/109/56
f 31/108/55 75/109/56 33/110/56
f 33/110/56 75/109/56 76/111/57
f 33/110/56 76/111/57 35/112/57
f 35/112/57 76/111/57 69/113/50
f 35/112/57 69/113/50 21/114/50
f 69/98/58 40/52/58 39/51/59
f 69/98/58 39/51/59 70/99/59
f 70/99/59 39/51/59 42/54/60
f 70/99/59 42/54/60 71/101/60
f 71/101/60 42/54/60 44/56/61
f 71/101/60 44/56/61 72/103/61
f 72/103/61 44/56/61 46/58/62
f 72/103/61 46/58/62 73/105/62
f 73/105/62 46/58/62 48/60/63
f 73/105/62 48/60/63 74/107/63
f 74/107/63 48/60/63 50/62/64
f 74/107/63 50/62/64 75/109/64
f 75/109/64 50/62/64 52/64/65
f 75/109/64 52/64/65 76/111/65
f 76/111/65 52/64/65 40/66/58
f 76/111/65 40/66/58 69/113/58
f 77/115/66 56/70/37 55/69/36
f 77/115/66 55/69/36 78/116/67
f 78/116/67 55/69/36 58/72/39
f 78/116/67 58/72/39 79/117/68
f 79/117/68 58/72/39 60/74/41
f 79/117/68 60/74/41 80/118/69
f 80/118/69 60/74/41 62/76/43
f 80/118/69 62/76/43 81/119/70
f 81/119/70 62/76/43 64/78/45
f 81/119/70 64/78/45 82/120/71
f 82/120/71 64/78/45 66/80/47
f 82/120/71 66/80/47 83/121/72
f 83/121/72 66/80/47 68/82/49
f 83/121/72 68/82/49 84/122/73
f 84/122/73 68/82/49 56/84/37
f 84/122/73 56/84/37 77/123/66
f 37/49/74 77/115/66 78/116/67
f 37/49/74 78/116/67 38/50/75
f 38/50/75 78/116/67 79/117/68
f 38/50/75 79/117/68 41/53/76
f 41/53/76 79/117/68 80/118/69
f 41/53/76 80/118/69 43/55/77
f 43/55/77 80/118/69 81/119/70
f 43/55/77 81/119/70 45/57/78
f 45/57/78 81/119/70 82/120/71
f 45/57/78 82/120/71 47/59/79
f 47/59/79 82/120/71 83/121/72
f 47/59/79 83/121/72 49/61/80
f 49/61/80 83/121/72 84/122/73
f 49/61/80 84/122/73 51/63/81
f 51/63/81 84/122/73 77/123/66
f 51/63/81 77/123/66 37/65/74
f 85/124/23 86/125/23 87/126/23
f 85/124/23 87/126/23 88/127/23
f 86/125/25 89/128/25 90/129/25
f 86/125/25 90/129/25 87/126/25
f 89/128/20 91/130/20 92/131/20
f 89/128/20 92/131/20 90/129/20
f 91/130/82 85/132/82 88/133/82
f 91/130/82 88/133/82 92/131/82
f 93/134/23 4/135/23 3/136/23
f 93/134/23 3/136/23 94/137/23
f 94/137/25 3/136/25 2/138/25
f 94/137/25 2/138/25 95/139/25
f 95/140/20 2/141/20 1/142/20
f 95/140/20 1/142/20 96/143/20
f 96/143/82 1/142/82 4/135/82
f 96/143/82 4/135/82 93/134/82
f 88/127/1 87/126/1 6/6/1
f 88/127/1 6/6/1 5/5/1
f 87/126/1 90/129/1 9/9/1
f 87/126/1 9/9/1 6/6/1
f 90/129/1 92/131/1 11/11/1
f 90/129/1 11/11/1 9/9/1
f 92/131/1 88/133/1 5/13/1
f 92/131/1 5/13/1 11/11/1
f 86/144/83 85/145/83 93/134/83
f 86/144/83 93/134/83 94/137/83
f 85/146/83 91/147/83 96/143/83
f 85/146/83 96/143/83 93/134/83
f 91/148/83 89/149/83 95/140/83
f 91/148/83 95/140/83 96/143/83
f 89/150/83 86/151/83 94/137/83
f 89/150/83 94/137/83 95/139/83
