v -0.366394 0.000000 -7.131900
v -0.366394 10.830643 -7.127000
v -0.945160 10.830643 -7.673530
v -0.945160 0.000000 -7.673530
v -0.945160 0.000000 7.673520
v -0.945160 10.830643 7.673520
v -0.366394 10.830643 7.015490
v -0.366394 0.000000 6.998300
v 0.884048 25.835392 -3.015201
v 0.884048 24.230358 -4.190990
v 0.884048 22.662632 -4.825540
v 0.884048 21.661274 0.094360
v 0.884048 21.661274 -4.985330
v 0.884048 27.664394 0.094360
v 0.884048 26.917858 -1.596790
v 0.884048 27.085835 1.408000
v 0.884048 24.249012 4.356800
v 0.884048 21.661274 5.098760
v 0.884048 22.774609 4.954020
v 0.884048 25.854053 3.143680
v -0.945160 18.402084 7.673520
v -0.366394 18.402084 7.027500
v 0.884048 20.908283 0.094360
v 0.884033 20.908283 -5.105490
v 0.884048 20.908283 5.196640
v 0.773514 10.830643 0.094360
v 0.773514 10.830643 -5.180100
v 0.773514 0.674194 -5.135030
v 0.773514 0.674194 0.094360
v 0.773514 0.674194 5.172330
v 0.773514 10.830643 5.262480
v -0.945160 18.402084 -7.673530
v -0.366394 18.402084 -7.104010
v 0.119980 17.132790 4.619370
v 0.119980 16.773830 4.782020
v 0.119980 16.398056 5.017590
v 0.119980 18.402084 5.329690
v 0.119980 16.274689 5.310810
v 0.119980 18.402084 4.137020
v 0.119980 18.002144 4.148240
v 0.119980 17.912403 4.221150
v 0.119980 17.553452 4.288460
v 0.119980 17.732925 4.148240
v 0.119980 17.127182 4.316500
v 0.119980 17.301052 4.159460
v 0.773514 17.301052 4.159460
v 0.773514 17.553452 4.288460
v 0.773514 17.732925 4.148240
v 0.773514 18.402084 0.094360
v 0.773514 17.912403 4.221150
v 0.773514 18.002144 4.148240
v 0.773514 18.402084 4.137020
v 0.773514 17.127182 4.316500
v 0.773514 16.398056 5.017590
v 0.773514 16.274689 5.310810
v 0.773514 16.773830 4.782020
v 0.773514 17.132790 4.619370
v 0.773514 17.736183 -4.067620
v 0.773514 17.638733 -4.210930
v 0.773514 17.392250 -4.124950
v 0.773514 17.271870 -4.216660
v 0.773514 17.283333 -4.440220
v 0.773514 16.950874 -4.669510
v 0.773514 16.509480 -4.812810
v 0.773514 16.274464 -5.070760
v 0.773514 16.257187 -5.204191
v 0.773514 18.402084 -4.044690
v 0.773514 18.057186 -4.056160
v 0.773514 17.971207 -4.136410
v 0.119965 16.274464 -5.070760
v 0.119965 16.509480 -4.812810
v 0.119965 16.950874 -4.669510
v 0.119980 18.402084 -4.044690
v 0.119980 17.283333 -4.440220
v 0.119980 17.271870 -4.216660
v 0.119980 17.392250 -4.124950
v 0.119980 17.638733 -4.210930
v 0.119980 17.736183 -4.067620
v 0.119980 17.971207 -4.136410
v 0.119980 18.057186 -4.056160
v 0.119965 18.402084 -5.213710
v 0.119965 16.257187 -5.204191
v -0.366394 18.402084 -5.213710
v -0.366394 10.830643 -5.180100
v -0.366394 18.402084 5.329690
v -0.366394 18.402084 0.094360
v -0.366394 0.674194 -5.135030
v -0.366394 0.674194 0.094360
v -0.366394 0.674194 5.172330
v -0.366394 10.830643 5.262480
v -0.945160 21.661274 7.673530
v -0.366394 21.661274 7.032670
v -0.945160 21.661274 -7.673530
v -0.366394 21.661274 -7.094110
v -0.366394 20.908283 0.094360
v -0.366409 20.908283 -5.105490
v -0.366394 20.908283 5.196650
v -0.366394 21.661274 5.098760
v -0.366394 22.774609 4.954020
v -0.366394 24.249012 4.356800
v -0.366394 25.854053 3.143680
v -0.366394 27.085835 1.408000
v -0.366394 27.664394 0.094360
v -0.366394 26.917858 -1.596790
v -0.366394 25.835392 -3.015201
v -0.366394 24.230358 -4.190990
v -0.366394 22.662632 -4.825540
v -0.366394 21.661274 -4.985330
v 0.945175 0.000000 -7.673530
v -0.366394 0.000000 0.094360
v 0.945175 0.000000 0.094360
v 0.945175 0.000000 7.673520
v 0.945175 10.830643 7.673520
v 0.945175 21.661274 -7.673530
v 0.945175 18.402084 -7.673530
v -0.945160 30.260120 0.094360
v 0.945175 30.260120 0.094360
v 0.945175 29.797924 -1.620630
v -0.945160 29.797924 -1.620630
v 0.945175 28.781078 -3.653110
v -0.945160 28.781078 -3.653110
v 0.945175 27.357487 -5.177470
v -0.945160 27.357487 -5.177470
v 0.945175 25.083431 -6.701840
v -0.945160 25.083431 -6.701840
v -0.945160 22.827869 -7.464020
v 0.945175 22.827869 -7.464020
v -0.945160 29.871868 1.529720
v 0.945175 29.871868 1.529720
v -0.945160 29.206303 3.054090
v 0.945175 29.206303 3.054090
v -0.945160 27.986088 4.713950
v 0.945175 27.986088 4.713950
v -0.945160 26.155743 6.204440
v 0.945175 26.155743 6.204440
v 0.945175 21.661274 7.673530
v 0.945175 24.048092 7.220680
v -0.945160 24.048092 7.220680
v 0.945175 18.402084 7.673520
v 0.945175 10.830643 -7.673530
v -0.366394 29.262112 -1.525890
v -0.366394 28.299717 -3.244480
v -0.366394 29.605831 0.094360
v -0.366394 23.900127 6.517100
v -0.366394 25.756191 5.554690
v -0.366394 27.577900 4.145450
v -0.366394 28.746540 2.564350
v -0.366394 26.924831 -4.722460
v -0.366394 24.793797 -6.337930
v -0.366394 22.615482 -6.863770
vt 0.017400 0.000000
vt 0.017500 -0.336100
vt -0.000000 -0.336100
vt 0.000000 -0.000000
vt 0.492600 -0.000000
vt 0.492600 -0.336100
vt 0.471500 -0.336100
vt 0.470900 -0.000000
vt 0.149500 -0.801700
vt 0.111800 -0.751900
vt 0.091400 -0.703300
vt 0.249300 -0.672200
vt 0.086300 -0.672200
vt 0.249300 -0.858500
vt 0.195000 -0.835300
vt 0.291500 -0.840600
vt 0.386100 -0.752500
vt 0.409900 -0.672200
vt 0.405300 -0.706800
vt 0.347200 -0.802300
vt 0.492600 -0.571100
vt 0.471800 -0.571100
vt 0.249300 -0.648800
vt 0.082400 -0.648800
vt 0.413100 -0.648800
vt 0.249300 -0.336100
vt 0.080000 -0.336100
vt 0.081500 -0.020900
vt 0.249300 -0.020900
vt 0.412300 -0.020900
vt 0.415200 -0.336100
vt -0.000000 -0.571100
vt 0.018300 -0.571100
vt 0.394500 -0.531700
vt 0.399800 -0.520500
vt 0.407300 -0.508900
vt 0.417300 -0.571100
vt 0.416700 -0.505100
vt 0.379100 -0.571100
vt 0.379400 -0.558700
vt 0.381800 -0.555900
vt 0.383900 -0.544700
vt 0.379400 -0.550300
vt 0.384800 -0.531500
vt 0.379800 -0.536900
vt 0.249300 -0.571100
vt 0.115700 -0.550400
vt 0.111100 -0.547400
vt 0.113900 -0.539700
vt 0.111000 -0.536000
vt 0.103800 -0.536400
vt 0.096400 -0.526000
vt 0.091800 -0.512300
vt 0.083500 -0.505000
vt 0.079300 -0.504500
vt 0.116500 -0.571100
vt 0.116100 -0.560400
vt 0.113500 -0.557700
vt 0.078900 -0.571100
vt 0.026100 -0.567200
vt 0.026100 -0.335300
vt 0.041000 -0.501500
vt 0.041000 -0.567200
vt 0.434500 -0.520700
vt 0.434500 -0.306200
vt 0.454400 -0.471900
vt 0.454400 -0.520700
vt 0.061100 -0.371600
vt 0.022400 -0.371600
vt 0.022400 -0.347800
vt 0.061100 -0.347800
vt 0.481200 -0.306200
vt 0.481200 -0.471900
vt 0.454400 -0.136600
vt 0.481200 -0.136600
vt 0.022400 -0.349400
vt 0.061100 -0.349400
vt 0.061100 -0.370000
vt 0.022400 -0.370000
vt 0.022400 -0.356200
vt 0.061100 -0.356200
vt 0.061100 -0.363200
vt 0.022400 -0.363200
vt 0.022400 -0.352400
vt 0.061100 -0.352400
vt 0.061100 -0.367000
vt 0.022400 -0.367000
vt 0.022400 -0.354600
vt 0.061100 -0.354600
vt 0.061100 -0.364800
vt 0.022400 -0.364800
vt 0.022400 -0.352000
vt 0.061100 -0.352000
vt 0.061100 -0.367400
vt 0.022400 -0.367400
vt 0.022400 -0.355200
vt 0.061100 -0.355200
vt 0.061100 -0.364200
vt 0.022400 -0.364200
vt 0.061100 -0.366300
vt 0.022400 -0.366300
vt 0.022400 -0.353100
vt 0.061100 -0.353100
vt 0.022400 -0.345900
vt 0.061100 -0.345900
vt 0.061100 -0.373400
vt 0.022400 -0.373400
vt 0.022400 -0.355700
vt 0.061100 -0.355700
vt 0.061100 -0.363700
vt 0.022400 -0.363700
vt 0.061000 -0.335300
vt 0.061000 -0.501500
vt 0.026100 -0.024100
vt 0.061000 -0.024100
vt 0.255400 -0.003700
vt 0.255400 -0.019000
vt 0.151100 -0.019000
vt 0.151100 -0.003700
vt 0.356600 -0.003700
vt 0.356600 -0.019000
vt 0.470400 -0.337100
vt 0.435000 -0.337100
vt 0.435000 -0.021200
vt 0.470400 -0.021200
vt 0.455300 -0.506400
vt 0.435000 -0.506400
vt 0.061100 -0.217700
vt 0.022400 -0.217700
vt 0.022400 -0.198900
vt 0.061100 -0.198900
vt 0.061100 -0.244000
vt 0.022400 -0.244000
vt 0.061100 -0.267400
vt 0.022400 -0.267400
vt 0.061100 -0.285300
vt 0.022400 -0.285300
vt 0.061100 -0.299200
vt 0.022400 -0.299200
vt 0.061100 -0.316000
vt 0.022400 -0.316000
vt 0.061100 -0.329500
vt 0.022400 -0.329500
vt 0.061100 -0.341000
vt 0.022400 -0.341000
vt 0.470400 -0.572600
vt 0.455300 -0.572600
vt 0.434500 -0.088700
vt 0.454400 -0.088700
vt 0.492600 -0.672200
vt 0.472000 -0.672200
vt -0.000000 -0.672200
vt 0.018600 -0.672200
vt 0.028200 -0.290500
vt 0.068600 -0.290500
vt 0.068600 -0.429300
vt 0.028200 -0.429300
vt 0.028200 -0.154200
vt 0.068600 -0.154200
vt 0.028200 -0.134100
vt 0.068600 -0.134100
vt 0.028200 -0.104400
vt 0.068600 -0.104400
vt 0.028200 -0.065000
vt 0.068600 -0.065000
vt 0.028200 -0.022200
vt 0.068600 -0.022200
vt 0.028200 -0.678900
vt 0.068600 -0.678900
vt 0.068600 -0.725200
vt 0.028200 -0.725200
vt 0.028200 -0.643800
vt 0.068600 -0.643800
vt 0.028200 -0.598700
vt 0.068600 -0.598700
vt 0.028200 -0.560800
vt 0.068600 -0.560800
vt 0.028200 -0.518000
vt 0.068600 -0.518000
vt 0.028200 -0.476100
vt 0.068600 -0.476100
vt 0.028200 -0.449400
vt 0.068600 -0.449400
vt 0.063600 -0.530800
vt 0.063600 -0.549700
vt 0.017700 -0.549700
vt 0.063600 -0.277700
vt 0.017700 -0.277700
vt 0.063600 -0.708200
vt 0.017700 -0.708200
vt 0.017700 -0.415700
vt 0.063600 -0.415700
vt 0.063600 -0.114900
vt 0.017700 -0.114900
vt 0.017700 -0.000700
vt 0.063600 -0.000700
vt 0.063600 -0.036000
vt 0.017700 -0.012300
vt 0.063600 -0.012300
vt 0.063600 -0.498900
vt 0.017700 -0.498900
vt 0.017700 -0.438900
vt 0.063600 -0.438900
vt 0.017700 -0.367700
vt 0.063600 -0.367700
vt 0.017700 -0.314300
vt 0.063600 -0.314300
vt 0.017700 -0.234700
vt 0.063600 -0.234700
vt 0.063600 -0.155700
vt 0.017700 -0.155700
vt 0.063600 -0.549200
vt 0.017700 -0.549200
vt 0.063600 -0.602600
vt 0.017700 -0.602600
vt 0.063600 -0.660700
vt 0.017700 -0.660700
vt 0.063600 -0.724800
vt 0.017700 -0.724800
vt 0.063600 -0.123300
vt 0.017700 -0.123300
vt 0.017700 -0.058800
vt 0.063600 -0.058800
vt 0.017700 -0.001900
vt 0.063600 -0.001900
vt 0.017700 -0.211300
vt 0.063600 -0.211300
vt 0.063600 -0.387600
vt 0.017700 -0.387600
vt 0.017700 -0.008300
vt 0.063600 -0.008300
vt 0.063600 -0.652700
vt 0.017700 -0.652700
vt 0.197300 -0.908100
vt 0.194300 -0.924700
vt 0.129000 -0.893200
vt 0.142200 -0.878200
vt 0.249300 -0.918800
vt 0.478000 -0.746300
vt 0.455500 -0.741700
vt 0.249300 0.000000
vt 0.445400 -0.811700
vt 0.424600 -0.799300
vt 0.397600 -0.868500
vt 0.379300 -0.855800
vt 0.344300 -0.906400
vt 0.328600 -0.892100
vt 0.295400 -0.927000
vt 0.249300 -0.939100
vt 0.080100 -0.849000
vt 0.094700 -0.835600
vt 0.031200 -0.778400
vt 0.042900 -0.769400
vt 0.006700 -0.708400
vt 0.026000 -0.701800
vn -0.683500 -0.000000 0.730000
vn -0.687100 -0.000200 0.726600
vn -0.686500 -0.000200 0.727100
vn -0.683300 0.000000 0.730100
vn -0.758800 0.001000 -0.651300
vn -0.750900 0.000000 -0.660400
vn -0.750900 0.000100 -0.660400
vn -0.759300 0.001000 -0.650800
vn -1.000000 0.000000 -0.000000
vn -1.000000 0.000000 0.000000
vn -0.744800 0.000900 -0.667300
vn -0.744800 0.001100 -0.667300
vn -0.700900 -0.001000 0.713300
vn -0.701900 -0.001200 0.712300
vn -1.000000 -0.000200 0.000300
vn -1.000000 -0.000000 0.000000
vn 0.000000 0.004400 1.000000
vn 0.000000 -1.000000 -0.000000
vn 0.000000 -0.028000 -0.999600
vn 0.000000 -0.347800 -0.937600
vn 0.000000 -0.382100 0.924100
vn 0.000000 -0.033200 0.999400
vn 0.000000 -0.682300 0.731000
vn 0.000000 0.280900 0.959700
vn 0.000000 -0.826900 0.562300
vn 0.000000 0.329400 0.944200
vn 0.000000 -0.606000 0.795400
vn 0.000000 -0.998700 -0.051200
vn 0.000000 -0.442900 0.896600
vn 0.000000 -0.567700 0.823200
vn 0.000000 -0.542100 0.840300
vn 0.000000 -0.907300 0.420400
vn 0.000000 -0.991700 0.128500
vn 0.000000 1.000000 -0.000000
vn -0.000000 0.008900 -1.000000
vn 0.000000 0.008900 -1.000000
vn 0.000000 -0.761900 -0.647700
vn 0.000000 -0.921700 -0.387800
vn 0.000000 -0.473000 -0.881100
vn 0.000000 -0.412700 -0.910900
vn 0.000000 -0.999800 0.018500
vn 0.000000 -0.670300 -0.742100
vn 0.000000 0.455100 -0.890400
vn 0.000000 -0.615600 -0.788000
vn 0.000000 0.376400 -0.926500
vn 0.000000 -0.630600 -0.776100
vn -0.740800 -0.060300 -0.669000
vn -0.746000 -0.068000 -0.662500
vn -0.705700 -0.061400 0.705900
vn -0.714000 -0.074100 0.696200
vn -0.000000 -0.128900 -0.991700
vn 0.000000 -0.128900 -0.991700
vn 0.000000 -0.254200 -0.967100
vn -0.000000 -0.254200 -0.967100
vn -0.000000 -0.493400 -0.869800
vn -0.000000 -0.717600 -0.696400
vn -0.000000 -0.869800 -0.493400
vn -0.000000 -0.915200 -0.403100
vn 0.000000 -0.915200 -0.403100
vn 0.000000 -0.860900 0.508800
vn 0.000000 -0.914800 0.403800
vn 0.000000 -0.700100 0.714000
vn 0.000000 -0.486800 0.873500
vn 0.000000 -0.268100 0.963400
vn 0.000000 -0.157600 0.987500
vn 0.000000 -1.000000 0.000000
vn -0.000000 -1.000000 0.000000
vn 0.000000 0.000000 1.000000
vn 0.000000 0.088700 -0.996100
vn 0.000000 0.000000 -1.000000
vn 0.000000 1.000000 0.000500
vn 0.000000 0.934600 -0.355600
vn 0.000000 0.821000 -0.570900
vn 0.000000 0.648100 -0.761600
vn 0.000000 0.442300 -0.896800
vn 0.000000 0.249100 -0.968500
vn 0.000000 0.943400 0.331500
vn 0.000000 0.866400 0.499300
vn 0.000000 0.724400 0.689400
vn 0.000000 0.536600 0.843900
vn 0.000000 0.093600 0.995600
vn 0.000000 0.313000 0.949700
vn 0.000000 -0.000000 1.000000
vn 0.000000 -0.000000 -1.000000
vn -1.000000 -0.000000 -0.000000
vn -0.687000 -0.682300 0.250000
vn -0.689400 -0.683800 0.239100
vn -0.729700 -0.553100 0.402100
vn -0.735900 -0.548600 0.396800
vn -0.771800 -0.203800 -0.602400
vn -0.779400 -0.214300 -0.588700
vn -0.793200 -0.331400 -0.510800
vn -0.793800 -0.333100 -0.508900
vn -0.769600 -0.453600 -0.449400
vn -0.764700 -0.466900 -0.444100
vn -0.745100 -0.572600 -0.341900
vn -0.751200 -0.581200 -0.312900
vn -0.764000 -0.609300 -0.212300
vn -0.751100 -0.660100 -0.013400
vn -0.749000 -0.662600 -0.000300
vn -0.735100 -0.441100 0.514800
vn -0.726500 -0.447000 0.521800
vn -0.632100 -0.366600 0.682700
vn -0.635100 -0.346800 0.690200
vn -0.717900 -0.161800 0.677100
vn -0.738200 -0.158300 0.655800
usemtl sponza/details
f 1/1/1 2/2/2 3/3/3
f 1/1/1 3/3/3 4/4/4
f 5/5/5 6/6/6 7/7/7
f 5/5/5 7/7/7 8/8/8
f 9/9/9 10/10/9 11/11/9
f 9/9/9 11/11/9 12/12/9
f 11/11/9 13/13/10 12/12/9
f 9/9/9 12/12/9 14/14/9
f 9/9/9 14/14/9 15/15/9
f 16/16/9 14/14/9 12/12/9
f 16/16/9 12/12/9 17/17/9
f 12/12/9 18/18/9 19/19/9
f 12/12/9 19/19/9 17/17/9
f 20/20/9 16/16/9 17/17/9
f 21/21/11 22/22/12 7/7/7
f 21/21/11 7/7/7 6/6/6
f 23/23/10 12/12/9 13/13/10
f 23/23/10 13/13/10 24/24/10
f 18/18/9 12/12/9 23/23/10
f 18/18/9 23/23/10 25/25/9
f 26/26/9 27/27/9 28/28/9
f 26/26/9 28/28/9 29/29/9
f 26/26/9 29/29/9 30/30/9
f 26/26/9 30/30/9 31/31/9
f 32/32/13 3/3/3 2/2/2
f 32/32/13 2/2/2 33/33/14
f 34/34/9 35/35/9 36/36/9
f 34/34/9 36/36/9 37/37/9
f 36/36/9 38/38/9 37/37/9
f 37/37/9 39/39/9 40/40/9
f 37/37/9 40/40/9 41/41/9
f 34/34/9 37/37/9 41/41/9
f 34/34/9 41/41/9 42/42/9
f 41/41/9 43/43/9 42/42/9
f 44/44/9 34/34/9 42/42/9
f 44/44/9 42/42/9 45/45/9
f 46/45/9 47/42/9 48/43/9
f 46/45/9 48/43/9 49/46/9
f 48/43/9 50/41/9 51/40/9
f 48/43/9 51/40/9 49/46/9
f 51/40/9 52/39/9 49/46/9
f 53/44/9 46/45/9 49/46/9
f 53/44/9 49/46/9 54/36/9
f 49/46/9 26/26/9 31/31/9
f 49/46/9 31/31/9 54/36/9
f 31/31/9 55/38/9 54/36/9
f 53/44/9 54/36/9 56/35/9
f 53/44/9 56/35/9 57/34/9
f 58/47/9 59/48/9 60/49/9
f 58/47/9 60/49/9 27/27/9
f 61/50/9 62/51/9 63/52/9
f 61/50/9 63/52/9 64/53/9
f 65/54/9 66/55/9 27/27/9
f 65/54/9 27/27/9 64/53/9
f 61/50/9 64/53/9 27/27/9
f 61/50/9 27/27/9 60/49/9
f 27/27/9 26/26/9 49/46/9
f 27/27/9 49/46/9 58/47/9
f 49/46/9 67/56/9 68/57/9
f 49/46/9 68/57/9 58/47/9
f 69/58/9 58/47/9 68/57/9
f 70/54/10 71/53/9 72/52/9
f 70/54/10 72/52/9 73/56/10
f 74/51/15 75/50/9 76/49/9
f 74/51/15 76/49/9 77/48/16
f 72/52/9 74/51/15 77/48/16
f 72/52/9 77/48/16 73/56/10
f 77/48/16 78/47/9 79/58/9
f 77/48/16 79/58/9 73/56/10
f 79/58/9 80/57/9 73/56/10
f 70/54/10 73/56/10 81/59/10
f 70/54/10 81/59/10 82/55/9
f 83/60/17 84/61/17 82/62/17
f 83/60/17 82/62/17 81/63/17
f 85/64/18 86/65/18 39/66/18
f 85/64/18 39/66/18 37/67/18
f 39/68/19 52/69/19 51/70/20
f 39/68/19 51/70/20 40/71/20
f 39/66/18 86/65/18 49/72/18
f 39/66/18 49/72/18 52/73/18
f 73/74/18 67/75/18 49/72/18
f 73/74/18 49/72/18 86/65/18
f 80/76/21 68/77/21 67/78/22
f 80/76/21 67/78/22 73/79/22
f 79/80/23 69/81/23 68/82/21
f 79/80/23 68/82/21 80/83/21
f 78/84/24 58/85/24 69/86/24
f 78/84/24 69/86/24 79/87/24
f 77/88/25 59/89/25 58/90/25
f 77/88/25 58/90/25 78/91/25
f 76/92/26 60/93/26 59/94/26
f 76/92/26 59/94/26 77/95/26
f 75/96/27 61/97/27 60/98/27
f 75/96/27 60/98/27 76/99/27
f 74/100/28 62/101/28 61/102/28
f 74/100/28 61/102/28 75/103/28
f 72/70/29 63/71/29 62/68/30
f 72/70/29 62/68/30 74/69/30
f 71/104/31 64/105/31 63/106/29
f 71/104/31 63/106/29 72/107/29
f 70/76/32 65/77/32 64/78/31
f 70/76/32 64/78/31 71/79/31
f 82/108/33 66/109/33 65/110/32
f 82/108/33 65/110/32 70/111/32
f 82/62/17 84/61/17 27/112/17
f 82/62/17 27/112/17 66/113/17
f 87/114/17 28/115/17 27/112/17
f 87/114/17 27/112/17 84/61/17
f 88/116/34 29/117/34 28/118/34
f 88/116/34 28/118/34 87/119/34
f 89/120/34 30/121/34 29/117/34
f 89/120/34 29/117/34 88/116/34
f 90/122/35 31/123/36 30/124/36
f 90/122/35 30/124/36 89/125/36
f 38/126/35 55/127/36 31/123/36
f 38/126/35 31/123/36 90/122/35
f 36/128/37 54/129/37 55/130/38
f 36/128/37 55/130/38 38/131/38
f 35/132/39 56/133/39 54/129/37
f 35/132/39 54/129/37 36/128/37
f 34/134/40 57/135/40 56/133/39
f 34/134/40 56/133/39 35/132/39
f 44/136/41 53/137/41 57/135/41
f 44/136/41 57/135/41 34/134/41
f 45/138/42 46/139/42 53/137/42
f 45/138/42 53/137/42 44/136/42
f 42/140/43 47/141/43 46/139/43
f 42/140/43 46/139/43 45/138/43
f 43/142/44 48/143/44 47/141/44
f 43/142/44 47/141/44 42/140/44
f 41/144/45 50/145/45 48/143/45
f 41/144/45 48/143/45 43/142/45
f 40/71/20 51/70/20 50/145/46
f 40/71/20 50/145/46 41/144/46
f 85/146/35 37/147/36 38/126/35
f 85/146/35 38/126/35 90/122/35
f 83/148/18 81/149/18 73/74/18
f 83/148/18 73/74/18 86/65/18
f 21/21/11 91/150/47 92/151/48
f 21/21/11 92/151/48 22/22/12
f 93/152/49 32/32/13 33/33/14
f 93/152/49 33/33/14 94/153/50
f 95/154/34 23/155/34 24/156/34
f 95/154/34 24/156/34 96/157/34
f 97/158/34 25/159/34 23/155/34
f 97/158/34 23/155/34 95/154/34
f 98/160/51 18/161/52 25/159/51
f 98/160/51 25/159/51 97/158/51
f 99/162/53 19/163/54 18/161/52
f 99/162/53 18/161/52 98/160/51
f 100/164/55 17/165/55 19/163/54
f 100/164/55 19/163/54 99/162/53
f 101/166/56 20/167/56 17/165/55
f 101/166/56 17/165/55 100/164/55
f 102/168/57 16/169/57 20/170/56
f 102/168/57 20/170/56 101/171/56
f 103/172/58 14/173/59 16/169/57
f 103/172/58 16/169/57 102/168/57
f 104/174/60 15/175/60 14/173/61
f 104/174/60 14/173/61 103/172/61
f 105/176/62 9/177/62 15/175/60
f 105/176/62 15/175/60 104/174/60
f 106/178/63 10/179/63 9/177/62
f 106/178/63 9/177/62 105/176/62
f 107/180/64 11/181/64 10/179/63
f 107/180/64 10/179/63 106/178/63
f 108/182/65 13/183/65 11/181/64
f 108/182/65 11/181/64 107/180/64
f 96/157/65 24/156/65 13/183/65
f 96/157/65 13/183/65 108/182/65
f 1/184/18 4/185/18 109/186/18
f 1/184/18 109/186/18 110/187/66
f 110/187/66 109/186/18 111/188/67
f 5/189/68 112/190/68 113/191/68
f 5/189/68 113/191/68 6/192/68
f 93/193/69 114/194/69 115/195/70
f 93/193/69 115/195/70 32/196/70
f 8/197/67 110/187/66 111/188/67
f 8/197/67 111/188/67 112/198/67
f 5/199/18 8/197/67 112/198/67
f 116/200/71 117/201/71 118/202/72
f 116/200/71 118/202/72 119/203/72
f 119/203/72 118/202/72 120/204/73
f 119/203/72 120/204/73 121/205/73
f 121/205/73 120/204/73 122/206/74
f 121/205/73 122/206/74 123/207/74
f 123/207/74 122/206/74 124/208/75
f 123/207/74 124/208/75 125/209/75
f 126/210/76 127/211/76 114/194/69
f 126/210/76 114/194/69 93/193/69
f 125/209/75 124/208/75 127/211/76
f 125/209/75 127/211/76 126/210/76
f 128/212/77 129/213/77 117/201/71
f 128/212/77 117/201/71 116/200/71
f 130/214/78 131/215/78 129/213/77
f 130/214/78 129/213/77 128/212/77
f 132/216/79 133/217/79 131/215/78
f 132/216/79 131/215/78 130/214/78
f 134/218/80 135/219/80 133/217/79
f 134/218/80 133/217/79 132/216/79
f 91/220/81 136/221/81 137/222/82
f 91/220/81 137/222/82 138/223/82
f 138/223/82 137/222/82 135/224/80
f 138/223/82 135/224/80 134/225/80
f 6/192/68 113/191/68 139/226/83
f 6/192/68 139/226/83 21/227/83
f 3/228/84 140/229/84 109/230/84
f 3/228/84 109/230/84 4/231/84
f 32/232/70 115/233/70 140/229/84
f 32/232/70 140/229/84 3/228/84
f 21/227/83 139/226/83 136/221/81
f 21/227/83 136/221/81 91/220/81
f 87/28/9 84/27/9 2/2/9
f 87/28/9 2/2/9 1/1/9
f 84/27/9 83/59/85 33/33/85
f 84/27/9 33/33/85 2/2/9
f 33/33/85 83/59/85 96/24/9
f 33/33/85 96/24/9 94/153/9
f 141/234/86 119/235/87 121/236/88
f 141/234/86 121/236/88 142/237/89
f 141/234/9 104/15/9 103/14/9
f 141/234/9 103/14/9 143/238/9
f 92/151/48 91/150/47 138/239/90
f 92/151/48 138/239/90 144/240/91
f 99/19/9 98/18/9 92/151/9
f 99/19/9 92/151/9 144/240/9
f 97/25/9 85/37/9 22/22/9
f 97/25/9 22/22/9 92/151/9
f 85/37/9 90/31/9 7/7/9
f 85/37/9 7/7/9 22/22/9
f 7/7/9 90/31/9 89/30/9
f 7/7/9 89/30/9 8/8/9
f 110/241/9 88/29/9 87/28/9
f 110/241/9 87/28/9 1/1/9
f 89/30/9 88/29/9 110/241/9
f 89/30/9 110/241/9 8/8/9
f 134/242/92 145/243/93 144/240/91
f 134/242/92 144/240/91 138/239/90
f 132/244/94 146/245/95 145/243/93
f 132/244/94 145/243/93 134/242/92
f 130/246/96 147/247/97 146/245/95
f 130/246/96 146/245/95 132/244/94
f 128/248/98 143/238/99 147/247/97
f 128/248/98 147/247/97 130/246/96
f 128/248/98 116/249/100 143/238/99
f 143/238/99 116/249/100 119/235/87
f 143/238/99 119/235/87 141/234/86
f 123/250/101 148/251/102 142/237/89
f 123/250/101 142/237/89 121/236/88
f 125/252/103 149/253/104 148/251/102
f 125/252/103 148/251/102 123/250/101
f 126/254/105 150/255/106 149/253/104
f 126/254/105 149/253/104 125/252/103
f 126/254/105 93/152/49 94/153/50
f 126/254/105 94/153/50 150/255/106
f 97/25/9 95/23/10 86/46/16
f 97/25/9 86/46/16 85/37/9
f 86/46/16 95/23/10 96/24/9
f 86/46/16 96/24/9 83/59/85
f 92/151/9 98/18/9 97/25/9
f 96/24/9 108/13/9 94/153/9
f 147/247/9 143/238/9 103/14/9
f 147/247/9 103/14/9 102/16/9
f 146/245/9 147/247/9 102/16/9
f 146/245/9 102/16/9 101/20/9
f 145/243/9 146/245/9 101/20/9
f 145/243/9 101/20/9 100/17/9
f 144/240/9 145/243/9 100/17/9
f 144/240/9 100/17/9 99/19/9
f 142/237/9 105/9/9 104/15/9
f 142/237/9 104/15/9 141/234/9
f 148/251/9 106/10/9 105/9/9
f 148/251/9 105/9/9 142/237/9
f 149/253/9 107/11/9 106/10/9
f 149/253/9 106/10/9 148/251/9
f 150/255/9 108/13/9 107/11/9
f 150/255/9 107/11/9 149/253/9
f 150/255/9 94/153/9 108/13/9
