v -1.758316 0.848606 -1.724510
v -1.758316 0.848606 1.724520
v -1.736191 0.932487 1.702400
v -1.736191 0.932487 -1.702390
v -1.724167 0.848606 -1.758680
v -1.702042 0.932487 -1.736550
v -2.172363 0.346539 -2.206990
v -2.206528 0.346539 -2.172820
v -2.061295 0.454800 -2.027540
v -2.027122 0.454800 -2.061710
v -1.784866 0.785870 -1.751060
v -1.750717 0.785870 -1.785230
v -1.797462 0.710636 -1.832010
v -1.831642 0.710636 -1.797840
v -1.940536 0.534351 -1.975100
v -1.974693 0.534351 -1.940940
v -1.906601 0.610218 -1.872830
v -1.872429 0.610218 -1.906990
v -1.974693 0.534351 1.940950
v -1.906601 0.610218 1.872840
v -1.784866 0.785870 1.751070
v -1.724167 0.848606 1.758690
v -1.702042 0.932487 1.736570
v -2.061295 0.454800 2.027550
v -2.206528 0.346539 2.172830
v -2.172363 0.346539 2.207000
v -2.027122 0.454800 2.061720
v -1.797462 0.710636 1.832020
v -1.750687 0.785870 1.785230
v -1.831642 0.710636 1.797860
v -1.940536 0.534351 1.975110
v -1.872429 0.610218 1.907000
v 2.172371 0.346539 2.207000
v 2.027130 0.454800 2.061720
v 1.797478 0.710636 1.832020
v 1.750694 0.785870 1.785230
v 1.872437 0.610218 1.907000
v 1.940529 0.534351 1.975110
v 1.724159 0.848606 1.758690
v 1.758324 0.848606 1.724520
v 1.736198 0.932487 1.702400
v 1.702042 0.932487 1.736560
v 2.206528 0.346539 2.172830
v 2.061287 0.454800 2.027550
v 1.784851 0.785870 1.751070
v 1.831642 0.710636 1.797860
v 1.974701 0.534351 1.940950
v 1.906586 0.610218 1.872830
v -2.172363 0.274708 -2.206990
v -2.206528 0.274708 -2.172820
v -2.206528 0.274708 2.172830
v -2.172363 0.274708 2.207000
v 2.172371 0.274708 2.207000
v 2.206528 0.274708 2.172830
v -2.341934 0.274708 -2.379260
v -2.378769 0.274708 -2.342420
v -2.378769 0.274708 2.342430
v -2.341934 0.274708 2.379260
v 2.341927 0.274708 2.379260
v 2.378769 0.274708 2.342430
v -2.341934 0.000000 -2.379260
v -2.378769 0.000000 -2.342420
v -2.378769 0.000000 2.342430
v -2.341934 0.000000 2.379260
v 2.341927 0.000000 2.379260
v 2.378769 0.000000 2.342430
v 1.758324 0.848606 -1.724510
v 1.736198 0.932487 -1.702390
v 1.974701 0.534351 -1.940940
v 1.906586 0.610218 -1.872830
v 1.784851 0.785870 -1.751060
v 1.724159 0.848606 -1.758680
v 1.702042 0.932487 -1.736550
v 2.061287 0.454800 -2.027540
v 2.206528 0.346539 -2.172820
v 2.172371 0.346539 -2.206990
v 2.027130 0.454800 -2.061710
v 1.797478 0.710636 -1.832010
v 1.750694 0.785870 -1.785220
v 1.831642 0.710636 -1.797850
v 1.940529 0.534351 -1.975100
v 1.872437 0.610218 -1.906990
v 2.206528 0.274708 -2.172820
v 2.172371 0.274708 -2.206990
v 2.378769 0.274708 -2.342420
v 2.341927 0.274708 -2.379260
v 2.378769 0.000000 -2.342420
v 2.341927 0.000000 -2.379260
vt 0.278800 0.949000
vt 0.278800 0.722400
vt 0.273400 0.723700
vt 0.273300 0.947600
vt 0.277800 0.951900
vt 0.271200 0.949900
vt 0.314400 0.980700
vt 0.314700 0.978500
vt 0.305200 0.968900
vt 0.302900 0.971200
vt 0.282900 0.950800
vt 0.281600 0.953400
vt 0.286000 0.956600
vt 0.287900 0.953900
vt 0.297200 0.965600
vt 0.299500 0.963300
vt 0.294500 0.958800
vt 0.292200 0.961500
vt 0.299500 0.708100
vt 0.294500 0.712600
vt 0.282900 0.720600
vt 0.275500 0.716800
vt 0.272500 0.716100
vt 0.271100 0.721600
vt 0.294700 0.692000
vt 0.304500 0.681800
vt 0.302000 0.680200
vt 0.292400 0.689700
vt 0.277300 0.707000
vt 0.274300 0.711900
vt 0.276800 0.713500
vt 0.280100 0.708900
vt 0.285000 0.702600
vt 0.289100 0.697600
vt 0.286700 0.695400
vt 0.282300 0.700400
vt 0.016400 0.680200
vt 0.026000 0.689700
vt 0.041100 0.707000
vt 0.044100 0.711900
vt 0.036100 0.700400
vt 0.031700 0.695300
vt 0.045900 0.716100
vt 0.044000 0.717300
vt 0.045100 0.723800
vt 0.047300 0.721600
vt 0.014000 0.681200
vt 0.023700 0.692000
vt 0.041600 0.713500
vt 0.038300 0.708900
vt 0.029300 0.697600
vt 0.033400 0.702600
vt 0.314700 0.692900
vt 0.305200 0.702400
vt 0.287900 0.717500
vt 0.318400 0.981200
vt 0.319400 0.978500
vt 0.319400 0.692900
vt 0.302000 0.675400
vt 0.016400 0.675400
vt 0.304800 0.676700
vt 0.013800 0.676600
vt 0.328300 0.992100
vt 0.330700 0.989600
vt 0.330700 0.681700
vt 0.313100 0.664100
vt 0.005300 0.664100
vt 0.316000 0.665300
vt 0.002900 0.665300
vt 0.330700 0.992100
vt 0.348800 0.992100
vt 0.348800 0.989600
vt 0.348800 0.681700
vt 0.313100 0.646100
vt 0.005300 0.646100
vt 0.315500 0.646100
vt 0.002900 0.646100
vt 0.045100 0.947600
vt 0.047300 0.949800
vn -0.848300 0.410600 -0.334200
vn -0.848300 0.410600 0.334300
vn -0.887700 0.321200 0.329800
vn -0.887700 0.321200 -0.329800
vn -0.334300 0.410700 -0.848300
vn -0.329900 0.321200 -0.887700
vn -0.214700 0.873700 -0.436500
vn -0.436500 0.873700 -0.214700
vn -0.503500 0.844500 -0.182500
vn -0.182400 0.844500 -0.503500
vn -0.770400 0.564200 -0.296800
vn -0.296900 0.564300 -0.770300
vn -0.264900 0.665300 -0.698000
vn -0.698000 0.665300 -0.265000
vn -0.211400 0.790400 -0.575000
vn -0.575000 0.790300 -0.211400
vn -0.639900 0.730300 -0.239000
vn -0.239000 0.730400 -0.639900
vn -0.575000 0.790300 0.211400
vn -0.639900 0.730300 0.239000
vn -0.770400 0.564200 0.296900
vn -0.334300 0.410600 0.848300
vn -0.329900 0.321100 0.887700
vn -0.503500 0.844500 0.182500
vn -0.436500 0.873700 0.214700
vn -0.214700 0.873700 0.436500
vn -0.182400 0.844500 0.503500
vn -0.264900 0.665300 0.698000
vn -0.296800 0.564300 0.770400
vn -0.698000 0.665300 0.265000
vn -0.211400 0.790400 0.575000
vn -0.239000 0.730400 0.639900
vn 0.214700 0.873700 0.436500
vn 0.182400 0.844500 0.503500
vn 0.264900 0.665300 0.698000
vn 0.296900 0.564300 0.770300
vn 0.239100 0.730400 0.639800
vn 0.211400 0.790400 0.575000
vn 0.334300 0.410600 0.848300
vn 0.848400 0.410600 0.334300
vn 0.887700 0.321200 0.329800
vn 0.329900 0.321100 0.887700
vn 0.436500 0.873700 0.214700
vn 0.503500 0.844500 0.182400
vn 0.770400 0.564200 0.296800
vn 0.698000 0.665300 0.264900
vn 0.575000 0.790400 0.211400
vn 0.639900 0.730300 0.239000
vn -0.382700 0.000000 -0.923900
vn -0.923900 0.000000 -0.382700
vn -1.000000 0.000000 -0.000000
vn -0.382700 0.000000 0.923900
vn 0.382700 0.000000 0.923900
vn -0.707100 0.000000 0.707100
vn 0.707100 0.000000 0.707100
vn 0.000000 1.000000 0.000000
vn 0.000000 1.000000 -0.000000
vn -0.000000 1.000000 -0.000000
vn -0.707100 0.000000 -0.707200
vn -0.382600 0.000000 0.923900
vn 0.382600 0.000000 0.923900
vn -0.707000 0.000000 0.707200
vn 0.707000 0.000000 0.707200
vn 0.848400 0.410600 -0.334300
vn 0.887700 0.321200 -0.329800
vn 0.575000 0.790400 -0.211400
vn 0.639900 0.730300 -0.239000
vn 0.770400 0.564200 -0.296800
vn 0.334300 0.410600 -0.848300
vn 0.329900 0.321100 -0.887700
vn 0.503500 0.844500 -0.182500
vn 0.436500 0.873700 -0.214700
vn 0.214700 0.873700 -0.436500
vn 0.182400 0.844500 -0.503500
vn 0.264900 0.665300 -0.698000
vn 0.296900 0.564300 -0.770400
vn 0.698000 0.665300 -0.264900
vn 0.211400 0.790400 -0.575000
vn 0.239000 0.730400 -0.639900
vn 1.000000 0.000000 -0.000000
vn 0.382700 0.000000 -0.923900
vn 0.707100 0.000000 -0.707100
vn -0.000000 1.000000 0.000000
vn 0.382600 0.000000 -0.923900
vn 0.707000 0.000000 -0.707200
usemtl sponza/column_b
f 1/1/1 2/2/2 3/3/3
f 1/1/1 3/3/3 4/4/4
f 5/5/5 1/1/1 4/4/4
f 5/5/5 4/4/4 6/6/6
f 7/7/7 8/8/8 9/9/9
f 7/7/7 9/9/9 10/10/10
f 11/11/11 12/12/12 13/13/13
f 11/11/11 13/13/13 14/14/14
f 15/15/15 16/16/16 17/17/17
f 15/15/15 17/17/17 18/18/18
f 10/10/10 9/9/9 16/16/16
f 10/10/10 16/16/16 15/15/15
f 14/14/14 13/13/13 18/18/18
f 14/14/14 18/18/18 17/17/17
f 1/1/1 5/5/5 12/12/12
f 1/1/1 12/12/12 11/11/11
f 16/16/16 19/19/19 20/20/20
f 16/16/16 20/20/20 17/17/17
f 11/11/11 21/21/21 2/2/2
f 11/11/11 2/2/2 1/1/1
f 3/3/3 2/22/2 22/23/22
f 3/3/3 22/23/22 23/24/23
f 24/25/24 25/26/25 26/27/26
f 24/25/24 26/27/26 27/28/27
f 28/29/28 29/30/29 21/31/21
f 28/29/28 21/31/21 30/32/30
f 20/33/20 19/34/19 31/35/31
f 20/33/20 31/35/31 32/36/32
f 19/34/19 24/25/24 27/28/27
f 19/34/19 27/28/27 31/35/31
f 32/36/32 28/29/28 30/32/30
f 32/36/32 30/32/30 20/33/20
f 29/30/29 22/23/22 2/22/2
f 29/30/29 2/22/2 21/31/21
f 27/28/27 26/27/26 33/37/33
f 27/28/27 33/37/33 34/38/34
f 29/30/29 28/29/28 35/39/35
f 29/30/29 35/39/35 36/40/36
f 37/41/37 32/36/32 31/35/31
f 37/41/37 31/35/31 38/42/38
f 28/29/28 32/36/32 37/41/37
f 28/29/28 37/41/37 35/39/35
f 31/35/31 27/28/27 34/38/34
f 31/35/31 34/38/34 38/42/38
f 22/23/22 29/30/29 36/40/36
f 22/23/22 36/40/36 39/43/39
f 39/43/39 40/44/40 41/45/41
f 39/43/39 41/45/41 42/46/42
f 33/37/33 43/47/43 44/48/44
f 33/37/33 44/48/44 34/38/34
f 45/49/45 36/40/36 35/39/35
f 45/49/45 35/39/35 46/50/46
f 38/42/38 47/51/47 48/52/48
f 38/42/38 48/52/48 37/41/37
f 34/38/34 44/48/44 47/51/47
f 34/38/34 47/51/47 38/42/38
f 46/50/46 35/39/35 37/41/37
f 46/50/46 37/41/37 48/52/48
f 40/44/40 39/43/39 36/40/36
f 40/44/40 36/40/36 45/49/45
f 42/46/42 23/24/23 22/23/22
f 42/46/42 22/23/22 39/43/39
f 8/8/8 25/53/25 24/54/24
f 8/8/8 24/54/24 9/9/9
f 14/14/14 30/55/30 21/21/21
f 14/14/14 21/21/21 11/11/11
f 17/17/17 20/20/20 30/55/30
f 17/17/17 30/55/30 14/14/14
f 9/9/9 24/54/24 19/19/19
f 9/9/9 19/19/19 16/16/16
f 49/56/49 50/57/50 8/8/50
f 49/56/49 8/8/50 7/7/49
f 8/8/50 50/57/50 51/58/51
f 8/8/50 51/58/51 25/53/51
f 52/59/52 53/60/53 33/37/53
f 52/59/52 33/37/53 26/27/52
f 51/61/54 52/59/52 26/27/52
f 51/61/54 26/27/52 25/26/54
f 53/60/53 54/62/55 43/47/55
f 53/60/53 43/47/55 33/37/53
f 55/63/56 56/64/56 50/57/56
f 55/63/56 50/57/56 49/56/56
f 56/64/56 57/65/57 51/58/57
f 56/64/56 51/58/57 50/57/56
f 58/66/57 59/67/58 53/60/58
f 58/66/57 53/60/58 52/59/57
f 57/68/57 58/66/57 52/59/57
f 57/68/57 52/59/57 51/61/57
f 59/67/58 60/69/58 54/62/58
f 59/67/58 54/62/58 53/60/58
f 55/70/49 61/71/49 62/72/59
f 55/70/49 62/72/59 56/64/59
f 56/64/51 62/72/51 63/73/51
f 56/64/51 63/73/51 57/65/51
f 58/66/60 64/74/60 65/75/61
f 58/66/60 65/75/61 59/67/61
f 57/68/62 63/76/62 64/74/60
f 57/68/62 64/74/60 58/66/60
f 59/67/61 65/75/61 66/77/63
f 59/67/61 66/77/63 60/69/63
f 40/1/40 67/2/64 68/3/65
f 40/1/40 68/3/65 41/4/41
f 47/16/47 69/19/66 70/20/67
f 47/16/47 70/20/67 48/17/48
f 45/11/45 71/21/68 67/2/64
f 45/11/45 67/2/64 40/1/40
f 68/3/65 67/22/64 72/23/69
f 68/3/65 72/23/69 73/24/70
f 74/25/71 75/26/72 76/27/73
f 74/25/71 76/27/73 77/28/74
f 78/29/75 79/30/76 71/31/68
f 78/29/75 71/31/68 80/32/77
f 70/33/67 69/34/66 81/35/78
f 70/33/67 81/35/78 82/36/79
f 69/34/66 74/25/71 77/28/74
f 69/34/66 77/28/74 81/35/78
f 82/36/79 78/29/75 80/32/77
f 82/36/79 80/32/77 70/33/67
f 79/30/76 72/23/69 67/22/64
f 79/30/76 67/22/64 71/31/68
f 77/28/74 76/27/73 7/37/7
f 77/28/74 7/37/7 10/38/10
f 79/30/76 78/29/75 13/39/13
f 79/30/76 13/39/13 12/40/12
f 18/41/18 82/36/79 81/35/78
f 18/41/18 81/35/78 15/42/15
f 78/29/75 82/36/79 18/41/18
f 78/29/75 18/41/18 13/39/13
f 81/35/78 77/28/74 10/38/10
f 81/35/78 10/38/10 15/42/15
f 72/23/69 79/30/76 12/40/12
f 72/23/69 12/40/12 5/43/5
f 6/46/6 73/24/70 72/23/69
f 6/46/6 72/23/69 5/43/5
f 43/8/43 75/53/72 74/54/71
f 43/8/43 74/54/71 44/9/44
f 46/14/46 80/55/77 71/21/68
f 46/14/46 71/21/68 45/11/45
f 48/17/48 70/20/67 80/55/77
f 48/17/48 80/55/77 46/14/46
f 44/9/44 74/54/71 69/19/66
f 44/9/44 69/19/66 47/16/47
f 43/8/80 54/57/80 83/58/80
f 43/8/80 83/58/80 75/53/80
f 84/59/81 49/60/49 7/37/49
f 84/59/81 7/37/49 76/27/81
f 83/61/82 84/59/81 76/27/81
f 83/61/82 76/27/81 75/26/82
f 60/64/58 85/65/83 83/58/83
f 60/64/58 83/58/83 54/57/58
f 86/66/83 55/67/56 49/60/56
f 86/66/83 49/60/56 84/59/83
f 85/68/83 86/66/83 84/59/83
f 85/68/83 84/59/83 83/61/83
f 60/64/80 66/72/80 87/73/80
f 60/64/80 87/73/80 85/65/80
f 86/66/84 88/74/84 61/75/49
f 86/66/84 61/75/49 55/67/49
f 85/68/85 87/76/85 88/74/84
f 85/68/85 88/74/84 86/66/84
f 41/45/57 68/78/57 73/79/57
f 41/45/57 73/79/57 42/46/57
f 73/79/57 6/6/57 4/4/57
f 73/79/57 4/4/57 42/46/57
f 4/4/57 3/3/57 23/24/57
f 4/4/57 23/24/57 42/46/57
