v -3.524036 18.818298 3.442230
v -3.442726 18.818298 3.523550
v 3.442726 18.818298 3.523550
v -3.442726 18.818298 -3.523550
v 3.524036 18.818298 3.442230
v 3.524036 18.818298 -3.442240
v 3.442726 18.818298 -3.523550
v -3.524036 18.818298 -3.442240
v -2.719555 15.322350 -2.793751
v 2.719555 15.322350 -2.793751
v 2.726986 1.320248 -2.793751
v -2.726986 1.320248 -2.793751
v 2.794140 15.322350 -2.719170
v 2.794140 15.322350 2.719170
v 2.794140 1.320248 2.726582
v 2.794140 1.320248 -2.726580
v 2.719555 15.322350 2.793751
v -2.719555 15.322350 2.793751
v -2.726986 1.320248 2.793751
v 2.726986 1.320248 2.793751
v -2.794147 15.322350 2.719170
v -2.794147 15.322350 -2.719170
v -2.794147 1.320248 -2.726580
v -2.794147 1.320248 2.726582
v -2.777885 15.709206 -2.850689
v -2.860085 16.355659 -2.928310
v 2.860073 16.355652 -2.928310
v 2.777882 15.709206 -2.850689
v 2.851082 15.709206 -2.777491
v 2.928722 16.355652 -2.859680
v 2.928722 16.355652 2.859669
v 2.851082 15.709206 2.777491
v 2.777882 15.709206 2.850681
v 2.860073 16.355652 2.928310
v -2.860085 16.355652 2.928310
v -2.777885 15.709206 2.850681
v -2.851093 15.709206 2.777491
v -2.928726 16.355652 2.859669
v -2.928726 16.355659 -2.859680
v -2.851093 15.709206 -2.777491
v -3.450497 18.381981 -3.523550
v 3.450497 18.381981 -3.523550
v 3.454021 17.945679 -3.523550
v -3.454037 17.945679 -3.523550
v 3.524036 18.381981 -3.450008
v 3.524036 18.381981 3.450010
v 3.524036 17.945679 3.453541
v 3.524036 17.945679 -3.453541
v 3.450497 18.381981 3.523550
v -3.450497 18.381981 3.523550
v -3.454037 17.945679 3.523550
v 3.454021 17.945679 3.523550
v -3.524036 18.381981 3.450010
v -3.524036 18.381981 -3.450008
v -3.524036 17.945679 -3.453541
v -3.524036 17.945679 3.453541
v -2.931946 15.515778 -3.013350
v 2.931953 15.515778 -3.013350
v 3.013763 15.515778 -2.931540
v 3.013763 15.515778 2.931540
v 2.931953 15.515778 3.013350
v -2.931946 15.515778 3.013350
v -3.013767 15.515778 2.931540
v -3.013767 15.515778 -2.931540
v -3.647285 18.600136 -3.728090
v 3.647285 18.600136 -3.728090
v 3.728615 18.600136 -3.646780
v 3.728615 18.600136 3.646780
v 3.647285 18.600136 3.728090
v -3.647285 18.600136 3.728090
v -3.728615 18.600136 3.646780
v -3.728615 18.600136 -3.646780
v -3.120205 17.255554 -3.191151
v 3.120190 17.255554 -3.191151
v 3.191597 17.255554 -3.119761
v 3.191597 17.255554 3.119761
v 3.120190 17.255554 3.191151
v -3.120205 17.255554 3.191151
v -3.191597 17.255554 3.119761
v -3.191597 17.255554 -3.119761
v -3.549564 0.470089 -3.463820
v -3.549564 0.470089 3.463820
v -2.855728 1.162441 2.786720
v -2.855728 1.162441 -2.786730
v -3.464314 0.470089 3.549080
v -2.787128 1.162441 2.855320
v 3.464302 0.470089 3.549080
v 2.787121 1.162441 2.855320
v 3.549561 0.470089 3.463820
v 2.855724 1.162441 2.786720
v 3.549561 0.470089 -3.463820
v 2.855724 1.162441 -2.786730
v 3.464302 0.470089 -3.549080
v 2.787121 1.162441 -2.855320
v -3.464314 0.470089 -3.549080
v -2.787128 1.162441 -2.855320
v -3.695236 0.235050 -3.524151
v -3.695236 0.235050 3.524139
v -3.695236 0.470089 3.524139
v -3.695236 0.470089 -3.524151
v -3.524658 0.235050 3.694740
v -3.524658 0.470089 3.694740
v 3.524647 0.235050 3.694740
v 3.524647 0.470089 3.694740
v 3.695232 0.235050 3.524151
v 3.695232 0.470089 3.524151
v 3.695232 0.235050 -3.524151
v 3.695232 0.470089 -3.524151
v 3.524647 0.235050 -3.694750
v 3.524647 0.470089 -3.694750
v -3.524658 0.235050 -3.694740
v -3.524658 0.470089 -3.694740
v -2.906918 1.241341 2.836660
v -2.906918 1.241341 -2.836670
v 2.837063 1.241341 2.906521
v -2.837074 1.241341 2.906521
v 2.906918 1.241341 -2.836670
v 2.906918 1.241341 2.836660
v -2.837074 1.241341 -2.906521
v 2.837063 1.241341 -2.906521
v -3.549564 0.235050 -3.463820
v -3.549564 0.000000 -3.463820
v -3.549564 0.000000 3.463820
v -3.549564 0.235050 3.463820
v -3.464314 0.000000 3.549080
v -3.464314 0.235050 3.549080
v 3.464302 0.000000 3.549080
v 3.464302 0.235050 3.549080
v 3.549561 0.000000 3.463820
v 3.549561 0.235050 3.463820
v 3.549561 0.000000 -3.463820
v 3.549561 0.235050 -3.463820
v 3.464302 0.000000 -3.549080
v 3.464302 0.235050 -3.549080
v -3.464314 0.000000 -3.549080
v -3.464314 0.235050 -3.549080
vt 0.167400 0.876000
vt 0.165500 0.874600
vt 0.010900 0.874600
vt 0.165500 0.993800
vt 0.009100 0.876000
vt 0.009100 0.992400
vt 0.010900 0.993800
vt 0.167400 0.992400
vt 0.500600 0.767200
vt 0.741800 0.767200
vt 0.742100 0.012200
vt 0.500300 0.012200
vt 0.745100 0.767200
vt 0.986500 0.767200
vt 0.986800 0.012200
vt 0.745100 0.012200
vt 0.011200 0.767200
vt 0.252500 0.767200
vt 0.252800 0.012200
vt 0.010900 0.012200
vt 0.255800 0.767200
vt 0.497100 0.767200
vt 0.497500 0.012200
vt 0.255800 0.012200
vt 0.193900 0.888500
vt 0.191600 0.908900
vt 0.347700 0.908900
vt 0.345500 0.888500
vt 0.398800 0.888100
vt 0.396500 0.908400
vt 0.552600 0.908400
vt 0.550400 0.888100
vt 0.607600 0.889700
vt 0.605300 0.910000
vt 0.761400 0.910000
vt 0.759200 0.889700
vt 0.812100 0.889200
vt 0.809800 0.909600
vt 0.965900 0.909600
vt 0.963700 0.889200
vt 0.175500 0.972600
vt 0.363800 0.972600
vt 0.363900 0.958900
vt 0.175400 0.958900
vt 0.380400 0.972100
vt 0.568700 0.972100
vt 0.568800 0.958400
vt 0.380300 0.958400
vt 0.589200 0.973700
vt 0.777500 0.973700
vt 0.777600 0.960000
vt 0.589100 0.960000
vt 0.793700 0.973300
vt 0.982000 0.973300
vt 0.982100 0.959600
vt 0.793600 0.959600
vt 0.500500 0.779300
vt 0.741800 0.779000
vt 0.745300 0.779200
vt 0.995900 0.779100
vt 0.011100 0.779000
vt 0.252400 0.779000
vt 0.255900 0.779000
vt 0.496900 0.779300
vt 0.189700 0.882500
vt 0.349700 0.882500
vt 0.394600 0.882000
vt 0.554600 0.882000
vt 0.603400 0.883600
vt 0.763400 0.883600
vt 0.807900 0.883200
vt 0.967900 0.883200
vt 0.170100 0.979400
vt 0.369200 0.979400
vt 0.375100 0.979000
vt 0.574100 0.979000
vt 0.583900 0.980600
vt 0.782900 0.980600
vt 0.788400 0.980100
vt 0.987400 0.980100
vt 0.175700 0.986300
vt 0.363600 0.986300
vt 0.380600 0.985900
vt 0.568500 0.985900
vt 0.589400 0.987500
vt 0.777300 0.987500
vt 0.793900 0.987000
vt 0.981800 0.987000
vt 0.184500 0.937200
vt 0.354800 0.937200
vt 0.389400 0.936700
vt 0.559700 0.936700
vt 0.598200 0.938300
vt 0.768500 0.938300
vt 0.802700 0.937900
vt 0.973000 0.937900
vt 0.975400 0.936800
vt 0.984900 0.958900
vt 0.007900 0.767200
vt 0.007900 0.012200
vt 0.350300 0.908300
vt 0.348000 0.889500
vt 0.602800 0.909400
vt 0.605000 0.890700
vt 0.807300 0.909000
vt 0.809500 0.890200
vt 0.984800 0.972100
vt 0.366300 0.971400
vt 0.366500 0.958200
vt 0.586700 0.972600
vt 0.586500 0.959300
vt 0.791200 0.972100
vt 0.791000 0.958900
vt 0.352300 0.885000
vt 0.970500 0.885700
vt 0.966400 0.890200
vt 0.600700 0.886200
vt 0.805200 0.885700
vt 0.007800 0.778900
vt 0.990700 0.980100
vt 0.371600 0.979400
vt 0.581500 0.980600
vt 0.786000 0.980100
vt 0.984200 0.989600
vt 0.366000 0.988900
vt 0.587100 0.990000
vt 0.791600 0.989600
vt 0.968600 0.909000
vt 0.357400 0.936000
vt 0.595700 0.937200
vt 0.800200 0.936700
vt 0.978700 0.844000
vt 0.740700 0.844000
vt 0.752100 0.867300
vt 0.967400 0.867300
vt 0.734400 0.844000
vt 0.723100 0.867300
vt 0.496400 0.844000
vt 0.507700 0.868500
vt 0.490000 0.844000
vt 0.478700 0.868500
vt 0.252100 0.844000
vt 0.263400 0.868300
vt 0.245700 0.844000
vt 0.234400 0.868300
vt 0.009500 0.844700
vt 0.018500 0.868200
vt 0.983300 0.843300
vt 0.983000 0.866500
vt 0.979000 0.831800
vt 0.740400 0.831800
vt 0.740400 0.839800
vt 0.979000 0.839800
vt 0.734700 0.831800
vt 0.734700 0.839800
vt 0.496100 0.831800
vt 0.496100 0.839800
vt 0.490300 0.831800
vt 0.490300 0.839800
vt 0.251800 0.831800
vt 0.251800 0.839800
vt 0.246000 0.831800
vt 0.246000 0.839800
vt 0.007500 0.831800
vt 0.007500 0.839800
vt 0.984700 0.831800
vt 0.984700 0.839800
vt 0.751200 0.869900
vt 0.968200 0.870500
vt 0.506900 0.871100
vt 0.723900 0.869900
vt 0.262600 0.870900
vt 0.479600 0.871100
vt 0.016800 0.870800
vt 0.235200 0.870900
vt 0.983000 0.870200
vt 0.503600 0.809700
vt 0.503600 0.817900
vt 0.745000 0.817900
vt 0.745000 0.809700
vt 0.747900 0.817900
vt 0.747900 0.809700
vt 0.989300 0.817900
vt 0.989300 0.809700
vt 0.992200 0.817900
vt 0.992200 0.809700
vt 0.015000 0.809700
vt 0.015000 0.817900
vt 0.256400 0.817900
vt 0.256400 0.809700
vt 0.259300 0.817900
vt 0.259300 0.809700
vt 0.500700 0.817900
vt 0.500700 0.809700
vt 0.255700 0.006200
vt 0.497400 0.006200
vt 0.011000 0.006200
vt 0.252700 0.006200
vt 0.745000 0.006200
vt 0.991700 0.006200
vt 0.500200 0.006200
vt 0.742000 0.006200
vt 0.007900 0.006200
vt 0.978700 0.827600
vt 0.740700 0.827600
vt 0.983300 0.827600
vt 0.245700 0.827600
vt 0.009500 0.827600
vt 0.252100 0.827600
vt 0.490000 0.827600
vt 0.496400 0.827600
vt 0.734400 0.827600
vn 0.000000 1.000000 -0.000000
vn 0.000000 0.000000 -1.000000
vn 1.000000 0.000000 -0.000000
vn 0.000000 0.000000 1.000000
vn -1.000000 0.000000 -0.000000
vn -0.000000 -0.119200 -0.992900
vn -0.000000 -0.210200 -0.977700
vn 0.000000 -0.119200 -0.992900
vn 0.992900 -0.119200 -0.000000
vn 0.977700 -0.210200 -0.000000
vn 0.000000 -0.119200 0.992900
vn 0.000000 -0.210200 0.977700
vn -0.992900 -0.119200 -0.000000
vn -0.977700 -0.210200 -0.000000
vn 0.000000 -0.750400 -0.661000
vn 0.660900 -0.750400 -0.000000
vn 0.000000 -0.750400 0.661000
vn -0.661000 -0.750400 -0.000000
vn 0.000000 0.643600 -0.765300
vn 0.765300 0.643600 -0.000000
vn 0.000000 0.643600 0.765300
vn -0.765300 0.643600 -0.000000
vn 0.000000 -0.684000 -0.729500
vn 0.729400 -0.684000 -0.000000
vn 0.000000 -0.684000 0.729500
vn -0.729400 -0.684000 -0.000000
vn 0.000000 0.684000 -0.729500
vn 0.729400 0.684000 -0.000000
vn 0.000000 0.684000 0.729500
vn -0.729400 0.684000 -0.000000
vn -0.000000 -0.374300 -0.927300
vn 0.000000 -0.433900 -0.900900
vn -0.000000 -0.433900 -0.900900
vn 0.927300 -0.374400 -0.000000
vn 0.900900 -0.434000 -0.000000
vn 0.000000 -0.374300 0.927300
vn 0.000000 -0.433900 0.900900
vn -0.927300 -0.374400 -0.000000
vn -0.900900 -0.434000 -0.000000
vn 0.707000 0.000400 -0.707200
vn 0.707200 0.000400 -0.707000
vn -0.622400 -0.474500 -0.622400
vn -0.622400 -0.474600 -0.622400
vn -0.584000 -0.563800 -0.584000
vn 0.707000 0.000400 0.707200
vn 0.707200 0.000400 0.707000
vn -0.707000 0.000400 0.707200
vn -0.707100 0.000400 0.707100
vn 0.679200 -0.277700 -0.679400
vn 0.696500 -0.172200 -0.696600
vn -0.707100 0.000400 -0.707100
vn -0.707000 0.000400 -0.707200
vn 0.679200 -0.277700 0.679400
vn 0.696500 -0.172200 0.696600
vn -0.679300 -0.277700 0.679300
vn -0.696500 -0.172200 0.696600
vn -0.707100 0.005700 -0.707100
vn 0.707100 0.005700 -0.707100
vn 0.707100 0.005700 0.707100
vn -0.707100 0.005700 0.707100
vn 0.462200 0.756800 -0.462200
vn -0.462200 0.756800 -0.462200
vn 0.462200 0.756800 0.462200
vn -0.462200 0.756800 0.462200
vn 0.378300 -0.844900 -0.378300
vn -0.378300 -0.844900 -0.378300
vn 0.378300 -0.844900 0.378300
vn -0.378300 -0.844900 0.378300
vn -0.430900 -0.792800 -0.431000
vn 0.430900 -0.792800 -0.431000
vn 0.430900 -0.792800 0.431000
vn -0.430900 -0.792800 0.431000
vn -0.425700 0.798400 -0.425800
vn 0.425700 0.798400 -0.425800
vn 0.425700 0.798400 0.425800
vn -0.425700 0.798400 0.425800
vn -0.696500 -0.172200 -0.696600
vn -0.679300 -0.277700 -0.679300
vn 0.584000 -0.563800 -0.584000
vn 0.622400 -0.474600 -0.622500
vn 0.622400 -0.474500 -0.622500
vn 0.584000 -0.563800 0.584000
vn 0.622400 -0.474500 0.622400
vn 0.622400 -0.474600 0.622400
vn -0.584000 -0.563800 0.584000
vn -0.622400 -0.474600 0.622400
vn -0.622400 -0.474500 0.622400
vn -0.706300 0.707900 -0.000000
vn -0.411000 0.813800 0.411000
vn -0.410900 0.813800 0.411000
vn 0.000000 0.707800 0.706400
vn 0.411000 0.813800 0.411000
vn 0.410900 0.813800 0.411000
vn 0.706300 0.707900 -0.000000
vn 0.411000 0.813800 -0.411000
vn 0.410900 0.813800 -0.411000
vn 0.000000 0.707800 -0.706400
vn -0.411000 0.813800 -0.410900
vn -0.410900 0.813800 -0.411000
vn -0.707100 0.000000 0.707100
vn 0.707100 0.000000 0.707100
vn 0.707100 0.000000 -0.707100
vn -0.000000 0.000000 -1.000000
vn -0.707100 0.000000 -0.707100
vn -0.838900 -0.544300 -0.000000
vn 0.000000 -0.544300 0.838900
vn 0.838900 -0.544300 -0.000000
vn 0.000000 -0.544300 -0.838900
vn -0.523900 -0.671600 -0.523900
vn -0.524000 -0.671500 -0.523900
vn -0.523900 -0.671500 -0.523900
vn 0.524000 -0.671500 -0.523900
vn -0.523900 -0.671500 0.523900
vn -0.524000 -0.671600 0.523900
vn -0.523900 -0.671600 0.523900
vn -0.523900 -0.671500 0.524000
vn 0.524000 -0.671500 0.523900
vn -0.418700 0.884700 0.205200
vn -0.477200 0.868600 0.133600
vn -0.477200 0.868600 -0.133600
vn -0.418700 0.884700 -0.205200
vn 0.205200 0.884700 0.418700
vn 0.133700 0.868600 0.477200
vn -0.133700 0.868500 0.477200
vn -0.205200 0.884700 0.418700
vn 0.418700 0.884700 -0.205200
vn 0.477200 0.868600 -0.133600
vn 0.477200 0.868600 0.133600
vn 0.418700 0.884700 0.205200
vn -0.205200 0.884700 -0.418700
vn -0.133700 0.868500 -0.477200
vn 0.133700 0.868600 -0.477200
vn 0.205200 0.884700 -0.418700
vn 0.000000 -1.000000 -0.000000
usemtl sponza/column_c
f 1/1/1 2/2/1 3/3/1
f 1/1/1 3/3/1 4/4/1
f 3/3/1 5/5/1 6/6/1
f 3/3/1 6/6/1 4/4/1
f 6/6/1 7/7/1 4/4/1
f 8/8/1 1/1/1 4/4/1
f 9/9/2 10/10/2 11/11/2
f 9/9/2 11/11/2 12/12/2
f 13/13/3 14/14/3 15/15/3
f 13/13/3 15/15/3 16/16/3
f 17/17/4 18/18/4 19/19/4
f 17/17/4 19/19/4 20/20/4
f 21/21/5 22/22/5 23/23/5
f 21/21/5 23/23/5 24/24/5
f 25/25/6 26/26/7 27/27/7
f 25/25/6 27/27/7 28/28/8
f 29/29/9 30/30/10 31/31/10
f 29/29/9 31/31/10 32/32/9
f 33/33/11 34/34/12 35/35/12
f 33/33/11 35/35/12 36/36/11
f 37/37/13 38/38/14 39/39/14
f 37/37/13 39/39/14 40/40/13
f 41/41/2 42/42/2 43/43/2
f 41/41/2 43/43/2 44/44/2
f 45/45/3 46/46/3 47/47/3
f 45/45/3 47/47/3 48/48/3
f 49/49/4 50/50/4 51/51/4
f 49/49/4 51/51/4 52/52/4
f 53/53/5 54/54/5 55/55/5
f 53/53/5 55/55/5 56/56/5
f 9/9/15 57/57/15 58/58/15
f 9/9/15 58/58/15 10/10/15
f 13/13/16 59/59/16 60/60/16
f 13/13/16 60/60/16 14/14/16
f 17/17/17 61/61/17 62/62/17
f 17/17/17 62/62/17 18/18/17
f 21/21/18 63/63/18 64/64/18
f 21/21/18 64/64/18 22/22/18
f 57/65/19 25/25/19 28/28/19
f 57/65/19 28/28/19 58/66/19
f 59/67/20 29/29/20 32/32/20
f 59/67/20 32/32/20 60/68/20
f 61/69/21 33/33/21 36/36/21
f 61/69/21 36/36/21 62/70/21
f 63/71/22 37/37/22 40/40/22
f 63/71/22 40/40/22 64/72/22
f 41/41/23 65/73/23 66/74/23
f 41/41/23 66/74/23 42/42/23
f 45/45/24 67/75/24 68/76/24
f 45/45/24 68/76/24 46/46/24
f 49/49/25 69/77/25 70/78/25
f 49/49/25 70/78/25 50/50/25
f 53/53/26 71/79/26 72/80/26
f 53/53/26 72/80/26 54/54/26
f 65/73/27 4/81/27 7/82/27
f 65/73/27 7/82/27 66/74/27
f 67/75/28 6/83/28 5/84/28
f 67/75/28 5/84/28 68/76/28
f 69/77/29 3/85/29 2/86/29
f 69/77/29 2/86/29 70/78/29
f 71/79/30 1/87/30 8/88/30
f 71/79/30 8/88/30 72/80/30
f 73/89/31 44/44/32 43/43/33
f 73/89/31 43/43/33 74/90/31
f 75/91/34 48/48/35 47/47/35
f 75/91/34 47/47/35 76/92/34
f 77/93/36 52/52/37 51/51/37
f 77/93/36 51/51/37 78/94/36
f 79/95/38 56/56/39 55/55/39
f 79/95/38 55/55/39 80/96/38
f 26/26/7 73/89/31 74/90/31
f 26/26/7 74/90/31 27/27/7
f 30/30/10 75/91/34 76/92/34
f 30/30/10 76/92/34 31/31/10
f 34/34/12 77/93/36 78/94/36
f 34/34/12 78/94/36 35/35/12
f 38/38/14 79/95/38 80/96/38
f 38/38/14 80/96/38 39/39/14
f 10/10/40 13/13/40 16/16/41
f 10/10/40 16/16/41 11/11/41
f 73/97/42 80/96/43 55/55/44
f 73/97/42 55/55/44 44/98/44
f 14/99/45 17/17/45 20/20/46
f 14/99/45 20/20/46 15/100/46
f 18/18/47 21/21/47 24/24/48
f 18/18/47 24/24/48 19/19/48
f 27/27/49 30/101/49 29/102/50
f 27/27/49 29/102/50 28/28/50
f 12/12/51 23/23/51 22/22/52
f 12/12/51 22/22/52 9/9/52
f 31/103/53 34/34/53 33/33/54
f 31/103/53 33/33/54 32/104/54
f 35/105/55 38/38/55 37/37/56
f 35/105/55 37/37/56 36/106/56
f 54/54/57 41/107/57 44/98/57
f 54/54/57 44/98/57 55/55/57
f 42/42/58 45/108/58 48/109/58
f 42/42/58 48/109/58 43/43/58
f 46/110/59 49/49/59 52/52/59
f 46/110/59 52/52/59 47/111/59
f 50/112/60 53/53/60 56/56/60
f 50/112/60 56/56/60 51/113/60
f 59/114/61 58/66/61 28/28/61
f 59/114/61 28/28/61 29/102/61
f 57/115/62 64/72/62 40/40/62
f 57/115/62 40/40/62 25/116/62
f 61/69/63 60/117/63 32/104/63
f 61/69/63 32/104/63 33/33/63
f 63/71/64 62/118/64 36/106/64
f 63/71/64 36/106/64 37/37/64
f 13/13/65 10/10/65 58/58/65
f 13/13/65 58/58/65 59/59/65
f 9/9/66 22/22/66 64/64/66
f 9/9/66 64/64/66 57/57/66
f 17/17/67 14/99/67 60/119/67
f 17/17/67 60/119/67 61/61/67
f 21/21/68 18/18/68 62/62/68
f 21/21/68 62/62/68 63/63/68
f 72/80/69 65/120/69 41/107/69
f 72/80/69 41/107/69 54/54/69
f 66/74/70 67/121/70 45/108/70
f 66/74/70 45/108/70 42/42/70
f 68/122/71 69/77/71 49/49/71
f 68/122/71 49/49/71 46/110/71
f 70/123/72 71/79/72 53/53/72
f 70/123/72 53/53/72 50/112/72
f 8/88/73 4/124/73 65/120/73
f 8/88/73 65/120/73 72/80/73
f 7/82/74 6/125/74 67/121/74
f 7/82/74 67/121/74 66/74/74
f 5/126/75 3/85/75 69/77/75
f 5/126/75 69/77/75 68/122/75
f 2/127/76 1/87/76 71/79/76
f 2/127/76 71/79/76 70/123/76
f 25/116/77 40/40/77 39/39/78
f 25/116/77 39/39/78 26/128/78
f 43/43/79 48/109/79 75/129/80
f 43/43/79 75/129/80 74/90/81
f 47/111/82 52/52/82 77/93/83
f 47/111/82 77/93/83 76/130/84
f 51/113/85 56/56/85 79/95/86
f 51/113/85 79/95/86 78/131/87
f 80/96/43 73/97/42 26/128/78
f 80/96/43 26/128/78 39/39/78
f 74/90/81 75/129/80 30/101/49
f 74/90/81 30/101/49 27/27/49
f 76/130/84 77/93/83 34/34/53
f 76/130/84 34/34/53 31/103/53
f 78/131/87 79/95/86 38/38/55
f 78/131/87 38/38/55 35/105/55
f 81/132/88 82/133/88 83/134/88
f 81/132/88 83/134/88 84/135/88
f 82/133/89 85/136/89 86/137/90
f 82/133/89 86/137/90 83/134/90
f 85/136/91 87/138/91 88/139/91
f 85/136/91 88/139/91 86/137/91
f 87/138/92 89/140/92 90/141/93
f 87/138/92 90/141/93 88/139/93
f 89/140/94 91/142/94 92/143/94
f 89/140/94 92/143/94 90/141/94
f 91/142/95 93/144/95 94/145/95
f 91/142/95 94/145/95 92/143/96
f 93/144/97 95/146/97 96/147/97
f 93/144/97 96/147/97 94/145/97
f 95/148/98 81/132/98 84/135/99
f 95/148/98 84/135/99 96/149/99
f 97/150/5 98/151/5 99/152/5
f 97/150/5 99/152/5 100/153/5
f 98/151/100 101/154/100 102/155/100
f 98/151/100 102/155/100 99/152/100
f 101/154/4 103/156/4 104/157/4
f 101/154/4 104/157/4 102/155/4
f 103/156/101 105/158/101 106/159/101
f 103/156/101 106/159/101 104/157/101
f 105/158/3 107/160/3 108/161/3
f 105/158/3 108/161/3 106/159/3
f 107/160/102 109/162/102 110/163/102
f 107/160/102 110/163/102 108/161/102
f 109/162/103 111/164/103 112/165/103
f 109/162/103 112/165/103 110/163/103
f 111/166/104 97/150/104 100/153/104
f 111/166/104 100/153/104 112/167/104
f 83/134/105 113/168/105 114/169/105
f 83/134/105 114/169/105 84/135/105
f 88/139/106 115/170/106 116/171/106
f 88/139/106 116/171/106 86/137/106
f 92/143/107 117/172/107 118/173/107
f 92/143/107 118/173/107 90/141/107
f 96/147/108 119/174/108 120/175/108
f 96/147/108 120/175/108 94/145/108
f 84/135/109 114/169/110 119/176/111
f 84/135/109 119/176/111 96/149/109
f 94/145/112 120/175/112 117/172/112
f 94/145/112 117/172/112 92/143/112
f 86/137/113 116/171/114 113/168/115
f 86/137/113 113/168/115 83/134/116
f 90/141/117 118/173/117 115/170/117
f 90/141/117 115/170/117 88/139/117
f 121/177/5 122/178/5 123/179/5
f 121/177/5 123/179/5 124/180/5
f 124/180/100 123/179/100 125/181/100
f 124/180/100 125/181/100 126/182/100
f 126/182/4 125/181/4 127/183/4
f 126/182/4 127/183/4 128/184/4
f 128/184/101 127/183/101 129/185/101
f 128/184/101 129/185/101 130/186/101
f 130/187/3 129/188/3 131/189/3
f 130/187/3 131/189/3 132/190/3
f 132/190/102 131/189/102 133/191/102
f 132/190/102 133/191/102 134/192/102
f 134/192/2 133/191/2 135/193/2
f 134/192/2 135/193/2 136/194/2
f 136/194/104 135/193/104 122/178/104
f 136/194/104 122/178/104 121/177/104
f 113/195/118 24/24/119 23/23/120
f 113/195/118 23/23/120 114/196/121
f 115/197/122 20/20/123 19/19/124
f 115/197/122 19/19/124 116/198/125
f 117/199/126 16/16/127 15/15/128
f 117/199/126 15/15/128 118/200/129
f 119/201/130 12/12/131 11/11/132
f 119/201/130 11/11/132 120/202/133
f 114/196/121 23/23/120 12/12/131
f 114/196/121 12/12/131 119/201/130
f 120/202/133 11/11/132 16/16/127
f 120/202/133 16/16/127 117/199/126
f 116/198/125 19/19/124 24/24/119
f 116/198/125 24/24/119 113/195/118
f 118/203/129 15/100/128 20/20/123
f 118/203/129 20/20/123 115/197/122
f 100/153/1 99/152/1 82/133/1
f 100/153/1 82/133/1 81/132/1
f 99/152/1 102/155/1 85/136/1
f 99/152/1 85/136/1 82/133/1
f 102/155/1 104/157/1 87/138/1
f 102/155/1 87/138/1 85/136/1
f 104/157/1 106/159/1 89/140/1
f 104/157/1 89/140/1 87/138/1
f 106/159/1 108/161/1 91/142/1
f 106/159/1 91/142/1 89/140/1
f 108/161/1 110/163/1 93/144/1
f 108/161/1 93/144/1 91/142/1
f 110/163/1 112/165/1 95/146/1
f 110/163/1 95/146/1 93/144/1
f 112/167/1 100/153/1 81/132/1
f 112/167/1 81/132/1 95/148/1
f 98/151/134 97/150/134 121/204/134
f 98/151/134 121/204/134 124/205/134
f 97/150/134 111/166/134 136/206/134
f 97/150/134 136/206/134 121/204/134
f 111/164/134 109/162/134 134/207/134
f 111/164/134 134/207/134 136/208/134
f 109/162/134 107/160/134 132/209/134
f 109/162/134 132/209/134 134/207/134
f 107/160/134 105/158/134 130/210/134
f 107/160/134 130/210/134 132/209/134
f 105/158/134 103/156/134 128/211/134
f 105/158/134 128/211/134 130/210/134
f 103/156/134 101/154/134 126/212/134
f 103/156/134 126/212/134 128/211/134
f 101/154/134 98/151/134 124/205/134
f 101/154/134 124/205/134 126/212/134
