v 1.710846 6.343193 1.673386
v 1.710846 6.343193 -1.094366
v 1.710854 0.000000 -1.094366
v 1.710854 0.000000 1.673386
v 4.205406 8.399712 -1.673386
v 4.516487 8.710785 -1.673386
v 4.516487 0.000000 -1.673386
v 4.205399 0.000000 -1.673386
v 4.516487 8.710785 1.673386
v 4.516487 0.000000 1.673386
v 3.730431 7.924721 -1.094366
v 3.730415 0.000000 -1.094366
v -0.141304 6.343193 -1.094366
v -0.141304 7.924721 -1.094366
v -0.141304 8.399704 -1.673386
v -0.141304 6.343193 1.673386
v -0.141304 8.710785 -1.673386
v -0.141304 8.710785 1.673386
v -1.993477 0.000000 -1.094366
v -1.993477 6.343193 -1.094366
v -1.993477 6.343193 1.673386
v -1.993477 0.000000 1.673386
v -4.516453 0.000000 -1.673386
v -4.516479 8.710785 -1.673386
v -4.205376 8.399712 -1.673386
v -4.205376 0.000000 -1.673386
v -4.516479 8.710785 1.673386
v -4.516453 0.000000 1.673386
v -3.730396 0.000000 -1.094366
v -3.730396 7.924721 -1.094366
vt 0.787800 0.063800
vt 0.787800 0.154300
vt 0.996500 0.154300
vt 0.996500 0.063800
vt 0.738400 0.206700
vt 0.728200 0.216900
vt 0.996500 0.216900
vt 0.996500 0.206700
vt 0.728200 0.326300
vt 0.996500 0.326300
vt 0.754100 0.187800
vt 0.996500 0.187800
vt 0.848700 0.154300
vt 0.848700 0.187800
vt 0.848700 0.206700
vt 0.848700 0.063800
vt 0.848700 0.216900
vt 0.848700 0.326300
vn -1.000000 -0.000000 -0.000000
vn 0.000000 0.000000 -1.000000
vn 1.000000 0.000000 -0.000000
vn -0.773100 0.000000 -0.634200
vn 0.000000 -0.773100 -0.634200
vn -0.000000 -0.773100 -0.634200
vn -0.000000 -1.000000 -0.000000
vn 0.000000 1.000000 -0.000000
vn -0.000000 1.000000 -0.000000
vn 0.773100 0.000000 -0.634200
vn 0.000000 -1.000000 -0.000000
usemtl sponza/arch
f 1/1/1 2/2/1 3/3/1
f 1/1/1 3/3/1 4/4/1
f 5/5/2 6/6/2 7/7/2
f 5/5/2 7/7/2 8/8/2
f 7/7/3 6/6/3 9/9/3
f 7/7/3 9/9/3 10/10/3
f 2/2/2 11/11/2 12/12/2
f 2/2/2 12/12/2 3/3/2
f 11/11/4 5/5/4 8/8/4
f 11/11/4 8/8/4 12/12/4
f 2/2/2 13/13/2 14/14/2
f 2/2/2 14/14/2 11/11/2
f 11/11/5 14/14/5 15/15/6
f 11/11/5 15/15/6 5/5/5
f 13/13/7 2/2/7 1/1/7
f 13/13/7 1/1/7 16/16/7
f 17/17/2 6/6/2 5/5/2
f 17/17/2 5/5/2 15/15/2
f 18/18/8 9/9/9 6/6/9
f 18/18/8 6/6/9 17/17/8
f 19/3/3 20/2/3 21/1/3
f 19/3/3 21/1/3 22/4/3
f 23/7/2 24/6/2 25/5/2
f 23/7/2 25/5/2 26/8/2
f 27/9/1 24/6/1 23/7/1
f 27/9/1 23/7/1 28/10/1
f 20/2/2 19/3/2 29/12/2
f 20/2/2 29/12/2 30/11/2
f 30/11/10 29/12/10 26/8/10
f 30/11/10 26/8/10 25/5/10
f 20/2/2 30/11/2 14/14/2
f 20/2/2 14/14/2 13/13/2
f 30/11/6 25/5/6 15/15/6
f 30/11/6 15/15/6 14/14/5
f 21/1/11 20/2/11 13/13/7
f 21/1/11 13/13/7 16/16/7
f 25/5/2 24/6/2 17/17/2
f 25/5/2 17/17/2 15/15/2
f 24/6/8 27/9/8 18/18/8
f 24/6/8 18/18/8 17/17/8
