v 144.253571 0.000000 -72.863861
v 144.253571 0.000000 72.863861
v -144.253586 0.000000 72.863861
v -144.253586 0.000000 -72.863861
v 144.253586 138.701630 72.863861
v -144.253586 138.701630 72.863861
v 144.253586 138.701630 -72.863861
v -144.253586 138.701630 -72.863861
vt -3.643200 0.000000
vt -3.643200 -3.643200
vt -10.855900 -3.643200
vt -10.855900 0.000000
vt -0.000000 3.558800
vt 7.212700 3.558800
vt 7.212700 -0.000000
vt -0.000000 0.000000
vt -3.643200 3.558800
vt -10.855900 3.558800
vt -14.499100 3.558800
vt -14.499100 0.000000
vn 0.000000 -1.000000 -0.000000
vn 0.000000 0.000000 1.000000
vn 1.000000 -0.000000 -0.000000
vn 0.000000 0.000000 -1.000000
vn -1.000000 0.000000 -0.000000
f 1/1/1 2/2/1 3/3/1
f 1/1/1 3/3/1 4/4/1
f 5/5/2 6/6/2 3/7/2
f 5/5/2 3/7/2 2/8/2
f 7/9/3 5/5/3 2/8/3
f 7/9/3 2/8/3 1/1/3
f 8/10/4 7/9/4 1/1/4
f 8/10/4 1/1/4 4/4/4
f 6/11/5 8/10/5 4/4/5
f 6/11/5 4/4/5 3/12/5
