v 3.299835 0.386864 0.169807
v 3.389664 1.033310 0.087620
v 3.389664 1.033310 0.780788
v 3.299835 0.386864 0.780788
v -3.310265 1.033310 0.018990
v 3.310234 1.033310 0.018990
v 3.215134 0.386864 0.096611
v -3.215096 0.386864 0.096611
v -3.997719 2.623329 -0.576248
v -3.993591 3.059639 -0.576248
v 3.993568 3.059639 -0.576248
v 3.997673 2.623329 -0.576248
v -4.078743 2.623329 0.780788
v -4.078743 3.059639 0.780788
v -4.078743 3.059639 -0.502708
v -4.078743 2.623329 -0.506229
v 3.233932 0.000000 0.228134
v 3.488121 0.193428 0.015762
v 3.488121 0.193428 0.780788
v 3.233932 0.000000 0.780788
v -3.393440 0.193428 -0.066048
v 3.393425 0.193428 -0.066048
v 3.147598 0.000000 0.153549
v -3.147591 0.000000 0.153549
v 4.078697 3.059639 -0.502708
v 4.315491 3.277786 -0.699467
v 4.315491 3.277786 0.780788
v 4.078697 3.059639 0.780788
v -4.221397 3.277786 -0.780788
v 4.221352 3.277786 -0.780788
v 4.078697 3.495949 -0.494930
v 4.078697 3.495949 0.780788
v -3.984604 3.495949 -0.576248
v 3.984612 3.495949 -0.576248
v 3.693962 1.933212 -0.172459
v 4.078697 2.623329 -0.506229
v 4.078697 2.623329 0.780788
v 3.693962 1.933212 0.780788
v 3.611320 1.933212 -0.243851
v -3.611313 1.933212 -0.243851
v -3.299866 0.386864 0.169807
v -3.389709 1.033310 0.087620
v -3.488144 0.193428 0.015762
v -3.233925 0.000000 0.228134
v -4.315491 3.277786 -0.699467
v -4.078743 3.495949 -0.494930
v -3.693954 1.933212 -0.172459
v -4.078743 3.495949 0.780788
v -3.389709 1.033310 0.780788
v -3.299866 0.386864 0.780788
v -3.488167 0.193428 0.780788
v -3.233971 0.000000 0.780788
v -4.315491 3.277786 0.780788
v -3.693954 1.933212 0.780788
vt 0.550400 0.888100
vt 0.552600 0.908400
vt 0.533700 0.908400
vt 0.533700 0.888100
vt 0.761400 0.910000
vt 0.605300 0.910000
vt 0.607600 0.889700
vt 0.759200 0.889700
vt 0.777600 0.960000
vt 0.777500 0.973700
vt 0.589200 0.973700
vt 0.589100 0.960000
vt 0.828700 0.959600
vt 0.828700 0.973300
vt 0.793700 0.973300
vt 0.793600 0.959600
vt 0.986500 0.767200
vt 0.995900 0.779100
vt 0.963200 0.779100
vt 0.961900 0.767200
vt 0.252400 0.779000
vt 0.011100 0.779000
vt 0.011200 0.767200
vt 0.252500 0.767200
vt 0.533700 0.882000
vt 0.554600 0.882000
vt 0.603400 0.883600
vt 0.763400 0.883600
vt 0.568700 0.972100
vt 0.574100 0.979000
vt 0.533700 0.979000
vt 0.533700 0.972100
vt 0.782900 0.980600
vt 0.583900 0.980600
vt 0.568500 0.985900
vt 0.533700 0.985900
vt 0.777300 0.987500
vt 0.589400 0.987500
vt 0.559700 0.936700
vt 0.568800 0.958400
vt 0.533700 0.958400
vt 0.533700 0.936700
vt 0.598200 0.938300
vt 0.768500 0.938300
vt 0.605000 0.890700
vt 0.602800 0.909400
vt 0.812100 0.889200
vt 0.809800 0.909600
vt 0.807300 0.909000
vt 0.809500 0.890200
vt 0.586700 0.972600
vt 0.586500 0.959300
vt 0.791200 0.972100
vt 0.791000 0.958900
vt 0.600700 0.886200
vt 0.805200 0.885700
vt 0.807900 0.883200
vt 0.007800 0.778900
vt 0.007900 0.767200
vt 0.255800 0.767200
vt 0.255900 0.779000
vt 0.581500 0.980600
vt 0.788400 0.980100
vt 0.786000 0.980100
vt 0.587100 0.990000
vt 0.793900 0.987000
vt 0.791600 0.989600
vt 0.595700 0.937200
vt 0.802700 0.937900
vt 0.800200 0.936700
vt 0.009100 0.897600
vt 0.009100 0.876000
vt 0.010900 0.874600
vt 0.167400 0.876000
vt 0.165500 0.874600
vt 0.167400 0.897600
vt 0.828700 0.909600
vt 0.828700 0.889200
vt 0.287400 0.779000
vt 0.280300 0.767200
vt 0.828700 0.883200
vt 0.828700 0.980100
vt 0.828700 0.987000
vt 0.828700 0.937900
vt 0.277300 0.674200
vt 0.277300 0.691100
vt 0.447600 0.691100
vt 0.447600 0.674200
vt 0.445300 0.693300
vt 0.279500 0.693300
vn 0.990500 -0.137600 -0.000000
vn 0.970500 -0.240900 -0.000000
vn 0.973200 -0.230000 -0.000000
vn 0.000000 -0.211600 -0.977400
vn 0.000000 -0.119200 -0.992900
vn 0.000000 0.000000 -1.000000
vn -1.000000 0.000000 -0.000000
vn 0.605600 -0.795800 -0.000000
vn 0.000000 -0.750400 -0.661000
vn 0.716600 0.697500 -0.000000
vn 0.000000 0.643600 -0.765400
vn 0.677600 -0.735500 -0.000000
vn 0.000000 -0.684000 -0.729500
vn 0.677600 0.735500 -0.000000
vn 0.000000 0.684000 -0.729500
vn 0.906500 -0.422300 -0.000000
vn 0.873400 -0.486900 -0.000000
vn 0.914200 -0.405300 -0.000000
vn 0.000000 -0.433900 -0.900900
vn 0.000000 -0.376500 -0.926400
vn 0.642700 -0.183900 -0.743800
vn 0.625400 -0.292000 -0.723600
vn 0.624200 -0.298000 -0.722200
vn -0.642500 -0.183900 -0.743900
vn -0.624000 -0.298000 -0.722300
vn -0.625300 -0.292000 -0.723700
vn -0.642400 -0.183900 -0.743900
vn 0.653800 0.006100 -0.756600
vn 0.653700 0.006100 -0.756700
vn -0.653800 0.006200 -0.756700
vn -0.653600 0.006100 -0.756800
vn -0.653800 0.006200 -0.756600
vn 0.410600 0.778200 -0.475300
vn 0.410600 0.778200 -0.475200
vn -0.410500 0.778200 -0.475300
vn -0.410600 0.778200 -0.475300
vn 0.332900 -0.860600 -0.385400
vn -0.332900 -0.860600 -0.385400
vn -0.332900 -0.860600 -0.385300
vn 0.381400 -0.812200 -0.441500
vn -0.381400 -0.812200 -0.441500
vn -0.381500 -0.812200 -0.441400
vn -0.381500 -0.812200 -0.441500
vn -0.381300 -0.812200 -0.441500
vn 0.376600 0.817400 -0.435900
vn 0.376700 0.817400 -0.435800
vn 0.376500 0.817400 -0.435900
vn -0.376600 0.817400 -0.435900
vn -0.376700 0.817400 -0.435800
vn -0.376500 0.817400 -0.435900
vn 0.564800 -0.503500 -0.653800
vn 0.568100 -0.494700 -0.657600
vn 0.528000 -0.589800 -0.611000
vn -0.564800 -0.503500 -0.653800
vn -0.528000 -0.589900 -0.611000
vn -0.568100 -0.494700 -0.657600
vn 0.000000 1.000000 -0.000000
vn -0.973200 -0.230000 -0.000000
vn -0.970500 -0.240900 -0.000000
vn -0.990500 -0.137700 -0.000000
vn 1.000000 0.000000 -0.000000
vn -0.605500 -0.795800 -0.000000
vn -0.605600 -0.795800 -0.000100
vn -0.716600 0.697500 -0.000000
vn -0.716500 0.697500 -0.000000
vn -0.677600 -0.735400 -0.000000
vn -0.677600 0.735400 -0.000000
vn -0.873400 -0.487000 -0.000000
vn -0.906500 -0.422300 -0.000000
vn -0.914200 -0.405300 -0.000000
vn 0.000000 -1.000000 -0.000000
f 1/1/1 2/2/2 3/3/3
f 1/1/1 3/3/3 4/4/1
f 5/5/4 6/6/4 7/7/5
f 5/5/4 7/7/5 8/8/5
f 9/9/6 10/10/6 11/11/6
f 9/9/6 11/11/6 12/12/6
f 13/13/7 14/14/7 15/15/7
f 13/13/7 15/15/7 16/16/7
f 17/17/8 18/18/8 19/19/8
f 17/17/8 19/19/8 20/20/8
f 21/21/9 22/22/9 23/23/9
f 21/21/9 23/23/9 24/24/9
f 1/1/10 4/4/10 19/25/10
f 1/1/10 19/25/10 18/26/10
f 8/8/11 7/7/11 22/27/11
f 8/8/11 22/27/11 21/28/11
f 25/29/12 26/30/12 27/31/12
f 25/29/12 27/31/12 28/32/12
f 29/33/13 30/34/13 11/11/13
f 29/33/13 11/11/13 10/10/13
f 31/35/14 32/36/14 27/31/14
f 31/35/14 27/31/14 26/30/14
f 33/37/15 34/38/15 30/34/15
f 33/37/15 30/34/15 29/33/15
f 35/39/16 36/40/17 37/41/17
f 35/39/16 37/41/17 38/42/18
f 9/9/19 12/12/19 39/43/20
f 9/9/19 39/43/20 40/44/20
f 2/2/2 35/39/16 38/42/18
f 2/2/2 38/42/18 3/3/3
f 40/44/20 39/43/20 6/6/4
f 40/44/20 6/6/4 5/5/4
f 1/45/21 7/7/21 6/6/22
f 1/45/21 6/6/22 2/46/23
f 41/47/24 42/48/25 5/49/26
f 41/47/24 5/49/26 8/50/27
f 12/12/28 11/11/29 25/51/29
f 12/12/28 25/51/29 36/52/28
f 16/16/30 15/15/31 10/53/31
f 16/16/30 10/53/31 9/54/32
f 1/45/33 18/55/33 22/27/33
f 1/45/33 22/27/33 7/7/34
f 41/47/35 8/50/35 21/56/36
f 41/47/35 21/56/36 43/57/36
f 22/22/37 18/58/37 17/59/37
f 22/22/37 17/59/37 23/23/37
f 21/21/38 24/24/39 44/60/38
f 21/21/38 44/60/38 43/61/38
f 25/51/40 11/11/40 30/34/40
f 25/51/40 30/34/40 26/62/40
f 15/15/41 45/63/42 29/64/43
f 15/15/41 29/64/43 10/53/44
f 30/34/45 34/38/46 31/65/45
f 30/34/45 31/65/45 26/62/47
f 29/64/48 45/63/49 46/66/48
f 29/64/48 46/66/48 33/67/50
f 35/68/51 39/43/52 12/12/53
f 35/68/51 12/12/53 36/52/53
f 47/69/54 16/16/55 9/54/55
f 47/69/54 9/54/55 40/70/56
f 2/46/23 6/6/22 39/43/52
f 2/46/23 39/43/52 35/68/51
f 42/48/25 47/69/54 40/70/56
f 42/48/25 40/70/56 5/49/26
f 32/71/57 31/72/57 34/73/57
f 32/71/57 34/73/57 46/74/57
f 34/73/57 33/75/57 46/74/57
f 48/76/57 32/71/57 46/74/57
f 49/77/58 42/48/59 41/47/60
f 49/77/58 41/47/60 50/78/60
f 37/41/61 36/40/61 25/29/61
f 37/41/61 25/29/61 28/32/61
f 51/79/62 43/61/62 44/60/62
f 51/79/62 44/60/62 52/80/63
f 51/81/64 50/78/65 41/47/64
f 51/81/64 41/47/64 43/57/64
f 53/82/66 45/63/66 15/15/66
f 53/82/66 15/15/66 14/14/66
f 53/82/67 48/83/67 46/66/67
f 53/82/67 46/66/67 45/63/67
f 13/13/68 16/16/68 47/69/69
f 13/13/68 47/69/69 54/84/70
f 54/84/70 47/69/69 42/48/59
f 54/84/70 42/48/59 49/77/58
f 52/85/71 44/86/71 17/87/71
f 52/85/71 17/87/71 20/88/71
f 23/89/71 17/87/71 44/86/71
f 23/89/71 44/86/71 24/90/71
