v -0.377895 3.349388 -0.774855
v -0.001375 3.450241 -0.774855
v -0.001345 3.450241 0.774857
v -0.377895 3.349388 0.774857
v -0.653475 3.073814 -0.774855
v -0.653475 3.073814 0.774857
v -0.754335 2.697372 -0.774855
v -0.754335 2.697372 0.774857
v -0.688175 2.450424 -0.774855
v -0.688175 2.450424 0.774857
v -1.587125 2.140160 -0.774855
v -1.311555 2.415726 -0.774855
v -1.311555 2.415726 0.774857
v -1.587125 2.140160 0.774857
v -0.935116 2.516602 -0.774855
v -0.935116 2.516602 0.774857
v 0.375155 3.349388 -0.774855
v 0.375155 3.349388 0.774857
v 0.650724 3.073814 -0.774855
v 0.650724 3.073814 0.774857
v 0.751594 2.697372 -0.774855
v 0.751594 2.697372 0.774857
v 0.685424 2.450424 -0.774855
v 0.685424 2.450424 0.774857
v 1.584385 2.140160 -0.774855
v 1.681445 1.777908 -0.774855
v 1.681445 1.777908 0.774857
v 1.584385 2.140160 0.774857
v 1.308805 2.415726 -0.774855
v 1.308805 2.415726 0.774857
v 0.932374 2.516602 -0.774855
v 0.932374 2.516602 0.774857
v -1.684196 1.777908 -0.774855
v -1.684196 1.777908 0.774857
v -0.001375 0.105576 -0.774855
v -0.377895 0.206436 -0.774855
v -0.377895 0.206436 0.774857
v -0.001375 0.105576 0.774857
v -0.653475 0.482010 -0.774855
v -0.653475 0.482010 0.774857
v -0.754335 0.858444 -0.774855
v -0.754335 0.858444 0.774857
v -0.688175 1.105392 -0.774855
v -0.688175 1.105392 0.774857
v -1.311555 1.140091 -0.774855
v -1.587125 1.415665 -0.774855
v -1.587125 1.415665 0.774857
v -1.311555 1.140091 0.774857
v -0.935116 1.039223 -0.774855
v -0.935116 1.039223 0.774857
v 0.375155 0.206436 -0.774855
v 0.375155 0.206436 0.774857
v 0.650724 0.482010 -0.774855
v 0.650724 0.482010 0.774857
v 0.751594 0.858444 -0.774855
v 0.751594 0.858444 0.774857
v 0.685424 1.105392 -0.774855
v 0.685424 1.105392 0.774857
v 1.584385 1.415665 -0.774855
v 1.308805 1.140091 -0.774855
v 1.308805 1.140091 0.774857
v 1.584385 1.415665 0.774857
v 0.932374 1.039223 -0.774855
v 0.932374 1.039223 0.774857
v 1.666924 1.172874 0.774857
v 1.291854 0.559586 0.774857
v 0.703924 0.145912 0.774857
v 1.767335 1.884720 0.774857
v 1.601624 2.526756 0.774857
v 1.211406 3.062843 0.774857
v 0.651355 3.417847 0.774857
v 0.000004 3.541969 0.774857
v -0.651356 3.417847 0.774857
v -1.211405 3.062843 0.774857
v -1.601625 2.526756 0.774857
v -1.767335 1.884720 0.774857
v -1.666925 1.172874 0.774857
v -1.291856 0.559586 0.774857
v -0.703925 0.145897 0.774857
v 0.000004 0.000000 0.774857
vt 0.815900 -0.628600
vt 0.815900 -0.594800
vt 0.955100 -0.594800
vt 0.955100 -0.628600
vt 0.815900 -0.653300
vt 0.955100 -0.653300
vt 0.815900 -0.687100
vt 0.955100 -0.687100
vt 0.815900 -0.709300
vt 0.955100 -0.709300
vt 0.815900 -0.797600
vt 0.815900 -0.762600
vt 0.955100 -0.762600
vt 0.955100 -0.797600
vt 0.815900 -0.732300
vt 0.955100 -0.732300
vt 0.815900 -0.560900
vt 0.955100 -0.560900
vt 0.815900 -0.536200
vt 0.955100 -0.536200
vt 0.815900 -0.502400
vt 0.955100 -0.502400
vt 0.815900 -0.480200
vt 0.955100 -0.480200
vt 0.815900 -0.395000
vt 0.815900 -0.361300
vt 0.955100 -0.361300
vt 0.955100 -0.395000
vt 0.815900 -0.425300
vt 0.955100 -0.425300
vt 0.815900 -0.460300
vt 0.955100 -0.460300
vt 0.815900 -0.826800
vt 0.955100 -0.826800
vt 0.815900 -0.121700
vt 0.815900 -0.087900
vt 0.955100 -0.087900
vt 0.955100 -0.121700
vt 0.815900 -0.052900
vt 0.955100 -0.052900
vt 0.815900 -0.022600
vt 0.955100 -0.022600
vt 0.815900 -0.967200
vt 0.815900 -0.944200
vt 0.955100 -0.944200
vt 0.955100 -0.967200
vt 0.815900 -0.891000
vt 0.815900 -0.856000
vt 0.955100 -0.856000
vt 0.955100 -0.891000
vt 0.815900 -0.921300
vt 0.955100 -0.921300
vt 0.815900 -0.155600
vt 0.955100 -0.155600
vt 0.815900 -0.190600
vt 0.955100 -0.190600
vt 0.815900 -0.220900
vt 0.955100 -0.220900
vt 0.815900 -0.243800
vt 0.955100 -0.243800
vt 0.815900 -0.332100
vt 0.815900 -0.297100
vt 0.955100 -0.297100
vt 0.955100 -0.332100
vt 0.815900 -0.266800
vt 0.955100 -0.266800
vt 0.552400 -0.619700
vt 0.546000 -0.597600
vt 0.580400 -0.603600
vt 0.611700 -0.645400
vt 0.613300 -0.591600
vt 0.676200 -0.645400
vt 0.508300 -0.572600
vt 0.520100 -0.576000
vt 0.487300 -0.516800
vt 0.508500 -0.544300
vt 0.488300 -0.457300
vt 0.514600 -0.509800
vt 0.511100 -0.402200
vt 0.537000 -0.483000
vt 0.528900 -0.427500
vt 0.541000 -0.460400
vt 0.552600 -0.359500
vt 0.534900 -0.393000
vt 0.590300 -0.354100
vt 0.557400 -0.366200
vt 0.606800 -0.335000
vt 0.666300 -0.332100
vt 0.624800 -0.360100
vt 0.722700 -0.351400
vt 0.651600 -0.382600
vt 0.707100 -0.374500
vt 0.674200 -0.386500
vt 0.768000 -0.390000
vt 0.767400 -0.402100
vt 0.741600 -0.380500
vt 0.797400 -0.447500
vt 0.779000 -0.433800
vt 0.801500 -0.511900
vt 0.773000 -0.468200
vt 0.779700 -0.572700
vt 0.750600 -0.495100
vt 0.758600 -0.550600
vt 0.746600 -0.517700
vt 0.752600 -0.585100
vt 0.735500 -0.619800
vt 0.697300 -0.624000
vt 0.730200 -0.611900
vt 0.635900 -0.595500
vt 0.662800 -0.618000
vt 0.659500 -0.404200
vt 0.558600 -0.475100
vt 0.729000 -0.503000
vt 0.628000 -0.573900
vn 0.500000 -0.866100 -0.000000
vn 0.000000 -1.000000 0.000000
vn -0.000000 -1.000000 0.000000
vn 0.866000 -0.500000 -0.000000
vn 1.000000 -0.000000 -0.000000
vn 0.965900 0.258800 -0.000000
vn 0.500000 -0.866000 -0.000000
vn 0.000000 -1.000000 -0.000000
vn -0.258800 -0.965900 -0.000000
vn -0.500000 -0.866000 -0.000000
vn -0.500000 -0.866000 0.000000
vn -0.866000 -0.500000 -0.000000
vn -1.000000 -0.000000 -0.000000
vn -0.965900 0.258800 -0.000000
vn -1.000000 0.000000 -0.000000
vn -0.000000 -1.000000 -0.000000
vn 0.258800 -0.965900 -0.000000
vn 1.000000 0.000000 -0.000000
vn 0.000000 1.000000 -0.000000
vn 0.500000 0.866000 -0.000000
vn 0.866000 0.500000 -0.000000
vn 0.965900 -0.258800 -0.000000
vn -0.258800 0.965900 -0.000000
vn -0.500000 0.866000 -0.000000
vn -0.866000 0.500000 -0.000000
vn -0.965900 -0.258800 -0.000000
vn -0.000000 1.000000 -0.000000
vn 0.258800 0.965900 -0.000000
vn 0.000000 0.000000 1.000000
usemtl sponza/ceiling
f 1/1/1 2/2/2 3/3/3
f 1/1/1 3/3/3 4/4/1
f 5/5/4 1/1/1 4/4/1
f 5/5/4 4/4/1 6/6/4
f 7/7/5 5/5/4 6/6/4
f 7/7/5 6/6/4 8/8/5
f 9/9/6 7/7/5 8/8/5
f 9/9/6 8/8/5 10/10/6
f 11/11/4 12/12/7 13/13/7
f 11/11/4 13/13/7 14/14/4
f 12/12/7 15/15/8 16/16/8
f 12/12/7 16/16/8 13/13/7
f 15/15/8 9/9/9 10/10/9
f 15/15/8 10/10/9 16/16/8
f 2/2/2 17/17/10 18/18/11
f 2/2/2 18/18/11 3/3/3
f 17/17/10 19/19/12 20/20/12
f 17/17/10 20/20/12 18/18/11
f 19/19/12 21/21/13 22/22/13
f 19/19/12 22/22/13 20/20/12
f 21/21/13 23/23/14 24/24/14
f 21/21/13 24/24/14 22/22/13
f 25/25/12 26/26/15 27/27/15
f 25/25/12 27/27/15 28/28/12
f 29/29/10 25/25/12 28/28/12
f 29/29/10 28/28/12 30/30/10
f 31/31/16 29/29/10 30/30/10
f 31/31/16 30/30/10 32/32/16
f 23/23/17 31/31/16 32/32/16
f 23/23/17 32/32/16 24/24/17
f 33/33/18 11/11/4 14/14/4
f 33/33/18 14/14/4 34/34/18
f 35/35/19 36/36/20 37/37/20
f 35/35/19 37/37/20 38/38/19
f 36/36/20 39/39/21 40/40/21
f 36/36/20 40/40/21 37/37/20
f 39/39/21 41/41/5 42/42/5
f 39/39/21 42/42/5 40/40/21
f 41/43/5 43/44/22 44/45/22
f 41/43/5 44/45/22 42/46/5
f 45/47/20 46/48/21 47/49/21
f 45/47/20 47/49/21 48/50/20
f 49/51/19 45/47/20 48/50/20
f 49/51/19 48/50/20 50/52/19
f 43/44/23 49/51/19 50/52/19
f 43/44/23 50/52/19 44/45/23
f 51/53/24 35/35/19 38/38/19
f 51/53/24 38/38/19 52/54/24
f 53/55/25 51/53/24 52/54/24
f 53/55/25 52/54/24 54/56/25
f 55/57/13 53/55/25 54/56/25
f 55/57/13 54/56/25 56/58/13
f 57/59/26 55/57/13 56/58/13
f 57/59/26 56/58/13 58/60/26
f 59/61/25 60/62/24 61/63/24
f 59/61/25 61/63/24 62/64/25
f 60/62/24 63/65/27 64/66/27
f 60/62/24 64/66/27 61/63/24
f 63/65/27 57/59/28 58/60/28
f 63/65/27 58/60/28 64/66/27
f 46/48/21 33/33/18 34/34/18
f 46/48/21 34/34/18 47/49/21
f 26/26/15 59/61/25 62/64/25
f 26/26/15 62/64/25 27/27/15
f 65/67/29 62/68/29 61/69/29
f 65/67/29 61/69/29 66/70/29
f 66/70/29 61/69/29 64/71/29
f 66/70/29 64/71/29 67/72/29
f 68/73/29 27/74/29 62/68/29
f 68/73/29 62/68/29 65/67/29
f 68/73/29 69/75/29 28/76/29
f 68/73/29 28/76/29 27/74/29
f 69/75/29 70/77/29 30/78/29
f 69/75/29 30/78/29 28/76/29
f 70/77/29 71/79/29 32/80/29
f 70/77/29 32/80/29 30/78/29
f 32/80/29 71/79/29 20/81/29
f 32/80/29 20/81/29 22/82/29
f 71/79/29 72/83/29 18/84/29
f 71/79/29 18/84/29 20/81/29
f 4/85/29 3/86/29 72/83/29
f 4/85/29 72/83/29 73/87/29
f 73/87/29 74/88/29 6/89/29
f 73/87/29 6/89/29 4/85/29
f 74/88/29 75/90/29 8/91/29
f 74/88/29 8/91/29 6/89/29
f 8/91/29 75/90/29 13/92/29
f 8/91/29 13/92/29 16/93/29
f 76/94/29 34/95/29 14/96/29
f 76/94/29 14/96/29 75/90/29
f 76/94/29 77/97/29 47/98/29
f 76/94/29 47/98/29 34/95/29
f 77/97/29 78/99/29 48/100/29
f 77/97/29 48/100/29 47/98/29
f 78/99/29 79/101/29 50/102/29
f 78/99/29 50/102/29 48/100/29
f 50/102/29 79/101/29 40/103/29
f 50/102/29 40/103/29 42/104/29
f 37/105/29 40/103/29 79/101/29
f 37/105/29 79/101/29 80/106/29
f 80/106/29 67/72/29 52/107/29
f 80/106/29 52/107/29 38/108/29
f 64/71/29 56/109/29 54/110/29
f 64/71/29 54/110/29 67/72/29
f 8/91/29 16/93/29 10/111/29
f 13/92/29 75/90/29 14/96/29
f 18/84/29 72/83/29 3/86/29
f 24/112/29 32/80/29 22/82/29
f 37/105/29 80/106/29 38/108/29
f 44/113/29 50/102/29 42/104/29
f 52/107/29 67/72/29 54/110/29
f 56/109/29 64/71/29 58/114/29
