v 136.722260 0.000000 -60.980812
v 96.517311 0.000000 -60.980812
v 96.517311 0.000000 -26.614027
v 136.722260 0.000000 -26.614027
v -96.517303 0.000000 -26.614027
v -96.517303 0.000000 -60.980812
v -136.722260 0.000000 -60.980812
v -136.722260 0.000000 -26.614027
v -96.517303 0.000000 26.614035
v -136.722260 0.000000 26.614035
v 96.517311 0.000000 26.614035
v 96.517311 0.000000 60.980812
v 136.722260 0.000000 60.980812
v 136.722260 0.000000 26.614035
v -136.722260 0.000000 60.980812
v -96.517303 0.000000 60.980812
vt 6.718900 -3.185200
vt 5.731000 -3.185200
vt 5.731000 -2.327400
vt 6.718900 -2.327400
vt 0.987900 -2.327400
vt 0.987900 -3.185200
vt 0.000000 -3.185200
vt 0.000000 -2.327400
vt 0.987900 -1.017300
vt 0.000000 -1.017300
vt 5.731000 -1.017300
vt 5.731000 -0.140900
vt 6.718900 -0.140900
vt 6.718900 -1.017300
vt 0.000000 -0.140900
vt 0.987900 -0.140900
vn 0.000000 1.000000 -0.000000
usemtl sponza/floor
f 1/1/1 2/2/1 3/3/1
f 1/1/1 3/3/1 4/4/1
f 5/5/1 6/6/1 7/7/1
f 5/5/1 7/7/1 8/8/1
f 9/9/1 5/5/1 8/8/1
f 9/9/1 8/8/1 10/10/1
f 2/2/1 6/6/1 5/5/1
f 2/2/1 5/5/1 3/3/1
f 11/11/1 12/12/1 13/13/1
f 11/11/1 13/13/1 14/14/1
f 3/3/1 11/11/1 14/14/1
f 3/3/1 14/14/1 4/4/1
f 15/15/1 16/16/1 9/9/1
f 15/15/1 9/9/1 10/10/1
f 16/16/1 12/12/1 11/11/1
f 16/16/1 11/11/1 9/9/1
