v 2.320830 0.386864 -0.169800
v 2.320830 0.386864 -0.780792
v 2.384011 1.033310 -0.780792
v 2.384011 1.033310 -0.087631
v 2.261230 0.386864 -0.096611
v 2.328150 1.033310 -0.018993
v -2.328170 1.033310 -0.018993
v -2.261250 0.386864 -0.096611
v 2.808741 3.059639 0.576248
v -2.808790 3.059639 0.576248
v -2.811649 2.623329 0.576248
v 2.811620 2.623329 0.576248
v -2.868649 3.059639 0.502712
v -2.868649 3.059639 -0.780792
v -2.868649 2.623329 -0.780792
v -2.868649 2.623329 0.506229
v 2.274461 0.000000 -0.228127
v 2.274461 0.000000 -0.780792
v 2.453251 0.193428 -0.780792
v 2.453251 0.193428 -0.015751
v 2.213750 0.000000 -0.153542
v 2.386651 0.193428 0.066048
v -2.386669 0.193428 0.066048
v -2.213790 0.000000 -0.153542
v 2.868600 3.059639 0.502712
v 2.868600 3.059639 -0.780792
v 3.035160 3.277786 -0.780792
v 3.035160 3.277786 0.699471
v 2.968920 3.277786 0.780788
v -2.968970 3.277786 0.780788
v 2.868600 3.495949 -0.780792
v 2.868600 3.495949 0.494930
v 2.802421 3.495949 0.576248
v -2.802440 3.495949 0.576248
v 2.598001 1.933212 0.172459
v 2.598001 1.933212 -0.780792
v 2.868600 2.623329 -0.780792
v 2.868600 2.623329 0.506229
v 2.539870 1.933212 0.243862
v -2.539920 1.933212 0.243862
v -2.384060 1.033310 -0.087631
v -2.320849 0.386864 -0.169800
v -2.453269 0.193428 -0.015751
v -2.274489 0.000000 -0.228127
v -3.035159 3.277786 0.699471
v -2.868649 3.495949 0.494930
v -2.598049 1.933212 0.172459
v -2.868649 3.495949 -0.780792
v -2.384060 1.033310 -0.780792
v -2.320849 0.386864 -0.780792
v -2.453300 0.193428 -0.780792
v -2.274509 0.000000 -0.780792
v -3.035159 3.277786 -0.780792
v -2.598020 1.933212 -0.780792
vt 0.550400 -0.888100
vt 0.533700 -0.888100
vt 0.533700 -0.908400
vt 0.552600 -0.908400
vt 0.607600 -0.889700
vt 0.605300 -0.910000
vt 0.761400 -0.910000
vt 0.759200 -0.889700
vt 0.589200 -0.973700
vt 0.777500 -0.973700
vt 0.777600 -0.960000
vt 0.589100 -0.960000
vt 0.793700 -0.973300
vt 0.828700 -0.973300
vt 0.828700 -0.959600
vt 0.793600 -0.959600
vt 0.986500 -0.767200
vt 0.961900 -0.767200
vt 0.963200 -0.779100
vt 0.995900 -0.779100
vt 0.011200 -0.767200
vt 0.011100 -0.779000
vt 0.252400 -0.779000
vt 0.252500 -0.767200
vt 0.533700 -0.882000
vt 0.554600 -0.882000
vt 0.603400 -0.883600
vt 0.763400 -0.883600
vt 0.568700 -0.972100
vt 0.533700 -0.972100
vt 0.533700 -0.979000
vt 0.574100 -0.979000
vt 0.583900 -0.980600
vt 0.782900 -0.980600
vt 0.533700 -0.985900
vt 0.568500 -0.985900
vt 0.589400 -0.987500
vt 0.777300 -0.987500
vt 0.559700 -0.936700
vt 0.533700 -0.936700
vt 0.533700 -0.958400
vt 0.568800 -0.958400
vt 0.598200 -0.938300
vt 0.768500 -0.938300
vt 0.602800 -0.909400
vt 0.605000 -0.890700
vt 0.809500 -0.890200
vt 0.807300 -0.909000
vt 0.809800 -0.909600
vt 0.812100 -0.889200
vt 0.586700 -0.972600
vt 0.586500 -0.959300
vt 0.791200 -0.972100
vt 0.791000 -0.958900
vt 0.600700 -0.886200
vt 0.807900 -0.883200
vt 0.805200 -0.885700
vt 0.007900 -0.767200
vt 0.007800 -0.778900
vt 0.255900 -0.779000
vt 0.255800 -0.767200
vt 0.581500 -0.980600
vt 0.786000 -0.980100
vt 0.788400 -0.980100
vt 0.587100 -0.990000
vt 0.791600 -0.989600
vt 0.793900 -0.987000
vt 0.595700 -0.937200
vt 0.800200 -0.936700
vt 0.802700 -0.937900
vt 0.167400 -0.876000
vt 0.165500 -0.874600
vt 0.010900 -0.874600
vt 0.009100 -0.897600
vt 0.009100 -0.876000
vt 0.167400 -0.897600
vt 0.828700 -0.909600
vt 0.828700 -0.889200
vt 0.287400 -0.779000
vt 0.280300 -0.767200
vt 0.828700 -0.883200
vt 0.828700 -0.980100
vt 0.828700 -0.987000
vt 0.828700 -0.937900
vt 0.447600 -0.691100
vt 0.277300 -0.691100
vt 0.277300 -0.674200
vt 0.447600 -0.674200
vt 0.445300 -0.693300
vt 0.279500 -0.693300
vn 0.995300 -0.097300 -0.000000
vn 0.986300 -0.164700 -0.000000
vn 0.984900 -0.172900 -0.000000
vn 0.000000 -0.119200 0.992900
vn 0.000000 -0.208500 0.978000
vn 0.000000 0.000000 1.000000
vn -1.000000 0.000000 -0.000000
vn 0.734400 -0.678800 -0.000000
vn 0.000000 -0.750400 0.661000
vn 0.825200 0.564900 -0.000000
vn 0.000000 0.643600 0.765400
vn 0.794800 -0.606800 -0.000000
vn 0.000000 -0.684000 0.729500
vn 0.794800 0.606800 -0.000000
vn 0.000000 0.684000 0.729500
vn 0.949700 -0.313100 -0.000000
vn 0.954300 -0.298900 -0.000000
vn 0.931000 -0.365100 -0.000000
vn 0.000000 -0.371600 0.928400
vn 0.000000 -0.433900 0.900900
vn 0.751500 -0.247300 0.611600
vn 0.750200 -0.253500 0.610600
vn 0.766200 -0.154200 0.623800
vn -0.766200 -0.154200 0.623800
vn -0.750100 -0.253500 0.610800
vn -0.751400 -0.247300 0.611800
vn 0.775500 0.005100 0.631300
vn 0.775600 0.005100 0.631200
vn -0.775500 0.005100 0.631300
vn -0.775500 0.005100 0.631400
vn -0.775400 0.005100 0.631400
vn 0.539200 0.718700 0.439000
vn -0.539200 0.718700 0.439000
vn 0.448600 -0.815700 0.365200
vn 0.448600 -0.815700 0.365300
vn -0.448700 -0.815700 0.365300
vn -0.448700 -0.815700 0.365200
vn 0.505900 -0.757800 0.412000
vn 0.506000 -0.757800 0.411900
vn -0.506100 -0.757800 0.411900
vn 0.500300 0.764000 0.407500
vn 0.500400 0.764000 0.407300
vn 0.500400 0.764000 0.407400
vn 0.500300 0.763900 0.407500
vn -0.500400 0.763900 0.407400
vn -0.500500 0.763900 0.407300
vn 0.662300 -0.520400 0.539000
vn 0.696600 -0.439500 0.567200
vn 0.700300 -0.429400 0.570200
vn -0.696600 -0.439500 0.567200
vn -0.662200 -0.520400 0.539200
vn -0.700300 -0.429400 0.570200
vn 0.000000 1.000000 -0.000000
vn -0.995300 -0.097300 -0.000000
vn -0.984900 -0.172900 -0.000000
vn -0.986300 -0.164700 -0.000000
vn 1.000000 0.000000 -0.000000
vn -0.734400 -0.678800 0.000000
vn -0.825100 0.565000 0.000000
vn -0.825200 0.564900 0.000000
vn -0.825100 0.564900 0.000000
vn -0.825100 0.565000 -0.000000
vn -0.794900 -0.606700 -0.000000
vn -0.794900 0.606700 -0.000000
vn -0.949700 -0.313100 -0.000000
vn -0.931000 -0.365100 -0.000000
vn -0.954300 -0.298900 -0.000000
vn 0.000000 -1.000000 -0.000000
usemtl sponza/column_c
f 1/1/1 2/2/1 3/3/2
f 1/1/1 3/3/2 4/4/3
f 5/5/4 6/6/5 7/7/5
f 5/5/4 7/7/5 8/8/4
f 9/9/6 10/10/6 11/11/6
f 9/9/6 11/11/6 12/12/6
f 13/13/7 14/14/7 15/15/7
f 13/13/7 15/15/7 16/16/7
f 17/17/8 18/18/8 19/19/8
f 17/17/8 19/19/8 20/20/8
f 21/21/9 22/22/9 23/23/9
f 21/21/9 23/23/9 24/24/9
f 19/25/10 2/2/10 1/1/10
f 19/25/10 1/1/10 20/26/10
f 22/27/11 5/5/11 8/8/11
f 22/27/11 8/8/11 23/28/11
f 25/29/12 26/30/12 27/31/12
f 25/29/12 27/31/12 28/32/12
f 9/9/13 29/33/13 30/34/13
f 9/9/13 30/34/13 10/10/13
f 27/31/14 31/35/14 32/36/14
f 27/31/14 32/36/14 28/32/14
f 29/33/15 33/37/15 34/38/15
f 29/33/15 34/38/15 30/34/15
f 35/39/16 36/40/17 37/41/18
f 35/39/16 37/41/18 38/42/18
f 39/43/19 12/12/20 11/11/20
f 39/43/19 11/11/20 40/44/19
f 4/4/3 3/3/2 36/40/17
f 4/4/3 36/40/17 35/39/16
f 6/6/5 39/43/19 40/44/19
f 6/6/5 40/44/19 7/7/5
f 4/45/21 6/6/22 5/5/23
f 4/45/21 5/5/23 1/46/23
f 8/47/24 7/48/25 41/49/26
f 8/47/24 41/49/26 42/50/24
f 25/51/27 9/9/27 12/12/28
f 25/51/27 12/12/28 38/52/28
f 10/53/29 13/13/29 16/16/30
f 10/53/29 16/16/30 11/54/31
f 5/5/32 22/27/32 20/55/32
f 5/5/32 20/55/32 1/46/32
f 43/56/33 23/57/33 8/47/33
f 43/56/33 8/47/33 42/50/33
f 21/21/34 17/58/34 20/59/35
f 21/21/34 20/59/35 22/22/35
f 43/60/36 44/61/37 24/24/37
f 43/60/36 24/24/37 23/23/36
f 28/62/38 29/33/38 9/9/39
f 28/62/38 9/9/39 25/51/39
f 10/53/40 30/63/40 45/64/40
f 10/53/40 45/64/40 13/13/40
f 28/62/41 32/65/42 33/37/43
f 28/62/41 33/37/43 29/33/44
f 34/66/45 46/67/45 45/64/46
f 34/66/45 45/64/46 30/63/46
f 38/52/47 12/12/47 39/43/48
f 38/52/47 39/43/48 35/68/49
f 40/69/50 11/54/51 16/16/51
f 40/69/50 16/16/51 47/70/52
f 35/68/49 39/43/48 6/6/22
f 35/68/49 6/6/22 4/45/21
f 7/48/25 40/69/50 47/70/52
f 7/48/25 47/70/52 41/49/26
f 46/71/53 34/72/53 33/73/53
f 46/71/53 33/73/53 31/74/53
f 33/73/53 32/75/53 31/74/53
f 48/76/53 46/71/53 31/74/53
f 42/50/54 41/49/55 49/77/56
f 42/50/54 49/77/56 50/78/54
f 25/29/57 38/42/57 37/41/57
f 25/29/57 37/41/57 26/30/57
f 44/61/58 43/60/58 51/79/58
f 44/61/58 51/79/58 52/80/58
f 51/81/59 43/56/60 42/50/61
f 51/81/59 42/50/61 50/78/62
f 13/13/63 45/64/63 53/82/63
f 13/13/63 53/82/63 14/14/63
f 53/82/64 45/64/64 46/67/64
f 53/82/64 46/67/64 48/83/64
f 47/70/65 16/16/66 15/15/66
f 47/70/65 15/15/66 54/84/67
f 41/49/55 47/70/65 54/84/67
f 41/49/55 54/84/67 49/77/56
f 17/85/68 44/86/68 52/87/68
f 17/85/68 52/87/68 18/88/68
f 44/86/68 17/85/68 21/89/68
f 44/86/68 21/89/68 24/90/68
