v 2.891235 0.000000 -2.932211
v 2.937477 0.000000 -2.885952
v 2.954964 0.000000 -2.843750
v -2.849022 0.000000 -2.949692
v 2.937477 0.000000 2.885948
v 2.954964 0.000000 -2.706522
v 2.954964 0.000000 2.728579
v 2.954964 0.000000 2.843748
v 2.849022 0.000000 2.949690
v 2.891235 0.000000 2.932209
v -2.891220 0.000000 2.932209
v 2.751747 0.000000 2.949690
v -2.717216 0.000000 2.949690
v -2.849022 0.000000 2.949690
v -2.954956 0.000000 2.843748
v -2.937462 0.000000 2.885948
v -2.937462 0.000000 -2.885952
v -2.954956 0.000000 2.726580
v -2.954956 0.000000 -2.768099
v -2.954956 0.000000 -2.843750
v -2.891220 0.000000 -2.932211
v -2.804031 0.000000 -2.949692
v 2.720917 0.000000 -2.949692
v 2.849022 0.000000 -2.949692
v 2.937477 0.847488 -2.885952
v 2.891235 0.847488 -2.932211
v 2.849022 0.847488 -2.949692
v 2.954964 0.847488 2.843748
v -2.891220 0.847488 -2.932211
v 2.720917 0.847488 -2.949692
v -2.804031 0.847488 -2.949692
v -2.849022 0.847488 -2.949692
v -2.954956 0.847488 -2.843750
v -2.937462 0.847488 -2.885952
v -2.937462 0.847488 2.885948
v -2.954956 0.847488 -2.768099
v -2.954956 0.847488 2.726580
v -2.954956 0.847488 2.843748
v -2.849022 0.847488 2.949690
v -2.891220 0.847488 2.932209
v 2.891235 0.847488 2.932209
v -2.717216 0.847488 2.949690
v 2.751747 0.847488 2.949690
v 2.849022 0.847488 2.949690
v 2.937477 0.847488 2.885948
v 2.954964 0.847488 2.728579
v 2.954964 0.847488 -2.706522
v 2.954964 0.847488 -2.843750
v 2.727501 0.423973 -2.984371
v 2.855927 0.620369 -2.984371
v 2.855927 0.034676 -2.984371
v 2.727501 0.227570 -2.984371
v -2.989639 0.423973 -2.774811
v -2.989639 0.620369 -2.850641
v -2.989639 0.034676 -2.850641
v -2.989639 0.227570 -2.774811
v -2.966866 0.812813 -2.905600
v -2.910866 0.812813 -2.961603
v -2.910866 0.034676 -2.961603
v -2.966866 0.034676 -2.905600
v 2.966881 0.812813 -2.905600
v 2.966881 0.034676 -2.905600
v 2.910873 0.034676 -2.961603
v 2.910873 0.812813 -2.961603
v -2.910866 0.812813 2.961609
v -2.966866 0.812813 2.905600
v -2.966866 0.034676 2.905600
v -2.910866 0.034676 2.961609
v -2.855911 0.812813 -2.984371
v -2.855911 0.620369 -2.984371
v -2.855911 0.034676 -2.984371
v 2.855927 0.812813 -2.984371
v -2.989639 0.620369 2.850639
v -2.989639 0.034676 2.850639
v -2.989639 0.812813 -2.850641
v 2.989639 0.620369 -2.850641
v 2.989639 0.034676 -2.850641
v 2.989639 0.812813 -2.850641
v -2.855911 0.620369 2.984369
v -2.855911 0.034676 2.984369
v -2.989639 0.034676 2.733198
v -2.810814 0.034676 -2.984371
v 2.727501 0.812813 -2.984371
v -2.989639 0.812813 -2.774811
v -2.855911 0.812813 2.984369
v -2.989639 0.812813 2.850639
v -2.723801 0.423973 2.984369
v -2.723801 0.227570 2.984369
v 2.989639 0.423973 2.735189
v 2.989639 0.620369 2.850639
v 2.989639 0.034676 2.850639
v 2.989639 0.227570 2.735189
v 2.966881 0.812813 2.905600
v 2.910873 0.812813 2.961609
v 2.910873 0.034676 2.961609
v 2.966881 0.034676 2.905600
v 2.855927 0.812813 2.984369
v 2.855927 0.620369 2.984369
v 2.855927 0.034676 2.984369
v 2.989639 0.812813 2.850639
v 2.989639 0.034676 -2.713083
v 2.758400 0.034676 2.984369
v -2.723801 0.812813 2.984369
v 2.989639 0.812813 2.735189
v -2.810814 0.620369 -2.984371
v -2.989639 0.812813 2.733198
v -2.989639 0.620369 2.733198
v 2.758400 0.620369 2.984369
v 2.989639 0.620369 -2.713083
v 2.727501 0.034676 -2.984371
v 2.679268 0.227570 -2.984371
v -2.810814 0.812813 -2.984371
v 2.727501 0.620369 -2.984371
v -2.743462 0.620369 -2.984371
v -2.743462 0.423973 -2.713150
v -2.810814 0.423973 -2.984371
v -2.810814 0.227570 -2.984371
v -2.989639 0.227570 2.733198
v -2.989639 0.034676 -2.774811
v -2.989639 0.620369 2.680830
v -2.794739 0.423973 2.680830
v -2.989639 0.423973 2.733198
v -2.989639 0.227570 -2.702261
v -2.989639 0.620369 -2.774811
v 2.758400 0.227570 2.984369
v -2.723801 0.034676 2.984369
v 2.758400 0.812813 2.984369
v 2.701416 0.620369 2.984369
v 2.701416 0.423973 2.786077
v 2.758400 0.423973 2.984369
v -2.660912 0.227570 2.984369
v -2.723801 0.620369 2.984369
v 2.989639 0.227570 -2.713083
v 2.989639 0.034676 2.735189
v 2.989639 0.812813 -2.713083
v 2.989639 0.620369 -2.647623
v 2.744484 0.423973 -2.647623
v 2.989639 0.423973 -2.713083
v 2.989639 0.227570 2.684790
v 2.989639 0.620369 2.735189
v 2.679268 0.423973 -2.713150
v -2.794739 0.423973 -2.702261
v -2.660912 0.423973 2.786077
v 2.744484 0.423973 2.684790
v 2.989639 0.620369 2.684790
v 2.989639 0.227570 -2.647623
v -2.660912 0.620369 2.984369
v 2.701416 0.227570 2.984369
v -2.989639 0.620369 -2.702261
v -2.989639 0.227570 2.680830
v 2.679268 0.620369 -2.984371
v -2.743462 0.227570 -2.984371
vt 0.985300 0.663100
vt 0.987900 0.665600
vt 0.988800 0.667900
vt 0.673400 0.662200
vt 0.987900 0.979200
vt 0.988800 0.675400
vt 0.988800 0.970600
vt 0.988800 0.976900
vt 0.983100 0.982600
vt 0.985300 0.981700
vt 0.671300 0.981700
vt 0.977800 0.982600
vt 0.680700 0.982600
vt 0.673600 0.982600
vt 0.667800 0.976900
vt 0.668700 0.979200
vt 0.668700 0.665600
vt 0.667800 0.970500
vt 0.667800 0.672000
vt 0.667800 0.667900
vt 0.671300 0.663100
vt 0.675800 0.662200
vt 0.976100 0.662100
vt 0.983100 0.662100
vt 0.562600 0.787300
vt 0.561600 0.788400
vt 0.560600 0.788800
vt 0.563100 0.653600
vt 0.426600 0.788400
vt 0.557700 0.788800
vt 0.428600 0.788800
vt 0.427600 0.788800
vt 0.425200 0.786300
vt 0.425600 0.787300
vt 0.425600 0.652600
vt 0.425200 0.784500
vt 0.425200 0.656300
vt 0.425200 0.653600
vt 0.427600 0.651100
vt 0.426600 0.651500
vt 0.561600 0.651500
vt 0.430700 0.651100
vt 0.558300 0.651100
vt 0.560600 0.651100
vt 0.562600 0.652600
vt 0.563100 0.656300
vt 0.563100 0.783100
vt 0.563100 0.786300
vt 0.034700 0.616600
vt 0.045000 0.623300
vt 0.014300 0.623300
vt 0.024400 0.616600
vt 0.034700 0.311200
vt 0.045000 0.315200
vt 0.014300 0.315200
vt 0.024400 0.311200
vt 0.055100 0.318100
vt 0.055100 0.321000
vt 0.014300 0.321000
vt 0.014300 0.318100
vt 0.055100 0.629100
vt 0.014300 0.629100
vt 0.014300 0.626200
vt 0.055100 0.626200
vt 0.055100 0.010500
vt 0.055100 0.013400
vt 0.014300 0.013400
vt 0.014300 0.010500
vt 0.055100 0.323900
vt 0.045000 0.323900
vt 0.014300 0.323900
vt 0.055100 0.623300
vt 0.045000 0.016300
vt 0.014300 0.016300
vt 0.055100 0.315200
vt 0.045000 0.632000
vt 0.014300 0.632000
vt 0.055100 0.632000
vt 0.045000 0.007600
vt 0.014300 0.007600
vt 0.012400 0.016500
vt 0.014300 0.022400
vt 0.012400 0.022600
vt 0.012500 0.324100
vt 0.014300 0.326200
vt 0.012500 0.326400
vt 0.056900 0.623100
vt 0.055100 0.616600
vt 0.056900 0.616400
vt 0.057000 0.315100
vt 0.055100 0.311200
vt 0.057000 0.311200
vt 0.012500 0.629200
vt 0.012500 0.626200
vt 0.012600 0.321000
vt 0.012600 0.318000
vt 0.012200 0.013400
vt 0.012500 0.010400
vt 0.056900 0.626200
vt 0.057200 0.629200
vt 0.057000 0.318000
vt 0.056800 0.321000
vt 0.057200 0.010400
vt 0.057200 0.013400
vt 0.012600 0.623000
vt 0.057600 0.007900
vt 0.055100 0.007600
vt 0.012600 0.631700
vt 0.012500 0.315200
vt 0.012600 0.007900
vt 0.057100 0.631700
vt 0.056900 0.324100
vt 0.057200 0.016300
vt 0.055100 0.016300
vt 0.034700 0.616400
vt 0.024400 0.616400
vt 0.034700 0.309100
vt 0.024400 0.309100
vt 0.014300 0.023500
vt 0.012400 0.023700
vt 0.014300 0.329000
vt 0.012500 0.329200
vt 0.055100 0.616400
vt 0.056900 0.616200
vt 0.055100 0.309100
vt 0.057000 0.309100
vt 0.045000 0.326200
vt 0.055100 0.022400
vt 0.045000 0.022400
vt 0.045000 0.329000
vt 0.045000 0.023500
vt 0.014300 0.616600
vt 0.024400 0.614100
vt 0.012600 0.616300
vt 0.055100 0.326200
vt 0.056900 0.326500
vt 0.045000 0.616600
vt 0.045000 0.329800
vt 0.034700 0.329800
vt 0.034700 0.326200
vt 0.024400 0.326200
vt 0.024400 0.022400
vt 0.014300 0.311200
vt 0.012500 0.311200
vt 0.057200 0.022500
vt 0.045000 0.025200
vt 0.034700 0.025200
vt 0.034700 0.022400
vt 0.024400 0.307400
vt 0.045000 0.311200
vt 0.024400 0.329000
vt 0.014300 0.616400
vt 0.012600 0.616100
vt 0.055100 0.329000
vt 0.056900 0.329200
vt 0.045000 0.332000
vt 0.034700 0.332000
vt 0.034700 0.329000
vt 0.024400 0.613100
vt 0.045000 0.616400
vt 0.024400 0.023500
vt 0.014300 0.309100
vt 0.012500 0.309100
vt 0.055100 0.023500
vt 0.057200 0.023500
vt 0.045000 0.026900
vt 0.034700 0.026900
vt 0.034700 0.023500
vt 0.024400 0.306500
vt 0.045000 0.309100
vt 0.034700 0.614100
vt 0.034700 0.307400
vt 0.034700 0.613100
vt 0.034700 0.306500
vt 0.045000 0.306500
vt 0.024400 0.026900
vt 0.045000 0.613100
vt 0.024400 0.332000
vt 0.045000 0.307400
vt 0.024400 0.025200
vt 0.045000 0.614100
vt 0.024400 0.329800
vn 0.231800 -0.908800 -0.346900
vn 0.346900 -0.908800 -0.231800
vn 0.409200 -0.908800 -0.081400
vn -0.081400 -0.908800 -0.409200
vn 0.346900 -0.908800 0.231800
vn 0.382700 -0.923900 -0.000000
vn 0.409200 -0.908800 0.081400
vn 0.081400 -0.908800 0.409200
vn 0.231800 -0.908800 0.346900
vn -0.231800 -0.908800 0.346900
vn -0.000000 -0.923900 0.382700
vn -0.081400 -0.908800 0.409200
vn -0.409200 -0.908800 0.081400
vn -0.346900 -0.908800 0.231800
vn -0.346900 -0.908800 -0.231800
vn -0.382700 -0.923900 -0.000000
vn -0.409200 -0.908800 -0.081400
vn -0.231800 -0.908800 -0.346900
vn 0.000000 -0.923900 -0.382700
vn 0.081400 -0.908800 -0.409200
vn 0.346900 0.908800 -0.231800
vn 0.231800 0.908800 -0.346900
vn 0.081400 0.908800 -0.409200
vn 0.409200 0.908800 0.081400
vn -0.231800 0.908800 -0.346900
vn 0.000000 0.923900 -0.382700
vn -0.081400 0.908800 -0.409200
vn -0.409200 0.908800 -0.081400
vn -0.346900 0.908800 -0.231800
vn -0.346900 0.908800 0.231800
vn -0.382700 0.923900 -0.000000
vn -0.409200 0.908800 0.081400
vn -0.081400 0.908800 0.409200
vn -0.231800 0.908800 0.346900
vn 0.231800 0.908800 0.346900
vn -0.000000 0.923900 0.382700
vn 0.081400 0.908800 0.409200
vn 0.346900 0.908800 0.231800
vn 0.382700 0.923900 -0.000000
vn 0.409200 0.908800 -0.081400
vn 0.000000 0.000000 -1.000000
vn 0.195100 0.000000 -0.980800
vn 0.181200 -0.371000 -0.910800
vn -1.000000 0.000000 -0.000000
vn -0.980800 0.000000 -0.195100
vn -0.910800 -0.371000 -0.181200
vn -0.772100 0.371000 -0.515900
vn -0.515900 0.371000 -0.772100
vn -0.515900 -0.371000 -0.772100
vn -0.772100 -0.371000 -0.515900
vn 0.772100 0.371000 -0.515900
vn 0.772100 -0.371000 -0.515900
vn 0.515900 -0.371000 -0.772100
vn 0.515900 0.371000 -0.772100
vn -0.515900 0.371000 0.772100
vn -0.772100 0.371000 0.515900
vn -0.772100 -0.371000 0.515900
vn -0.515900 -0.371000 0.772100
vn -0.181200 0.371000 -0.910800
vn -0.195100 0.000000 -0.980800
vn -0.181200 -0.371000 -0.910800
vn 0.181200 0.371000 -0.910800
vn -0.980800 0.000000 0.195100
vn -0.910800 -0.371000 0.181200
vn -0.910800 0.371000 -0.181200
vn 0.980800 0.000000 -0.195100
vn 0.910800 -0.371000 -0.181100
vn 0.910800 0.371000 -0.181100
vn -0.195100 0.000000 0.980800
vn -0.181200 -0.371000 0.910800
vn -0.923900 -0.382700 -0.000000
vn 0.000000 -0.382700 -0.923900
vn 0.000000 0.382700 -0.923900
vn -0.923900 0.382700 -0.000000
vn -0.181200 0.371000 0.910800
vn -0.910800 0.371000 0.181200
vn 0.000000 0.000000 1.000000
vn 1.000000 0.000000 -0.000000
vn 0.980800 0.000000 0.195100
vn 0.910800 -0.371000 0.181100
vn 0.772100 0.371000 0.515900
vn 0.515900 0.371000 0.772100
vn 0.515900 -0.371000 0.772100
vn 0.772100 -0.371000 0.515900
vn 0.181200 0.371000 0.910800
vn 0.195100 0.000000 0.980800
vn 0.181200 -0.371000 0.910800
vn 0.910800 0.371000 0.181100
vn 0.923900 -0.382700 -0.000000
vn 0.000000 -0.382700 0.923900
vn 0.000000 0.382700 0.923900
vn 0.923900 0.382700 -0.000000
vn 0.517200 -0.177400 -0.837300
vn 0.970500 -0.000000 -0.241000
vn 0.898400 -0.000000 -0.439100
vn -0.967800 -0.251600 -0.000000
vn -0.887000 -0.119000 -0.446300
vn -0.259500 -0.000000 -0.965700
vn -0.413400 -0.000000 -0.910600
vn -0.967800 0.251600 -0.000000
vn -0.000000 -0.382700 0.923900
vn -0.000000 0.382700 0.923900
vn -0.449400 -0.130400 0.883800
vn -0.961100 -0.000000 0.276200
vn -0.897400 -0.000000 0.441200
vn 0.852400 -0.165400 0.496100
vn 0.258000 -0.000000 0.966100
vn 0.448600 -0.000000 0.893700
vn -0.521300 0.128000 -0.843700
vn -0.984600 -0.000000 -0.175100
vn -0.946100 -0.000000 -0.323900
vn -0.882800 0.162700 0.440600
vn -0.348800 -0.000000 0.937200
vn -0.543700 -0.000000 0.839300
vn 0.447800 0.143400 0.882600
vn 0.953200 -0.000000 0.302300
vn 0.877300 -0.000000 0.480000
vn 0.856700 0.128200 -0.499600
vn 0.201400 -0.000000 -0.979500
vn 0.354800 -0.000000 -0.934900
vn 0.625200 -0.780500 -0.000000
vn 0.852400 0.165400 0.496100
vn 0.625200 0.780500 -0.000000
vn 0.856700 -0.128200 -0.499600
vn 0.000000 -0.710500 0.703700
vn -0.449400 0.130400 0.883800
vn 0.000000 0.710500 0.703700
vn 0.447800 -0.143400 0.882600
vn -1.000000 -0.000000 -0.000000
vn -0.887000 0.119000 -0.446200
vn -0.882800 -0.162700 0.440600
vn 0.000000 -0.809900 -0.586500
vn 0.517100 0.177400 -0.837300
vn 0.000000 0.809900 -0.586500
vn -0.521300 -0.128000 -0.843700
usemtl sponza/column_b
f 1/1/1 2/2/2 3/3/3
f 1/1/1 3/3/3 4/4/4
f 5/5/5 6/6/6 7/7/6
f 5/5/5 7/7/6 8/8/7
f 6/6/6 5/5/5 9/9/8
f 6/6/6 9/9/8 3/3/3
f 5/5/5 10/10/9 9/9/8
f 11/11/10 12/12/11 13/13/11
f 11/11/10 13/13/11 14/14/12
f 12/12/11 11/11/10 15/15/13
f 12/12/11 15/15/13 9/9/8
f 11/11/10 16/16/14 15/15/13
f 9/9/8 15/15/13 4/4/4
f 9/9/8 4/4/4 3/3/3
f 17/17/15 18/18/16 19/19/16
f 17/17/15 19/19/16 20/20/17
f 18/18/16 17/17/15 4/4/4
f 18/18/16 4/4/4 15/15/13
f 17/17/15 21/21/18 4/4/4
f 22/22/19 23/23/19 1/1/1
f 22/22/19 1/1/1 4/4/4
f 24/24/20 1/1/1 23/23/19
f 25/25/21 26/26/22 27/27/23
f 25/25/21 27/27/23 28/28/24
f 29/29/25 30/30/26 31/31/26
f 29/29/25 31/31/26 32/32/27
f 30/30/26 29/29/25 33/33/28
f 30/30/26 33/33/28 27/27/23
f 29/29/25 34/34/29 33/33/28
f 35/35/30 36/36/31 37/37/31
f 35/35/30 37/37/31 38/38/32
f 36/36/31 35/35/30 39/39/33
f 36/36/31 39/39/33 33/33/28
f 35/35/30 40/40/34 39/39/33
f 33/33/28 39/39/33 28/28/24
f 33/33/28 28/28/24 27/27/23
f 41/41/35 42/42/36 43/43/36
f 41/41/35 43/43/36 44/44/37
f 42/42/36 41/41/35 28/28/24
f 42/42/36 28/28/24 39/39/33
f 41/41/35 45/45/38 28/28/24
f 46/46/39 47/47/39 25/25/21
f 46/46/39 25/25/21 28/28/24
f 48/48/40 25/25/21 47/47/39
f 49/49/41 50/50/42 51/51/43
f 49/49/41 51/51/43 52/52/41
f 53/53/44 54/54/45 55/55/46
f 53/53/44 55/55/46 56/56/44
f 57/57/47 58/58/48 59/59/49
f 57/57/47 59/59/49 60/60/50
f 61/61/51 62/62/52 63/63/53
f 61/61/51 63/63/53 64/64/54
f 65/65/55 66/66/56 67/67/57
f 65/65/55 67/67/57 68/68/58
f 58/58/48 69/69/59 70/70/60
f 58/58/48 70/70/60 59/59/49
f 71/71/61 59/59/49 70/70/60
f 63/63/53 51/51/43 50/50/42
f 63/63/53 50/50/42 64/64/54
f 72/72/62 64/64/54 50/50/42
f 67/67/57 66/66/56 73/73/63
f 67/67/57 73/73/63 74/74/64
f 57/57/47 55/55/46 54/54/45
f 57/57/47 54/54/45 75/75/65
f 60/60/50 55/55/46 57/57/47
f 76/76/66 77/77/67 61/61/51
f 76/76/66 61/61/51 78/78/68
f 61/61/51 77/77/67 62/62/52
f 79/79/69 65/65/55 68/68/58
f 79/79/69 68/68/58 80/80/70
f 15/81/13 74/74/64 81/82/71
f 15/81/13 81/82/71 18/83/16
f 4/84/4 71/71/61 82/85/72
f 4/84/4 82/85/72 22/86/19
f 27/87/23 72/72/62 83/88/73
f 27/87/23 83/88/73 30/89/26
f 33/90/28 75/75/65 84/91/74
f 33/90/28 84/91/74 36/92/31
f 2/93/2 1/94/1 63/63/53
f 2/93/2 63/63/53 62/62/52
f 21/95/18 17/96/15 60/60/50
f 21/95/18 60/60/50 59/59/49
f 16/97/14 11/98/10 68/68/58
f 16/97/14 68/68/58 67/67/57
f 26/99/22 25/100/21 61/61/51
f 26/99/22 61/61/51 64/64/54
f 34/101/29 29/102/25 58/58/48
f 34/101/29 58/58/48 57/57/47
f 40/103/34 35/104/30 66/66/56
f 40/103/34 66/66/56 65/65/55
f 1/94/1 24/105/20 51/51/43
f 1/94/1 51/51/43 63/63/53
f 4/84/4 21/95/18 59/59/49
f 4/84/4 59/59/49 71/71/61
f 15/81/13 16/97/14 67/67/57
f 15/81/13 67/67/57 74/74/64
f 27/87/23 26/99/22 64/64/54
f 27/87/23 64/64/54 72/72/62
f 33/90/28 34/101/29 57/57/47
f 33/90/28 57/57/47 75/75/65
f 39/106/33 40/103/34 65/65/55
f 39/106/33 65/65/55 85/107/75
f 3/108/3 2/93/2 62/62/52
f 3/108/3 62/62/52 77/77/67
f 17/96/15 20/109/17 55/55/46
f 17/96/15 55/55/46 60/60/50
f 11/98/10 14/110/12 80/80/70
f 11/98/10 80/80/70 68/68/58
f 25/100/21 48/111/40 78/78/68
f 25/100/21 78/78/68 61/61/51
f 29/102/25 32/112/27 69/69/59
f 29/102/25 69/69/59 58/58/48
f 35/104/30 38/113/32 86/114/76
f 35/104/30 86/114/76 66/66/56
f 87/115/77 79/50/69 80/51/70
f 87/115/77 80/51/70 88/116/77
f 89/117/78 90/54/79 91/55/80
f 89/117/78 91/55/80 92/118/78
f 93/57/81 94/58/82 95/59/83
f 93/57/81 95/59/83 96/60/84
f 94/58/82 97/69/85 98/70/86
f 94/58/82 98/70/86 95/59/83
f 99/71/87 95/59/83 98/70/86
f 93/57/81 91/55/80 90/54/79
f 93/57/81 90/54/79 100/75/88
f 96/60/84 91/55/80 93/57/81
f 3/81/3 77/74/67 101/119/89
f 3/81/3 101/119/89 6/120/6
f 9/84/8 99/71/87 102/121/90
f 9/84/8 102/121/90 12/122/11
f 39/87/33 85/72/75 103/123/91
f 39/87/33 103/123/91 42/124/36
f 28/90/24 100/75/88 104/125/92
f 28/90/24 104/125/92 46/126/39
f 10/95/9 5/96/5 96/60/84
f 10/95/9 96/60/84 95/59/83
f 45/101/38 41/102/35 94/58/82
f 45/101/38 94/58/82 93/57/81
f 9/84/8 10/95/9 95/59/83
f 9/84/8 95/59/83 99/71/87
f 28/90/24 45/101/38 93/57/81
f 28/90/24 93/57/81 100/75/88
f 5/96/5 8/109/7 91/55/80
f 5/96/5 91/55/80 96/60/84
f 41/102/35 44/112/37 97/69/85
f 41/102/35 97/69/85 94/58/82
f 70/70/60 69/69/59 105/127/41
f 106/128/74 107/129/44 73/73/63
f 106/128/74 73/73/63 86/114/76
f 98/70/86 97/69/85 108/130/77
f 76/73/66 78/114/68 109/131/78
f 110/132/72 111/133/41 52/52/41
f 110/132/72 51/51/43 24/105/20
f 110/132/72 24/105/20 23/134/19
f 112/135/73 31/136/26 30/89/26
f 112/135/73 30/89/26 83/88/73
f 83/88/73 72/72/62 113/137/41
f 113/137/41 50/50/42 49/49/41
f 110/132/72 23/134/19 22/86/19
f 110/132/72 22/86/19 82/85/72
f 112/135/73 114/138/41 105/127/41
f 114/138/93 115/139/94 116/140/95
f 114/138/93 116/140/95 105/127/41
f 82/85/72 71/71/61 117/141/41
f 112/135/73 69/69/59 32/112/27
f 112/135/73 32/112/27 31/136/26
f 81/82/71 74/74/64 118/142/44
f 119/143/71 19/144/16 18/83/16
f 119/143/71 18/83/16 81/82/71
f 106/128/74 86/114/76 38/113/32
f 106/128/74 38/113/32 37/145/31
f 106/128/74 120/146/96 107/129/44
f 120/146/97 121/147/98 122/148/99
f 120/146/97 122/148/99 107/129/44
f 119/143/71 123/149/100 56/56/44
f 106/128/74 37/145/31 36/92/31
f 106/128/74 36/92/31 84/91/74
f 119/143/71 55/55/46 20/109/17
f 119/143/71 20/109/17 19/144/16
f 84/91/74 75/75/65 124/150/44
f 124/150/44 54/54/45 53/53/44
f 102/121/90 99/71/87 125/151/77
f 126/152/101 13/153/11 12/122/11
f 126/152/101 12/122/11 102/121/90
f 127/154/102 97/69/85 44/112/37
f 127/154/102 44/112/37 43/155/36
f 127/154/102 128/156/77 108/130/77
f 128/156/103 129/157/104 130/158/105
f 128/156/103 130/158/105 108/130/77
f 126/152/101 131/159/77 88/116/77
f 127/154/102 43/155/36 42/124/36
f 127/154/102 42/124/36 103/123/91
f 126/152/101 80/51/70 14/105/12
f 126/152/101 14/105/12 13/153/11
f 79/50/69 132/160/77 103/123/91
f 79/50/69 103/123/91 85/72/75
f 132/160/77 79/50/69 87/115/77
f 101/119/89 77/74/67 133/161/78
f 134/162/89 7/163/6 6/120/6
f 134/162/89 6/120/6 101/119/89
f 135/164/92 78/114/68 48/113/40
f 135/164/92 48/113/40 47/165/39
f 135/164/92 136/166/78 109/131/78
f 136/166/106 137/167/107 138/168/108
f 136/166/106 138/168/108 109/131/78
f 134/162/89 139/169/78 92/118/78
f 135/164/92 47/165/39 46/126/39
f 135/164/92 46/126/39 104/125/92
f 134/162/89 91/55/80 8/109/7
f 134/162/89 8/109/7 7/163/6
f 104/125/92 100/75/88 140/170/78
f 140/170/78 90/54/79 89/117/78
f 111/133/109 141/171/110 49/49/111
f 111/133/109 49/49/111 52/52/41
f 123/149/112 142/172/113 53/53/114
f 123/149/112 53/53/114 56/56/44
f 131/159/115 143/173/116 87/115/117
f 131/159/115 87/115/117 88/116/77
f 139/169/118 144/174/119 89/117/120
f 139/169/118 89/117/120 92/118/78
f 144/174/121 137/167/121 136/166/121
f 144/174/121 136/166/121 145/175/121
f 138/168/108 137/167/107 146/176/122
f 138/168/108 146/176/122 133/161/78
f 137/167/123 144/174/123 139/169/123
f 137/167/123 139/169/123 146/176/123
f 89/117/120 144/174/119 145/175/124
f 89/117/120 145/175/124 140/170/78
f 143/173/125 129/157/125 128/156/125
f 143/173/125 128/156/125 147/177/125
f 130/158/105 129/157/104 148/178/126
f 130/158/105 148/178/126 125/151/77
f 129/157/127 143/173/127 131/159/127
f 129/157/127 131/159/127 148/178/127
f 87/115/117 143/173/116 147/177/128
f 87/115/117 147/177/128 132/160/77
f 142/172/129 121/147/129 120/146/96
f 142/172/129 120/146/96 149/179/96
f 122/148/99 121/147/98 150/180/130
f 122/148/99 150/180/130 118/142/44
f 121/147/129 142/172/129 123/149/100
f 121/147/129 123/149/100 150/180/100
f 53/53/114 142/172/113 149/179/131
f 53/53/114 149/179/131 124/150/44
f 141/171/132 115/139/132 114/138/132
f 141/171/132 114/138/132 151/181/132
f 116/140/95 115/139/94 152/182/133
f 116/140/95 152/182/133 117/141/41
f 115/139/134 141/171/134 111/133/134
f 115/139/134 111/133/134 152/182/134
f 49/49/111 141/171/110 151/181/135
f 49/49/111 151/181/135 113/137/41
f 70/70/60 105/127/41 116/140/41
f 84/91/74 124/150/44 149/179/96
f 150/180/100 123/149/100 119/143/71
f 150/180/100 119/143/71 81/82/71
f 151/181/41 114/138/41 112/135/73
f 151/181/41 112/135/73 83/88/73
f 82/85/72 117/141/41 152/182/41
f 149/179/96 120/146/96 106/128/74
f 149/179/96 106/128/74 84/91/74
f 81/82/71 118/142/44 150/180/100
f 73/73/63 107/129/44 122/148/44
f 148/178/77 131/159/77 126/152/101
f 148/178/77 126/152/101 102/121/90
f 103/123/91 132/160/77 147/177/77
f 147/177/77 128/156/77 127/154/102
f 147/177/77 127/154/102 103/123/91
f 98/70/86 108/130/77 130/158/77
f 146/176/78 139/169/78 134/162/89
f 146/176/78 134/162/89 101/119/89
f 104/125/92 140/170/78 145/175/78
f 102/121/90 125/151/77 148/178/77
f 76/73/66 109/131/78 138/168/78
f 83/88/73 113/137/41 151/181/41
f 152/182/41 111/133/41 110/132/72
f 152/182/41 110/132/72 82/85/72
f 101/119/89 133/161/78 146/176/78
f 145/175/78 136/166/78 135/164/92
f 145/175/78 135/164/92 104/125/92
f 55/55/46 119/143/71 56/56/44
f 75/75/65 54/54/45 124/150/44
f 69/69/59 112/135/73 105/127/41
f 116/140/41 117/141/41 71/71/61
f 116/140/41 71/71/61 70/70/60
f 66/66/56 86/114/76 73/73/63
f 79/79/69 85/107/75 65/65/55
f 80/51/70 126/152/101 88/116/77
f 122/148/44 118/142/44 74/74/64
f 122/148/44 74/74/64 73/73/63
f 100/75/88 90/54/79 140/170/78
f 130/158/77 125/151/77 99/71/87
f 130/158/77 99/71/87 98/70/86
f 91/55/80 134/162/89 92/118/78
f 97/69/85 127/154/102 108/130/77
f 78/114/68 135/164/92 109/131/78
f 72/72/62 50/50/42 113/137/41
f 51/51/43 110/132/72 52/52/41
f 138/168/78 133/161/78 77/74/67
f 138/168/78 77/74/67 76/73/66
