v -0.377897 3.349388 -0.774855
v -0.001364 3.450241 -0.774855
v -0.001347 3.450241 0.774857
v -0.377897 3.349388 0.774857
v -0.653467 3.073814 -0.774855
v -0.653467 3.073814 0.774857
v -0.754324 2.697372 -0.774855
v -0.754324 2.697372 0.774857
v -0.688166 2.450424 -0.774855
v -0.688166 2.450424 0.774857
v -1.587126 2.140160 -0.774855
v -1.311554 2.415726 -0.774855
v -1.311554 2.415726 0.774857
v -1.587126 2.140160 0.774857
v -0.935118 2.516602 -0.774855
v -0.935118 2.516602 0.774857
v 0.375154 3.349388 -0.774855
v 0.375154 3.349388 0.774857
v 0.650723 3.073814 -0.774855
v 0.650723 3.073814 0.774857
v 0.751596 2.697372 -0.774855
v 0.751596 2.697372 0.774857
v 0.685425 2.450424 -0.774855
v 0.685425 2.450424 0.774857
v 1.584383 2.140160 -0.774855
v 1.681444 1.777908 -0.774855
v 1.681444 1.777908 0.774857
v 1.584383 2.140160 0.774857
v 1.308815 2.415726 -0.774855
v 1.308815 2.415726 0.774857
v 0.932375 2.516602 -0.774855
v 0.932375 2.516602 0.774857
v -1.684187 1.777908 -0.774855
v -1.684187 1.777908 0.774857
v -0.001364 0.105576 -0.774855
v -0.377897 0.206436 -0.774855
v -0.377897 0.206436 0.774857
v -0.001364 0.105576 0.774857
v -0.653467 0.482010 -0.774855
v -0.653467 0.482010 0.774857
v -0.754324 0.858444 -0.774855
v -0.754324 0.858444 0.774857
v -0.688166 1.105392 -0.774855
v -0.688166 1.105392 0.774857
v -1.311554 1.140091 -0.774855
v -1.587126 1.415665 -0.774855
v -1.587126 1.415665 0.774857
v -1.311554 1.140091 0.774857
v -0.935118 1.039223 -0.774855
v -0.935118 1.039223 0.774857
v 0.375154 0.206436 -0.774855
v 0.375154 0.206436 0.774857
v 0.650723 0.482010 -0.774855
v 0.650723 0.482010 0.774857
v 0.751596 0.858444 -0.774855
v 0.751596 0.858444 0.774857
v 0.685425 1.105392 -0.774855
v 0.685425 1.105392 0.774857
v 1.584383 1.415665 -0.774855
v 1.308815 1.140091 -0.774855
v 1.308815 1.140091 0.774857
v 1.584383 1.415665 0.774857
v 0.932375 1.039223 -0.774855
v 0.932375 1.039223 0.774857
v 1.666925 1.172874 0.774857
v 1.291864 0.559586 0.774857
v 0.703924 0.145912 0.774857
v 1.767334 1.884720 0.774857
v 1.601633 2.526756 0.774857
v 1.211405 3.062843 0.774857
v 0.651354 3.417847 0.774857
v -0.000006 3.541969 0.774857
v -0.651346 3.417847 0.774857
v -1.211405 3.062843 0.774857
v -1.601627 2.526756 0.774857
v -1.767334 1.884720 0.774857
v -1.666925 1.172874 0.774857
v -1.291845 0.559586 0.774857
v -0.703924 0.145897 0.774857
v -0.000006 0.000000 0.774857
vt 0.815900 -0.628600
vt 0.815900 -0.594800
vt 0.955100 -0.594800
vt 0.955100 -0.628600
vt 0.815900 -0.653300
vt 0.955100 -0.653300
vt 0.815900 -0.687100
vt 0.955100 -0.687100
vt 0.815900 -0.709300
vt 0.955100 -0.709300
vt 0.815900 -0.797600
vt 0.815900 -0.762600
vt 0.955100 -0.762600
vt 0.955100 -0.797600
vt 0.815900 -0.732300
vt 0.955100 -0.732300
vt 0.815900 -0.560900
vt 0.955100 -0.560900
vt 0.815900 -0.536200
vt 0.955100 -0.536200
vt 0.815900 -0.502400
vt 0.955100 -0.502400
vt 0.815900 -0.480200
vt 0.955100 -0.480200
vt 0.815900 -0.395000
vt 0.815900 -0.361300
vt 0.955100 -0.361300
vt 0.955100 -0.395000
vt 0.815900 -0.425300
vt 0.955100 -0.425300
vt 0.815900 -0.460300
vt 0.955100 -0.460300
vt 0.815900 -0.826800
vt 0.955100 -0.826800
vt 0.815900 -0.121700
vt 0.815900 -0.087900
vt 0.955100 -0.087900
vt 0.955100 -0.121700
vt 0.815900 -0.052900
vt 0.955100 -0.052900
vt 0.815900 -0.022600
vt 0.955100 -0.022600
vt 0.815900 -0.967200
vt 0.815900 -0.944200
vt 0.955100 -0.944200
vt 0.955100 -0.967200
vt 0.815900 -0.891000
vt 0.815900 -0.856000
vt 0.955100 -0.856000
vt 0.955100 -0.891000
vt 0.815900 -0.921300
vt 0.955100 -0.921300
vt 0.815900 -0.155600
vt 0.955100 -0.155600
vt 0.815900 -0.190600
vt 0.955100 -0.190600
vt 0.815900 -0.220900
vt 0.955100 -0.220900
vt 0.815900 -0.243800
vt 0.955100 -0.243800
vt 0.815900 -0.332100
vt 0.815900 -0.297100
vt 0.955100 -0.297100
vt 0.955100 -0.332100
vt 0.815900 -0.266800
vt 0.955100 -0.266800
vt 0.552400 -0.619700
vt 0.546000 -0.597600
vt 0.580400 -0.603600
vt 0.611700 -0.645400
vt 0.613300 -0.591600
vt 0.676200 -0.645400
vt 0.508300 -0.572600
vt 0.520100 -0.576000
vt 0.487300 -0.516800
vt 0.508500 -0.544300
vt 0.488300 -0.457300
vt 0.514600 -0.509800
vt 0.511100 -0.402200
vt 0.537000 -0.483000
vt 0.528900 -0.427500
vt 0.541000 -0.460400
vt 0.552600 -0.359500
vt 0.534900 -0.393000
vt 0.590300 -0.354100
vt 0.557400 -0.366200
vt 0.606800 -0.335000
vt 0.666300 -0.332100
vt 0.624800 -0.360100
vt 0.722700 -0.351400
vt 0.651600 -0.382600
vt 0.707100 -0.374500
vt 0.674200 -0.386500
vt 0.768000 -0.390000
vt 0.767400 -0.402100
vt 0.741600 -0.380500
vt 0.797400 -0.447500
vt 0.779000 -0.433800
vt 0.801500 -0.511900
vt 0.773000 -0.468200
vt 0.779700 -0.572700
vt 0.750600 -0.495100
vt 0.758600 -0.550600
vt 0.746600 -0.517700
vt 0.752600 -0.585100
vt 0.735500 -0.619800
vt 0.697300 -0.624000
vt 0.730200 -0.611900
vt 0.635900 -0.595500
vt 0.662800 -0.618000
vt 0.659500 -0.404200
vt 0.558600 -0.475100
vt 0.729000 -0.503000
vt 0.628000 -0.573900
vn 0.500000 -0.866100 -0.000000
vn 0.000000 -1.000000 0.000000
vn -0.000000 -1.000000 0.000000
vn 0.866000 -0.500000 -0.000000
vn 1.000000 0.000000 -0.000000
vn 0.965900 0.258800 -0.000000
vn 0.500000 -0.866000 -0.000000
vn 0.000000 -1.000000 -0.000000
vn -0.258800 -0.965900 -0.000000
vn -0.500000 -0.866100 -0.000000
vn -0.500000 -0.866000 0.000000
vn -0.866000 -0.500000 -0.000000
vn -1.000000 -0.000000 -0.000000
vn -0.965900 0.258800 -0.000000
vn -1.000000 0.000000 -0.000000
vn -0.500000 -0.866000 -0.000000
vn -0.000000 -1.000000 -0.000000
vn 0.258800 -0.965900 -0.000000
vn 1.000000 -0.000000 -0.000000
vn 0.000000 1.000000 -0.000000
vn 0.500000 0.866000 -0.000000
vn 0.866000 0.500000 -0.000000
vn 0.965900 -0.258800 -0.000000
vn -0.258800 0.965900 -0.000000
vn -0.500000 0.866000 -0.000000
vn -0.866000 0.500000 -0.000000
vn -0.965900 -0.258800 -0.000000
vn -0.000000 1.000000 -0.000000
vn 0.258800 0.965900 -0.000000
vn 0.000000 0.000000 1.000000
vn 0.000000 -0.000000 1.000000
vn -0.000000 0.000000 1.000000
usemtl sponza/ceiling
f 1/1/1 2/2/2 3/3/3
f 1/1/1 3/3/3 4/4/1
f 5/5/4 1/1/1 4/4/1
f 5/5/4 4/4/1 6/6/4
f 7/7/5 5/5/4 6/6/4
f 7/7/5 6/6/4 8/8/5
f 9/9/6 7/7/5 8/8/5
f 9/9/6 8/8/5 10/10/6
f 11/11/4 12/12/7 13/13/7
f 11/11/4 13/13/7 14/14/4
f 12/12/7 15/15/8 16/16/8
f 12/12/7 16/16/8 13/13/7
f 15/15/8 9/9/9 10/10/9
f 15/15/8 10/10/9 16/16/8
f 2/2/2 17/17/10 18/18/11
f 2/2/2 18/18/11 3/3/3
f 17/17/10 19/19/12 20/20/12
f 17/17/10 20/20/12 18/18/11
f 19/19/12 21/21/13 22/22/13
f 19/19/12 22/22/13 20/20/12
f 21/21/13 23/23/14 24/24/14
f 21/21/13 24/24/14 22/22/13
f 25/25/12 26/26/15 27/27/15
f 25/25/12 27/27/15 28/28/12
f 29/29/16 25/25/12 28/28/12
f 29/29/16 28/28/12 30/30/16
f 31/31/17 29/29/16 30/30/16
f 31/31/17 30/30/16 32/32/17
f 23/23/18 31/31/17 32/32/17
f 23/23/18 32/32/17 24/24/18
f 33/33/5 11/11/4 14/14/4
f 33/33/5 14/14/4 34/34/19
f 35/35/20 36/36/21 37/37/21
f 35/35/20 37/37/21 38/38/20
f 36/36/21 39/39/22 40/40/22
f 36/36/21 40/40/22 37/37/21
f 39/39/22 41/41/19 42/42/19
f 39/39/22 42/42/19 40/40/22
f 41/43/19 43/44/23 44/45/23
f 41/43/19 44/45/23 42/46/19
f 45/47/21 46/48/22 47/49/22
f 45/47/21 47/49/22 48/50/21
f 49/51/20 45/47/21 48/50/21
f 49/51/20 48/50/21 50/52/20
f 43/44/24 49/51/20 50/52/20
f 43/44/24 50/52/20 44/45/24
f 51/53/25 35/35/20 38/38/20
f 51/53/25 38/38/20 52/54/25
f 53/55/26 51/53/25 52/54/25
f 53/55/26 52/54/25 54/56/26
f 55/57/13 53/55/26 54/56/26
f 55/57/13 54/56/26 56/58/13
f 57/59/27 55/57/13 56/58/13
f 57/59/27 56/58/13 58/60/27
f 59/61/26 60/62/25 61/63/25
f 59/61/26 61/63/25 62/64/26
f 60/62/25 63/65/28 64/66/28
f 60/62/25 64/66/28 61/63/25
f 63/65/28 57/59/29 58/60/29
f 63/65/28 58/60/29 64/66/28
f 46/48/22 33/33/5 34/34/19
f 46/48/22 34/34/19 47/49/22
f 26/26/15 59/61/26 62/64/26
f 26/26/15 62/64/26 27/27/15
f 65/67/30 62/68/30 61/69/30
f 65/67/30 61/69/30 66/70/30
f 66/70/30 61/69/30 64/71/30
f 66/70/30 64/71/30 67/72/30
f 68/73/30 27/74/30 62/68/30
f 68/73/30 62/68/30 65/67/30
f 68/73/30 69/75/30 28/76/30
f 68/73/30 28/76/30 27/74/30
f 69/75/30 70/77/30 30/78/30
f 69/75/30 30/78/30 28/76/30
f 70/77/30 71/79/30 32/80/30
f 70/77/30 32/80/30 30/78/30
f 32/80/30 71/79/30 20/81/31
f 32/80/30 20/81/31 22/82/30
f 71/79/30 72/83/32 18/84/30
f 71/79/30 18/84/30 20/81/31
f 4/85/32 3/86/31 72/83/32
f 4/85/32 72/83/32 73/87/32
f 73/87/32 74/88/31 6/89/31
f 73/87/32 6/89/31 4/85/32
f 74/88/31 75/90/31 8/91/31
f 74/88/31 8/91/31 6/89/31
f 8/91/31 75/90/31 13/92/30
f 8/91/31 13/92/30 16/93/30
f 76/94/30 34/95/30 14/96/30
f 76/94/30 14/96/30 75/90/31
f 76/94/30 77/97/30 47/98/30
f 76/94/30 47/98/30 34/95/30
f 77/97/30 78/99/30 48/100/30
f 77/97/30 48/100/30 47/98/30
f 78/99/30 79/101/30 50/102/30
f 78/99/30 50/102/30 48/100/30
f 50/102/30 79/101/30 40/103/30
f 50/102/30 40/103/30 42/104/30
f 37/105/30 40/103/30 79/101/30
f 37/105/30 79/101/30 80/106/30
f 80/106/30 67/72/30 52/107/30
f 80/106/30 52/107/30 38/108/30
f 64/71/30 56/109/30 54/110/30
f 64/71/30 54/110/30 67/72/30
f 8/91/31 16/93/30 10/111/30
f 13/92/30 75/90/31 14/96/30
f 18/84/30 72/83/32 3/86/31
f 24/112/30 32/80/30 22/82/30
f 37/105/30 80/106/30 38/108/30
f 44/113/30 50/102/30 42/104/30
f 52/107/30 67/72/30 54/110/30
f 56/109/30 64/71/30 58/114/30
