v -104.200958 39.848763 36.352379
v -100.107834 40.674614 29.565920
v 97.941757 40.674614 29.565920
v 104.200958 39.848763 36.352379
v 97.941757 40.674614 -28.742989
v 104.200958 39.848763 -36.352379
v -100.107834 40.674614 -28.742989
v -104.200958 39.848763 -36.352379
v -104.200958 0.000000 36.352379
v -104.200958 0.000000 -36.352379
v 104.200943 0.000000 36.352379
v 91.682541 0.000000 22.779449
v -96.014709 0.000000 22.779449
v 104.200943 0.000000 -36.352379
v 91.682541 0.000000 -21.133612
v -96.014709 0.000000 -21.133612
v -96.014709 39.545341 22.779449
v 91.682541 39.545341 22.779449
v 91.682541 39.545341 -21.133612
v -96.014709 39.545341 -21.133612
vt 0.803300 2.341700
vt 0.889900 2.485300
vt 5.080500 2.485300
vt 5.213000 2.341700
vt 5.080500 3.719100
vt 5.213000 3.880100
vt 0.889900 3.719100
vt 0.803300 3.880100
vt 0.000000 2.341700
vt 0.000000 3.880100
vt 0.803300 1.538400
vt 5.213000 1.538400
vt 4.948100 1.251200
vt 0.976500 1.251200
vt 5.213000 0.000000
vt 4.948100 0.322000
vt 0.803300 0.000000
vt 0.976500 0.322000
vt 6.016300 3.880100
vt 6.016300 2.341700
vt 0.803300 4.683400
vt 5.213000 4.683400
vt 0.976500 2.628900
vt 4.948100 2.628900
vt 4.948100 3.558100
vt 0.976500 3.558100
vn -0.000000 -0.992700 -0.120800
vn -0.130800 -0.991400 -0.000000
vn 0.000000 -0.994200 0.107900
vn 0.197800 -0.980200 0.000000
vn 1.000000 0.000000 -0.000000
vn 0.000000 1.000000 -0.000000
vn 0.000000 0.000000 -1.000000
vn -1.000000 0.000000 -0.000000
vn 0.000000 0.000000 1.000000
vn -0.000000 -0.986400 0.164100
vn 0.177600 -0.984100 -0.000000
vn 0.000000 -0.989200 -0.146800
vn -0.266000 -0.964000 0.000000
f 1/1/1 2/2/1 3/3/1
f 1/1/1 3/3/1 4/4/1
f 4/4/2 3/3/2 5/5/2
f 4/4/2 5/5/2 6/6/2
f 5/5/3 7/7/3 8/8/3
f 5/5/3 8/8/3 6/6/3
f 7/7/4 2/2/4 1/1/4
f 7/7/4 1/1/4 8/8/4
f 9/9/5 10/10/5 8/8/5
f 9/9/5 8/8/5 1/1/5
f 9/11/6 11/12/6 12/13/6
f 9/11/6 12/13/6 13/14/6
f 11/12/6 14/15/6 15/16/6
f 11/12/6 15/16/6 12/13/6
f 10/17/6 16/18/6 15/16/6
f 10/17/6 15/16/6 14/15/6
f 9/11/6 13/14/6 16/18/6
f 9/11/6 16/18/6 10/17/6
f 11/12/7 9/11/7 1/1/7
f 11/12/7 1/1/7 4/4/7
f 14/19/8 11/20/8 4/4/8
f 14/19/8 4/4/8 6/6/8
f 10/21/9 14/22/9 6/6/9
f 10/21/9 6/6/9 8/8/9
f 2/2/10 17/23/10 18/24/10
f 2/2/10 18/24/10 3/3/10
f 3/3/11 18/24/11 19/25/11
f 3/3/11 19/25/11 5/5/11
f 19/25/12 20/26/12 7/7/12
f 19/25/12 7/7/12 5/5/12
f 20/26/13 17/23/13 2/2/13
f 20/26/13 2/2/13 7/7/13
