v -93.548538 9.112587 -4.284005
v -93.548538 0.000000 -4.284005
v -93.548538 0.000000 -21.742367
v -93.548538 30.463799 -1.908026
v 93.548538 0.000000 -21.742367
v 93.548538 0.000000 21.742367
v 93.548538 37.498215 21.742367
v 93.548538 37.498215 -21.742367
v 32.785069 9.112587 -21.742367
v 41.730770 9.112587 -21.742367
v 55.041241 31.032227 -21.742367
v 37.326347 37.498215 -21.742367
v 55.280499 34.084427 -21.742367
v 22.366348 34.340576 -21.742367
v 22.493187 30.305031 -21.742367
v -3.950103 9.112587 -21.742367
v 4.952697 9.112587 -21.742367
v 18.316029 30.335892 -21.742367
v 0.425417 37.498215 -21.742367
v 18.316038 34.212723 -21.742367
v -17.783243 34.222794 -21.742367
v -17.638483 30.441360 -21.742367
v -58.747154 34.312332 -21.742367
v -56.791759 35.134888 -21.742367
v -65.028099 37.498215 -21.742367
v -93.548538 37.498215 -21.742367
v -78.308395 0.000000 -21.742367
v -78.308395 9.112587 -21.742367
v -21.910053 30.414017 -21.742367
v -21.883732 34.103172 -21.742367
v -36.507633 37.498215 -21.742367
v -41.068966 9.112587 -21.742367
v -55.059612 34.425720 -21.742367
v -54.490017 30.837524 -21.742367
v -32.325283 9.112587 -21.742367
v 20.408548 35.134888 -21.742367
v 18.875889 37.498215 -21.742367
v 20.408548 29.464806 -21.742367
v 18.888187 0.000000 -21.742367
v 4.952697 0.000000 -21.742367
v -19.860554 35.134888 -21.742367
v -18.041103 37.498215 -21.742367
v -19.860554 29.464806 -21.742367
v -18.024092 0.000000 -21.742367
v -32.325283 0.000000 -21.742367
v -56.791759 29.464806 -21.742367
v -59.306343 31.052711 -21.742367
v -69.369690 9.112587 -21.742367
v -55.161396 0.000000 -21.742367
v -69.369690 0.000000 -21.742367
v 57.464348 35.134888 -21.742367
v 65.437439 37.498215 -21.742367
v 57.464348 29.464806 -21.742367
v 55.944168 0.000000 -21.742367
v 41.730778 0.000000 -21.742367
v 59.403637 34.289696 -21.742367
v 59.468456 30.335106 -21.742367
v 69.900436 9.112587 -21.742367
v 78.788330 9.112587 -21.742367
v 78.788330 0.000000 -21.742367
v -93.548538 0.000000 21.742367
v -93.548538 0.000000 4.669165
v -93.548538 9.112587 4.669165
v -93.548538 30.546951 2.210634
v -93.548538 37.498215 0.000004
v -93.548538 35.190430 0.190424
v -93.548538 34.451103 -1.918005
v -93.548538 9.112587 0.223435
v -93.548538 29.592888 0.190424
v -3.950103 0.000000 -21.742367
v 32.823677 0.000000 -21.742367
v 69.900436 0.000000 -21.742367
v -41.068966 0.000000 -21.742367
v 22.366348 34.340576 21.742367
v 37.326347 37.498215 21.742367
v 55.280499 34.084427 21.742367
v 41.717876 9.112587 21.742367
v 55.041241 31.032227 21.742367
v 32.785080 9.112587 21.742367
v 22.493198 30.305031 21.742367
v -17.783232 34.222794 21.742367
v 0.425427 37.498215 21.742367
v 18.316038 34.212723 21.742367
v -3.827963 9.112587 21.742367
v 18.316038 30.335892 21.742367
v 4.952707 9.112587 21.742367
v -17.638472 30.441360 21.742367
v -58.747154 34.312332 21.742367
v -93.548538 37.498215 21.742367
v -65.028084 37.498215 21.742367
v -56.791759 35.134888 21.742367
v -78.308395 9.112587 21.742367
v -78.308395 0.000000 21.742367
v -41.068966 9.112587 21.742367
v -54.490017 30.837524 21.742367
v -55.059612 34.425720 21.742367
v -21.883722 34.103172 21.742367
v -36.507633 37.498215 21.742367
v -21.910053 30.414017 21.742367
v -32.268032 9.112587 21.742367
v 18.875889 37.498215 21.742367
v 20.408558 35.134888 21.742367
v 20.408558 29.464806 21.742367
v 18.888199 0.000000 21.742367
v 4.952707 0.000000 21.742367
v -18.041103 37.498215 21.742367
v -19.860544 35.134888 21.742367
v -19.860544 29.464806 21.742367
v -18.024084 0.000000 21.742367
v -32.268032 0.000000 21.742367
v -69.437172 9.112587 21.742367
v -59.306343 31.052711 21.742367
v -56.791759 29.464806 21.742367
v -55.161396 0.000000 21.742367
v -69.437172 0.000000 21.742367
v 57.464348 35.134888 21.742367
v 65.437447 37.498215 21.742367
v 57.464348 29.464806 21.742367
v 55.944168 0.000000 21.742367
v 41.717888 0.000000 21.742367
v 69.900452 9.112587 21.742367
v 59.468472 30.335106 21.742367
v 59.403652 34.289696 21.742367
v 78.833885 9.112587 21.742367
v 78.833885 0.000000 21.742367
v -3.827963 0.000000 21.742367
v 32.823689 0.000000 21.742367
v 69.900452 0.000000 21.742367
v -41.068966 0.000000 21.742367
v -93.548538 34.200134 2.197905
vt 1.165300 0.448200
vt 1.165300 0.000900
vt 2.022200 0.000900
vt 1.048700 1.496100
vt 11.205100 0.000900
vt 13.339400 0.000900
vt 13.339400 1.841400
vt 11.205100 1.841400
vt 8.222800 0.448200
vt 8.661800 0.448200
vt 9.315100 1.524000
vt 8.445700 1.841400
vt 9.326900 1.673800
vt 7.711400 1.686400
vt 7.717600 1.488300
vt 6.419800 0.448200
vt 6.856700 0.448200
vt 7.512600 1.489800
vt 6.634500 1.841400
vt 7.512600 1.680100
vt 5.740800 1.680600
vt 5.747900 1.495000
vt 3.730300 1.685000
vt 3.826200 1.725400
vt 3.422000 1.841400
vt 2.022200 1.841400
vt 2.770200 0.000900
vt 2.770200 0.448200
vt 5.538300 1.493700
vt 5.539600 1.674700
vt 4.821800 1.841400
vt 4.597900 0.448200
vt 3.911300 1.690600
vt 3.939200 1.514500
vt 5.027100 0.448200
vt 7.615300 1.725400
vt 7.540100 1.841400
vt 7.615300 1.447100
vt 7.540700 0.000900
vt 6.856700 0.000900
vt 5.638900 1.725400
vt 5.728200 1.841400
vt 5.638900 1.447100
vt 5.729000 0.000900
vt 5.027100 0.000900
vt 3.826200 1.447100
vt 3.702800 1.525000
vt 3.208900 0.448200
vt 3.906300 0.000900
vt 3.208900 0.000900
vt 9.434100 1.725400
vt 9.825400 1.841400
vt 9.434100 1.447100
vt 9.359500 0.000900
vt 8.661800 0.000900
vt 9.529200 1.683900
vt 9.532400 1.489800
vt 10.044400 0.448200
vt 10.480700 0.448200
vt 10.480700 0.000900
vt -0.112100 0.000900
vt 0.722800 0.000900
vt 0.722800 0.448200
vt 0.846500 1.500200
vt 0.955000 1.841400
vt 0.945700 1.728100
vt 1.049200 1.691800
vt 0.944100 0.448200
vt 0.945700 1.453400
vt 6.419800 0.000900
vt 8.224700 0.000900
vt 10.044400 0.000900
vt 4.597900 0.000900
vt 8.661200 0.448200
vt 6.425800 0.448200
vt 5.029900 0.448200
vt 5.029900 0.000900
vt 3.205600 0.448200
vt 3.205600 0.000900
vt 8.661200 0.000900
vt 10.482900 0.448200
vt 10.482900 0.000900
vt 6.425800 0.000900
vt -0.112100 1.841400
vt 0.847200 1.679500
vn 1.000000 0.000000 -0.000000
vn -1.000000 0.000000 -0.000000
vn 0.000000 0.000000 1.000000
vn 0.000000 0.000000 -1.000000
vn -0.000000 -0.000000 -1.000000
vn -0.000000 0.000000 -1.000000
vn 0.000000 -0.000000 -1.000000
usemtl sponza/bricks
f 1/1/1 2/2/1 3/3/1
f 1/1/1 3/3/1 4/4/1
f 5/5/2 6/6/2 7/7/2
f 5/5/2 7/7/2 8/8/2
f 9/9/3 10/10/3 11/11/3
f 9/9/3 11/11/3 12/12/3
f 11/11/3 13/13/3 12/12/3
f 9/9/3 12/12/3 14/14/3
f 9/9/3 14/14/3 15/15/3
f 16/16/3 17/17/3 18/18/3
f 16/16/3 18/18/3 19/19/3
f 18/18/3 20/20/3 19/19/3
f 16/16/3 19/19/3 21/21/3
f 16/16/3 21/21/3 22/22/3
f 23/23/3 24/24/3 25/25/3
f 23/23/3 25/25/3 26/26/3
f 3/3/3 27/27/3 28/28/3
f 3/3/3 28/28/3 26/26/3
f 29/29/3 30/30/3 31/31/3
f 29/29/3 31/31/3 32/32/3
f 31/31/3 33/33/3 34/34/3
f 31/31/3 34/34/3 32/32/3
f 35/35/3 29/29/3 32/32/3
f 20/20/3 36/36/3 37/37/3
f 20/20/3 37/37/3 19/19/3
f 38/38/3 18/18/3 17/17/3
f 38/38/3 17/17/3 39/39/3
f 40/40/3 39/39/3 17/17/3
f 30/30/3 41/41/3 42/42/3
f 30/30/3 42/42/3 31/31/3
f 43/43/3 29/29/3 35/35/3
f 43/43/3 35/35/3 44/44/3
f 45/45/3 44/44/3 35/35/3
f 46/46/3 47/47/3 48/48/3
f 46/46/3 48/48/3 49/49/3
f 50/50/3 49/49/3 48/48/3
f 48/48/3 47/47/3 23/23/3
f 48/48/3 23/23/3 26/26/3
f 28/28/3 48/48/3 26/26/3
f 51/51/3 52/52/3 12/12/3
f 51/51/3 12/12/3 13/13/3
f 53/53/3 11/11/3 10/10/3
f 53/53/3 10/10/3 54/54/3
f 55/55/3 54/54/3 10/10/3
f 56/56/3 57/57/3 58/58/3
f 56/56/3 58/58/3 59/59/3
f 8/8/3 56/56/3 59/59/3
f 5/5/3 8/8/3 59/59/3
f 5/5/3 59/59/3 60/60/3
f 61/61/1 62/62/1 63/63/1
f 61/61/1 63/63/1 64/64/1
f 65/65/1 66/66/1 67/67/1
f 65/65/1 67/67/1 26/26/1
f 63/63/1 68/68/1 69/69/1
f 63/63/1 69/69/1 64/64/1
f 21/21/3 19/19/3 42/42/3
f 21/21/3 42/42/3 41/41/3
f 16/16/3 22/22/3 43/43/3
f 16/16/3 43/43/3 70/70/3
f 44/44/3 70/70/3 43/43/3
f 14/14/3 12/12/3 37/37/3
f 14/14/3 37/37/3 36/36/3
f 9/9/3 15/15/3 38/38/3
f 9/9/3 38/38/3 71/71/3
f 39/39/3 71/71/3 38/38/3
f 56/56/3 8/8/3 52/52/3
f 56/56/3 52/52/3 51/51/3
f 58/58/3 57/57/3 53/53/3
f 58/58/3 53/53/3 72/72/3
f 54/54/3 72/72/3 53/53/3
f 31/31/3 25/25/3 24/24/3
f 31/31/3 24/24/3 33/33/3
f 32/32/3 34/34/3 46/46/3
f 32/32/3 46/46/3 73/73/3
f 49/49/3 73/73/3 46/46/3
f 74/14/4 75/12/4 76/13/4
f 74/14/4 76/13/4 77/74/4
f 76/13/4 78/11/4 77/74/4
f 74/14/4 77/74/4 79/9/4
f 74/14/4 79/9/4 80/15/4
f 81/21/4 82/19/4 83/20/4
f 81/21/4 83/20/4 84/75/4
f 83/20/4 85/18/4 86/17/4
f 83/20/4 86/17/4 84/75/4
f 87/22/4 81/21/4 84/75/4
f 88/23/4 89/26/5 90/25/4
f 88/23/4 90/25/4 91/24/4
f 92/28/5 93/27/6 61/3/5
f 92/28/5 61/3/5 89/26/5
f 94/32/4 95/34/4 96/33/4
f 94/32/4 96/33/4 97/30/4
f 96/33/4 98/31/4 97/30/4
f 94/32/4 97/30/4 99/29/4
f 94/32/4 99/29/4 100/76/4
f 101/37/4 102/36/4 83/20/4
f 101/37/4 83/20/4 82/19/4
f 86/17/4 85/18/4 103/38/4
f 86/17/4 103/38/4 104/39/4
f 105/40/4 86/17/4 104/39/4
f 106/42/4 107/41/4 97/30/4
f 106/42/4 97/30/4 98/31/4
f 100/76/4 99/29/4 108/43/4
f 100/76/4 108/43/4 109/44/4
f 110/77/4 100/76/4 109/44/4
f 111/78/4 112/47/4 113/46/4
f 111/78/4 113/46/4 114/49/4
f 115/79/4 111/78/4 114/49/4
f 88/23/4 112/47/4 111/78/4
f 88/23/4 111/78/4 89/26/5
f 92/28/5 89/26/5 111/78/4
f 116/51/4 76/13/4 75/12/4
f 116/51/4 75/12/4 117/52/7
f 77/74/4 78/11/4 118/53/4
f 77/74/4 118/53/4 119/54/4
f 120/80/4 77/74/4 119/54/4
f 121/58/4 122/57/4 123/56/7
f 121/58/4 123/56/7 124/81/4
f 7/8/4 124/81/4 123/56/7
f 124/81/4 7/8/4 6/5/4
f 124/81/4 6/5/4 125/82/4
f 106/42/4 82/19/4 81/21/4
f 106/42/4 81/21/4 107/41/4
f 108/43/4 87/22/4 84/75/4
f 108/43/4 84/75/4 126/83/4
f 109/44/4 108/43/4 126/83/4
f 101/37/4 75/12/4 74/14/4
f 101/37/4 74/14/4 102/36/4
f 103/38/4 80/15/4 79/9/4
f 103/38/4 79/9/4 127/71/4
f 104/39/4 103/38/4 127/71/4
f 117/52/7 7/8/4 123/56/7
f 117/52/7 123/56/7 116/51/4
f 118/53/4 122/57/4 121/58/4
f 118/53/4 121/58/4 128/72/4
f 119/54/4 118/53/4 128/72/4
f 98/31/4 96/33/4 91/24/4
f 98/31/4 91/24/4 90/25/4
f 113/46/4 95/34/4 94/32/4
f 113/46/4 94/32/4 129/73/4
f 114/49/4 113/46/4 129/73/4
f 65/65/1 89/84/1 130/85/1
f 65/65/1 130/85/1 66/66/1
f 1/1/1 4/4/1 69/69/1
f 1/1/1 69/69/1 68/68/1
f 26/26/1 67/67/1 4/4/1
f 26/26/1 4/4/1 3/3/1
f 64/64/1 130/85/1 89/84/1
f 64/64/1 89/84/1 61/61/1
