v -2.004955 1.076828 -1.965919
v -2.030506 0.979969 -1.991470
v -2.030506 0.979969 1.991470
v -2.004955 1.076828 1.965919
v -1.991055 0.979969 2.030930
v -1.965504 1.076828 2.005381
v -2.380375 0.525196 2.341410
v -2.548096 0.400181 2.509180
v -2.508644 0.400181 2.548630
v -2.340923 0.525196 2.380871
v -2.075722 0.820652 2.115610
v -2.021702 0.907516 2.061581
v -2.061161 0.907516 2.022131
v -2.115173 0.820652 2.076160
v -2.201733 0.704666 2.162750
v -2.280373 0.617069 2.241402
v -2.240925 0.617069 2.280851
v -2.162281 0.704666 2.202202
v -2.201733 0.704666 -2.162750
v -2.280373 0.617069 -2.241400
v -2.061161 0.907516 -2.022129
v -1.991055 0.979969 -2.030930
v -1.965504 1.076828 -2.005379
v -2.508644 0.400181 -2.548630
v -2.548096 0.400181 -2.509178
v -2.380375 0.525196 -2.341408
v -2.340923 0.525196 -2.380869
v -2.021694 0.907516 -2.061579
v -2.075722 0.820652 -2.115608
v -2.115173 0.820652 -2.076159
v -2.240925 0.617069 -2.280849
v -2.162281 0.704666 -2.202200
v 2.508656 0.400181 -2.548630
v 2.340923 0.525196 -2.380869
v 2.075726 0.820652 -2.115608
v 2.021706 0.907516 -2.061579
v 2.162289 0.704666 -2.202200
v 2.240925 0.617069 -2.280849
v 1.991066 0.979969 -2.030930
v 2.004967 1.076828 -1.965919
v 2.030514 0.979969 -1.991470
v 1.965515 1.076828 -2.005379
v 2.380375 0.525196 -2.341408
v 2.548107 0.400181 -2.509178
v 2.061153 0.907516 -2.022129
v 2.115185 0.820652 -2.076159
v 2.201748 0.704666 -2.162750
v 2.280376 0.617069 -2.241400
v -2.548096 0.317230 2.509180
v -2.508644 0.317230 2.548630
v -2.548096 0.317230 -2.509178
v 2.508656 0.317230 -2.548630
v -2.508644 0.317230 -2.548630
v 2.548107 0.317230 -2.509178
v -2.747002 0.317230 2.705030
v -2.704456 0.317230 2.747570
v -2.747002 0.317230 -2.705029
v 2.704464 0.317230 -2.747570
v -2.704456 0.317230 -2.747570
v 2.747005 0.317230 -2.705029
v -2.747002 0.000000 2.705030
v -2.704456 0.000000 2.747570
v -2.747002 0.000000 -2.705029
v 2.704464 0.000000 -2.747570
v -2.704456 0.000000 -2.747570
v 2.747005 0.000000 -2.705029
v 2.004967 1.076828 1.965919
v 2.030514 0.979969 1.991470
v 2.201748 0.704666 2.162750
v 2.280376 0.617069 2.241402
v 2.061153 0.907516 2.022131
v 1.991066 0.979969 2.030930
v 1.965515 1.076828 2.005381
v 2.508656 0.400181 2.548630
v 2.548107 0.400181 2.509180
v 2.380375 0.525196 2.341410
v 2.340923 0.525196 2.380871
v 2.021706 0.907516 2.061581
v 2.075726 0.820652 2.115610
v 2.115185 0.820652 2.076160
v 2.240925 0.617069 2.280851
v 2.162289 0.704666 2.202202
v 2.548107 0.317230 2.509180
v 2.508656 0.317230 2.548630
v 2.747005 0.317230 2.705030
v 2.704464 0.317230 2.747570
v 2.747005 0.000000 2.705030
v 2.704464 0.000000 2.747570
vt 0.273400 -0.723700
vt 0.278800 -0.722400
vt 0.278800 -0.949000
vt 0.273300 -0.947600
vt 0.277800 -0.951900
vt 0.271200 -0.949900
vt 0.305200 -0.968900
vt 0.314700 -0.978500
vt 0.314400 -0.980700
vt 0.302900 -0.971200
vt 0.286000 -0.956600
vt 0.281600 -0.953400
vt 0.282900 -0.950800
vt 0.287900 -0.953900
vt 0.294500 -0.958800
vt 0.299500 -0.963300
vt 0.297200 -0.965600
vt 0.292200 -0.961500
vt 0.294500 -0.712600
vt 0.299500 -0.708100
vt 0.282900 -0.720600
vt 0.272500 -0.716100
vt 0.275500 -0.716800
vt 0.271100 -0.721600
vt 0.302000 -0.680200
vt 0.304500 -0.681800
vt 0.294700 -0.692000
vt 0.292400 -0.689700
vt 0.276800 -0.713500
vt 0.274300 -0.711900
vt 0.277300 -0.707000
vt 0.280100 -0.708900
vt 0.286700 -0.695400
vt 0.289100 -0.697600
vt 0.285000 -0.702600
vt 0.282300 -0.700400
vt 0.016400 -0.680200
vt 0.026000 -0.689700
vt 0.041100 -0.707000
vt 0.044100 -0.711900
vt 0.036100 -0.700400
vt 0.031700 -0.695300
vt 0.045900 -0.716100
vt 0.045100 -0.723800
vt 0.044000 -0.717300
vt 0.047300 -0.721600
vt 0.023700 -0.692000
vt 0.014000 -0.681200
vt 0.041600 -0.713500
vt 0.038300 -0.708900
vt 0.033400 -0.702600
vt 0.029300 -0.697600
vt 0.305200 -0.702400
vt 0.314700 -0.692900
vt 0.287900 -0.717500
vt 0.319400 -0.978500
vt 0.318400 -0.981200
vt 0.319400 -0.692900
vt 0.016400 -0.675400
vt 0.302000 -0.675400
vt 0.304800 -0.676700
vt 0.013800 -0.676600
vt 0.330700 -0.989600
vt 0.328300 -0.992100
vt 0.330700 -0.681700
vt 0.005300 -0.664100
vt 0.313100 -0.664100
vt 0.316000 -0.665300
vt 0.002900 -0.665300
vt 0.348800 -0.989600
vt 0.348800 -0.992100
vt 0.330700 -0.992100
vt 0.348800 -0.681700
vt 0.005300 -0.646100
vt 0.313100 -0.646100
vt 0.315500 -0.646100
vt 0.002900 -0.646100
vt 0.047300 -0.949800
vt 0.045100 -0.947600
vn -0.887700 0.321200 -0.329800
vn -0.848300 0.410600 -0.334300
vn -0.848300 0.410600 0.334200
vn -0.887700 0.321200 0.329800
vn -0.334300 0.410600 0.848300
vn -0.329800 0.321200 0.887700
vn -0.503500 0.844500 0.182400
vn -0.436500 0.873700 0.214700
vn -0.214700 0.873700 0.436400
vn -0.182500 0.844500 0.503500
vn -0.264900 0.665300 0.698000
vn -0.296800 0.564300 0.770300
vn -0.770400 0.564300 0.296800
vn -0.698000 0.665300 0.264900
vn -0.639900 0.730300 0.239000
vn -0.575000 0.790300 0.211400
vn -0.211400 0.790400 0.575000
vn -0.239000 0.730400 0.639900
vn -0.639900 0.730300 -0.239000
vn -0.575000 0.790300 -0.211400
vn -0.770300 0.564300 -0.296900
vn -0.334300 0.410600 -0.848300
vn -0.329800 0.321200 -0.887700
vn -0.214700 0.873700 -0.436400
vn -0.436500 0.873700 -0.214700
vn -0.503500 0.844500 -0.182400
vn -0.182500 0.844500 -0.503500
vn -0.296800 0.564300 -0.770400
vn -0.264900 0.665300 -0.698000
vn -0.698000 0.665300 -0.264900
vn -0.211400 0.790400 -0.575000
vn -0.239000 0.730400 -0.639900
vn 0.214700 0.873700 -0.436400
vn 0.182500 0.844500 -0.503500
vn 0.264900 0.665300 -0.697900
vn 0.296800 0.564300 -0.770400
vn 0.239000 0.730400 -0.639900
vn 0.211400 0.790400 -0.575000
vn 0.334300 0.410600 -0.848300
vn 0.887700 0.321200 -0.329800
vn 0.848400 0.410600 -0.334200
vn 0.329800 0.321200 -0.887700
vn 0.503500 0.844500 -0.182400
vn 0.436500 0.873700 -0.214700
vn 0.770400 0.564300 -0.296800
vn 0.698000 0.665300 -0.264900
vn 0.639900 0.730300 -0.239000
vn 0.575000 0.790300 -0.211400
vn -0.923900 -0.000000 0.382700
vn -0.707100 -0.000000 0.707100
vn -0.707100 0.000000 0.707100
vn -0.923900 0.000000 -0.382700
vn 0.000000 0.000000 -1.000000
vn -0.707100 0.000000 -0.707100
vn 0.923900 0.000000 -0.382700
vn 0.707100 0.000000 -0.707100
vn 0.000000 1.000000 -0.000000
vn 0.000000 1.000000 0.000000
vn -0.000000 1.000000 0.000000
vn -0.707100 0.000000 0.707200
vn -0.382700 0.000000 0.923900
vn -1.000000 0.000000 -0.000000
vn 0.382700 0.000000 -0.923900
vn -0.382600 0.000000 -0.923900
vn -0.707000 0.000000 -0.707200
vn 0.707100 0.000000 -0.707200
vn 0.887700 0.321200 0.329800
vn 0.848400 0.410600 0.334200
vn 0.639900 0.730300 0.239000
vn 0.575000 0.790300 0.211400
vn 0.770400 0.564300 0.296800
vn 0.334300 0.410600 0.848300
vn 0.329800 0.321200 0.887700
vn 0.214700 0.873700 0.436400
vn 0.436500 0.873700 0.214700
vn 0.503500 0.844500 0.182400
vn 0.182500 0.844500 0.503500
vn 0.296800 0.564300 0.770400
vn 0.264900 0.665300 0.697900
vn 0.698000 0.665300 0.264900
vn 0.211400 0.790400 0.575000
vn 0.239000 0.730400 0.639900
vn 0.923900 0.000000 0.382700
vn 0.000000 0.000000 1.000000
vn 0.382700 0.000000 0.923900
vn -0.000000 1.000000 -0.000000
vn 1.000000 0.000000 -0.000000
vn 0.382600 0.000000 0.923900
vn 0.707000 0.000000 0.707200
usemtl sponza/column_b
f 1/1/1 2/2/2 3/3/3
f 1/1/1 3/3/3 4/4/4
f 4/4/4 3/3/3 5/5/5
f 4/4/4 5/5/5 6/6/6
f 7/7/7 8/8/8 9/9/9
f 7/7/7 9/9/9 10/10/10
f 11/11/11 12/12/12 13/13/13
f 11/11/11 13/13/13 14/14/14
f 15/15/15 16/16/16 17/17/17
f 15/15/15 17/17/17 18/18/18
f 16/16/16 7/7/7 10/10/10
f 16/16/16 10/10/10 17/17/17
f 18/18/18 11/11/11 14/14/14
f 18/18/18 14/14/14 15/15/15
f 12/12/12 5/5/5 3/3/3
f 12/12/12 3/3/3 13/13/13
f 19/19/19 20/20/20 16/16/16
f 19/19/19 16/16/16 15/15/15
f 2/2/2 21/21/21 13/13/13
f 2/2/2 13/13/13 3/3/3
f 22/22/22 2/23/2 1/1/1
f 22/22/22 1/1/1 23/24/23
f 24/25/24 25/26/25 26/27/26
f 24/25/24 26/27/26 27/28/27
f 21/29/21 28/30/28 29/31/29
f 21/29/21 29/31/29 30/32/30
f 31/33/31 20/34/20 19/35/19
f 31/33/31 19/35/19 32/36/32
f 27/28/27 26/27/26 20/34/20
f 27/28/27 20/34/20 31/33/31
f 30/32/30 29/31/29 32/36/32
f 30/32/30 32/36/32 19/35/19
f 2/23/2 22/22/22 28/30/28
f 2/23/2 28/30/28 21/29/21
f 33/37/33 24/25/24 27/28/27
f 33/37/33 27/28/27 34/38/34
f 35/39/35 29/31/29 28/30/28
f 35/39/35 28/30/28 36/40/36
f 31/33/31 32/36/32 37/41/37
f 31/33/31 37/41/37 38/42/38
f 37/41/37 32/36/32 29/31/29
f 37/41/37 29/31/29 35/39/35
f 34/38/34 27/28/27 31/33/31
f 34/38/34 31/33/31 38/42/38
f 36/40/36 28/30/28 22/22/22
f 36/40/36 22/22/22 39/43/39
f 40/44/40 41/45/41 39/43/39
f 40/44/40 39/43/39 42/46/42
f 43/47/43 44/48/44 33/37/33
f 43/47/43 33/37/33 34/38/34
f 35/39/35 36/40/36 45/49/45
f 35/39/35 45/49/45 46/50/46
f 47/51/47 48/52/48 38/42/38
f 47/51/47 38/42/38 37/41/37
f 48/52/48 43/47/43 34/38/34
f 48/52/48 34/38/34 38/42/38
f 37/41/37 35/39/35 46/50/46
f 37/41/37 46/50/46 47/51/47
f 36/40/36 39/43/39 41/45/41
f 36/40/36 41/45/41 45/49/45
f 22/22/22 23/24/23 42/46/42
f 22/22/22 42/46/42 39/43/39
f 26/53/26 25/54/25 8/8/8
f 26/53/26 8/8/8 7/7/7
f 21/21/21 30/55/30 14/14/14
f 21/21/21 14/14/14 13/13/13
f 30/55/30 19/19/19 15/15/15
f 30/55/30 15/15/15 14/14/14
f 20/20/20 26/53/26 7/7/7
f 20/20/20 7/7/7 16/16/16
f 8/8/49 49/56/49 50/57/50
f 8/8/49 50/57/50 9/9/51
f 51/58/52 49/56/49 8/8/49
f 51/58/52 8/8/49 25/54/52
f 33/37/53 52/59/53 53/60/53
f 33/37/53 53/60/53 24/25/53
f 24/25/54 53/60/54 51/61/52
f 24/25/54 51/61/52 25/26/52
f 44/48/55 54/62/55 52/59/56
f 44/48/55 52/59/56 33/37/56
f 49/56/57 55/63/57 56/64/57
f 49/56/57 56/64/57 50/57/57
f 51/58/58 57/65/58 55/63/57
f 51/58/58 55/63/57 49/56/57
f 52/59/59 58/66/59 59/67/58
f 52/59/59 59/67/58 53/60/58
f 53/60/58 59/67/58 57/68/58
f 53/60/58 57/68/58 51/61/58
f 54/62/59 60/69/59 58/66/59
f 54/62/59 58/66/59 52/59/59
f 61/70/60 62/71/61 56/72/61
f 61/70/60 56/72/61 55/63/60
f 63/73/62 61/70/62 55/63/62
f 63/73/62 55/63/62 57/65/62
f 64/74/63 65/75/64 59/67/64
f 64/74/63 59/67/64 58/66/63
f 65/75/64 63/76/65 57/68/65
f 65/75/64 57/68/65 59/67/64
f 66/77/66 64/74/63 58/66/63
f 66/77/66 58/66/63 60/69/66
f 67/1/67 68/2/68 41/3/41
f 67/1/67 41/3/41 40/4/40
f 69/19/69 70/20/70 48/16/48
f 69/19/69 48/16/48 47/15/47
f 68/2/68 71/21/71 45/13/45
f 68/2/68 45/13/45 41/3/41
f 72/22/72 68/23/68 67/1/67
f 72/22/72 67/1/67 73/24/73
f 74/25/74 75/26/75 76/27/76
f 74/25/74 76/27/76 77/28/77
f 71/29/71 78/30/78 79/31/79
f 71/29/71 79/31/79 80/32/80
f 81/33/81 70/34/70 69/35/69
f 81/33/81 69/35/69 82/36/82
f 77/28/77 76/27/76 70/34/70
f 77/28/77 70/34/70 81/33/81
f 80/32/80 79/31/79 82/36/82
f 80/32/80 82/36/82 69/35/69
f 68/23/68 72/22/72 78/30/78
f 68/23/68 78/30/78 71/29/71
f 9/37/9 74/25/74 77/28/77
f 9/37/9 77/28/77 10/38/10
f 11/39/11 79/31/79 78/30/78
f 11/39/11 78/30/78 12/40/12
f 81/33/81 82/36/82 18/41/18
f 81/33/81 18/41/18 17/42/17
f 18/41/18 82/36/82 79/31/79
f 18/41/18 79/31/79 11/39/11
f 10/38/10 77/28/77 81/33/81
f 10/38/10 81/33/81 17/42/17
f 12/40/12 78/30/78 72/22/72
f 12/40/12 72/22/72 5/43/5
f 72/22/72 73/24/73 6/46/6
f 72/22/72 6/46/6 5/43/5
f 76/53/76 75/54/75 44/8/44
f 76/53/76 44/8/44 43/7/43
f 71/21/71 80/55/80 46/14/46
f 71/21/71 46/14/46 45/13/45
f 80/55/80 69/19/69 47/15/47
f 80/55/80 47/15/47 46/14/46
f 70/20/70 76/53/76 43/7/43
f 70/20/70 43/7/43 48/16/48
f 83/58/83 54/56/55 44/8/55
f 83/58/83 44/8/55 75/54/83
f 9/37/84 50/59/84 84/60/85
f 9/37/84 84/60/85 74/25/85
f 74/25/85 84/60/85 83/61/83
f 74/25/85 83/61/83 75/26/83
f 83/58/86 85/65/86 60/63/59
f 83/58/86 60/63/59 54/56/59
f 50/59/57 56/66/57 86/67/86
f 50/59/57 86/67/86 84/60/86
f 84/60/86 86/67/86 85/68/86
f 84/60/86 85/68/86 83/61/86
f 87/73/87 66/70/87 60/63/87
f 87/73/87 60/63/87 85/65/87
f 62/74/61 88/75/88 86/67/88
f 62/74/61 86/67/88 56/66/61
f 88/75/88 87/76/89 85/68/89
f 88/75/88 85/68/89 86/67/88
f 40/44/57 42/46/57 73/78/57
f 40/44/57 73/78/57 67/79/57
f 73/78/57 42/46/57 4/4/57
f 73/78/57 4/4/57 6/6/57
f 4/4/57 42/46/57 23/24/57
f 4/4/57 23/24/57 1/1/57
