v 0.169815 0.386869 -3.384180
v 0.087616 1.033310 -3.476290
v 0.780777 1.033310 -3.476290
v 0.780777 0.386869 -3.384180
v 0.018997 1.033310 3.394810
v 0.018997 1.033310 -3.394852
v 0.096634 0.386869 -3.297291
v 0.096634 0.386869 3.297249
v -0.576248 2.623331 4.099831
v -0.576248 3.059629 4.095640
v -0.576248 3.059629 -4.095640
v -0.576248 2.623331 -4.099830
v 0.780777 2.623331 4.182940
v 0.780777 3.059629 4.182940
v -0.502716 3.059629 4.182940
v -0.506226 2.623331 4.182940
v 0.228119 0.000000 -3.316570
v 0.015762 0.193430 -3.577290
v 0.780777 0.193430 -3.577290
v 0.780777 0.000000 -3.316570
v -0.066040 0.193430 3.480141
v -0.066040 0.193430 -3.480150
v 0.153564 0.000000 -3.228041
v 0.153564 0.000000 3.228020
v -0.502716 3.059629 -4.182920
v -0.699463 3.277790 -4.425770
v 0.780777 3.277790 -4.425770
v 0.780777 3.059629 -4.182920
v -0.780792 3.277790 4.329220
v -0.780792 3.277790 -4.329230
v -0.494919 3.495939 -4.182920
v 0.780777 3.495939 -4.182920
v -0.576248 3.495939 4.086420
v -0.576248 3.495939 -4.086421
v -0.172470 1.933201 -3.788341
v -0.506226 2.623331 -4.182920
v 0.780777 2.623331 -4.182920
v 0.780777 1.933201 -3.788341
v -0.243851 1.933201 -3.703601
v -0.243851 1.933201 3.703590
v 0.169815 0.386869 3.384140
v 0.087616 1.033310 3.476311
v 0.015762 0.193430 3.577250
v 0.228119 0.000000 3.316570
v -0.699463 3.277790 4.425770
v -0.494919 3.495939 4.182940
v -0.172470 1.933201 3.788330
v 0.780777 3.495939 4.182940
v 0.780777 1.033310 3.476311
v 0.780777 0.386869 3.384140
v 0.780777 0.193430 3.577271
v 0.780777 0.000000 3.316589
v 0.780777 3.277790 4.425770
v 0.780777 1.933201 3.788330
vt 0.550400 0.888100
vt 0.552600 0.908400
vt 0.533700 0.908400
vt 0.533700 0.888100
vt 0.761400 0.910000
vt 0.605300 0.910000
vt 0.607600 0.889700
vt 0.759200 0.889700
vt 0.777600 0.960000
vt 0.777500 0.973700
vt 0.589200 0.973700
vt 0.589100 0.960000
vt 0.828700 0.959600
vt 0.828700 0.973300
vt 0.793700 0.973300
vt 0.793600 0.959600
vt 0.986500 0.767200
vt 0.995900 0.779100
vt 0.963200 0.779100
vt 0.961900 0.767200
vt 0.252400 0.779000
vt 0.011100 0.779000
vt 0.011200 0.767200
vt 0.252500 0.767200
vt 0.533700 0.882000
vt 0.554600 0.882000
vt 0.603400 0.883600
vt 0.763400 0.883600
vt 0.568700 0.972100
vt 0.574100 0.979000
vt 0.533700 0.979000
vt 0.533700 0.972100
vt 0.782900 0.980600
vt 0.583900 0.980600
vt 0.568500 0.985900
vt 0.533700 0.985900
vt 0.777300 0.987500
vt 0.589400 0.987500
vt 0.559700 0.936700
vt 0.568800 0.958400
vt 0.533700 0.958400
vt 0.533700 0.936700
vt 0.598200 0.938300
vt 0.768500 0.938300
vt 0.605000 0.890700
vt 0.602800 0.909400
vt 0.812100 0.889200
vt 0.809800 0.909600
vt 0.807300 0.909000
vt 0.809500 0.890200
vt 0.586700 0.972600
vt 0.586500 0.959300
vt 0.791200 0.972100
vt 0.791000 0.958900
vt 0.600700 0.886200
vt 0.805200 0.885700
vt 0.807900 0.883200
vt 0.007800 0.778900
vt 0.007900 0.767200
vt 0.255800 0.767200
vt 0.255900 0.779000
vt 0.581500 0.980600
vt 0.788400 0.980100
vt 0.786000 0.980100
vt 0.587100 0.990000
vt 0.793900 0.987000
vt 0.791600 0.989600
vt 0.595700 0.937200
vt 0.802700 0.937900
vt 0.800200 0.936700
vt 0.009100 0.897600
vt 0.009100 0.876000
vt 0.010900 0.874600
vt 0.167400 0.876000
vt 0.165500 0.874600
vt 0.167400 0.897600
vt 0.828700 0.909600
vt 0.828700 0.889200
vt 0.287400 0.779000
vt 0.280300 0.767200
vt 0.828700 0.883200
vt 0.828700 0.980100
vt 0.828700 0.987000
vt 0.828700 0.937900
vt 0.277300 0.674200
vt 0.277300 0.691100
vt 0.447600 0.691100
vt 0.447600 0.674200
vt 0.445300 0.693300
vt 0.279500 0.693300
vn 0.000000 -0.141100 -0.990000
vn 0.000000 -0.246600 -0.969100
vn 0.000000 -0.235400 -0.971900
vn -0.977300 -0.211900 -0.000000
vn -0.992900 -0.119200 -0.000000
vn -1.000000 0.000000 -0.000000
vn 0.000000 0.000000 1.000000
vn 0.000000 -0.803100 -0.595800
vn -0.661000 -0.750400 -0.000000
vn 0.000000 0.706500 -0.707700
vn -0.765300 0.643600 -0.000000
vn 0.000000 -0.743900 -0.668300
vn -0.729500 -0.684000 -0.000000
vn 0.000000 0.743900 -0.668300
vn -0.729500 0.684000 -0.000000
vn 0.000000 -0.430900 -0.902400
vn 0.000000 -0.496400 -0.868100
vn 0.000000 -0.413800 -0.910400
vn -0.900900 -0.433900 -0.000000
vn -0.926300 -0.376900 -0.000000
vn -0.751500 -0.185800 -0.633100
vn -0.751500 -0.185800 -0.633000
vn -0.730800 -0.294200 -0.615900
vn -0.729100 -0.301400 -0.614500
vn -0.751500 -0.185800 0.633000
vn -0.729300 -0.301400 0.614200
vn -0.731000 -0.294200 0.615700
vn -0.764700 0.006200 -0.644300
vn -0.764800 0.006200 -0.644300
vn -0.764800 0.006200 0.644200
vn -0.764800 0.006200 0.644300
vn -0.477300 0.781400 -0.402000
vn -0.477200 0.781400 -0.402000
vn -0.477200 0.781400 0.402000
vn -0.477200 0.781400 0.402100
vn -0.386400 -0.863000 -0.325500
vn -0.386400 -0.863000 0.325600
vn -0.386500 -0.863000 0.325500
vn -0.443100 -0.815100 -0.373300
vn -0.443100 -0.815100 -0.373200
vn -0.443100 -0.815100 0.373200
vn -0.437400 0.820300 -0.368500
vn -0.437500 0.820300 -0.368400
vn -0.437500 0.820300 0.368500
vn -0.437500 0.820300 0.368400
vn -0.437400 0.820300 0.368500
vn -0.658600 -0.508200 -0.555000
vn -0.663200 -0.497800 -0.558800
vn -0.615200 -0.593900 -0.518400
vn -0.658600 -0.508200 0.554900
vn -0.615300 -0.593900 0.518300
vn -0.663300 -0.497800 0.558800
vn 0.000000 1.000000 -0.000000
vn 0.000000 -0.235500 0.971900
vn 0.000000 -0.246600 0.969100
vn 0.000000 -0.141200 0.990000
vn 0.000000 0.000000 -1.000000
vn -0.000000 -0.803100 0.595900
vn -0.000000 0.706500 0.707700
vn 0.000000 0.706500 0.707700
vn 0.000000 -0.743900 0.668300
vn 0.000000 0.743900 0.668300
vn 0.000000 -0.496400 0.868100
vn 0.000000 -0.430900 0.902400
vn 0.000000 -0.413800 0.910400
vn 0.000000 -1.000000 -0.000000
usemtl sponza/column_c
f 1/1/1 2/2/2 3/3/3
f 1/1/1 3/3/3 4/4/1
f 5/5/4 6/6/4 7/7/5
f 5/5/4 7/7/5 8/8/5
f 9/9/6 10/10/6 11/11/6
f 9/9/6 11/11/6 12/12/6
f 13/13/7 14/14/7 15/15/7
f 13/13/7 15/15/7 16/16/7
f 17/17/8 18/18/8 19/19/8
f 17/17/8 19/19/8 20/20/8
f 21/21/9 22/22/9 23/23/9
f 21/21/9 23/23/9 24/24/9
f 1/1/10 4/4/10 19/25/10
f 1/1/10 19/25/10 18/26/10
f 8/8/11 7/7/11 22/27/11
f 8/8/11 22/27/11 21/28/11
f 25/29/12 26/30/12 27/31/12
f 25/29/12 27/31/12 28/32/12
f 29/33/13 30/34/13 11/11/13
f 29/33/13 11/11/13 10/10/13
f 31/35/14 32/36/14 27/31/14
f 31/35/14 27/31/14 26/30/14
f 33/37/15 34/38/15 30/34/15
f 33/37/15 30/34/15 29/33/15
f 35/39/16 36/40/17 37/41/17
f 35/39/16 37/41/17 38/42/18
f 9/9/19 12/12/19 39/43/20
f 9/9/19 39/43/20 40/44/20
f 2/2/2 35/39/16 38/42/18
f 2/2/2 38/42/18 3/3/3
f 40/44/20 39/43/20 6/6/4
f 40/44/20 6/6/4 5/5/4
f 1/45/21 7/7/22 6/6/23
f 1/45/21 6/6/23 2/46/24
f 41/47/25 42/48/26 5/49/27
f 41/47/25 5/49/27 8/50/25
f 12/12/28 11/11/29 25/51/28
f 12/12/28 25/51/28 36/52/28
f 16/16/30 15/15/30 10/53/30
f 16/16/30 10/53/30 9/54/31
f 1/45/32 18/55/33 22/27/32
f 1/45/32 22/27/32 7/7/32
f 41/47/34 8/50/34 21/56/35
f 41/47/34 21/56/35 43/57/35
f 22/22/36 18/58/36 17/59/36
f 22/22/36 17/59/36 23/23/36
f 21/21/37 24/24/38 44/60/38
f 21/21/37 44/60/38 43/61/37
f 25/51/39 11/11/39 30/34/40
f 25/51/39 30/34/40 26/62/40
f 15/15/41 45/63/41 29/64/41
f 15/15/41 29/64/41 10/53/41
f 30/34/42 34/38/42 31/65/42
f 30/34/42 31/65/42 26/62/43
f 29/64/44 45/63/45 46/66/46
f 29/64/44 46/66/46 33/67/46
f 35/68/47 39/43/48 12/12/49
f 35/68/47 12/12/49 36/52/49
f 47/69/50 16/16/51 9/54/51
f 47/69/50 9/54/51 40/70/52
f 2/46/24 6/6/23 39/43/48
f 2/46/24 39/43/48 35/68/47
f 42/48/26 47/69/50 40/70/52
f 42/48/26 40/70/52 5/49/27
f 32/71/53 31/72/53 34/73/53
f 32/71/53 34/73/53 46/74/53
f 34/73/53 33/75/53 46/74/53
f 48/76/53 32/71/53 46/74/53
f 49/77/54 42/48/55 41/47/56
f 49/77/54 41/47/56 50/78/56
f 37/41/57 36/40/57 25/29/57
f 37/41/57 25/29/57 28/32/57
f 51/79/58 43/61/58 44/60/58
f 51/79/58 44/60/58 52/80/58
f 51/81/59 50/78/60 41/47/59
f 51/81/59 41/47/59 43/57/59
f 53/82/61 45/63/61 15/15/61
f 53/82/61 15/15/61 14/14/61
f 53/82/62 48/83/62 46/66/62
f 53/82/62 46/66/62 45/63/62
f 13/13/63 16/16/63 47/69/64
f 13/13/63 47/69/64 54/84/65
f 54/84/65 47/69/64 42/48/55
f 54/84/65 42/48/55 49/77/54
f 52/85/66 44/86/66 17/87/66
f 52/85/66 17/87/66 20/88/66
f 23/89/66 17/87/66 44/86/66
f 23/89/66 44/86/66 24/90/66
