v -0.000004 0.612841 0.448741
v 0.133732 0.690100 0.443600
v 0.168655 0.657640 1.758951
v -0.000004 0.560268 1.758041
v 0.133732 0.844620 0.433320
v 0.168655 0.852390 1.760771
v -0.000004 0.921879 0.428180
v -0.000004 0.949759 1.761681
v -0.133732 0.844620 0.433320
v -0.168659 0.852390 1.760771
v -0.133732 0.690100 0.443600
v -0.168659 0.657640 1.758951
v -0.000004 0.599209 0.353519
v 0.133732 0.675480 0.341510
v 0.133732 0.828039 0.317480
v -0.000004 0.904308 0.305461
v -0.133732 0.828039 0.317480
v -0.133732 0.675480 0.341510
v -0.000004 0.581829 0.252460
v 0.133732 0.657551 0.237189
v 0.133732 0.808979 0.206660
v -0.000004 0.884701 0.191390
v -0.133732 0.808979 0.206660
v -0.133732 0.657551 0.237189
v -0.000004 0.560108 0.158690
v 0.133732 0.634548 0.137920
v 0.133732 0.783428 0.096380
v -0.000004 0.857868 0.075601
v -0.133732 0.783428 0.096380
v -0.133732 0.634548 0.137920
v -0.000004 0.532230 0.073581
v 0.133732 0.604130 0.045070
v 0.133732 0.747950 -0.011941
v -0.000004 0.819859 -0.040450
v -0.133732 0.747950 -0.011941
v -0.133732 0.604130 0.045070
v -0.000004 0.496689 -0.002240
v 0.133732 0.564110 -0.040340
v 0.133732 0.698940 -0.116520
v -0.000004 0.766350 -0.154611
v -0.133732 0.698940 -0.116520
v -0.133732 0.564110 -0.040340
v -0.000004 0.451759 -0.069289
v 0.133732 0.512150 -0.117860
v 0.133732 0.632938 -0.215011
v -0.000004 0.693329 -0.263579
v -0.133732 0.632938 -0.215011
v -0.133732 0.512150 -0.117860
v -0.000004 0.387819 -0.136001
v 0.133732 0.442020 -0.191030
v 0.133732 0.550419 -0.301090
v -0.000004 0.604618 -0.356119
v -0.133732 0.550419 -0.301090
v -0.133732 0.442020 -0.191030
v -0.000004 0.299488 -0.218141
v 0.133732 0.354580 -0.272330
v 0.133732 0.464779 -0.380719
v -0.000004 0.519878 -0.434910
v -0.133732 0.464779 -0.380719
v -0.133732 0.354580 -0.272330
v -0.000004 0.204899 -0.323290
v 0.133732 0.265619 -0.371240
v 0.133732 0.387051 -0.467139
v -0.000004 0.447769 -0.515090
v -0.133732 0.387051 -0.467139
v -0.133732 0.265619 -0.371240
v -0.000004 0.118340 -0.448640
v 0.133732 0.185511 -0.487240
v 0.133732 0.319851 -0.564450
v -0.000004 0.387020 -0.603049
v -0.133732 0.319851 -0.564450
v -0.133732 0.185511 -0.487240
v -0.000004 0.049000 -0.596371
v 0.133732 0.122110 -0.622331
v 0.133732 0.268320 -0.674241
v -0.000004 0.341429 -0.700190
v -0.133732 0.268320 -0.674241
v -0.133732 0.122110 -0.622331
v -0.000004 0.006689 -0.766740
v 0.133732 0.083569 -0.777520
v 0.133732 0.237320 -0.799061
v -0.000004 0.314199 -0.809831
v -0.133732 0.237320 -0.799061
v -0.133732 0.083569 -0.777520
v -0.000004 0.000000 -0.957760
v 0.133732 0.077429 -0.952710
v 0.133732 0.232300 -0.942600
v -0.000004 0.309729 -0.937550
v -0.133732 0.232300 -0.942600
v -0.133732 0.077429 -0.952710
v -0.000004 0.034618 -1.165231
v 0.133732 0.109798 -1.146700
v 0.133732 0.260170 -1.109651
v -0.000004 0.335360 -1.091120
v -0.133732 0.260170 -1.109651
v -0.133732 0.109798 -1.146700
v -0.000004 0.096710 -1.353950
v 0.133732 0.168030 -1.323670
v 0.133732 0.310669 -1.263120
v -0.000004 0.381990 -1.232850
v -0.133732 0.310669 -1.263120
v -0.133732 0.168030 -1.323670
v -0.000004 0.173210 -1.499101
v 0.133732 0.237270 -1.455041
v 0.133732 0.365370 -1.366920
v -0.000004 0.429430 -1.322860
v -0.133732 0.365370 -1.366920
v -0.133732 0.237270 -1.455041
v -0.000004 0.268391 -1.607610
v 0.133732 0.319010 -1.548240
v 0.133732 0.420250 -1.429481
v -0.000004 0.470869 -1.370099
v -0.133732 0.420250 -1.429481
v -0.133732 0.319010 -1.548240
v -0.000004 0.380640 -1.667279
v 0.126389 0.410770 -1.600030
v 0.126400 0.471020 -1.465520
v -0.000004 0.501141 -1.398271
v -0.126392 0.471020 -1.465520
v -0.126392 0.410770 -1.600030
v -0.000004 0.485828 -1.745389
v 0.164780 0.503019 -1.651330
v 0.164780 0.537380 -1.463210
v -0.000004 0.554569 -1.369150
v -0.164780 0.537380 -1.463210
v -0.164780 0.503019 -1.651330
v -0.000004 0.573971 -1.761680
v 0.167370 0.585350 -1.665610
v 0.167370 0.608120 -1.473451
v -0.000004 0.619511 -1.377379
v -0.167374 0.608120 -1.473451
v -0.167374 0.585350 -1.665610
v -0.000004 0.691259 -1.705560
v 0.125027 0.689899 -1.633379
v 0.125027 0.687180 -1.489040
v -0.000004 0.685820 -1.416860
v -0.125034 0.687180 -1.489040
v -0.125034 0.689899 -1.633379
v -0.005989 0.691189 -1.702100
vt 0.172500 0.879700
vt 0.173100 0.892600
vt 0.003500 0.887200
vt 0.003600 0.871000
vt 0.174500 0.918300
vt 0.003300 0.919600
vt 0.175100 0.931100
vt 0.003200 0.935800
vt 0.184800 0.877500
vt 0.186300 0.890100
vt 0.189400 0.915500
vt 0.191000 0.928200
vt 0.197800 0.874600
vt 0.199800 0.887200
vt 0.203700 0.912400
vt 0.205700 0.925000
vt 0.209900 0.871000
vt 0.212600 0.883300
vt 0.217900 0.908100
vt 0.220600 0.920500
vt 0.220900 0.866300
vt 0.224500 0.878300
vt 0.231900 0.902200
vt 0.235600 0.914200
vt 0.230600 0.860400
vt 0.235500 0.871600
vt 0.245400 0.894000
vt 0.250300 0.905300
vt 0.239300 0.852900
vt 0.245500 0.863000
vt 0.258100 0.883100
vt 0.264300 0.893100
vt 0.247900 0.842300
vt 0.255000 0.851300
vt 0.269200 0.869300
vt 0.276300 0.878400
vt 0.258500 0.827600
vt 0.265500 0.836800
vt 0.279400 0.855100
vt 0.286400 0.864300
vt 0.272000 0.811900
vt 0.278200 0.822000
vt 0.290600 0.842200
vt 0.296800 0.852300
vt 0.288200 0.797500
vt 0.293200 0.808600
vt 0.303100 0.831000
vt 0.308100 0.842200
vt 0.307300 0.785900
vt 0.310600 0.798100
vt 0.317300 0.822400
vt 0.320600 0.834600
vt 0.329200 0.778900
vt 0.330600 0.791700
vt 0.333400 0.817300
vt 0.334800 0.830000
vt 0.353900 0.777800
vt 0.353200 0.790700
vt 0.351900 0.816400
vt 0.351300 0.829300
vt 0.380600 0.783500
vt 0.378200 0.796000
vt 0.373400 0.821100
vt 0.371100 0.833600
vt 0.404900 0.793900
vt 0.401000 0.805700
vt 0.393200 0.829500
vt 0.389300 0.841300
vt 0.423700 0.806600
vt 0.418000 0.817200
vt 0.406600 0.838600
vt 0.400900 0.849200
vt 0.437700 0.822400
vt 0.430000 0.830800
vt 0.414700 0.847700
vt 0.407000 0.856100
vt 0.445400 0.841100
vt 0.436700 0.846100
vt 0.419300 0.856100
vt 0.410700 0.861100
vt 0.455400 0.858600
vt 0.443300 0.861500
vt 0.419000 0.867200
vt 0.406900 0.870000
vt 0.457500 0.873300
vt 0.445100 0.875200
vt 0.420400 0.878900
vt 0.408000 0.880800
vt 0.449700 0.899100
vt 0.441000 0.892500
vt 0.422400 0.892100
vt 0.412500 0.898200
vt 0.449200 0.899100
vn 0.000000 -0.998700 0.050600
vn 0.876700 -0.480700 0.016400
vn 0.865600 -0.499500 -0.035400
vn 0.000000 -0.999200 -0.040100
vn 0.855700 0.515100 -0.049400
vn 0.865700 0.500000 -0.025800
vn 0.000000 0.996700 -0.081200
vn 0.000000 0.999800 -0.021000
vn -0.855700 0.515000 -0.049400
vn -0.865700 0.499900 -0.025800
vn -0.876700 -0.480700 0.016400
vn -0.865600 -0.499500 -0.035300
vn -0.000000 -0.987800 0.155600
vn 0.868000 -0.490600 0.077300
vn 0.864100 0.497200 -0.078300
vn -0.000000 0.987800 -0.155600
vn -0.864100 0.497200 -0.078300
vn -0.868000 -0.490600 0.077300
vn -0.000000 -0.980300 0.197700
vn 0.870000 -0.483300 0.097400
vn 0.862100 0.496700 -0.100200
vn -0.000000 0.980300 -0.197700
vn -0.862100 0.496700 -0.100200
vn -0.870000 -0.483300 0.097400
vn -0.000000 -0.963200 0.268800
vn 0.872200 -0.471100 0.131500
vn 0.860000 0.491500 -0.137200
vn -0.000000 0.963200 -0.268800
vn -0.860000 0.491500 -0.137200
vn -0.872300 -0.471100 0.131500
vn -0.000000 -0.929600 0.368500
vn 0.874600 -0.450700 0.178700
vn 0.857800 0.477700 -0.189400
vn -0.000000 0.929600 -0.368500
vn -0.857900 0.477700 -0.189400
vn -0.874600 -0.450700 0.178700
vn -0.000000 -0.870600 0.491900
vn 0.876800 -0.418700 0.236600
vn 0.855900 0.450300 -0.254400
vn -0.000000 0.870600 -0.491900
vn -0.855900 0.450300 -0.254400
vn -0.876800 -0.418700 0.236600
vn -0.000000 -0.779200 0.626700
vn 0.878400 -0.372500 0.299600
vn 0.854500 0.404800 -0.325600
vn -0.000000 0.779300 -0.626700
vn -0.854500 0.404800 -0.325600
vn -0.878400 -0.372500 0.299600
vn -0.000000 -0.701700 0.712500
vn 0.870000 -0.346000 0.351200
vn 0.862100 0.355600 -0.361000
vn -0.000000 0.701700 -0.712500
vn -0.862100 0.355600 -0.361000
vn -0.870000 -0.345900 0.351200
vn -0.000000 -0.712900 0.701200
vn 0.860000 -0.363800 0.357900
vn 0.872300 0.348600 -0.342900
vn -0.000000 0.712900 -0.701200
vn -0.872300 0.348600 -0.342900
vn -0.860000 -0.363800 0.357800
vn -0.000000 -0.784800 0.619800
vn 0.857400 -0.403900 0.318900
vn 0.875100 0.379900 -0.300000
vn -0.000000 0.784800 -0.619800
vn -0.875100 0.379900 -0.300000
vn -0.857400 -0.403800 0.318900
vn -0.000000 -0.867000 0.498300
vn 0.855000 -0.449600 0.258400
vn 0.877800 0.415400 -0.238700
vn -0.000000 0.867000 -0.498300
vn -0.877800 0.415400 -0.238700
vn -0.855000 -0.449600 0.258400
vn -0.000000 -0.942400 0.334600
vn 0.853100 -0.491600 0.174500
vn 0.879900 0.447700 -0.158900
vn -0.000000 0.942400 -0.334500
vn -0.879900 0.447700 -0.158900
vn -0.853100 -0.491600 0.174500
vn -0.000000 -0.990300 0.138800
vn 0.852300 -0.518000 0.072600
vn 0.880900 0.468700 -0.065700
vn -0.000000 0.990300 -0.138700
vn -0.880900 0.468700 -0.065700
vn -0.852300 -0.518000 0.072600
vn -0.000000 -0.997900 -0.065100
vn 0.852800 -0.521100 -0.034000
vn 0.880300 0.473400 0.030900
vn -0.000000 0.997900 0.065100
vn -0.880300 0.473400 0.030900
vn -0.852800 -0.521100 -0.034000
vn -0.000000 -0.971000 -0.239300
vn 0.855800 -0.502200 -0.123700
vn 0.876800 0.466900 0.115000
vn -0.000000 0.971000 0.239300
vn -0.876800 0.466900 0.115000
vn -0.855900 -0.502200 -0.123700
vn -0.000000 -0.920500 -0.390800
vn 0.854900 -0.477500 -0.202700
vn 0.877900 0.440800 0.187100
vn -0.000000 0.920500 0.390800
vn -0.877900 0.440800 0.187100
vn -0.854900 -0.477500 -0.202700
vn -0.000000 -0.823900 -0.566700
vn 0.850700 -0.433100 -0.297900
vn 0.882800 0.387000 0.266200
vn -0.000000 0.823900 0.566700
vn -0.882900 0.386900 0.266200
vn -0.850700 -0.433100 -0.297900
vn -0.000000 -0.622200 -0.782800
vn 0.847400 -0.313800 -0.428200
vn 0.883000 0.347100 0.315800
vn -0.000000 0.712800 0.701400
vn -0.883000 0.347100 0.315800
vn -0.847500 -0.313800 -0.428200
vn 0.007300 -0.540400 -0.841400
vn 0.817500 -0.385000 -0.428300
vn 0.859100 -0.083200 0.504900
vn -0.000000 0.050400 0.998700
vn -0.859100 -0.083200 0.504900
vn -0.821000 -0.389900 -0.417100
vn 0.004600 -0.390300 -0.920700
vn 0.836200 -0.313000 -0.450300
vn 0.835200 -0.169600 0.523200
vn -0.000000 -0.133800 0.991000
vn -0.835200 -0.169600 0.523100
vn -0.840000 -0.306900 -0.447500
vn 0.000500 0.109800 -0.994000
vn 0.836700 0.154500 -0.525300
vn 0.858300 0.251300 0.447400
vn -0.000000 0.305400 0.952200
vn -0.858300 0.251300 0.447400
vn -0.837000 0.155000 -0.524900
vn -0.000000 0.781400 -0.624000
vn 0.539500 0.785400 -0.303500
vn 0.517700 0.791800 0.324000
vn -0.000000 0.796100 0.605100
vn -0.517700 0.791800 0.324000
vn -0.539500 0.785400 -0.303500
vn -0.271400 0.848700 -0.454000
f 1/1/1 2/2/2 3/3/3
f 1/1/1 3/3/3 4/4/4
f 2/2/2 5/5/5 6/6/6
f 2/2/2 6/6/6 3/3/3
f 5/5/5 7/7/7 8/8/8
f 5/5/5 8/8/8 6/6/6
f 7/7/7 9/5/9 10/6/10
f 7/7/7 10/6/10 8/8/8
f 10/6/10 9/5/9 11/2/11
f 10/6/10 11/2/11 12/3/12
f 11/2/11 1/1/1 4/4/4
f 11/2/11 4/4/4 12/3/12
f 1/1/1 13/9/13 14/10/14
f 1/1/1 14/10/14 2/2/2
f 2/2/2 14/10/14 15/11/15
f 2/2/2 15/11/15 5/5/5
f 5/5/5 15/11/15 16/12/16
f 5/5/5 16/12/16 7/7/7
f 16/12/16 17/11/17 9/5/9
f 16/12/16 9/5/9 7/7/7
f 17/11/17 18/10/18 11/2/11
f 17/11/17 11/2/11 9/5/9
f 18/10/18 13/9/13 1/1/1
f 18/10/18 1/1/1 11/2/11
f 19/13/19 20/14/20 14/10/14
f 19/13/19 14/10/14 13/9/13
f 20/14/20 21/15/21 15/11/15
f 20/14/20 15/11/15 14/10/14
f 21/15/21 22/16/22 16/12/16
f 21/15/21 16/12/16 15/11/15
f 22/16/22 23/15/23 17/11/17
f 22/16/22 17/11/17 16/12/16
f 17/11/17 23/15/23 24/14/24
f 17/11/17 24/14/24 18/10/18
f 24/14/24 19/13/19 13/9/13
f 24/14/24 13/9/13 18/10/18
f 25/17/25 26/18/26 20/14/20
f 25/17/25 20/14/20 19/13/19
f 26/18/26 27/19/27 21/15/21
f 26/18/26 21/15/21 20/14/20
f 27/19/27 28/20/28 22/16/22
f 27/19/27 22/16/22 21/15/21
f 28/20/28 29/19/29 23/15/23
f 28/20/28 23/15/23 22/16/22
f 23/15/23 29/19/29 30/18/30
f 23/15/23 30/18/30 24/14/24
f 30/18/30 25/17/25 19/13/19
f 30/18/30 19/13/19 24/14/24
f 31/21/31 32/22/32 26/18/26
f 31/21/31 26/18/26 25/17/25
f 32/22/32 33/23/33 27/19/27
f 32/22/32 27/19/27 26/18/26
f 33/23/33 34/24/34 28/20/28
f 33/23/33 28/20/28 27/19/27
f 34/24/34 35/23/35 29/19/29
f 34/24/34 29/19/29 28/20/28
f 29/19/29 35/23/35 36/22/36
f 29/19/29 36/22/36 30/18/30
f 36/22/36 31/21/31 25/17/25
f 36/22/36 25/17/25 30/18/30
f 37/25/37 38/26/38 32/22/32
f 37/25/37 32/22/32 31/21/31
f 38/26/38 39/27/39 33/23/33
f 38/26/38 33/23/33 32/22/32
f 39/27/39 40/28/40 34/24/34
f 39/27/39 34/24/34 33/23/33
f 40/28/40 41/27/41 35/23/35
f 40/28/40 35/23/35 34/24/34
f 35/23/35 41/27/41 42/26/42
f 35/23/35 42/26/42 36/22/36
f 42/26/42 37/25/37 31/21/31
f 42/26/42 31/21/31 36/22/36
f 43/29/43 44/30/44 38/26/38
f 43/29/43 38/26/38 37/25/37
f 44/30/44 45/31/45 39/27/39
f 44/30/44 39/27/39 38/26/38
f 45/31/45 46/32/46 40/28/40
f 45/31/45 40/28/40 39/27/39
f 46/32/46 47/31/47 41/27/41
f 46/32/46 41/27/41 40/28/40
f 41/27/41 47/31/47 48/30/48
f 41/27/41 48/30/48 42/26/42
f 48/30/48 43/29/43 37/25/37
f 48/30/48 37/25/37 42/26/42
f 43/29/43 49/33/49 50/34/50
f 43/29/43 50/34/50 44/30/44
f 44/30/44 50/34/50 51/35/51
f 44/30/44 51/35/51 45/31/45
f 45/31/45 51/35/51 52/36/52
f 45/31/45 52/36/52 46/32/46
f 52/36/52 53/35/53 47/31/47
f 52/36/52 47/31/47 46/32/46
f 53/35/53 54/34/54 48/30/48
f 53/35/53 48/30/48 47/31/47
f 54/34/54 49/33/49 43/29/43
f 54/34/54 43/29/43 48/30/48
f 49/33/49 55/37/55 56/38/56
f 49/33/49 56/38/56 50/34/50
f 50/34/50 56/38/56 57/39/57
f 50/34/50 57/39/57 51/35/51
f 51/35/51 57/39/57 58/40/58
f 51/35/51 58/40/58 52/36/52
f 58/40/58 59/39/59 53/35/53
f 58/40/58 53/35/53 52/36/52
f 59/39/59 60/38/60 54/34/54
f 59/39/59 54/34/54 53/35/53
f 60/38/60 55/37/55 49/33/49
f 60/38/60 49/33/49 54/34/54
f 61/41/61 62/42/62 56/38/56
f 61/41/61 56/38/56 55/37/55
f 56/38/56 62/42/62 63/43/63
f 56/38/56 63/43/63 57/39/57
f 63/43/63 64/44/64 58/40/58
f 63/43/63 58/40/58 57/39/57
f 64/44/64 65/43/65 59/39/59
f 64/44/64 59/39/59 58/40/58
f 65/43/65 66/42/66 60/38/60
f 65/43/65 60/38/60 59/39/59
f 66/42/66 61/41/61 55/37/55
f 66/42/66 55/37/55 60/38/60
f 67/45/67 68/46/68 62/42/62
f 67/45/67 62/42/62 61/41/61
f 62/42/62 68/46/68 69/47/69
f 62/42/62 69/47/69 63/43/63
f 69/47/69 70/48/70 64/44/64
f 69/47/69 64/44/64 63/43/63
f 70/48/70 71/47/71 65/43/65
f 70/48/70 65/43/65 64/44/64
f 71/47/71 72/46/72 66/42/66
f 71/47/71 66/42/66 65/43/65
f 72/46/72 67/45/67 61/41/61
f 72/46/72 61/41/61 66/42/66
f 73/49/73 74/50/74 68/46/68
f 73/49/73 68/46/68 67/45/67
f 68/46/68 74/50/74 75/51/75
f 68/46/68 75/51/75 69/47/69
f 75/51/75 76/52/76 70/48/70
f 75/51/75 70/48/70 69/47/69
f 76/52/76 77/51/77 71/47/71
f 76/52/76 71/47/71 70/48/70
f 77/51/77 78/50/78 72/46/72
f 77/51/77 72/46/72 71/47/71
f 78/50/78 73/49/73 67/45/67
f 78/50/78 67/45/67 72/46/72
f 79/53/79 80/54/80 74/50/74
f 79/53/79 74/50/74 73/49/73
f 80/54/80 81/55/81 75/51/75
f 80/54/80 75/51/75 74/50/74
f 81/55/81 82/56/82 76/52/76
f 81/55/81 76/52/76 75/51/75
f 82/56/82 83/55/83 77/51/77
f 82/56/82 77/51/77 76/52/76
f 83/55/83 84/54/84 78/50/78
f 83/55/83 78/50/78 77/51/77
f 84/54/84 79/53/79 73/49/73
f 84/54/84 73/49/73 78/50/78
f 85/57/85 86/58/86 80/54/80
f 85/57/85 80/54/80 79/53/79
f 86/58/86 87/59/87 81/55/81
f 86/58/86 81/55/81 80/54/80
f 87/59/87 88/60/88 82/56/82
f 87/59/87 82/56/82 81/55/81
f 88/60/88 89/59/89 83/55/83
f 88/60/88 83/55/83 82/56/82
f 89/59/89 90/58/90 84/54/84
f 89/59/89 84/54/84 83/55/83
f 90/58/90 85/57/85 79/53/79
f 90/58/90 79/53/79 84/54/84
f 91/61/91 92/62/92 86/58/86
f 91/61/91 86/58/86 85/57/85
f 92/62/92 93/63/93 87/59/87
f 92/62/92 87/59/87 86/58/86
f 93/63/93 94/64/94 88/60/88
f 93/63/93 88/60/88 87/59/87
f 88/60/88 94/64/94 95/63/95
f 88/60/88 95/63/95 89/59/89
f 89/59/89 95/63/95 96/62/96
f 89/59/89 96/62/96 90/58/90
f 90/58/90 96/62/96 91/61/91
f 90/58/90 91/61/91 85/57/85
f 97/65/97 98/66/98 92/62/92
f 97/65/97 92/62/92 91/61/91
f 98/66/98 99/67/99 93/63/93
f 98/66/98 93/63/93 92/62/92
f 99/67/99 100/68/100 94/64/94
f 99/67/99 94/64/94 93/63/93
f 100/68/100 101/67/101 95/63/95
f 100/68/100 95/63/95 94/64/94
f 101/67/101 102/66/102 96/62/96
f 101/67/101 96/62/96 95/63/95
f 102/66/102 97/65/97 91/61/91
f 102/66/102 91/61/91 96/62/96
f 97/65/97 103/69/103 104/70/104
f 97/65/97 104/70/104 98/66/98
f 98/66/98 104/70/104 105/71/105
f 98/66/98 105/71/105 99/67/99
f 99/67/99 105/71/105 106/72/106
f 99/67/99 106/72/106 100/68/100
f 106/72/106 107/71/107 101/67/101
f 106/72/106 101/67/101 100/68/100
f 107/71/107 108/70/108 102/66/102
f 107/71/107 102/66/102 101/67/101
f 108/70/108 103/69/103 97/65/97
f 108/70/108 97/65/97 102/66/102
f 103/69/103 109/73/109 110/74/110
f 103/69/103 110/74/110 104/70/104
f 104/70/104 110/74/110 111/75/111
f 104/70/104 111/75/111 105/71/105
f 105/71/105 111/75/111 112/76/112
f 105/71/105 112/76/112 106/72/106
f 112/76/112 113/75/113 107/71/107
f 112/76/112 107/71/107 106/72/106
f 113/75/113 114/74/114 108/70/108
f 113/75/113 108/70/108 107/71/107
f 114/74/114 109/73/109 103/69/103
f 114/74/114 103/69/103 108/70/108
f 115/77/115 116/78/116 110/74/110
f 115/77/115 110/74/110 109/73/109
f 116/78/116 117/79/117 111/75/111
f 116/78/116 111/75/111 110/74/110
f 117/79/117 118/80/118 112/76/112
f 117/79/117 112/76/112 111/75/111
f 112/76/112 118/80/118 119/79/119
f 112/76/112 119/79/119 113/75/113
f 113/75/113 119/79/119 120/78/120
f 113/75/113 120/78/120 114/74/114
f 114/74/114 120/78/120 115/77/115
f 114/74/114 115/77/115 109/73/109
f 121/81/121 122/82/122 116/78/116
f 121/81/121 116/78/116 115/77/115
f 116/78/116 122/82/122 123/83/123
f 116/78/116 123/83/123 117/79/117
f 117/79/117 123/83/123 124/84/124
f 117/79/117 124/84/124 118/80/118
f 124/84/124 125/83/125 119/79/119
f 124/84/124 119/79/119 118/80/118
f 125/83/125 126/82/126 120/78/120
f 125/83/125 120/78/120 119/79/119
f 126/82/126 121/81/121 115/77/115
f 126/82/126 115/77/115 120/78/120
f 127/85/127 128/86/128 122/82/122
f 127/85/127 122/82/122 121/81/121
f 122/82/122 128/86/128 129/87/129
f 122/82/122 129/87/129 123/83/123
f 123/83/123 129/87/129 130/88/130
f 123/83/123 130/88/130 124/84/124
f 130/88/130 131/87/131 125/83/125
f 130/88/130 125/83/125 124/84/124
f 131/87/131 132/86/132 126/82/126
f 131/87/131 126/82/126 125/83/125
f 132/86/132 127/85/127 121/81/121
f 132/86/132 121/81/121 126/82/126
f 133/89/133 134/90/134 128/86/128
f 133/89/133 128/86/128 127/85/127
f 134/90/134 135/91/135 129/87/129
f 134/90/134 129/87/129 128/86/128
f 135/91/135 136/92/136 130/88/130
f 135/91/135 130/88/130 129/87/129
f 130/88/130 136/92/136 137/91/137
f 130/88/130 137/91/137 131/87/131
f 131/87/131 137/91/137 138/90/138
f 131/87/131 138/90/138 132/86/132
f 132/86/132 138/90/138 139/93/139
f 132/86/132 139/93/139 133/89/133
f 132/86/132 133/89/133 127/85/127
f 134/90/134 133/89/133 139/93/139
f 134/90/134 139/93/139 136/92/136
f 135/91/135 134/90/134 136/92/136
f 139/93/139 138/90/138 137/91/137
f 139/93/139 137/91/137 136/92/136
