v -3.843904 22.345781 3.837694
v 3.843906 22.345781 3.837694
v 3.843906 22.345781 -3.837694
v -3.843904 22.345781 -3.837694
v -3.843904 21.034872 3.837694
v -3.843904 21.543890 3.837694
v -3.843904 21.543890 -3.837694
v -3.843904 21.034872 -3.837694
v 3.843906 21.034872 3.837694
v 3.843906 21.543890 3.837694
v 3.843906 21.034872 -3.837694
v 3.843906 21.543890 -3.837694
v 3.624876 20.654730 -3.619015
v -3.624874 20.654730 -3.619015
v 3.624876 20.654730 3.619024
v -3.624874 20.654730 3.619024
v 3.071316 20.363281 -3.066355
v -3.071312 20.363281 -3.066355
v 3.071316 20.363281 3.066355
v -3.071312 20.363281 3.066355
v 2.605957 0.000000 1.089064
v 2.605957 18.911201 1.089064
v 1.095257 18.911201 2.599754
v 1.095257 0.000000 2.599754
v 2.605957 0.000000 -1.047386
v 2.605957 18.911201 -1.047386
v 1.095257 0.000000 -2.558077
v 1.095257 18.911201 -2.558077
v -1.041182 0.000000 -2.558077
v -1.041182 18.911201 -2.558077
v -2.551886 0.000000 -1.047386
v -2.551886 18.911201 -1.047386
v -2.551886 0.000000 1.089064
v -2.551886 18.911201 1.089064
v -1.041182 0.000000 2.599754
v -1.041182 18.911201 2.599754
v 2.605957 19.368671 1.089064
v 2.763407 19.496082 1.154285
v 1.160477 19.496082 2.757215
v 1.095257 19.368671 2.599754
v 2.605957 19.368671 -1.047386
v 2.763407 19.496082 -1.112604
v 1.095257 19.368671 -2.558077
v 1.160477 19.496082 -2.715536
v -1.041182 19.368671 -2.558077
v -1.106405 19.496082 -2.715536
v -2.551886 19.368671 -1.047386
v -2.709333 19.496082 -1.112604
v -2.551886 19.368671 1.089064
v -2.709333 19.496082 1.154285
v -1.041182 19.368671 2.599754
v -1.106405 19.496082 2.757215
v 2.654446 19.878321 1.109154
v 2.830517 20.172112 1.182085
v 1.188267 20.172112 2.824316
v 1.115347 19.878321 2.648254
v 2.654446 19.878321 -1.067465
v 2.830517 20.172112 -1.140396
v 1.115347 19.878321 -2.606575
v 1.188267 20.172112 -2.782635
v -1.061272 19.878321 -2.606575
v -1.134203 20.172112 -2.782635
v -2.600374 19.878321 -1.067465
v -2.776442 20.172112 -1.140396
v -2.600374 19.878321 1.109154
v -2.776442 20.172112 1.182085
v -1.061272 19.878321 2.648254
v -1.134203 20.172112 2.824316
v 2.855467 19.139942 1.192415
v 1.198606 19.139942 2.849264
v 2.855467 19.139942 -1.150736
v 1.198606 19.139942 -2.807596
v -1.144543 19.139942 -2.807585
v -2.801394 19.139942 -1.150736
v -2.801394 19.139942 1.192415
v -1.144543 19.139942 2.849264
v 1.121096 19.623491 2.662134
v 2.668327 19.623491 1.114904
v 2.668327 19.623491 -1.073225
v 1.121096 19.623491 -2.620455
v -1.067024 19.623491 -2.620455
v -2.614254 19.623491 -1.073225
v -2.614254 19.623491 1.114904
v -1.067024 19.623491 2.662134
v -3.751055 21.543890 3.744835
v -3.751055 21.767002 3.744835
v -3.751055 21.767002 -3.744844
v -3.751055 21.543890 -3.744844
v 3.751047 21.543890 3.744835
v 3.751047 21.767002 3.744835
v 3.751047 21.543890 -3.744844
v 3.751047 21.767002 -3.744844
v -3.843904 21.767002 -3.837694
v -3.843904 21.767002 3.837694
v 3.843906 21.767002 3.837694
v 3.843906 21.767002 -3.837694
vt 0.105200 0.713600
vt 0.296900 0.713600
vt 0.296900 0.905000
vt 0.105200 0.905000
vt 0.057900 0.255900
vt 0.041900 0.255900
vt 0.041900 0.014900
vt 0.057900 0.014900
vt 0.057700 0.494400
vt 0.041900 0.494400
vt 0.057700 0.732500
vt 0.041900 0.732500
vt 0.057900 0.974000
vt 0.041900 0.974000
vt 0.069800 0.739400
vt 0.069800 0.967100
vt 0.069400 0.501200
vt 0.069400 0.725700
vt 0.069400 0.262700
vt 0.069400 0.487600
vt 0.069800 0.021700
vt 0.069800 0.249100
vt 0.087100 0.756800
vt 0.087100 0.949700
vt 0.086600 0.518300
vt 0.086600 0.708600
vt 0.086600 0.279900
vt 0.086600 0.470400
vt 0.087200 0.039100
vt 0.087200 0.231700
vt 0.892700 0.008600
vt 0.892700 0.900300
vt 0.821500 0.900300
vt 0.821500 0.008600
vt 0.993500 0.008600
vt 0.993500 0.900300
vt 0.376800 0.008600
vt 0.376800 0.900300
vt 0.305600 0.900300
vt 0.305600 0.008600
vt 0.477500 0.008600
vt 0.477500 0.900300
vt 0.548800 0.008600
vt 0.548800 0.900300
vt 0.649500 0.008600
vt 0.649500 0.900300
vt 0.720700 0.008600
vt 0.720700 0.900300
vt 0.242800 0.941400
vt 0.242800 0.949300
vt 0.135600 0.949300
vt 0.135600 0.941400
vt 0.350000 0.941400
vt 0.350000 0.949300
vt 0.457100 0.941400
vt 0.457100 0.949300
vt 0.564300 0.941400
vt 0.564300 0.949300
vt 0.671500 0.941400
vt 0.671500 0.949300
vt 0.778700 0.941400
vt 0.778700 0.949300
vt 0.885900 0.941400
vt 0.885900 0.949300
vt 0.993100 0.941400
vt 0.993100 0.949300
vt 0.242800 0.972700
vt 0.242800 0.990800
vt 0.135600 0.990800
vt 0.135600 0.972700
vt 0.350000 0.972700
vt 0.350000 0.990800
vt 0.457100 0.972700
vt 0.457100 0.990800
vt 0.564300 0.972700
vt 0.564300 0.990800
vt 0.671500 0.972700
vt 0.671500 0.990800
vt 0.778700 0.972700
vt 0.778700 0.990800
vt 0.885900 0.972700
vt 0.885900 0.990800
vt 0.993100 0.972700
vt 0.993100 0.990800
vt 0.094100 0.576800
vt 0.094100 0.648800
vt 0.145000 0.525800
vt 0.094100 0.340000
vt 0.094100 0.412000
vt 0.096400 0.172500
vt 0.148000 0.224100
vt 0.096400 0.099600
vt 0.148000 0.048000
vt 0.096100 0.815900
vt 0.096100 0.888900
vt 0.145000 0.699800
vt 0.242800 0.927400
vt 0.135600 0.927400
vt 0.135600 0.913300
vt 0.242800 0.913300
vt 0.350000 0.927400
vt 0.350000 0.913300
vt 0.457100 0.927400
vt 0.457100 0.913300
vt 0.564300 0.927400
vt 0.564300 0.913300
vt 0.671500 0.927400
vt 0.671500 0.913300
vt 0.778700 0.927400
vt 0.778700 0.913300
vt 0.885900 0.927400
vt 0.885900 0.913300
vt 0.993100 0.927400
vt 0.993100 0.913300
vt 0.135600 0.957100
vt 0.242800 0.957100
vt 0.350000 0.957100
vt 0.457100 0.957100
vt 0.564300 0.957100
vt 0.671500 0.957100
vt 0.778700 0.957100
vt 0.885900 0.957100
vt 0.993100 0.957100
vt 0.038900 0.255900
vt 0.031800 0.255900
vt 0.031800 0.017800
vt 0.038900 0.017800
vt 0.038900 0.494400
vt 0.031800 0.494400
vt 0.038900 0.732500
vt 0.031800 0.732500
vt 0.038900 0.971000
vt 0.031800 0.971000
vt 0.005900 0.738500
vt 0.005900 0.494500
vt 0.024300 0.494500
vt 0.024300 0.738500
vt 0.005900 0.982900
vt 0.024300 0.982900
vt 0.005900 0.250100
vt 0.005900 0.006100
vt 0.024300 0.006100
vt 0.024300 0.250100
vt 0.027200 0.497400
vt 0.027200 0.735500
vt 0.027200 0.253000
vt 0.027200 0.491500
vt 0.027200 0.009000
vt 0.027200 0.247100
vt 0.027200 0.741400
vt 0.027200 0.979900
vn 0.000000 1.000000 -0.000000
vn -0.675700 -0.295100 0.675600
vn -0.707100 0.000000 0.707100
vn -0.707100 0.000000 -0.707100
vn -0.675700 -0.295100 -0.675600
vn 0.675700 -0.295100 0.675600
vn 0.707100 0.000000 0.707100
vn 0.675700 -0.295100 -0.675600
vn 0.707100 0.000000 -0.707100
vn 0.462400 -0.756400 -0.462700
vn -0.462400 -0.756400 -0.462700
vn 0.462400 -0.756400 0.462700
vn -0.462400 -0.756400 0.462700
vn 0.217000 -0.951600 -0.217700
vn -0.216200 -0.952000 -0.216500
vn 0.218000 -0.951200 0.218300
vn -0.217200 -0.951700 0.217100
vn 0.382700 0.000000 0.923900
vn 0.923900 0.000000 -0.382700
vn 1.000000 0.000000 -0.000000
vn 0.000000 0.000000 -1.000000
vn -0.923900 0.000000 -0.382700
vn -0.923900 0.000000 0.382700
vn -0.382700 0.000000 0.923900
vn 0.553200 -0.800900 0.229100
vn 0.229100 -0.800900 0.553200
vn 0.553200 -0.800900 -0.229100
vn 0.229100 -0.800900 -0.553200
vn -0.229100 -0.800900 -0.553200
vn -0.553200 -0.800900 -0.229100
vn -0.553200 -0.800900 0.229100
vn -0.229100 -0.800900 0.553200
vn 0.887900 -0.276400 0.367800
vn 0.638800 -0.755100 0.147600
vn 0.147600 -0.755900 0.637800
vn 0.367800 -0.276400 0.887900
vn 0.887900 -0.276400 -0.367800
vn 0.638900 -0.755100 -0.147300
vn 0.367800 -0.276400 -0.887900
vn 0.147900 -0.780100 -0.607900
vn -0.367800 -0.276400 -0.887900
vn -0.147500 -0.780100 -0.608000
vn -0.887900 -0.276400 -0.367800
vn -0.600800 -0.785700 -0.147700
vn -0.887900 -0.276400 0.367800
vn -0.600700 -0.785600 0.148000
vn -0.367800 -0.276400 0.887900
vn -0.147200 -0.755900 0.637900
vn 0.597100 -0.763100 0.247300
vn 0.247300 -0.763100 0.597100
vn 0.597100 -0.763100 -0.247300
vn 0.247300 -0.763100 -0.597100
vn -0.247300 -0.763100 -0.597100
vn -0.597100 -0.763100 -0.247300
vn -0.597100 -0.763100 0.247300
vn -0.247300 -0.763100 0.597100
vn 0.597100 0.763100 0.247300
vn 0.247300 0.763100 0.597100
vn 0.597100 0.763100 -0.247300
vn 0.247300 0.763100 -0.597100
vn -0.247300 0.763100 -0.597100
vn -0.597100 0.763100 -0.247300
vn -0.597100 0.763100 0.247300
vn -0.247300 0.763100 0.597100
vn 0.352600 0.388600 0.851300
vn 0.851300 0.388600 0.352600
vn 0.851300 0.388600 -0.352600
vn 0.352600 0.388600 -0.851300
vn -0.352600 0.388600 -0.851300
vn -0.851200 0.388600 -0.352600
vn -0.851300 0.388600 0.352600
vn -0.352600 0.388600 0.851300
vn 0.297700 0.628300 0.718700
vn 0.718700 0.628300 0.297700
vn 0.718700 0.628300 -0.297700
vn 0.297700 0.628300 -0.718700
vn -0.297700 0.628300 -0.718700
vn -0.718700 0.628300 -0.297700
vn -0.718700 0.628400 0.297700
vn -0.297700 0.628300 0.718700
vn -1.000000 0.000000 -0.000000
vn 0.000000 0.000000 1.000000
vn 0.000000 -1.000000 -0.000000
f 1/1/1 2/2/1 3/3/1
f 1/1/1 3/3/1 4/4/1
f 5/5/2 6/6/3 7/7/4
f 5/5/2 7/7/4 8/8/5
f 9/9/6 10/10/7 6/6/3
f 9/9/6 6/6/3 5/5/2
f 11/11/8 12/12/9 10/10/7
f 11/11/8 10/10/7 9/9/6
f 8/13/5 7/14/4 12/12/9
f 8/13/5 12/12/9 11/11/8
f 11/11/8 13/15/10 14/16/11
f 11/11/8 14/16/11 8/13/5
f 9/9/6 15/17/12 13/18/10
f 9/9/6 13/18/10 11/11/8
f 5/5/2 16/19/13 15/20/12
f 5/5/2 15/20/12 9/9/6
f 8/8/5 14/21/11 16/22/13
f 8/8/5 16/22/13 5/5/2
f 17/23/14 18/24/15 14/16/11
f 17/23/14 14/16/11 13/15/10
f 19/25/16 17/26/14 13/18/10
f 19/25/16 13/18/10 15/17/12
f 20/27/17 19/28/16 15/20/12
f 20/27/17 15/20/12 16/19/13
f 18/29/15 20/30/17 16/22/13
f 18/29/15 16/22/13 14/21/11
f 21/31/7 22/32/7 23/33/18
f 21/31/7 23/33/18 24/34/18
f 25/35/19 26/36/19 22/32/20
f 25/35/19 22/32/20 21/31/20
f 27/37/9 28/38/9 26/39/19
f 27/37/9 26/39/19 25/40/19
f 29/41/21 30/42/21 28/38/21
f 29/41/21 28/38/21 27/37/21
f 31/43/22 32/44/22 30/42/4
f 31/43/22 30/42/4 29/41/4
f 33/45/23 34/46/23 32/44/22
f 33/45/23 32/44/22 31/43/22
f 35/47/24 36/48/24 34/46/23
f 35/47/24 34/46/23 33/45/23
f 24/34/18 23/33/18 36/48/24
f 24/34/18 36/48/24 35/47/24
f 37/49/25 38/50/25 39/51/26
f 37/49/25 39/51/26 40/52/26
f 41/53/27 42/54/27 38/50/25
f 41/53/27 38/50/25 37/49/25
f 43/55/28 44/56/28 42/54/27
f 43/55/28 42/54/27 41/53/27
f 45/57/29 46/58/29 44/56/28
f 45/57/29 44/56/28 43/55/28
f 47/59/30 48/60/30 46/58/29
f 47/59/30 46/58/29 45/57/29
f 49/61/31 50/62/31 48/60/30
f 49/61/31 48/60/30 47/59/30
f 51/63/32 52/64/32 50/62/31
f 51/63/32 50/62/31 49/61/31
f 40/65/26 39/66/26 52/64/32
f 40/65/26 52/64/32 51/63/32
f 53/67/33 54/68/34 55/69/35
f 53/67/33 55/69/35 56/70/36
f 57/71/37 58/72/38 54/68/34
f 57/71/37 54/68/34 53/67/33
f 59/73/39 60/74/40 58/72/38
f 59/73/39 58/72/38 57/71/37
f 61/75/41 62/76/42 60/74/40
f 61/75/41 60/74/40 59/73/39
f 63/77/43 64/78/44 62/76/42
f 63/77/43 62/76/42 61/75/41
f 65/79/45 66/80/46 64/78/44
f 65/79/45 64/78/44 63/77/43
f 67/81/47 68/82/48 66/80/46
f 67/81/47 66/80/46 65/79/45
f 56/83/36 55/84/35 68/82/48
f 56/83/36 68/82/48 67/81/47
f 19/25/16 54/85/34 58/86/38
f 19/25/16 58/86/38 17/26/14
f 19/25/16 55/87/35 54/85/34
f 19/28/16 20/27/17 68/88/48
f 19/28/16 68/88/48 55/89/35
f 20/30/17 66/90/46 68/91/48
f 20/30/17 18/29/15 64/92/44
f 20/30/17 64/92/44 66/90/46
f 18/29/15 62/93/42 64/92/44
f 17/23/14 60/94/40 62/95/42
f 17/23/14 62/95/42 18/24/15
f 17/26/14 58/86/38 60/96/40
f 69/97/49 70/98/50 23/99/50
f 69/97/49 23/99/50 22/100/49
f 71/101/51 69/97/49 22/100/49
f 71/101/51 22/100/49 26/102/51
f 72/103/52 71/101/51 26/102/51
f 72/103/52 26/102/51 28/104/52
f 73/105/53 72/103/52 28/104/52
f 73/105/53 28/104/52 30/106/53
f 74/107/54 73/105/53 30/106/53
f 74/107/54 30/106/53 32/108/54
f 75/109/55 74/107/54 32/108/54
f 75/109/55 32/108/54 34/110/55
f 76/111/56 75/109/55 34/110/55
f 76/111/56 34/110/55 36/112/56
f 70/113/50 76/111/56 36/112/56
f 70/113/50 36/112/56 23/114/50
f 37/49/57 40/52/58 70/98/58
f 37/49/57 70/98/58 69/97/57
f 41/53/59 37/49/57 69/97/57
f 41/53/59 69/97/57 71/101/59
f 43/55/60 41/53/59 71/101/59
f 43/55/60 71/101/59 72/103/60
f 45/57/61 43/55/60 72/103/60
f 45/57/61 72/103/60 73/105/61
f 47/59/62 45/57/61 73/105/61
f 47/59/62 73/105/61 74/107/62
f 49/61/63 47/59/62 74/107/62
f 49/61/63 74/107/62 75/109/63
f 51/63/64 49/61/63 75/109/63
f 51/63/64 75/109/63 76/111/64
f 40/65/58 51/63/64 76/111/64
f 40/65/58 76/111/64 70/113/58
f 53/67/33 56/70/36 77/115/65
f 53/67/33 77/115/65 78/116/66
f 57/71/37 53/67/33 78/116/66
f 57/71/37 78/116/66 79/117/67
f 59/73/39 57/71/37 79/117/67
f 59/73/39 79/117/67 80/118/68
f 61/75/41 59/73/39 80/118/68
f 61/75/41 80/118/68 81/119/69
f 63/77/43 61/75/41 81/119/69
f 63/77/43 81/119/69 82/120/70
f 65/79/45 63/77/43 82/120/70
f 65/79/45 82/120/70 83/121/71
f 67/81/47 65/79/45 83/121/71
f 67/81/47 83/121/71 84/122/72
f 56/83/36 67/81/47 84/122/72
f 56/83/36 84/122/72 77/123/65
f 78/116/66 77/115/65 39/51/73
f 78/116/66 39/51/73 38/50/74
f 79/117/67 78/116/66 38/50/74
f 79/117/67 38/50/74 42/54/75
f 80/118/68 79/117/67 42/54/75
f 80/118/68 42/54/75 44/56/76
f 81/119/69 80/118/68 44/56/76
f 81/119/69 44/56/76 46/58/77
f 82/120/70 81/119/69 46/58/77
f 82/120/70 46/58/77 48/60/78
f 83/121/71 82/120/70 48/60/78
f 83/121/71 48/60/78 50/62/79
f 84/122/72 83/121/71 50/62/79
f 84/122/72 50/62/79 52/64/80
f 77/123/65 84/122/72 52/64/80
f 77/123/65 52/64/80 39/66/73
f 85/124/81 86/125/81 87/126/81
f 85/124/81 87/126/81 88/127/81
f 89/128/82 90/129/82 86/125/82
f 89/128/82 86/125/82 85/124/82
f 91/130/20 92/131/20 90/129/20
f 91/130/20 90/129/20 89/128/20
f 88/132/21 87/133/21 92/131/21
f 88/132/21 92/131/21 91/130/21
f 1/134/81 4/135/81 93/136/81
f 1/134/81 93/136/81 94/137/81
f 2/138/82 1/134/82 94/137/82
f 2/138/82 94/137/82 95/139/82
f 3/140/20 2/141/20 95/142/20
f 3/140/20 95/142/20 96/143/20
f 4/135/21 3/140/21 96/143/21
f 4/135/21 96/143/21 93/136/21
f 6/6/1 85/124/1 88/127/1
f 6/6/1 88/127/1 7/7/1
f 10/10/1 89/128/1 85/124/1
f 10/10/1 85/124/1 6/6/1
f 12/12/1 91/130/1 89/128/1
f 12/12/1 89/128/1 10/10/1
f 7/14/1 88/132/1 91/130/1
f 7/14/1 91/130/1 12/12/1
f 93/136/83 87/144/83 86/145/83
f 93/136/83 86/145/83 94/137/83
f 96/143/83 92/146/83 87/147/83
f 96/143/83 87/147/83 93/136/83
f 95/142/83 90/148/83 92/149/83
f 95/142/83 92/149/83 96/143/83
f 94/137/83 86/150/83 90/151/83
f 94/137/83 90/151/83 95/139/83
