v -0.075015 0.000000 20.860723
v -0.075015 0.000000 28.083115
v -39.236416 0.000000 28.083185
v -39.236416 0.000000 20.860834
v -0.075015 1.232887 28.083115
v -39.236416 1.232887 28.083185
v -0.075015 1.481438 27.834564
v -0.075015 1.481438 20.284035
v -39.236416 1.481438 20.284115
v -39.236416 1.481438 27.834616
v -0.075015 0.825218 20.035484
v -39.236416 0.825218 20.035543
v -78.293396 0.000000 28.083115
v -78.293396 0.000000 20.860723
v -78.293396 1.232887 28.083115
v -78.293396 1.481438 20.284044
v -78.293396 1.481438 27.834564
v -78.293396 0.825218 20.035484
v -39.236416 1.232887 20.035543
v -0.075015 1.232887 20.035494
v -78.293396 1.232887 20.035484
v -90.251846 0.825218 20.035465
v -90.251846 1.232887 20.035465
v -90.500412 1.481438 20.284025
v -91.077118 0.000000 20.860723
v -98.299576 0.000000 28.083195
v -98.299591 1.232887 28.083195
v -98.051010 1.481438 27.834635
v -90.251862 0.825218 8.077004
v -90.251877 0.825218 0.000004
v -90.251877 1.232887 0.000004
v -90.251862 1.232887 8.077004
v -90.500443 1.481438 0.000004
v -90.500427 1.481438 8.077004
v -98.299500 0.000000 8.077015
v -91.077118 0.000000 8.077015
v -98.299500 1.232887 8.077015
v -98.050949 1.481438 8.077015
v -98.299515 0.000000 0.000004
v -91.077133 0.000000 0.000004
v -98.299515 1.232887 0.000004
v -98.050964 1.481438 0.000004
v -39.236416 0.000000 -28.083178
v -0.075015 0.000000 -28.083107
v -0.075015 0.000000 -20.860725
v -39.236416 0.000000 -20.860836
v -39.236416 1.232887 -28.083178
v -0.075015 1.232887 -28.083107
v -39.236416 1.481438 -20.284117
v -0.075015 1.481438 -20.284037
v -0.075015 1.481438 -27.834566
v -39.236416 1.481438 -27.834616
v -0.075015 0.825218 -20.035486
v -39.236416 0.825218 -20.035536
v -78.293381 0.000000 -20.860725
v -78.293381 0.000000 -28.083107
v -78.293381 1.232887 -28.083107
v -78.293381 1.481438 -27.834566
v -78.293381 1.481438 -20.284037
v -78.293381 0.825218 -20.035486
v -0.075015 1.232887 -20.035486
v -39.236416 1.232887 -20.035536
v -78.293381 1.232887 -20.035486
v -90.251862 1.232887 -20.035456
v -90.251862 0.825218 -20.035456
v -90.500412 1.481438 -20.284018
v -91.077118 0.000000 -20.860725
v -98.299591 0.000000 -28.083187
v -98.299591 1.232887 -28.083197
v -98.050995 1.481438 -27.834627
v -90.251877 0.825218 -8.077006
v -90.251877 1.232887 -8.077006
v -90.500412 1.481438 -8.077006
v -91.077118 0.000000 -8.077006
v -98.299484 0.000000 -8.077006
v -98.299484 1.232887 -8.077006
v -98.050949 1.481438 -8.077006
v 39.086395 0.000000 28.083185
v 39.086395 0.000000 20.860846
v 39.086395 1.232887 28.083185
v 39.086395 1.481438 20.284103
v 39.086395 1.481438 27.834623
v 39.086395 0.825218 20.035543
v 78.143372 0.000000 20.860723
v 78.143372 0.000000 28.083105
v 78.143372 1.232887 28.083105
v 78.143372 1.481438 27.834574
v 78.143372 1.481438 20.284035
v 78.143372 0.825218 20.035475
v 39.086395 1.232887 20.035543
v 78.143372 1.232887 20.035505
v 90.251862 1.232887 20.035454
v 90.251862 0.825218 20.035454
v 90.500412 1.481438 20.284035
v 91.077118 0.000000 20.860723
v 98.299576 0.000000 28.083185
v 98.299591 1.232887 28.083204
v 98.051010 1.481438 27.834623
v 90.251892 1.232887 0.000004
v 90.251892 0.825218 0.000004
v 90.251892 0.825218 8.077004
v 90.251892 1.232887 8.077004
v 90.500443 1.481438 0.000004
v 90.500427 1.481438 8.077004
v 91.077118 0.000000 8.077004
v 98.299515 0.000000 8.077004
v 98.299515 1.232887 8.077004
v 98.050949 1.481438 8.077004
v 98.299515 0.000000 0.000004
v 91.077133 0.000000 0.000004
v 98.299515 1.232887 0.000004
v 98.050949 1.481438 0.000004
v 39.086395 0.000000 -28.083178
v 39.086395 0.000000 -20.860836
v 39.086395 1.232887 -28.083178
v 39.086395 1.481438 -20.284107
v 39.086395 1.481438 -27.834616
v 39.086395 0.825218 -20.035536
v 78.143372 0.000000 -28.083107
v 78.143372 0.000000 -20.860716
v 78.143372 1.232887 -28.083107
v 78.143372 1.481438 -20.284037
v 78.143372 1.481438 -27.834566
v 78.143372 0.825218 -20.035486
v 39.086395 1.232887 -20.035536
v 78.143372 1.232887 -20.035486
v 90.251862 0.825218 -20.035456
v 90.251862 1.232887 -20.035456
v 90.500412 1.481438 -20.284018
v 91.077133 0.000000 -20.860725
v 98.299591 0.000000 -28.083187
v 98.299591 1.232887 -28.083204
v 98.051010 1.481438 -27.834627
v 90.251892 0.825218 -8.076996
v 90.251892 1.232887 -8.076996
v 90.500412 1.481438 -8.076996
v 98.299484 0.000000 -8.076996
v 91.077133 0.000000 -8.076996
v 98.299484 1.232887 -8.076996
v 98.050949 1.481438 -8.076996
vt 0.989700 -0.570500
vt 0.989700 -0.751300
vt 0.011100 -0.751300
vt 0.011100 -0.570500
vt 0.989700 -0.782100
vt 0.011100 -0.782100
vt 0.989700 -0.344400
vt 0.989700 -0.533400
vt 0.011100 -0.533400
vt 0.011100 -0.344400
vt 0.989700 -0.549800
vt 0.011100 -0.549800
vt 0.989700 -0.338200
vt 0.011100 -0.338200
vt 0.988700 -0.751300
vt 0.988700 -0.570500
vt 0.988700 -0.782100
vt 0.988700 -0.533400
vt 0.988700 -0.344400
vt 0.988700 -0.549800
vt 0.988700 -0.338200
vt 0.011100 -0.539600
vt 0.989700 -0.539600
vt 0.988700 -0.539600
vt 0.689300 -0.549800
vt 0.689300 -0.539600
vt 0.683100 -0.533400
vt 0.668700 -0.570500
vt 0.487900 -0.751300
vt 0.487900 -0.782100
vt 0.494100 -0.344400
vt 0.487900 -0.338200
vt 0.786500 -0.549800
vt 0.786500 -0.539600
vt 0.786500 -0.533400
vt 0.786500 -0.751300
vt 0.786500 -0.570500
vt 0.786500 -0.782100
vt 0.786500 -0.344400
vt 0.786500 -0.338200
vn 0.000000 -1.000000 -0.000000
vn 0.000000 -1.000000 0.000000
vn 0.000000 -0.000000 1.000000
vn 0.000000 0.000000 1.000000
vn -0.000000 1.000000 -0.000000
vn 0.000000 1.000000 -0.000000
vn -0.000000 1.000000 0.000000
vn 0.000000 -0.707100 -0.707100
vn -0.000000 -0.707100 -0.707100
vn -0.000000 0.707100 0.707100
vn -0.000000 -1.000000 0.000000
vn 0.000000 1.000000 0.000000
vn 0.000000 0.707100 0.707100
vn 0.000000 0.000000 -1.000000
vn -0.000000 0.707200 -0.707100
vn 0.000000 0.707100 -0.707100
vn 1.000000 0.000000 -0.000000
vn 0.707100 0.707100 -0.000000
vn -0.000000 -1.000000 -0.000000
vn -1.000000 -0.000000 -0.000000
vn -1.000000 0.000000 -0.000000
vn 0.707100 -0.707100 0.000000
vn 0.707100 -0.707100 -0.000000
vn -0.707100 0.707100 -0.000000
vn -0.000000 0.000000 -1.000000
vn 0.000000 -0.707100 0.707100
vn -0.000000 0.707100 -0.707100
vn 0.000000 -0.000000 -1.000000
vn -0.000000 0.000000 1.000000
vn -0.000000 0.707200 0.707100
vn -0.000000 -0.707100 0.707100
vn 1.000000 0.000000 0.000000
vn 0.707100 0.707100 0.000000
vn -1.000000 0.000000 0.000000
vn -0.707100 0.707100 0.000000
vn -0.707100 0.707200 0.000000
vn -0.000000 -0.000000 1.000000
vn -0.000000 0.000100 -1.000000
vn 0.000000 0.707200 -0.707100
vn 1.000000 -0.000000 -0.000000
vn -0.707100 -0.707100 0.000000
vn -0.707100 -0.707100 -0.000000
vn -0.000000 -0.000000 -1.000000
vn 0.707100 0.707200 0.000000
usemtl sponza/arch
f 1/1/1 2/2/1 3/3/2
f 1/1/1 3/3/2 4/4/1
f 2/2/3 5/5/3 6/6/3
f 2/2/3 6/6/3 3/3/4
f 7/7/5 8/8/6 9/9/7
f 7/7/5 9/9/7 10/10/5
f 11/11/8 1/1/8 4/4/9
f 11/11/8 4/4/9 12/12/9
f 5/13/10 7/7/10 10/10/10
f 5/13/10 10/10/10 6/14/10
f 3/3/2 13/15/11 14/16/11
f 3/3/2 14/16/11 4/4/1
f 6/6/3 15/17/4 13/15/3
f 6/6/3 13/15/3 3/3/4
f 9/9/7 16/18/12 17/19/12
f 9/9/7 17/19/12 10/10/5
f 4/4/9 14/16/8 18/20/8
f 4/4/9 18/20/8 12/12/9
f 10/10/10 17/19/13 15/21/13
f 10/10/10 15/21/13 6/14/10
f 12/12/14 19/22/14 20/23/14
f 12/12/14 20/23/14 11/11/14
f 19/22/15 9/9/15 8/8/16
f 19/22/15 8/8/16 20/23/16
f 19/22/14 12/12/14 18/20/14
f 19/22/14 18/20/14 21/24/14
f 9/9/15 19/22/15 21/24/16
f 9/9/15 21/24/16 16/18/16
f 18/20/14 22/25/14 23/26/14
f 18/20/14 23/26/14 21/24/14
f 16/18/16 21/24/16 23/26/16
f 16/18/16 23/26/16 24/27/16
f 25/28/11 14/16/11 13/15/11
f 25/28/11 13/15/11 26/29/1
f 13/15/3 15/17/4 27/30/3
f 13/15/3 27/30/3 26/29/3
f 17/19/12 16/18/12 24/27/7
f 17/19/12 24/27/7 28/31/7
f 22/25/9 18/20/8 14/16/8
f 22/25/9 14/16/8 25/28/9
f 15/21/13 17/19/13 28/31/13
f 15/21/13 28/31/13 27/32/13
f 29/20/17 30/33/17 31/34/17
f 29/20/17 31/34/17 32/24/17
f 32/24/18 31/34/18 33/35/18
f 32/24/18 33/35/18 34/18/18
f 23/26/17 22/25/17 29/20/17
f 23/26/17 29/20/17 32/24/17
f 34/18/18 24/27/18 23/26/18
f 34/18/18 23/26/18 32/24/18
f 25/28/11 26/29/1 35/15/19
f 25/28/11 35/15/19 36/16/19
f 27/30/20 37/17/21 35/15/20
f 27/30/20 35/15/20 26/29/20
f 24/27/7 34/18/7 38/19/7
f 24/27/7 38/19/7 28/31/7
f 22/25/22 25/28/22 36/16/23
f 22/25/22 36/16/23 29/20/23
f 28/31/24 38/19/24 37/21/24
f 28/31/24 37/21/24 27/32/24
f 36/16/19 35/15/19 39/36/19
f 36/16/19 39/36/19 40/37/11
f 35/15/20 37/17/21 41/38/21
f 35/15/20 41/38/21 39/36/21
f 38/19/7 34/18/7 33/35/5
f 38/19/7 33/35/5 42/39/5
f 29/20/23 36/16/23 40/37/23
f 29/20/23 40/37/23 30/33/23
f 37/21/24 38/19/24 42/39/24
f 37/21/24 42/39/24 41/40/24
f 43/3/1 44/2/1 45/1/19
f 43/3/1 45/1/19 46/4/1
f 47/6/25 48/5/14 44/2/25
f 47/6/25 44/2/25 43/3/25
f 49/9/5 50/8/6 51/7/6
f 49/9/5 51/7/6 52/10/5
f 46/4/26 45/1/26 53/11/26
f 46/4/26 53/11/26 54/12/26
f 52/10/27 51/7/27 48/13/27
f 52/10/27 48/13/27 47/14/27
f 55/16/19 56/15/19 43/3/1
f 55/16/19 43/3/1 46/4/1
f 56/15/28 57/17/14 47/6/25
f 56/15/28 47/6/25 43/3/25
f 58/19/6 59/18/6 49/9/5
f 58/19/6 49/9/5 52/10/5
f 60/20/26 55/16/26 46/4/26
f 60/20/26 46/4/26 54/12/26
f 57/21/16 58/19/16 52/10/27
f 57/21/16 52/10/27 47/14/27
f 61/23/29 62/22/29 54/12/29
f 61/23/29 54/12/29 53/11/4
f 50/8/10 49/9/30 62/22/30
f 50/8/10 62/22/30 61/23/10
f 60/20/4 54/12/29 62/22/29
f 60/20/4 62/22/29 63/24/4
f 63/24/13 62/22/30 49/9/30
f 63/24/13 49/9/30 59/18/13
f 64/26/4 65/25/4 60/20/4
f 64/26/4 60/20/4 63/24/4
f 59/18/13 66/27/13 64/26/13
f 59/18/13 64/26/13 63/24/13
f 67/28/19 68/29/1 56/15/19
f 67/28/19 56/15/19 55/16/19
f 69/30/28 57/17/14 56/15/28
f 69/30/28 56/15/28 68/29/28
f 66/27/5 59/18/6 58/19/6
f 66/27/5 58/19/6 70/31/5
f 65/25/31 67/28/31 55/16/26
f 65/25/31 55/16/26 60/20/26
f 70/31/16 58/19/16 57/21/16
f 70/31/16 57/21/16 69/32/16
f 31/34/17 30/33/17 71/20/32
f 31/34/17 71/20/32 72/24/32
f 33/35/18 31/34/18 72/24/33
f 33/35/18 72/24/33 73/18/33
f 71/20/32 65/25/32 64/26/32
f 71/20/32 64/26/32 72/24/32
f 73/18/33 72/24/33 64/26/33
f 73/18/33 64/26/33 66/27/18
f 67/28/19 74/16/11 75/15/11
f 67/28/19 75/15/11 68/29/1
f 75/15/34 76/17/34 69/30/34
f 75/15/34 69/30/34 68/29/34
f 77/19/5 73/18/5 66/27/5
f 77/19/5 66/27/5 70/31/5
f 65/25/23 71/20/22 74/16/22
f 65/25/23 74/16/22 67/28/23
f 76/21/35 77/19/35 70/31/36
f 76/21/35 70/31/36 69/32/36
f 39/36/19 75/15/11 74/16/11
f 39/36/19 74/16/11 40/37/11
f 41/38/21 76/17/34 75/15/34
f 41/38/21 75/15/34 39/36/21
f 33/35/5 73/18/5 77/19/5
f 33/35/5 77/19/5 42/39/5
f 40/37/23 74/16/22 71/20/22
f 40/37/23 71/20/22 30/33/23
f 42/39/24 77/19/35 76/21/35
f 42/39/24 76/21/35 41/40/24
f 78/3/11 2/2/1 1/1/1
f 78/3/11 1/1/1 79/4/19
f 80/6/3 5/5/3 2/2/3
f 80/6/3 2/2/3 78/3/4
f 81/9/12 8/8/6 7/7/5
f 81/9/12 7/7/5 82/10/6
f 79/4/9 1/1/8 11/11/8
f 79/4/9 11/11/8 83/12/9
f 82/10/13 7/7/10 5/13/10
f 82/10/13 5/13/10 80/14/13
f 84/16/2 85/15/2 78/3/11
f 84/16/2 78/3/11 79/4/19
f 85/15/37 86/17/29 80/6/3
f 85/15/37 80/6/3 78/3/4
f 87/19/7 88/18/7 81/9/12
f 87/19/7 81/9/12 82/10/6
f 89/20/9 84/16/9 79/4/9
f 89/20/9 79/4/9 83/12/9
f 86/21/10 87/19/10 82/10/13
f 86/21/10 82/10/13 80/14/13
f 20/23/14 90/22/25 83/12/25
f 20/23/14 83/12/25 11/11/14
f 8/8/16 81/9/16 90/22/16
f 8/8/16 90/22/16 20/23/16
f 89/20/38 83/12/25 90/22/25
f 89/20/38 90/22/25 91/24/38
f 91/24/27 90/22/16 81/9/16
f 91/24/27 81/9/16 88/18/27
f 92/26/25 93/25/25 89/20/38
f 92/26/25 89/20/38 91/24/38
f 88/18/27 94/27/39 92/26/15
f 88/18/27 92/26/15 91/24/27
f 95/28/2 96/29/1 85/15/2
f 95/28/2 85/15/2 84/16/2
f 97/30/37 86/17/29 85/15/37
f 97/30/37 85/15/37 96/29/37
f 94/27/12 88/18/7 87/19/7
f 94/27/12 87/19/7 98/31/12
f 93/25/8 95/28/8 84/16/9
f 93/25/8 84/16/9 89/20/9
f 98/31/30 87/19/10 86/21/10
f 98/31/30 86/21/10 97/32/30
f 99/34/21 100/33/21 101/20/21
f 99/34/21 101/20/21 102/24/21
f 103/35/35 99/34/24 102/24/24
f 103/35/35 102/24/24 104/18/24
f 101/20/21 93/25/21 92/26/21
f 101/20/21 92/26/21 102/24/21
f 104/18/24 102/24/24 92/26/24
f 104/18/24 92/26/24 94/27/24
f 95/28/2 105/16/1 106/15/1
f 95/28/2 106/15/1 96/29/1
f 106/15/40 107/17/17 97/30/40
f 106/15/40 97/30/40 96/29/40
f 108/19/12 104/18/12 94/27/12
f 108/19/12 94/27/12 98/31/12
f 93/25/41 101/20/42 105/16/42
f 93/25/41 105/16/42 95/28/41
f 107/21/18 108/19/18 98/31/18
f 107/21/18 98/31/18 97/32/18
f 109/36/1 106/15/1 105/16/1
f 109/36/1 105/16/1 110/37/2
f 111/38/17 107/17/17 106/15/40
f 111/38/17 106/15/40 109/36/17
f 103/35/6 104/18/12 108/19/12
f 103/35/6 108/19/12 112/39/6
f 110/37/42 105/16/42 101/20/42
f 110/37/42 101/20/42 100/33/42
f 112/39/18 108/19/18 107/21/18
f 112/39/18 107/21/18 111/40/18
f 45/1/19 44/2/1 113/3/19
f 45/1/19 113/3/19 114/4/19
f 44/2/25 48/5/14 115/6/14
f 44/2/25 115/6/14 113/3/14
f 51/7/6 50/8/6 116/9/6
f 51/7/6 116/9/6 117/10/6
f 53/11/26 45/1/26 114/4/31
f 53/11/26 114/4/31 118/12/31
f 48/13/27 51/7/27 117/10/16
f 48/13/27 117/10/16 115/14/16
f 113/3/19 119/15/1 120/16/1
f 113/3/19 120/16/1 114/4/19
f 115/6/14 121/17/25 119/15/43
f 115/6/14 119/15/43 113/3/14
f 116/9/6 122/18/5 123/19/5
f 116/9/6 123/19/5 117/10/6
f 114/4/31 120/16/31 124/20/31
f 114/4/31 124/20/31 118/12/31
f 117/10/16 123/19/27 121/21/27
f 117/10/16 121/21/27 115/14/16
f 118/12/29 125/22/29 61/23/29
f 118/12/29 61/23/29 53/11/4
f 125/22/13 116/9/13 50/8/10
f 125/22/13 50/8/10 61/23/10
f 125/22/29 118/12/29 124/20/29
f 125/22/29 124/20/29 126/24/29
f 116/9/13 125/22/13 126/24/10
f 116/9/13 126/24/10 122/18/10
f 124/20/29 127/25/29 128/26/29
f 124/20/29 128/26/29 126/24/29
f 122/18/10 126/24/10 128/26/10
f 122/18/10 128/26/10 129/27/10
f 130/28/1 120/16/1 119/15/1
f 130/28/1 119/15/1 131/29/1
f 119/15/43 121/17/25 132/30/43
f 119/15/43 132/30/43 131/29/43
f 123/19/5 122/18/5 129/27/6
f 123/19/5 129/27/6 133/31/6
f 127/25/26 124/20/31 120/16/31
f 127/25/26 120/16/31 130/28/26
f 121/21/27 123/19/27 133/31/27
f 121/21/27 133/31/27 132/32/27
f 134/20/34 100/33/21 99/34/21
f 134/20/34 99/34/21 135/24/34
f 135/24/35 99/34/24 103/35/35
f 135/24/35 103/35/35 136/18/35
f 128/26/34 127/25/34 134/20/34
f 128/26/34 134/20/34 135/24/34
f 136/18/35 129/27/24 128/26/35
f 136/18/35 128/26/35 135/24/35
f 130/28/1 131/29/1 137/15/2
f 130/28/1 137/15/2 138/16/2
f 132/30/32 139/17/32 137/15/32
f 132/30/32 137/15/32 131/29/32
f 129/27/6 136/18/6 140/19/6
f 129/27/6 140/19/6 133/31/6
f 127/25/42 130/28/42 138/16/41
f 127/25/42 138/16/41 134/20/41
f 133/31/44 140/19/33 139/21/33
f 133/31/44 139/21/33 132/32/44
f 138/16/2 137/15/2 109/36/1
f 138/16/2 109/36/1 110/37/2
f 137/15/32 139/17/32 111/38/17
f 137/15/32 111/38/17 109/36/17
f 140/19/6 136/18/6 103/35/6
f 140/19/6 103/35/6 112/39/6
f 134/20/41 138/16/41 110/37/42
f 134/20/41 110/37/42 100/33/42
f 139/21/33 140/19/33 112/39/18
f 139/21/33 112/39/18 111/40/18
