v 0.293915 16.951252 -0.832432
v 2.758896 16.701992 -0.832432
v 1.359406 14.848882 -0.832443
v -0.040094 14.947711 -0.832443
v -4.238575 14.420699 0.832447
v -2.091627 14.821221 0.832447
v -0.040094 14.947711 0.832447
v 5.255703 13.989730 0.832436
v 1.359406 14.848882 0.832447
v 3.395027 14.517980 0.832436
v -5.542635 13.924321 0.832447
v -5.542635 13.924321 -0.832443
v -7.627796 15.749942 -0.832432
v -6.305996 15.743011 -0.832432
v -4.238575 14.420699 -0.832443
v -4.763367 16.253410 -0.832432
v -2.870886 16.700981 -0.832432
v -2.091627 14.821221 -0.832443
v -0.803547 16.951252 -0.832432
v 4.555946 16.280842 -0.832432
v 3.395027 14.517989 -0.832443
v 5.780495 15.832179 -0.832432
v 5.255695 13.989741 -0.832443
v 7.627785 15.868239 -0.832432
v -6.551977 1.159970 -0.397057
v -6.513996 12.719232 -0.397045
v -5.557465 11.822671 0.070969
v -5.633406 1.993961 0.070969
v -5.633406 1.993961 0.832447
v -5.557465 11.822671 0.832447
v 5.490234 11.801200 0.832436
v 5.585136 2.080791 0.832447
v 5.490234 11.801200 0.070942
v 5.585136 2.080791 0.070969
v 7.293705 0.340330 -0.832432
v 7.307777 0.325991 -0.832432
v 7.293705 0.325991 -0.832432
v 6.866566 0.775440 -0.832432
v 6.842834 13.162150 -0.832432
v 7.293705 13.615802 -0.832432
v 7.627785 0.000000 -0.832432
v -7.627796 0.000000 -0.832443
v -7.470547 0.325981 -0.832443
v -7.470547 13.615802 -0.832432
v 6.439415 1.210561 -0.397045
v -6.992266 13.167510 -0.832432
v -7.011255 0.742981 -0.832443
v 6.391975 12.708501 -0.397057
v 7.627796 0.000000 0.224373
v -7.627775 0.000000 0.224373
v -7.627796 15.749932 0.224373
v 7.627796 15.868239 0.224373
v 5.780506 15.832179 0.224373
v 4.555946 16.280842 0.224373
v 2.758896 16.701992 0.224373
v 0.293924 16.951252 0.224373
v -0.803547 16.951252 0.224373
v -2.870886 16.700981 0.224373
v -4.763367 16.253410 0.224373
v -6.305996 15.743011 0.224373
vt 0.664100 0.415500
vt 0.606800 0.409400
vt 0.639400 0.364000
vt 0.671900 0.366400
vt 0.769400 0.353500
vt 0.719500 0.363300
vt 0.548800 0.342900
vt 0.592100 0.355900
vt 0.799700 0.341300
vt 0.848100 0.386100
vt 0.817400 0.385900
vt 0.781600 0.398400
vt 0.737600 0.409400
vt 0.689600 0.415500
vt 0.565100 0.399100
vt 0.536600 0.388100
vt 0.493700 0.389000
vt 0.823100 0.028400
vt 0.822300 0.311800
vt 0.800000 0.289800
vt 0.801800 0.048900
vt 0.543400 0.289300
vt 0.541200 0.051000
vt 0.440800 0.167200
vt 0.472600 0.167200
vt 0.472600 0.203700
vt 0.440800 0.203700
vt 0.440800 0.375100
vt 0.472600 0.375100
vt 0.472600 0.578100
vt 0.440800 0.578100
vt 0.440800 0.348700
vt 0.472600 0.348700
vt 0.440800 0.307600
vt 0.472600 0.307600
vt 0.440800 0.268900
vt 0.472600 0.268900
vt 0.440800 0.242600
vt 0.472600 0.242600
vt 0.440800 0.081700
vt 0.472600 0.081700
vt 0.472600 0.289300
vt 0.440800 0.289300
vt 0.440800 0.089100
vt 0.472600 0.089100
vt 0.472600 0.281900
vt 0.440800 0.281900
vt 0.440800 0.080100
vt 0.472600 0.080100
vt 0.472600 0.290900
vt 0.440800 0.290900
vt 0.440800 0.088000
vt 0.472600 0.088000
vt 0.472600 0.283000
vt 0.440800 0.283000
vt 0.501500 0.008300
vt 0.501200 0.008000
vt 0.501500 0.008000
vt 0.511400 0.019000
vt 0.512000 0.322700
vt 0.501500 0.333800
vt 0.493700 0.000000
vt 0.848100 0.000000
vn 0.000000 -1.000000 -0.000000
vn -1.000000 -0.000000 0.000000
vn 1.000000 0.000000 -0.000000
vn -0.019500 0.999800 0.000000
vn 0.344000 0.939000 -0.000000
vn 0.228200 0.973600 0.000000
vn 0.100600 0.994900 -0.000000
vn -0.000000 1.000000 0.000000
vn -0.120200 0.992800 0.000000
vn -0.230100 0.973200 0.000000
vn -0.314100 0.949400 -0.000000
vn 0.005200 1.000000 -0.000000
f 41/62/1 49/62/1 50/63/1
f 41/62/1 50/63/1 42/63/1
f 42/63/2 50/63/2 51/10/2
f 42/63/2 51/10/2 13/10/2
f 24/17/3 52/17/3 49/62/3
f 24/17/3 49/62/3 41/62/3
f 22/16/4 53/16/4 52/17/4
f 22/16/4 52/17/4 24/17/4
f 20/15/5 54/15/5 53/16/5
f 20/15/5 53/16/5 22/16/5
f 2/2/6 55/2/6 54/15/6
f 2/2/6 54/15/6 20/15/6
f 1/1/7 56/1/7 55/2/7
f 1/1/7 55/2/7 2/2/7
f 19/14/8 57/14/8 56/1/8
f 19/14/8 56/1/8 1/1/8
f 17/13/9 58/13/9 57/14/9
f 17/13/9 57/14/9 19/14/9
f 16/12/10 59/12/10 58/13/10
f 16/12/10 58/13/10 17/13/10
f 14/11/11 60/11/11 59/12/11
f 14/11/11 59/12/11 16/12/11
f 13/10/12 51/10/12 60/11/12
f 13/10/12 60/11/12 14/11/12
