v -0.408806 0.000000 0.461250
v -0.408806 0.000000 -0.461250
v 0.750023 0.000000 -0.461250
v 0.750023 0.000000 0.461250
v 0.750023 1.309555 -0.461250
v -0.750031 1.309555 -0.461250
v -0.750031 1.309555 0.461250
v 0.750023 1.309555 0.461250
v -0.525482 0.190475 0.461250
v -0.525482 0.190475 -0.461250
v -0.750031 0.293938 -0.461250
v -0.750031 0.293938 0.461250
vt 0.652900 0.913200
vt 0.597900 0.913200
vt 0.597900 0.982300
vt 0.652900 0.982300
vt 0.597900 0.736600
vt 0.597900 0.826000
vt 0.652900 0.826000
vt 0.652900 0.736600
vt 0.515300 0.813800
vt 0.515300 0.882900
vt 0.526600 0.806800
vt 0.652900 0.899900
vt 0.597900 0.899900
vt 0.586600 0.906300
vt 0.593300 0.882900
vt 0.593300 0.793400
vt 0.597900 0.886500
vt 0.652900 0.886500
vt 0.519800 0.982300
vt 0.519900 0.892900
vt 0.532800 0.793400
vt 0.580400 0.892900
vn 0.000000 -1.000000 -0.000000
vn 0.000000 1.000000 -0.000000
vn 0.000000 0.000000 1.000000
vn -0.852700 -0.522300 -0.000000
vn -0.664300 -0.747500 -0.000000
vn -0.000000 -0.000000 -1.000000
vn -1.000000 0.000000 -0.000000
vn -0.418500 -0.908200 -0.000000
vn 0.000000 0.000000 -1.000000
f 1/1/1 2/2/1 3/3/1
f 1/1/1 3/3/1 4/4/1
f 5/5/2 6/6/2 7/7/2
f 5/5/2 7/7/2 8/8/2
f 1/9/3 4/10/3 9/11/3
f 1/1/4 9/12/5 10/13/5
f 1/1/4 10/13/5 2/2/4
f 2/2/6 10/14/6 3/3/6
f 9/11/3 4/10/3 8/15/3
f 9/11/3 8/15/3 7/16/3
f 11/17/7 12/18/7 7/7/7
f 11/17/7 7/7/7 6/6/7
f 5/19/6 3/3/6 10/14/6
f 5/19/6 10/14/6 6/20/6
f 7/16/3 12/21/3 9/11/3
f 12/18/8 11/17/8 10/13/5
f 12/18/8 10/13/5 9/12/5
f 10/14/6 11/22/9 6/20/6
