v -3.442726 18.818298 3.523550
v 3.442726 18.818298 3.523550
v 3.524036 18.818298 3.442240
v -3.524036 18.818298 -3.442230
v 3.524036 18.818298 -3.442230
v 3.442726 18.818298 -3.523550
v -3.442726 18.818298 -3.523550
v -3.524036 18.818298 3.442240
v 2.726986 1.320248 2.793760
v 2.719555 15.322350 2.793760
v -2.719555 15.322350 2.793760
v -2.726986 1.320248 2.793760
v 2.794140 1.320248 -2.726580
v 2.794140 15.322350 -2.719162
v 2.794140 15.322350 2.719168
v 2.794140 1.320248 2.726589
v -2.726986 1.320248 -2.793749
v -2.719555 15.322350 -2.793749
v 2.719555 15.322350 -2.793749
v 2.726986 1.320248 -2.793749
v -2.794147 1.320248 2.726589
v -2.794147 15.322350 2.719168
v -2.794147 15.322350 -2.719162
v -2.794147 1.320248 -2.726580
v 2.860073 16.355652 2.928308
v -2.860085 16.355659 2.928308
v -2.777885 15.709206 2.850689
v 2.777882 15.709206 2.850689
v 2.928722 16.355652 -2.859671
v 2.928722 16.355652 2.859678
v 2.851082 15.709206 2.777489
v 2.851082 15.709206 -2.777481
v -2.860085 16.355652 -2.928301
v 2.860073 16.355652 -2.928301
v 2.777882 15.709206 -2.850679
v -2.777885 15.709206 -2.850679
v -2.928726 16.355659 2.859678
v -2.928726 16.355652 -2.859671
v -2.851093 15.709206 -2.777481
v -2.851093 15.709206 2.777489
v 3.454021 17.945679 3.523550
v 3.450497 18.381981 3.523550
v -3.450497 18.381981 3.523550
v -3.454037 17.945679 3.523550
v 3.524036 17.945679 -3.453531
v 3.524036 18.381981 -3.449999
v 3.524036 18.381981 3.450010
v 3.524036 17.945679 3.453539
v -3.454037 17.945679 -3.523550
v -3.450497 18.381981 -3.523550
v 3.450497 18.381981 -3.523550
v 3.454021 17.945679 -3.523550
v -3.524036 17.945679 3.453539
v -3.524036 18.381981 3.450010
v -3.524036 18.381981 -3.449999
v -3.524036 17.945679 -3.453531
v 2.931953 15.515778 3.013350
v -2.931946 15.515778 3.013350
v 3.013763 15.515778 -2.931540
v 3.013763 15.515778 2.931540
v -2.931946 15.515778 -3.013351
v 2.931953 15.515778 -3.013351
v -3.013767 15.515778 2.931540
v -3.013767 15.515778 -2.931540
v 3.647285 18.600136 3.728088
v -3.647285 18.600136 3.728088
v 3.728615 18.600136 -3.646770
v 3.728615 18.600136 3.646780
v -3.647285 18.600136 -3.728090
v 3.647285 18.600136 -3.728090
v -3.728615 18.600136 3.646780
v -3.728615 18.600136 -3.646770
v -3.120205 17.255554 3.191160
v 3.120190 17.255554 3.191160
v 3.191597 17.255554 3.119759
v 3.191597 17.255554 -3.119761
v 3.120190 17.255554 -3.191149
v -3.120205 17.255554 -3.191149
v -3.191597 17.255554 -3.119761
v -3.191597 17.255554 3.119759
v -2.855728 1.162441 -2.786722
v -3.549564 0.470089 -3.463812
v -3.549564 0.470089 3.463820
v -2.855728 1.162441 2.786730
v -2.787128 1.162441 -2.855322
v -3.464314 0.470089 -3.549072
v 2.787121 1.162441 -2.855322
v 3.464302 0.470089 -3.549072
v 2.855724 1.162441 -2.786722
v 3.549561 0.470089 -3.463812
v 2.855724 1.162441 2.786730
v 3.549561 0.470089 3.463820
v 2.787121 1.162441 2.855330
v 3.464302 0.470089 3.549078
v -2.787128 1.162441 2.855330
v -3.464314 0.470089 3.549078
v -3.695236 0.470089 -3.524130
v -3.695236 0.235050 -3.524130
v -3.695236 0.235050 3.524160
v -3.695236 0.470089 3.524160
v -3.524658 0.470089 -3.694742
v -3.524658 0.235050 -3.694742
v 3.524647 0.470089 -3.694742
v 3.524647 0.235050 -3.694742
v 3.695232 0.470089 -3.524151
v 3.695232 0.235050 -3.524151
v 3.695232 0.470089 3.524149
v 3.695232 0.235050 3.524149
v 3.524647 0.470089 3.694738
v 3.524647 0.235050 3.694738
v -3.524658 0.470089 3.694738
v -3.524658 0.235050 3.694738
v -2.906918 1.241341 2.836668
v -2.906918 1.241341 -2.836660
v -2.837074 1.241341 -2.906521
v 2.837063 1.241341 -2.906521
v 2.906918 1.241341 -2.836660
v 2.906918 1.241341 2.836668
v 2.837063 1.241341 2.906519
v -2.837074 1.241341 2.906519
v -3.549564 0.000000 -3.463812
v -3.549564 0.000000 3.463820
v -3.549564 0.235050 3.463820
v -3.549564 0.235050 -3.463812
v -3.464314 0.000000 -3.549072
v -3.464314 0.235050 -3.549072
v 3.464302 0.000000 -3.549072
v 3.464302 0.235050 -3.549072
v 3.549561 0.000000 -3.463812
v 3.549561 0.235050 -3.463812
v 3.549561 0.000000 3.463820
v 3.549561 0.235050 3.463820
v 3.464302 0.000000 3.549078
v 3.464302 0.235050 3.549078
v -3.464314 0.000000 3.549078
v -3.464314 0.235050 3.549078
vt 0.165500 0.993800
vt 0.010900 0.993800
vt 0.009100 0.992400
vt 0.167400 0.876000
vt 0.009100 0.876000
vt 0.010900 0.874600
vt 0.165500 0.874600
vt 0.167400 0.992400
vt 0.742100 0.012200
vt 0.741800 0.767200
vt 0.500600 0.767200
vt 0.500300 0.012200
vt 0.986800 0.012200
vt 0.986500 0.767200
vt 0.745100 0.767200
vt 0.745100 0.012200
vt 0.252800 0.012200
vt 0.252500 0.767200
vt 0.011200 0.767200
vt 0.010900 0.012200
vt 0.497500 0.012200
vt 0.497100 0.767200
vt 0.255800 0.767200
vt 0.255800 0.012200
vt 0.347700 0.908900
vt 0.191600 0.908900
vt 0.193900 0.888500
vt 0.345500 0.888500
vt 0.552600 0.908400
vt 0.396500 0.908400
vt 0.398800 0.888100
vt 0.550400 0.888100
vt 0.761400 0.910000
vt 0.605300 0.910000
vt 0.607600 0.889700
vt 0.759200 0.889700
vt 0.965900 0.909600
vt 0.809800 0.909600
vt 0.812100 0.889200
vt 0.963700 0.889200
vt 0.363900 0.958900
vt 0.363800 0.972600
vt 0.175500 0.972600
vt 0.175400 0.958900
vt 0.568800 0.958400
vt 0.568700 0.972100
vt 0.380400 0.972100
vt 0.380300 0.958400
vt 0.777600 0.960000
vt 0.777500 0.973700
vt 0.589200 0.973700
vt 0.589100 0.960000
vt 0.982100 0.959600
vt 0.982000 0.973300
vt 0.793700 0.973300
vt 0.793600 0.959600
vt 0.741800 0.779000
vt 0.500500 0.779300
vt 0.995900 0.779100
vt 0.745300 0.779200
vt 0.252400 0.779000
vt 0.011100 0.779000
vt 0.496900 0.779300
vt 0.255900 0.779000
vt 0.189700 0.882500
vt 0.349700 0.882500
vt 0.394600 0.882000
vt 0.554600 0.882000
vt 0.603400 0.883600
vt 0.763400 0.883600
vt 0.807900 0.883200
vt 0.967900 0.883200
vt 0.369200 0.979400
vt 0.170100 0.979400
vt 0.574100 0.979000
vt 0.375100 0.979000
vt 0.782900 0.980600
vt 0.583900 0.980600
vt 0.987400 0.980100
vt 0.788400 0.980100
vt 0.363600 0.986300
vt 0.175700 0.986300
vt 0.568500 0.985900
vt 0.380600 0.985900
vt 0.777300 0.987500
vt 0.589400 0.987500
vt 0.981800 0.987000
vt 0.793900 0.987000
vt 0.184500 0.937200
vt 0.354800 0.937200
vt 0.389400 0.936700
vt 0.559700 0.936700
vt 0.598200 0.938300
vt 0.768500 0.938300
vt 0.802700 0.937900
vt 0.973000 0.937900
vt 0.975400 0.936800
vt 0.984900 0.958900
vt 0.007900 0.767200
vt 0.007900 0.012200
vt 0.348000 0.889500
vt 0.350300 0.908300
vt 0.602800 0.909400
vt 0.605000 0.890700
vt 0.807300 0.909000
vt 0.809500 0.890200
vt 0.984800 0.972100
vt 0.366500 0.958200
vt 0.366300 0.971400
vt 0.586700 0.972600
vt 0.586500 0.959300
vt 0.791200 0.972100
vt 0.791000 0.958900
vt 0.352300 0.885000
vt 0.970500 0.885700
vt 0.966400 0.890200
vt 0.600700 0.886200
vt 0.805200 0.885700
vt 0.007800 0.778900
vt 0.990700 0.980100
vt 0.371600 0.979400
vt 0.581500 0.980600
vt 0.786000 0.980100
vt 0.984200 0.989600
vt 0.366000 0.988900
vt 0.587100 0.990000
vt 0.791600 0.989600
vt 0.968600 0.909000
vt 0.357400 0.936000
vt 0.595700 0.937200
vt 0.800200 0.936700
vt 0.752100 0.867300
vt 0.740700 0.844000
vt 0.978700 0.844000
vt 0.967400 0.867300
vt 0.723100 0.867300
vt 0.734400 0.844000
vt 0.507700 0.868500
vt 0.496400 0.844000
vt 0.478700 0.868500
vt 0.490000 0.844000
vt 0.263400 0.868300
vt 0.252100 0.844000
vt 0.234400 0.868300
vt 0.245700 0.844000
vt 0.018500 0.868200
vt 0.009500 0.844700
vt 0.983300 0.843300
vt 0.983000 0.866500
vt 0.740400 0.839800
vt 0.740400 0.831800
vt 0.979000 0.831800
vt 0.979000 0.839800
vt 0.734700 0.839800
vt 0.734700 0.831800
vt 0.496100 0.839800
vt 0.496100 0.831800
vt 0.490300 0.839800
vt 0.490300 0.831800
vt 0.251800 0.839800
vt 0.251800 0.831800
vt 0.246000 0.839800
vt 0.246000 0.831800
vt 0.007500 0.839800
vt 0.007500 0.831800
vt 0.984700 0.831800
vt 0.984700 0.839800
vt 0.968200 0.870500
vt 0.751200 0.869900
vt 0.723900 0.869900
vt 0.506900 0.871100
vt 0.479600 0.871100
vt 0.262600 0.870900
vt 0.235200 0.870900
vt 0.016800 0.870800
vt 0.983000 0.870200
vt 0.745000 0.817900
vt 0.503600 0.817900
vt 0.503600 0.809700
vt 0.745000 0.809700
vt 0.747900 0.817900
vt 0.747900 0.809700
vt 0.989300 0.817900
vt 0.989300 0.809700
vt 0.992200 0.817900
vt 0.992200 0.809700
vt 0.256400 0.817900
vt 0.015000 0.817900
vt 0.015000 0.809700
vt 0.256400 0.809700
vt 0.259300 0.817900
vt 0.259300 0.809700
vt 0.500700 0.817900
vt 0.500700 0.809700
vt 0.255700 0.006200
vt 0.497400 0.006200
vt 0.011000 0.006200
vt 0.252700 0.006200
vt 0.745000 0.006200
vt 0.991700 0.006200
vt 0.500200 0.006200
vt 0.742000 0.006200
vt 0.007900 0.006200
vt 0.978700 0.827600
vt 0.740700 0.827600
vt 0.983300 0.827600
vt 0.245700 0.827600
vt 0.009500 0.827600
vt 0.252100 0.827600
vt 0.490000 0.827600
vt 0.496400 0.827600
vt 0.734400 0.827600
vn 0.000000 1.000000 -0.000000
vn 0.000000 0.000000 1.000000
vn 1.000000 0.000000 -0.000000
vn 0.000000 0.000000 -1.000000
vn -1.000000 0.000000 -0.000000
vn -0.000000 -0.210200 0.977700
vn -0.000000 -0.119200 0.992900
vn 0.000000 -0.119200 0.992900
vn 0.977700 -0.210200 -0.000000
vn 0.992900 -0.119200 -0.000000
vn 0.000000 -0.210200 -0.977700
vn 0.000000 -0.119200 -0.992900
vn -0.977700 -0.210200 0.000000
vn -0.992900 -0.119200 0.000000
vn -0.992900 -0.119200 -0.000000
vn 0.000000 -0.750400 0.661000
vn 0.660900 -0.750400 -0.000000
vn 0.000000 -0.750400 -0.661000
vn -0.661000 -0.750400 -0.000000
vn 0.000000 0.643600 0.765400
vn 0.765300 0.643600 -0.000000
vn 0.000000 0.643600 -0.765400
vn -0.765300 0.643600 -0.000000
vn 0.000000 -0.684000 0.729500
vn 0.729400 -0.684000 -0.000000
vn 0.000000 -0.684000 -0.729500
vn -0.729400 -0.684000 -0.000000
vn 0.000000 0.684000 0.729500
vn 0.729400 0.684000 -0.000000
vn 0.000000 0.684000 -0.729500
vn -0.729400 0.684000 -0.000000
vn -0.000000 -0.433900 0.900900
vn 0.000000 -0.433900 0.900900
vn -0.000000 -0.374300 0.927300
vn 0.900900 -0.434000 -0.000000
vn 0.927300 -0.374400 -0.000000
vn 0.000000 -0.433900 -0.900900
vn 0.000000 -0.374300 -0.927300
vn -0.900900 -0.434000 0.000000
vn -0.900900 -0.434000 -0.000000
vn -0.927300 -0.374400 0.000000
vn 0.707200 0.000400 0.707000
vn 0.707100 0.000400 0.707100
vn -0.584000 -0.563800 0.584000
vn -0.622400 -0.474600 0.622400
vn -0.622400 -0.474500 0.622400
vn 0.707200 0.000400 -0.707000
vn 0.707100 0.000400 -0.707100
vn -0.707100 0.000400 -0.707100
vn 0.696500 -0.172200 0.696500
vn 0.679200 -0.277700 0.679400
vn -0.707100 0.000400 0.707100
vn 0.696500 -0.172200 -0.696600
vn 0.679200 -0.277700 -0.679400
vn 0.696500 -0.172200 -0.696500
vn -0.696500 -0.172200 -0.696600
vn -0.679200 -0.277700 -0.679400
vn -0.707100 0.005700 0.707100
vn 0.707100 0.005700 0.707100
vn 0.707100 0.005700 -0.707100
vn -0.707100 0.005700 -0.707100
vn 0.462200 0.756800 0.462200
vn -0.462200 0.756800 0.462200
vn 0.462200 0.756800 -0.462200
vn -0.462200 0.756800 -0.462200
vn 0.378300 -0.844900 0.378300
vn -0.378300 -0.844900 0.378300
vn 0.378300 -0.844900 -0.378300
vn -0.378300 -0.844900 -0.378300
vn -0.430900 -0.792800 0.431000
vn -0.430900 -0.792800 0.430900
vn 0.430900 -0.792800 0.431000
vn 0.431000 -0.792800 0.431000
vn 0.430900 -0.792800 -0.431000
vn 0.430900 -0.792800 -0.430900
vn -0.430900 -0.792800 -0.431000
vn -0.431000 -0.792800 -0.431000
vn -0.425700 0.798400 0.425800
vn -0.425800 0.798400 0.425800
vn 0.425700 0.798400 0.425800
vn 0.425700 0.798400 0.425700
vn 0.425700 0.798400 -0.425800
vn 0.425800 0.798400 -0.425800
vn -0.425700 0.798400 -0.425800
vn -0.425700 0.798400 -0.425700
vn -0.679300 -0.277700 0.679300
vn -0.696500 -0.172200 0.696600
vn 0.622400 -0.474600 0.622400
vn 0.584000 -0.563800 0.584000
vn 0.622400 -0.474500 0.622400
vn 0.622400 -0.474500 -0.622400
vn 0.584000 -0.563800 -0.584000
vn 0.622400 -0.474600 -0.622400
vn -0.622400 -0.474600 -0.622400
vn -0.584000 -0.563800 -0.584000
vn -0.622400 -0.474500 -0.622400
vn -0.706300 0.707900 -0.000000
vn -0.410900 0.813800 -0.411000
vn -0.411000 0.813800 -0.411000
vn 0.000000 0.707800 -0.706400
vn 0.411000 0.813800 -0.411000
vn 0.410900 0.813800 -0.411000
vn 0.706300 0.707900 -0.000000
vn 0.411000 0.813800 0.411000
vn 0.000000 0.707800 0.706400
vn -0.410900 0.813800 0.411000
vn -0.411000 0.813800 0.410900
vn -0.707100 0.000000 -0.707100
vn 0.707100 0.000000 -0.707100
vn 0.707100 0.000000 0.707100
vn -0.707100 0.000000 0.707100
vn -0.838900 -0.544300 -0.000000
vn 0.000000 -0.544300 -0.838900
vn 0.838900 -0.544300 -0.000000
vn 0.000000 -0.544300 0.838900
vn -0.523900 -0.671500 0.523900
vn -0.524000 -0.671500 0.523900
vn -0.523900 -0.671600 0.523900
vn 0.524000 -0.671500 0.523900
vn -0.523900 -0.671600 -0.523900
vn -0.524000 -0.671600 -0.523900
vn -0.523900 -0.671500 -0.523900
vn -0.523900 -0.671500 -0.524000
vn 0.524000 -0.671500 -0.523900
vn -0.707200 0.000000 0.707100
vn -0.477200 0.868600 0.133600
vn -0.477200 0.868600 -0.133600
vn -0.418700 0.884700 -0.205200
vn -0.418700 0.884700 0.205200
vn -0.133700 0.868500 -0.477200
vn 0.133700 0.868600 -0.477200
vn 0.205200 0.884700 -0.418700
vn -0.205200 0.884700 -0.418700
vn 0.477200 0.868600 -0.133600
vn 0.477200 0.868600 0.133600
vn 0.418700 0.884700 0.205200
vn 0.418700 0.884700 -0.205200
vn 0.133700 0.868600 0.477200
vn -0.133700 0.868500 0.477200
vn -0.205200 0.884700 0.418700
vn 0.205200 0.884700 0.418700
vn 0.000000 -1.000000 -0.000000
f 1/1/1 2/2/1 3/3/1
f 1/1/1 3/3/1 4/4/1
f 3/3/1 5/5/1 6/6/1
f 3/3/1 6/6/1 4/4/1
f 6/6/1 7/7/1 4/4/1
f 8/8/1 1/1/1 4/4/1
f 9/9/2 10/10/2 11/11/2
f 9/9/2 11/11/2 12/12/2
f 13/13/3 14/14/3 15/15/3
f 13/13/3 15/15/3 16/16/3
f 17/17/4 18/18/4 19/19/4
f 17/17/4 19/19/4 20/20/4
f 21/21/5 22/22/5 23/23/5
f 21/21/5 23/23/5 24/24/5
f 25/25/6 26/26/6 27/27/7
f 25/25/6 27/27/7 28/28/8
f 29/29/9 30/30/9 31/31/10
f 29/29/9 31/31/10 32/32/10
f 33/33/11 34/34/11 35/35/12
f 33/33/11 35/35/12 36/36/12
f 37/37/13 38/38/13 39/39/14
f 37/37/13 39/39/14 40/40/15
f 41/41/2 42/42/2 43/43/2
f 41/41/2 43/43/2 44/44/2
f 45/45/3 46/46/3 47/47/3
f 45/45/3 47/47/3 48/48/3
f 49/49/4 50/50/4 51/51/4
f 49/49/4 51/51/4 52/52/4
f 53/53/5 54/54/5 55/55/5
f 53/53/5 55/55/5 56/56/5
f 57/57/16 58/58/16 11/11/16
f 57/57/16 11/11/16 10/10/16
f 59/59/17 60/60/17 15/15/17
f 59/59/17 15/15/17 14/14/17
f 61/61/18 62/62/18 19/19/18
f 61/61/18 19/19/18 18/18/18
f 63/63/19 64/64/19 23/23/19
f 63/63/19 23/23/19 22/22/19
f 28/28/20 27/27/20 58/65/20
f 28/28/20 58/65/20 57/66/20
f 32/32/21 31/31/21 60/67/21
f 32/32/21 60/67/21 59/68/21
f 36/36/22 35/35/22 62/69/22
f 36/36/22 62/69/22 61/70/22
f 40/40/23 39/39/23 64/71/23
f 40/40/23 64/71/23 63/72/23
f 65/73/24 66/74/24 43/43/24
f 65/73/24 43/43/24 42/42/24
f 67/75/25 68/76/25 47/47/25
f 67/75/25 47/47/25 46/46/25
f 69/77/26 70/78/26 51/51/26
f 69/77/26 51/51/26 50/50/26
f 71/79/27 72/80/27 55/55/27
f 71/79/27 55/55/27 54/54/27
f 2/81/28 1/82/28 66/74/28
f 2/81/28 66/74/28 65/73/28
f 5/83/29 3/84/29 68/76/29
f 5/83/29 68/76/29 67/75/29
f 7/85/30 6/86/30 70/78/30
f 7/85/30 70/78/30 69/77/30
f 8/87/31 4/88/31 72/80/31
f 8/87/31 72/80/31 71/79/31
f 41/41/32 44/44/33 73/89/34
f 41/41/32 73/89/34 74/90/34
f 45/45/35 48/48/35 75/91/36
f 45/45/35 75/91/36 76/92/36
f 49/49/37 52/52/37 77/93/38
f 49/49/37 77/93/38 78/94/38
f 53/53/39 56/56/40 79/95/41
f 53/53/39 79/95/41 80/96/41
f 74/90/34 73/89/34 26/26/6
f 74/90/34 26/26/6 25/25/6
f 76/92/36 75/91/36 30/30/9
f 76/92/36 30/30/9 29/29/9
f 78/94/38 77/93/38 34/34/11
f 78/94/38 34/34/11 33/33/11
f 80/96/41 79/95/41 38/38/13
f 80/96/41 38/38/13 37/37/13
f 16/16/42 15/15/43 10/10/43
f 16/16/42 10/10/43 9/9/42
f 53/53/44 80/96/45 73/97/46
f 53/53/44 73/97/46 44/98/44
f 20/20/47 19/19/48 14/99/48
f 20/20/47 14/99/48 13/100/47
f 24/24/49 23/23/49 18/18/49
f 24/24/49 18/18/49 17/17/49
f 31/101/50 30/102/51 25/25/51
f 31/101/50 25/25/51 28/28/50
f 22/22/52 21/21/52 12/12/52
f 22/22/52 12/12/52 11/11/52
f 35/35/53 34/34/54 29/103/54
f 35/35/53 29/103/54 32/104/55
f 39/39/56 38/38/57 33/105/57
f 39/39/56 33/105/57 36/106/56
f 44/98/58 43/107/58 54/54/58
f 44/98/58 54/54/58 53/53/58
f 48/108/59 47/109/59 42/42/59
f 48/108/59 42/42/59 41/41/59
f 52/52/60 51/51/60 46/110/60
f 52/52/60 46/110/60 45/111/60
f 56/56/61 55/55/61 50/112/61
f 56/56/61 50/112/61 49/113/61
f 28/28/62 57/66/62 60/114/62
f 28/28/62 60/114/62 31/101/62
f 40/40/63 63/72/63 58/115/63
f 40/40/63 58/115/63 27/116/63
f 32/104/64 59/117/64 62/69/64
f 32/104/64 62/69/64 35/35/64
f 36/106/65 61/118/65 64/71/65
f 36/106/65 64/71/65 39/39/65
f 57/57/66 10/10/66 15/15/66
f 57/57/66 15/15/66 60/60/66
f 63/63/67 22/22/67 11/11/67
f 63/63/67 11/11/67 58/58/67
f 59/119/68 14/99/68 19/19/68
f 59/119/68 19/19/68 62/62/68
f 61/61/69 18/18/69 23/23/69
f 61/61/69 23/23/69 64/64/69
f 43/107/70 66/120/70 71/79/70
f 43/107/70 71/79/70 54/54/71
f 47/109/72 68/121/72 65/73/72
f 47/109/72 65/73/72 42/42/73
f 51/51/74 70/78/74 67/122/74
f 51/51/74 67/122/74 46/110/75
f 55/55/76 72/80/76 69/123/76
f 55/55/76 69/123/76 50/112/77
f 66/120/78 1/124/79 8/87/78
f 66/120/78 8/87/78 71/79/78
f 68/121/80 3/125/81 2/81/80
f 68/121/80 2/81/80 65/73/80
f 70/78/82 6/86/83 5/126/82
f 70/78/82 5/126/82 67/122/82
f 72/80/84 4/88/85 7/127/84
f 72/80/84 7/127/84 69/123/84
f 37/37/86 40/40/87 27/116/87
f 37/37/86 27/116/87 26/128/86
f 75/129/88 48/108/89 41/41/89
f 75/129/88 41/41/89 74/90/90
f 77/93/91 52/52/92 45/111/92
f 77/93/91 45/111/92 76/130/93
f 79/95/94 56/56/95 49/113/95
f 79/95/94 49/113/95 78/131/96
f 26/128/86 73/97/46 80/96/45
f 26/128/86 80/96/45 37/37/86
f 30/102/51 75/129/88 74/90/90
f 30/102/51 74/90/90 25/25/51
f 34/34/54 77/93/91 76/130/93
f 34/34/54 76/130/93 29/103/54
f 38/38/57 79/95/94 78/131/96
f 38/38/57 78/131/96 33/105/57
f 81/132/97 82/133/97 83/134/97
f 81/132/97 83/134/97 84/135/97
f 85/136/98 86/137/99 82/133/99
f 85/136/98 82/133/99 81/132/98
f 87/138/100 88/139/100 86/137/100
f 87/138/100 86/137/100 85/136/100
f 89/140/101 90/141/101 88/139/101
f 89/140/101 88/139/101 87/138/102
f 91/142/103 92/143/103 90/141/103
f 91/142/103 90/141/103 89/140/103
f 93/144/104 94/145/104 92/143/104
f 93/144/104 92/143/104 91/142/104
f 95/146/105 96/147/105 94/145/105
f 95/146/105 94/145/105 93/144/105
f 84/135/106 83/134/107 96/148/107
f 84/135/106 96/148/107 95/149/106
f 97/150/5 98/151/5 99/152/5
f 97/150/5 99/152/5 100/153/5
f 101/154/108 102/155/108 98/151/108
f 101/154/108 98/151/108 97/150/108
f 103/156/4 104/157/4 102/155/4
f 103/156/4 102/155/4 101/154/4
f 105/158/109 106/159/109 104/157/109
f 105/158/109 104/157/109 103/156/109
f 107/160/3 108/161/3 106/159/3
f 107/160/3 106/159/3 105/158/3
f 109/162/110 110/163/110 108/161/110
f 109/162/110 108/161/110 107/160/110
f 111/164/2 112/165/2 110/163/2
f 111/164/2 110/163/2 109/162/2
f 100/153/111 99/152/111 112/166/111
f 100/153/111 112/166/111 111/167/111
f 113/168/112 114/169/112 81/132/112
f 113/168/112 81/132/112 84/135/112
f 115/170/113 116/171/113 87/138/113
f 115/170/113 87/138/113 85/136/113
f 117/172/114 118/173/114 91/142/114
f 117/172/114 91/142/114 89/140/114
f 119/174/115 120/175/115 95/146/115
f 119/174/115 95/146/115 93/144/115
f 120/176/116 113/168/117 84/135/118
f 120/176/116 84/135/118 95/149/118
f 118/173/119 119/174/119 93/144/119
f 118/173/119 93/144/119 91/142/119
f 114/169/120 115/170/121 85/136/122
f 114/169/120 85/136/122 81/132/123
f 116/171/124 117/172/124 89/140/124
f 116/171/124 89/140/124 87/138/124
f 121/177/5 122/178/5 123/179/5
f 121/177/5 123/179/5 124/180/5
f 125/181/108 121/177/108 124/180/108
f 125/181/108 124/180/108 126/182/108
f 127/183/4 125/181/4 126/182/4
f 127/183/4 126/182/4 128/184/4
f 129/185/109 127/183/109 128/184/109
f 129/185/109 128/184/109 130/186/109
f 131/187/3 129/188/3 130/189/3
f 131/187/3 130/189/3 132/190/3
f 133/191/110 131/187/110 132/190/110
f 133/191/110 132/190/110 134/192/110
f 135/193/2 133/191/2 134/192/2
f 135/193/2 134/192/2 136/194/2
f 122/178/125 135/193/125 136/194/125
f 122/178/125 136/194/125 123/179/125
f 21/21/126 24/24/127 114/195/128
f 21/21/126 114/195/128 113/196/129
f 17/17/130 20/20/131 116/197/132
f 17/17/130 116/197/132 115/198/133
f 13/13/134 16/16/135 118/199/136
f 13/13/134 118/199/136 117/200/137
f 9/9/138 12/12/139 120/201/140
f 9/9/138 120/201/140 119/202/141
f 12/12/139 21/21/126 113/196/129
f 12/12/139 113/196/129 120/201/140
f 16/16/135 9/9/138 119/202/141
f 16/16/135 119/202/141 118/199/136
f 24/24/127 17/17/130 115/198/133
f 24/24/127 115/198/133 114/195/128
f 20/20/131 13/100/134 117/203/137
f 20/20/131 117/203/137 116/197/132
f 82/133/1 97/150/1 100/153/1
f 82/133/1 100/153/1 83/134/1
f 86/137/1 101/154/1 97/150/1
f 86/137/1 97/150/1 82/133/1
f 88/139/1 103/156/1 101/154/1
f 88/139/1 101/154/1 86/137/1
f 90/141/1 105/158/1 103/156/1
f 90/141/1 103/156/1 88/139/1
f 92/143/1 107/160/1 105/158/1
f 92/143/1 105/158/1 90/141/1
f 94/145/1 109/162/1 107/160/1
f 94/145/1 107/160/1 92/143/1
f 96/147/1 111/164/1 109/162/1
f 96/147/1 109/162/1 94/145/1
f 83/134/1 100/153/1 111/167/1
f 83/134/1 111/167/1 96/148/1
f 123/204/142 99/152/142 98/151/142
f 123/204/142 98/151/142 124/205/142
f 136/206/142 112/166/142 99/152/142
f 136/206/142 99/152/142 123/204/142
f 134/207/142 110/163/142 112/165/142
f 134/207/142 112/165/142 136/208/142
f 132/209/142 108/161/142 110/163/142
f 132/209/142 110/163/142 134/207/142
f 130/210/142 106/159/142 108/161/142
f 130/210/142 108/161/142 132/209/142
f 128/211/142 104/157/142 106/159/142
f 128/211/142 106/159/142 130/210/142
f 126/212/142 102/155/142 104/157/142
f 126/212/142 104/157/142 128/211/142
f 124/205/142 98/151/142 102/155/142
f 124/205/142 102/155/142 126/212/142
