v 2.320847 0.386869 0.169807
v 2.384033 1.033310 0.087620
v 2.384033 1.033310 0.780788
v 2.320847 0.386869 0.780788
v -2.328152 1.033310 0.018990
v 2.328167 1.033310 0.018990
v 2.261246 0.386869 0.096611
v -2.261230 0.386869 0.096611
v -2.811649 2.623331 -0.576248
v -2.808773 3.059641 -0.576248
v 2.808758 3.059641 -0.576248
v 2.811649 2.623331 -0.576248
v -2.868633 2.623331 0.780788
v -2.868633 3.059641 0.780788
v -2.868633 3.059641 -0.502708
v -2.868633 2.623331 -0.506229
v 2.274490 0.000000 0.228134
v 2.453270 0.193430 0.015762
v 2.453270 0.193430 0.780788
v 2.274490 0.000000 0.780788
v -2.386650 0.193430 -0.066048
v 2.386669 0.193430 -0.066048
v 2.213768 0.000000 0.153549
v -2.213749 0.000000 0.153549
v 2.868626 3.059641 -0.502708
v 3.035160 3.277790 -0.699467
v 3.035160 3.277790 0.780788
v 2.868626 3.059641 0.780788
v -2.968948 3.277790 -0.780788
v 2.968937 3.277790 -0.780788
v 2.868626 3.495939 -0.494930
v 2.868626 3.495939 0.780788
v -2.802441 3.495939 -0.576248
v 2.802441 3.495939 -0.576248
v 2.598022 1.933201 -0.172459
v 2.868626 2.623331 -0.506229
v 2.868626 2.623331 0.780788
v 2.598022 1.933201 0.780788
v 2.539921 1.933201 -0.243851
v -2.539890 1.933201 -0.243851
v -2.320831 0.386869 0.169807
v -2.384033 1.033310 0.087620
v -2.453251 0.193430 0.015762
v -2.274490 0.000000 0.228134
v -3.035160 3.277790 -0.699467
v -2.868633 3.495939 -0.494930
v -2.598022 1.933201 -0.172459
v -2.868633 3.495939 0.780788
v -2.384033 1.033310 0.780788
v -2.320831 0.386869 0.780788
v -2.453251 0.193430 0.780788
v -2.274490 0.000000 0.780788
v -3.035160 3.277790 0.780788
v -2.598003 1.933201 0.780788
vt 0.550400 0.888100
vt 0.552600 0.908400
vt 0.533700 0.908400
vt 0.533700 0.888100
vt 0.761400 0.910000
vt 0.605300 0.910000
vt 0.607600 0.889700
vt 0.759200 0.889700
vt 0.777600 0.960000
vt 0.777500 0.973700
vt 0.589200 0.973700
vt 0.589100 0.960000
vt 0.828700 0.959600
vt 0.828700 0.973300
vt 0.793700 0.973300
vt 0.793600 0.959600
vt 0.986500 0.767200
vt 0.995900 0.779100
vt 0.963200 0.779100
vt 0.961900 0.767200
vt 0.252400 0.779000
vt 0.011100 0.779000
vt 0.011200 0.767200
vt 0.252500 0.767200
vt 0.533700 0.882000
vt 0.554600 0.882000
vt 0.603400 0.883600
vt 0.763400 0.883600
vt 0.568700 0.972100
vt 0.574100 0.979000
vt 0.533700 0.979000
vt 0.533700 0.972100
vt 0.782900 0.980600
vt 0.583900 0.980600
vt 0.568500 0.985900
vt 0.533700 0.985900
vt 0.777300 0.987500
vt 0.589400 0.987500
vt 0.559700 0.936700
vt 0.568800 0.958400
vt 0.533700 0.958400
vt 0.533700 0.936700
vt 0.598200 0.938300
vt 0.768500 0.938300
vt 0.602800 0.909400
vt 0.605000 0.890700
vt 0.809500 0.890200
vt 0.812100 0.889200
vt 0.809800 0.909600
vt 0.807300 0.909000
vt 0.586700 0.972600
vt 0.586500 0.959300
vt 0.791200 0.972100
vt 0.791000 0.958900
vt 0.600700 0.886200
vt 0.805200 0.885700
vt 0.807900 0.883200
vt 0.007800 0.778900
vt 0.007900 0.767200
vt 0.255900 0.779000
vt 0.255800 0.767200
vt 0.581500 0.980600
vt 0.788400 0.980100
vt 0.786000 0.980100
vt 0.587100 0.990000
vt 0.793900 0.987000
vt 0.791600 0.989600
vt 0.595700 0.937200
vt 0.800200 0.936700
vt 0.802700 0.937900
vt 0.009100 0.897600
vt 0.009100 0.876000
vt 0.010900 0.874600
vt 0.167400 0.876000
vt 0.165500 0.874600
vt 0.167400 0.897600
vt 0.828700 0.909600
vt 0.828700 0.889200
vt 0.287400 0.779000
vt 0.280300 0.767200
vt 0.828700 0.883200
vt 0.828700 0.980100
vt 0.828700 0.987000
vt 0.828700 0.937900
vt 0.277300 0.674200
vt 0.277300 0.691100
vt 0.447600 0.691100
vt 0.447600 0.674200
vt 0.445300 0.693300
vt 0.279500 0.693300
vn 0.995300 -0.097300 -0.000000
vn 0.984900 -0.172900 -0.000000
vn 0.986300 -0.164700 -0.000000
vn 0.000000 -0.208500 -0.978000
vn 0.000000 -0.119200 -0.992900
vn 0.000000 0.000000 -1.000000
vn -1.000000 0.000000 -0.000000
vn 0.734400 -0.678800 -0.000000
vn 0.000000 -0.750400 -0.661000
vn 0.825200 0.564900 -0.000000
vn 0.000000 0.643600 -0.765400
vn 0.794900 -0.606800 -0.000000
vn 0.000000 -0.684000 -0.729500
vn 0.794900 0.606800 -0.000000
vn 0.000000 0.684000 -0.729500
vn 0.949700 -0.313100 -0.000000
vn 0.931000 -0.365100 -0.000000
vn 0.954300 -0.298900 -0.000000
vn 0.000000 -0.433900 -0.900900
vn 0.000000 -0.371600 -0.928400
vn 0.766200 -0.154200 -0.623800
vn 0.750200 -0.253500 -0.610600
vn 0.751500 -0.247300 -0.611600
vn -0.766200 -0.154200 -0.623800
vn -0.751400 -0.247300 -0.611800
vn -0.750100 -0.253600 -0.610800
vn 0.775600 0.005100 -0.631200
vn 0.775500 0.005100 -0.631300
vn -0.775600 0.005100 -0.631200
vn -0.775500 0.005100 -0.631300
vn 0.539200 0.718700 -0.439000
vn -0.539200 0.718700 -0.439000
vn 0.448700 -0.815700 -0.365200
vn -0.448600 -0.815700 -0.365300
vn -0.448700 -0.815700 -0.365200
vn 0.506000 -0.757800 -0.411900
vn 0.506000 -0.757800 -0.412000
vn -0.506000 -0.757800 -0.411900
vn -0.506000 -0.757800 -0.412000
vn 0.500400 0.763900 -0.407400
vn 0.500500 0.763900 -0.407300
vn -0.500400 0.763900 -0.407400
vn -0.500500 0.763900 -0.407300
vn 0.696700 -0.439500 -0.567000
vn 0.662300 -0.520400 -0.539000
vn 0.700400 -0.429400 -0.570100
vn -0.696600 -0.439500 -0.567100
vn -0.700300 -0.429400 -0.570200
vn -0.662300 -0.520400 -0.539000
vn 0.000000 1.000000 -0.000000
vn -0.986300 -0.164700 -0.000000
vn -0.984900 -0.172900 0.000000
vn -0.995300 -0.097300 -0.000000
vn 1.000000 0.000000 -0.000000
vn -0.734400 -0.678700 -0.000000
vn -0.825200 0.564900 -0.000000
vn -0.794900 -0.606800 -0.000000
vn -0.794900 0.606800 -0.000000
vn -0.931000 -0.365100 0.000000
vn -0.931000 -0.365100 -0.000000
vn -0.949700 -0.313100 0.000000
vn -0.954300 -0.298900 0.000000
vn 0.000000 -1.000000 -0.000000
f 1/1/1 2/2/2 3/3/3
f 1/1/1 3/3/3 4/4/1
f 5/5/4 6/6/4 7/7/5
f 5/5/4 7/7/5 8/8/5
f 9/9/6 10/10/6 11/11/6
f 9/9/6 11/11/6 12/12/6
f 13/13/7 14/14/7 15/15/7
f 13/13/7 15/15/7 16/16/7
f 17/17/8 18/18/8 19/19/8
f 17/17/8 19/19/8 20/20/8
f 21/21/9 22/22/9 23/23/9
f 21/21/9 23/23/9 24/24/9
f 1/1/10 4/4/10 19/25/10
f 1/1/10 19/25/10 18/26/10
f 8/8/11 7/7/11 22/27/11
f 8/8/11 22/27/11 21/28/11
f 25/29/12 26/30/12 27/31/12
f 25/29/12 27/31/12 28/32/12
f 29/33/13 30/34/13 11/11/13
f 29/33/13 11/11/13 10/10/13
f 31/35/14 32/36/14 27/31/14
f 31/35/14 27/31/14 26/30/14
f 33/37/15 34/38/15 30/34/15
f 33/37/15 30/34/15 29/33/15
f 35/39/16 36/40/17 37/41/17
f 35/39/16 37/41/17 38/42/18
f 9/9/19 12/12/19 39/43/20
f 9/9/19 39/43/20 40/44/20
f 2/2/2 35/39/16 38/42/18
f 2/2/2 38/42/18 3/3/3
f 40/44/20 39/43/20 6/6/4
f 40/44/20 6/6/4 5/5/4
f 7/7/21 6/6/22 2/45/23
f 7/7/21 2/45/23 1/46/21
f 8/47/24 41/48/24 42/49/25
f 8/47/24 42/49/25 5/50/26
f 12/12/27 11/11/28 25/51/28
f 12/12/27 25/51/28 36/52/27
f 16/16/29 15/15/30 10/53/30
f 16/16/29 10/53/30 9/54/29
f 7/7/31 1/46/31 18/55/31
f 7/7/31 18/55/31 22/27/31
f 8/47/32 21/56/32 43/57/32
f 8/47/32 43/57/32 41/48/32
f 18/58/33 17/59/33 23/23/33
f 18/58/33 23/23/33 22/22/33
f 43/60/34 21/21/35 24/24/34
f 43/60/34 24/24/34 44/61/34
f 11/11/36 30/34/37 26/62/37
f 11/11/36 26/62/37 25/51/36
f 10/53/38 15/15/38 45/63/39
f 10/53/38 45/63/39 29/64/39
f 26/62/40 30/34/40 34/38/40
f 26/62/40 34/38/40 31/65/41
f 45/63/42 46/66/43 33/67/42
f 45/63/42 33/67/42 29/64/42
f 39/43/44 12/12/45 36/52/45
f 39/43/44 36/52/45 35/68/46
f 40/69/47 47/70/48 16/16/49
f 40/69/47 16/16/49 9/54/49
f 6/6/22 39/43/44 35/68/46
f 6/6/22 35/68/46 2/45/23
f 5/50/26 42/49/25 47/70/48
f 5/50/26 47/70/48 40/69/47
f 32/71/50 31/72/50 34/73/50
f 32/71/50 34/73/50 46/74/50
f 34/73/50 33/75/50 46/74/50
f 48/76/50 32/71/50 46/74/50
f 49/77/51 42/49/52 41/48/53
f 49/77/51 41/48/53 50/78/53
f 37/41/54 36/40/54 25/29/54
f 37/41/54 25/29/54 28/32/54
f 51/79/55 43/60/55 44/61/55
f 51/79/55 44/61/55 52/80/55
f 51/81/56 50/78/56 41/48/56
f 51/81/56 41/48/56 43/57/56
f 53/82/57 45/63/57 15/15/57
f 53/82/57 15/15/57 14/14/57
f 53/82/58 48/83/58 46/66/58
f 53/82/58 46/66/58 45/63/58
f 13/13/59 16/16/60 47/70/61
f 13/13/59 47/70/61 54/84/62
f 54/84/62 47/70/61 42/49/52
f 54/84/62 42/49/52 49/77/51
f 52/85/63 44/86/63 17/87/63
f 52/85/63 17/87/63 20/88/63
f 23/89/63 17/87/63 44/86/63
f 23/89/63 44/86/63 24/90/63
