v -0.112616 0.029152 9.470884
v -0.112616 1.068680 5.591286
v -0.000006 1.039528 5.583474
v -0.000006 0.000000 9.463076
v -0.195055 0.108765 9.492214
v -0.195055 1.148308 5.612616
v -0.225225 0.217545 9.521366
v -0.225225 1.257080 5.641766
v -0.195055 0.326332 9.550516
v -0.195055 1.365860 5.670906
v -0.112616 0.405945 9.571846
v -0.112616 1.445488 5.692245
v -0.000006 0.435097 9.579655
v -0.000006 1.474640 5.700054
v 0.112604 0.405945 9.571846
v 0.112604 1.445488 5.692245
v 0.195045 0.326332 9.550516
v 0.195045 1.365860 5.670906
v 0.225225 0.217545 9.521366
v 0.225225 1.257080 5.641766
v 0.195045 0.108765 9.492214
v 0.195045 1.148308 5.612616
v 0.112604 0.029152 9.470884
v 0.112604 1.068680 5.591286
v -0.112616 2.108215 1.711675
v -0.000006 2.079063 1.703865
v -0.195055 2.187836 1.733015
v -0.225225 2.296616 1.762165
v -0.195055 2.405396 1.791306
v -0.112616 2.485016 1.812645
v -0.000006 2.514168 1.820455
v 0.112604 2.485016 1.812645
v 0.195045 2.405396 1.791306
v 0.225225 2.296616 1.762165
v 0.195045 2.187836 1.733015
v 0.112604 2.108215 1.711675
v -0.112616 3.147751 -2.167925
v -0.000006 3.118607 -2.175735
v -0.195055 3.227379 -2.146585
v -0.225225 3.336143 -2.117445
v -0.195055 3.444931 -2.088295
v -0.112616 3.524559 -2.066955
v -0.000006 3.553703 -2.059145
v 0.112604 3.524559 -2.066955
v 0.195045 3.444931 -2.088295
v 0.225225 3.336143 -2.117445
v 0.195045 3.227379 -2.146585
v 0.112604 3.147751 -2.167925
v -0.052774 5.270103 -9.571775
v -0.000006 5.240677 -9.579655
v -0.030476 5.248558 -9.577545
v -0.052774 5.328957 -9.556005
v -0.030476 5.350502 -9.550225
v -0.000006 5.358383 -9.548115
v 0.030464 5.350502 -9.550225
v 0.052765 5.328957 -9.556005
v 0.052765 5.270103 -9.571775
v 0.060925 5.299530 -9.563885
v -0.060936 5.299530 -9.563885
v 0.030464 5.248558 -9.577545
v -0.112616 4.422714 -6.926175
v -0.154615 4.439743 -7.270765
v -0.000006 4.399734 -7.281485
v -0.000006 4.393578 -6.933985
v -0.195055 4.502350 -6.904835
v -0.267784 4.549065 -7.241475
v -0.225225 4.611122 -6.875695
v -0.309216 4.698418 -7.201455
v -0.195055 4.719894 -6.846545
v -0.267784 4.847748 -7.161445
v -0.112616 4.799530 -6.825205
v -0.154615 4.957077 -7.132145
v -0.000006 4.828682 -6.817395
v -0.000006 4.997086 -7.121425
v 0.112604 4.799530 -6.825205
v 0.154594 4.957077 -7.132145
v 0.195045 4.719894 -6.846545
v 0.267784 4.847748 -7.161445
v 0.225225 4.611122 -6.875695
v 0.309204 4.698418 -7.201455
v 0.195045 4.502350 -6.904835
v 0.267784 4.549065 -7.241475
v 0.112604 4.422714 -6.926175
v 0.154594 4.439743 -7.270765
v -0.193235 4.636986 -8.265385
v -0.164886 4.854057 -8.945235
v -0.000006 4.811386 -8.956665
v -0.000006 4.586975 -8.278785
v -0.334705 4.773628 -8.228775
v -0.285576 4.970634 -8.913995
v -0.386475 4.960281 -8.178755
v -0.329756 5.129898 -8.871315
v -0.334705 5.146935 -8.128745
v -0.285576 5.289169 -8.828645
v -0.193235 5.283577 -8.092134
v -0.164886 5.405746 -8.797405
v -0.000006 5.333588 -8.078725
v -0.000006 5.448425 -8.785975
v 0.193235 5.283577 -8.092134
v 0.164875 5.405746 -8.797405
v 0.334694 5.146935 -8.128745
v 0.285576 5.289169 -8.828645
v 0.386475 4.960281 -8.178755
v 0.329756 5.129898 -8.871315
v 0.334694 4.773628 -8.228775
v 0.285576 4.970634 -8.913995
v 0.193235 4.636986 -8.265385
v 0.164875 4.854057 -8.945235
v -0.152924 4.529846 -7.595775
v -0.000006 4.490265 -7.606385
v -0.264875 4.637985 -7.566805
v -0.305855 4.785698 -7.527225
v -0.264875 4.933418 -7.487645
v -0.152924 5.041550 -7.458665
v -0.000006 5.081131 -7.448065
v 0.152924 5.041550 -7.458665
v 0.264875 4.933418 -7.487645
v 0.305845 4.785698 -7.527225
v 0.264875 4.637985 -7.566805
v 0.152924 4.529846 -7.595775
vt 0.963300 0.005300
vt 0.963300 0.524100
vt 0.987600 0.524100
vt 0.987600 0.005300
vt 0.939100 0.005300
vt 0.939100 0.524100
vt 0.914800 0.005300
vt 0.914800 0.524100
vt 0.890600 0.005300
vt 0.890600 0.524100
vt 0.866300 0.005300
vt 0.866300 0.524100
vt 0.842100 0.005300
vt 0.842100 0.524100
vt 0.817800 0.005300
vt 0.817800 0.524100
vt 0.793600 0.005300
vt 0.793600 0.524100
vt 0.769400 0.005300
vt 0.769400 0.524100
vt 0.745100 0.005300
vt 0.745100 0.524100
vt 0.720900 0.005300
vt 0.720900 0.524100
vt 0.696600 0.005300
vt 0.696600 0.524100
vt 0.991800 0.012900
vt 0.963300 0.641600
vt 0.963300 0.685100
vt 0.987600 0.685100
vt 0.987600 0.641600
vt 0.939100 0.641600
vt 0.939100 0.685100
vt 0.914800 0.641600
vt 0.914800 0.685100
vt 0.890600 0.641600
vt 0.890600 0.685100
vt 0.866300 0.641600
vt 0.866300 0.685100
vt 0.842100 0.641600
vt 0.842100 0.685100
vt 0.817800 0.641600
vt 0.817800 0.685100
vt 0.793600 0.641600
vt 0.793600 0.685100
vt 0.769400 0.641600
vt 0.769400 0.685100
vt 0.745100 0.641600
vt 0.745100 0.685100
vt 0.720900 0.641600
vt 0.720900 0.685100
vt 0.696600 0.641600
vt 0.696600 0.685100
vt 0.963300 0.815800
vt 0.963300 0.902900
vt 0.987600 0.902900
vt 0.987600 0.815800
vt 0.939100 0.815800
vt 0.939100 0.902900
vt 0.914800 0.815800
vt 0.914800 0.902900
vt 0.890600 0.815800
vt 0.890600 0.902900
vt 0.866300 0.815800
vt 0.866300 0.902900
vt 0.842100 0.815800
vt 0.842100 0.902900
vt 0.817800 0.815800
vt 0.817800 0.902900
vt 0.793600 0.815800
vt 0.793600 0.902900
vt 0.769400 0.815800
vt 0.769400 0.902900
vt 0.745100 0.815800
vt 0.745100 0.902900
vt 0.720900 0.815800
vt 0.720900 0.902900
vt 0.696600 0.815800
vt 0.696600 0.902900
vt 0.963300 0.990000
vt 0.987600 0.990000
vt 0.939100 0.990000
vt 0.914800 0.990000
vt 0.890600 0.990000
vt 0.866300 0.990000
vt 0.842100 0.990000
vt 0.817800 0.990000
vt 0.793600 0.990000
vt 0.769400 0.990000
vt 0.745100 0.990000
vt 0.720900 0.990000
vt 0.696600 0.990000
vt 0.963300 0.728700
vt 0.987600 0.728700
vt 0.939100 0.728700
vt 0.914800 0.728700
vt 0.890600 0.728700
vt 0.866300 0.728700
vt 0.842100 0.728700
vt 0.817800 0.728700
vt 0.793600 0.728700
vt 0.769400 0.728700
vt 0.745100 0.728700
vt 0.720900 0.728700
vt 0.696600 0.728700
vn -0.500000 -0.836500 -0.224100
vn 0.000000 -0.965900 -0.258800
vn -0.866000 -0.483000 -0.129400
vn -1.000000 -0.000000 -0.000000
vn -1.000000 0.000000 -0.000000
vn -0.866000 0.483000 0.129400
vn -0.500000 0.836500 0.224100
vn 0.000000 0.965900 0.258800
vn 0.500000 0.836500 0.224100
vn 0.866000 0.483000 0.129400
vn 1.000000 -0.000000 -0.000000
vn 1.000000 -0.000000 0.000000
vn 0.866000 -0.483000 -0.129400
vn 0.500000 -0.836500 -0.224100
vn -1.000000 0.000000 0.000000
vn 1.000000 0.000000 -0.000000
vn -0.000000 0.258800 -0.965900
vn 0.000000 0.258800 -0.965900
vn 0.000100 0.258800 -0.965900
vn -0.000100 0.258800 -0.965900
vn -0.496100 -0.862200 -0.102400
vn -0.496700 -0.860600 -0.112100
vn 0.000000 -0.989200 -0.146600
vn 0.000000 -0.990600 -0.136800
vn -0.859300 -0.511400 -0.008400
vn -0.860300 -0.509400 -0.018000
vn -0.992300 -0.032100 0.120000
vn -0.993400 -0.029600 0.110500
vn -0.859300 0.447100 0.248400
vn -0.860300 0.450200 0.239100
vn -0.496100 0.797900 0.342400
vn -0.496700 0.801400 0.333200
vn 0.000000 0.926300 0.376800
vn 0.000000 0.930000 0.367700
vn 0.496100 0.797900 0.342400
vn 0.496700 0.801400 0.333200
vn 0.859300 0.447100 0.248400
vn 0.860300 0.450200 0.239100
vn 0.992300 -0.032200 0.120000
vn 0.993400 -0.029600 0.110500
vn 0.859300 -0.511400 -0.008400
vn 0.860300 -0.509400 -0.018000
vn 0.496100 -0.862200 -0.102400
vn 0.496700 -0.860600 -0.112100
vn -0.500600 -0.843200 -0.196300
vn -0.490000 -0.769400 -0.409700
vn 0.000000 -0.897400 -0.441300
vn 0.000000 -0.973300 -0.229600
vn -0.866500 -0.487900 -0.105100
vn -0.847700 -0.420400 -0.323600
vn -0.999800 -0.003300 0.019200
vn -0.977000 0.054800 -0.206300
vn -0.865200 0.480500 0.143400
vn -0.844400 0.528200 -0.089500
vn -0.499200 0.834200 0.234200
vn -0.486800 0.873500 -0.004200
vn 0.000000 0.963600 0.267400
vn 0.000000 0.999600 0.027000
vn 0.499200 0.834200 0.234200
vn 0.486800 0.873500 -0.004200
vn 0.865200 0.480500 0.143400
vn 0.844400 0.528200 -0.089500
vn 0.999800 -0.003300 0.019200
vn 0.977000 0.054800 -0.206300
vn 0.866500 -0.487900 -0.105100
vn 0.847700 -0.420400 -0.323600
vn 0.500600 -0.843200 -0.196300
vn 0.490000 -0.769400 -0.409700
vn -0.469200 -0.701000 -0.537100
vn 0.000000 -0.823400 -0.567400
vn -0.811700 -0.366900 -0.454300
vn -0.935700 0.088000 -0.341600
vn -0.808900 0.541400 -0.229300
vn -0.466400 0.872200 -0.147300
vn 0.000000 0.993100 -0.117300
vn 0.466400 0.872200 -0.147300
vn 0.808900 0.541400 -0.229300
vn 0.935700 0.088000 -0.341600
vn 0.811700 -0.367000 -0.454400
vn 0.469200 -0.701000 -0.537100
vn -0.499200 -0.849500 -0.170600
vn 0.000000 -0.978700 -0.205200
vn -0.864700 -0.496500 -0.076000
vn -0.998500 -0.014300 0.053200
vn -0.864700 0.468000 0.182400
vn -0.499200 0.821000 0.277000
vn 0.000000 0.950200 0.311600
vn 0.499200 0.821000 0.277000
vn 0.864700 0.468000 0.182400
vn 0.998500 -0.014300 0.053200
vn 0.864700 -0.496500 -0.076000
vn 0.499200 -0.849500 -0.170600
usemtl sponza/flagpole
f 1/1/1 2/2/1 3/3/2
f 1/1/1 3/3/2 4/4/2
f 5/5/3 6/6/3 2/2/1
f 5/5/3 2/2/1 1/1/1
f 7/7/4 8/8/5 6/6/3
f 7/7/4 6/6/3 5/5/3
f 9/9/6 10/10/6 8/8/5
f 9/9/6 8/8/5 7/7/4
f 11/11/7 12/12/7 10/10/6
f 11/11/7 10/10/6 9/9/6
f 13/13/8 14/14/8 12/12/7
f 13/13/8 12/12/7 11/11/7
f 15/15/9 16/16/9 14/14/8
f 15/15/9 14/14/8 13/13/8
f 17/17/10 18/18/10 16/16/9
f 17/17/10 16/16/9 15/15/9
f 19/19/11 20/20/12 18/18/10
f 19/19/11 18/18/10 17/17/10
f 21/21/13 22/22/13 20/20/12
f 21/21/13 20/20/12 19/19/11
f 23/23/14 24/24/14 22/22/13
f 23/23/14 22/22/13 21/21/13
f 4/25/2 3/26/2 24/24/14
f 4/25/2 24/24/14 23/23/14
f 2/1/1 25/2/1 26/3/2
f 2/1/1 26/3/2 3/4/2
f 6/5/3 27/6/3 25/2/1
f 6/5/3 25/2/1 2/1/1
f 8/7/5 28/8/15 27/6/3
f 8/7/5 27/6/3 6/5/3
f 10/9/6 29/10/6 28/8/15
f 10/9/6 28/8/15 8/7/5
f 12/11/7 30/12/7 29/10/6
f 12/11/7 29/10/6 10/9/6
f 14/13/8 31/14/8 30/12/7
f 14/13/8 30/12/7 12/11/7
f 16/15/9 32/16/9 31/14/8
f 16/15/9 31/14/8 14/13/8
f 18/17/10 33/18/10 32/16/9
f 18/17/10 32/16/9 16/15/9
f 20/19/12 34/20/11 33/18/10
f 20/19/12 33/18/10 18/17/10
f 22/21/13 35/22/13 34/20/11
f 22/21/13 34/20/11 20/19/12
f 24/23/14 36/24/14 35/22/13
f 24/23/14 35/22/13 22/21/13
f 3/25/2 26/26/2 36/24/14
f 3/25/2 36/24/14 24/23/14
f 25/1/1 37/2/1 38/3/2
f 25/1/1 38/3/2 26/4/2
f 27/5/3 39/6/3 37/2/1
f 27/5/3 37/2/1 25/1/1
f 28/7/15 40/8/4 39/6/3
f 28/7/15 39/6/3 27/5/3
f 29/9/6 41/10/6 40/8/4
f 29/9/6 40/8/4 28/7/15
f 30/11/7 42/12/7 41/10/6
f 30/11/7 41/10/6 29/9/6
f 31/13/8 43/14/8 42/12/7
f 31/13/8 42/12/7 30/11/7
f 32/15/9 44/16/9 43/14/8
f 32/15/9 43/14/8 31/13/8
f 33/17/10 45/18/10 44/16/9
f 33/17/10 44/16/9 32/15/9
f 34/19/11 46/20/16 45/18/10
f 34/19/11 45/18/10 33/17/10
f 35/21/13 47/22/13 46/20/16
f 35/21/13 46/20/16 34/19/11
f 36/23/14 48/24/14 47/22/13
f 36/23/14 47/22/13 35/21/13
f 26/25/2 38/26/2 48/24/14
f 26/25/2 48/24/14 36/23/14
f 49/27/17 50/27/18 51/27/17
f 52/27/18 53/27/18 54/27/17
f 52/27/18 54/27/17 49/27/17
f 54/27/17 55/27/17 56/27/17
f 54/27/17 56/27/17 57/27/18
f 56/27/17 58/27/19 57/27/18
f 57/27/18 50/27/18 49/27/17
f 57/27/18 49/27/17 54/27/17
f 59/27/20 52/27/18 49/27/17
f 60/27/18 50/27/18 57/27/18
f 61/28/21 62/29/22 63/30/23
f 61/28/21 63/30/23 64/31/24
f 65/32/25 66/33/26 62/29/22
f 65/32/25 62/29/22 61/28/21
f 67/34/27 68/35/28 66/33/26
f 67/34/27 66/33/26 65/32/25
f 69/36/29 70/37/30 68/35/28
f 69/36/29 68/35/28 67/34/27
f 71/38/31 72/39/32 70/37/30
f 71/38/31 70/37/30 69/36/29
f 73/40/33 74/41/34 72/39/32
f 73/40/33 72/39/32 71/38/31
f 75/42/35 76/43/36 74/41/34
f 75/42/35 74/41/34 73/40/33
f 77/44/37 78/45/38 76/43/36
f 77/44/37 76/43/36 75/42/35
f 79/46/39 80/47/40 78/45/38
f 79/46/39 78/45/38 77/44/37
f 81/48/41 82/49/42 80/47/40
f 81/48/41 80/47/40 79/46/39
f 83/50/43 84/51/44 82/49/42
f 83/50/43 82/49/42 81/48/41
f 64/52/24 63/53/23 84/51/44
f 64/52/24 84/51/44 83/50/43
f 85/54/45 86/55/46 87/56/47
f 85/54/45 87/56/47 88/57/48
f 85/54/45 89/58/49 90/59/50
f 85/54/45 90/59/50 86/55/46
f 89/58/49 91/60/51 92/61/52
f 89/58/49 92/61/52 90/59/50
f 91/60/51 93/62/53 94/63/54
f 91/60/51 94/63/54 92/61/52
f 93/62/53 95/64/55 96/65/56
f 93/62/53 96/65/56 94/63/54
f 97/66/57 98/67/58 96/65/56
f 97/66/57 96/65/56 95/64/55
f 99/68/59 100/69/60 98/67/58
f 99/68/59 98/67/58 97/66/57
f 101/70/61 102/71/62 100/69/60
f 101/70/61 100/69/60 99/68/59
f 103/72/63 104/73/64 102/71/62
f 103/72/63 102/71/62 101/70/61
f 105/74/65 106/75/66 104/73/64
f 105/74/65 104/73/64 103/72/63
f 107/76/67 108/77/68 106/75/66
f 107/76/67 106/75/66 105/74/65
f 88/78/48 87/79/47 108/77/68
f 88/78/48 108/77/68 107/76/67
f 86/55/46 51/80/69 50/81/70
f 86/55/46 50/81/70 87/56/47
f 90/59/50 49/82/71 51/80/69
f 90/59/50 51/80/69 86/55/46
f 90/59/50 92/61/52 59/83/72
f 90/59/50 59/83/72 49/82/71
f 92/61/52 94/63/54 52/84/73
f 92/61/52 52/84/73 59/83/72
f 96/65/56 53/85/74 52/84/73
f 96/65/56 52/84/73 94/63/54
f 98/67/58 54/86/75 53/85/74
f 98/67/58 53/85/74 96/65/56
f 100/69/60 55/87/76 54/86/75
f 100/69/60 54/86/75 98/67/58
f 102/71/62 56/88/77 55/87/76
f 102/71/62 55/87/76 100/69/60
f 104/73/64 58/89/78 56/88/77
f 104/73/64 56/88/77 102/71/62
f 106/75/66 57/90/79 58/89/78
f 106/75/66 58/89/78 104/73/64
f 108/77/68 60/91/80 57/90/79
f 108/77/68 57/90/79 106/75/66
f 87/79/47 50/92/70 60/91/80
f 87/79/47 60/91/80 108/77/68
f 109/93/81 85/54/45 88/57/48
f 109/93/81 88/57/48 110/94/82
f 111/95/83 89/58/49 85/54/45
f 111/95/83 85/54/45 109/93/81
f 112/96/84 91/60/51 89/58/49
f 112/96/84 89/58/49 111/95/83
f 113/97/85 93/62/53 91/60/51
f 113/97/85 91/60/51 112/96/84
f 114/98/86 95/64/55 93/62/53
f 114/98/86 93/62/53 113/97/85
f 115/99/87 97/66/57 95/64/55
f 115/99/87 95/64/55 114/98/86
f 116/100/88 99/68/59 97/66/57
f 116/100/88 97/66/57 115/99/87
f 117/101/89 101/70/61 99/68/59
f 117/101/89 99/68/59 116/100/88
f 118/102/90 103/72/63 101/70/61
f 118/102/90 101/70/61 117/101/89
f 119/103/91 105/74/65 103/72/63
f 119/103/91 103/72/63 118/102/90
f 120/104/92 107/76/67 105/74/65
f 120/104/92 105/74/65 119/103/91
f 110/105/82 88/78/48 107/76/67
f 110/105/82 107/76/67 120/104/92
f 62/29/22 109/93/81 110/94/82
f 62/29/22 110/94/82 63/30/23
f 66/33/26 111/95/83 109/93/81
f 66/33/26 109/93/81 62/29/22
f 68/35/28 112/96/84 111/95/83
f 68/35/28 111/95/83 66/33/26
f 70/37/30 113/97/85 112/96/84
f 70/37/30 112/96/84 68/35/28
f 72/39/32 114/98/86 113/97/85
f 72/39/32 113/97/85 70/37/30
f 74/41/34 115/99/87 114/98/86
f 74/41/34 114/98/86 72/39/32
f 76/43/36 116/100/88 115/99/87
f 76/43/36 115/99/87 74/41/34
f 78/45/38 117/101/89 116/100/88
f 78/45/38 116/100/88 76/43/36
f 80/47/40 118/102/90 117/101/89
f 80/47/40 117/101/89 78/45/38
f 82/49/42 119/103/91 118/102/90
f 82/49/42 118/102/90 80/47/40
f 84/51/44 120/104/92 119/103/91
f 84/51/44 119/103/91 82/49/42
f 63/53/23 110/105/82 120/104/92
f 63/53/23 120/104/92 84/51/44
f 37/1/1 61/28/21 64/31/24
f 37/1/1 64/31/24 38/4/2
f 39/5/3 65/32/25 61/28/21
f 39/5/3 61/28/21 37/1/1
f 40/7/4 67/34/27 65/32/25
f 40/7/4 65/32/25 39/5/3
f 41/9/6 69/36/29 67/34/27
f 41/9/6 67/34/27 40/7/4
f 42/11/7 71/38/31 69/36/29
f 42/11/7 69/36/29 41/9/6
f 43/13/8 73/40/33 71/38/31
f 43/13/8 71/38/31 42/11/7
f 44/15/9 75/42/35 73/40/33
f 44/15/9 73/40/33 43/13/8
f 45/17/10 77/44/37 75/42/35
f 45/17/10 75/42/35 44/15/9
f 46/19/16 79/46/39 77/44/37
f 46/19/16 77/44/37 45/17/10
f 47/21/13 81/48/41 79/46/39
f 47/21/13 79/46/39 46/19/16
f 48/23/14 83/50/43 81/48/41
f 48/23/14 81/48/41 47/21/13
f 38/25/2 64/52/24 83/50/43
f 38/25/2 83/50/43 48/23/14
