v 95.761185 0.018471 26.039471
v 95.761185 22.796173 26.039471
v 92.728439 0.000000 26.039471
v 90.837936 6.994095 26.039471
v 87.136253 10.297775 26.039471
v 82.917404 22.796173 26.039471
v 82.917404 12.506233 26.039471
v 74.996872 6.994095 26.039471
v 78.698563 10.297775 26.039471
v 74.222572 22.796173 26.039471
v 74.222572 4.129478 26.039471
v 57.607197 7.102585 26.039471
v 61.308880 10.667473 26.039471
v 55.862919 22.796173 26.039471
v 55.664097 2.375206 26.039471
v 65.527740 12.506233 26.039471
v 65.527740 22.796173 26.039471
v 73.448265 6.994095 26.039471
v 69.746582 10.297775 26.039471
v 54.488876 5.089378 26.039471
v 51.771236 9.118217 26.039471
v 48.062897 11.633598 26.039471
v 45.722218 22.796173 26.039471
v 45.722218 12.694298 26.039471
v 37.117416 22.796173 26.039471
v 43.834057 12.089958 26.039471
v 39.789787 9.276436 26.039471
v 37.117416 5.868546 26.039471
v 34.640137 8.279892 26.039471
v 31.538496 10.907280 26.039471
v 28.436857 22.796173 26.039471
v 28.436857 12.202652 26.039471
v 18.607265 22.796173 26.039471
v 24.863798 10.575554 26.039471
v 21.290737 7.254585 26.039471
v 18.607265 1.779015 26.039459
v 15.623706 8.250656 26.039471
v 11.734797 10.961861 26.039471
v 8.751236 22.796173 26.039471
v 8.751236 12.451927 26.039471
v -0.190564 22.796173 26.039471
v 6.129486 11.127014 26.039459
v 2.814076 8.745354 26.039459
v -0.190314 5.797592 26.039459
v 95.761185 0.025314 20.648682
v 95.761185 12.015526 9.625601
v 95.761185 9.223045 3.792220
v 95.761185 22.796173 -0.090680
v 95.761185 22.796173 9.625601
v 95.761185 9.223045 15.458981
v 95.761185 5.440125 0.875520
v 95.761185 5.440125 18.375671
v 95.761185 3.981705 -0.090680
v 95.761185 0.018471 -26.039471
v 92.728439 0.000000 -26.039471
v 95.761185 22.796173 -26.039471
v 90.837936 6.994095 -26.039471
v 87.136253 10.297760 -26.039471
v 82.917404 12.506233 -26.039471
v 82.917404 22.796173 -26.039471
v 74.996872 6.994095 -26.039471
v 74.222572 22.796173 -26.039471
v 78.698563 10.297760 -26.039471
v 74.222572 4.129478 -26.039471
v 57.607197 7.102585 -26.039471
v 55.862919 22.796173 -26.039471
v 61.308880 10.667473 -26.039471
v 55.664097 2.375206 -26.039471
v 65.527740 22.796173 -26.039471
v 65.527740 12.506233 -26.039471
v 73.448265 6.994095 -26.039471
v 69.746582 10.297760 -26.039471
v 54.488876 5.089378 -26.039471
v 51.771236 9.118217 -26.039471
v 48.062897 11.633598 -26.039471
v 45.722218 12.694298 -26.039471
v 45.722218 22.796173 -26.039471
v 43.834057 12.089943 -26.039471
v 37.117416 22.796173 -26.039471
v 39.789787 9.276436 -26.039471
v 37.117416 5.868546 -26.039471
v 34.640137 8.279892 -26.039471
v 31.538496 10.907272 -26.039471
v 28.436857 12.202652 -26.039471
v 28.436857 22.796173 -26.039471
v 24.863798 10.575554 -26.039471
v 18.607265 22.796173 -26.039471
v 21.290737 7.254585 -26.039471
v 18.607265 1.779015 -26.039471
v 15.623696 8.250656 -26.039471
v 11.734797 10.961861 -26.039471
v 8.751236 12.451927 -26.039471
v 8.751236 22.796173 -26.039471
v 6.129486 11.127014 -26.039459
v -0.190314 22.796173 -26.039471
v 2.814076 8.745354 -26.039459
v 0.201686 5.797592 -26.039459
v 95.761185 0.025314 -20.561451
v 95.761185 9.223045 -3.973580
v 95.761185 12.015526 -9.806961
v 95.761185 22.796173 -9.806961
v 95.761185 9.223045 -15.640342
v 95.761185 5.440125 -1.056890
v 95.761185 5.440125 -18.557041
v -95.761185 0.018471 26.039471
v -93.109070 0.000000 26.039471
v -95.761185 22.796173 26.039471
v -90.661125 6.994095 26.039471
v -87.516899 10.297775 26.039471
v -83.298042 12.506233 26.039471
v -83.298042 22.796173 26.039471
v -75.377502 6.994095 26.039471
v -74.603210 22.796173 26.039471
v -79.079178 10.297775 26.039471
v -74.303734 4.129478 26.039471
v -57.987831 7.102585 26.039471
v -56.243546 22.796173 26.039471
v -61.689507 10.667473 26.039471
v -55.391975 2.375206 26.039471
v -65.908363 22.796173 26.039471
v -65.908363 12.506233 26.039471
v -72.996696 6.994095 26.039471
v -70.127228 10.297775 26.039471
v -54.335854 5.089378 26.039471
v -51.856606 9.118217 26.039471
v -48.443531 11.633598 26.039471
v -46.102852 12.694298 26.039471
v -46.102852 22.796173 26.039471
v -44.214684 12.089958 26.039471
v -37.498043 22.796173 26.039471
v -40.170414 9.276436 26.039471
v -36.763916 5.868546 26.039471
v -35.020763 8.279892 26.039471
v -31.919117 10.907280 26.039471
v -28.817486 12.202652 26.039471
v -28.817486 22.796173 26.039471
v -25.244423 10.575554 26.039471
v -18.987894 22.796173 26.039471
v -21.671364 7.254585 26.039471
v -18.531364 1.779015 26.039471
v -15.490133 8.250656 26.039471
v -12.115435 10.961861 26.039471
v -9.131864 12.451927 26.039471
v -9.131864 22.796173 26.039471
v -6.510124 11.127014 26.039459
v -3.194714 8.745354 26.039459
v -95.761185 0.025314 20.648682
v -95.761185 22.796173 -0.090680
v -95.761185 9.223045 3.792220
v -95.761185 12.015526 9.625601
v -95.761185 22.796173 9.625601
v -95.761185 9.223045 15.458981
v -95.761185 5.440125 0.875520
v -95.761185 5.440125 18.375671
v -95.761185 3.981705 -0.090680
v -95.761185 0.018471 -26.039471
v -95.761185 22.796173 -26.039471
v -93.109070 0.000000 -26.039471
v -91.218590 6.994095 -26.039471
v -87.516899 10.297760 -26.039471
v -83.298042 22.796173 -26.039471
v -83.298042 12.506233 -26.039471
v -75.377502 6.994095 -26.039471
v -79.079178 10.297760 -26.039471
v -74.603210 22.796173 -26.039471
v -74.603210 4.129478 -26.039471
v -57.987831 7.102585 -26.039471
v -61.689507 10.667473 -26.039471
v -56.243546 22.796173 -26.039471
v -55.426044 2.375206 -26.039471
v -65.908363 12.506233 -26.039471
v -65.908363 22.796173 -26.039471
v -73.188660 6.994095 -26.039471
v -70.127228 10.297760 -26.039471
v -54.417103 5.089378 -26.039471
v -51.783710 9.118217 -26.039471
v -48.443531 11.633598 -26.039471
v -46.102852 22.796173 -26.039471
v -46.102852 12.694298 -26.039471
v -37.498043 22.796173 -26.039471
v -44.214684 12.089943 -26.039471
v -40.170414 9.276436 -26.039471
v -36.879974 5.868546 -26.039471
v -35.020763 8.279892 -26.039471
v -31.919117 10.907272 -26.039471
v -28.817486 22.796173 -26.039471
v -28.817486 12.202652 -26.039471
v -18.987894 22.796173 -26.039471
v -25.244423 10.575554 -26.039471
v -21.671364 7.254585 -26.039471
v -18.408583 1.779015 -26.039471
v -15.488714 8.250656 -26.039471
v -12.115435 10.961861 -26.039471
v -9.131864 22.796173 -26.039471
v -9.131864 12.451927 -26.039471
v -6.510124 11.127014 -26.039459
v -3.194714 8.745354 -26.039459
v -95.761185 0.025314 -20.561451
v -95.761185 12.015526 -9.806961
v -95.761185 9.223045 -3.973580
v -95.761185 22.796173 -9.806961
v -95.761185 9.223045 -15.640342
v -95.761185 5.440125 -1.056890
v -95.761185 5.440125 -18.557030
vt 16.143499 0.001200
vt 16.143499 1.510700
vt 15.942500 0.000000
vt 15.817200 0.463500
vt 15.571900 0.682400
vt 15.292300 1.510700
vt 15.292300 0.828800
vt 14.767400 0.463500
vt 15.012800 0.682400
vt 14.716100 1.510700
vt 14.716100 0.273700
vt 13.615000 0.470700
vt 13.860300 0.706900
vt 13.499400 1.510700
vt 13.486300 0.157400
vt 14.139900 0.828800
vt 14.139900 1.510700
vt 14.664800 0.463500
vt 14.419500 0.682400
vt 13.408400 0.337300
vt 13.228300 0.604300
vt 12.982500 0.771000
vt 12.827400 1.510700
vt 12.827400 0.841300
vt 12.257200 1.510700
vt 12.702300 0.801200
vt 12.434300 0.614800
vt 12.257200 0.388900
vt 12.093000 0.548700
vt 11.887400 0.722800
vt 11.681900 1.510700
vt 11.681900 0.808700
vt 11.030500 1.510700
vt 11.445100 0.700800
vt 11.208300 0.480800
vt 11.030500 0.117900
vt 10.832800 0.546800
vt 10.575100 0.726400
vt 10.377300 1.510700
vt 10.377300 0.825200
vt 9.784800 1.510700
vt 10.203600 0.737400
vt 9.983900 0.579600
vt 9.784800 0.384200
vt 16.500700 0.001700
vt 17.231199 0.796300
vt 17.617800 0.611200
vt 17.875099 1.510700
vt 17.231199 1.510700
vt 16.844700 0.611200
vt 17.811100 0.360500
vt 16.651400 0.360500
vt 17.875099 0.263900
vt 19.594801 0.001200
vt 19.795799 0.000000
vt 19.594801 1.510700
vt 19.921000 0.463500
vt 20.166401 0.682400
vt 20.445900 0.828800
vt 20.445900 1.510700
vt 20.970800 0.463500
vt 21.022100 1.510700
vt 20.725500 0.682400
vt 21.022100 0.273700
vt 22.123199 0.470700
vt 22.238800 1.510700
vt 21.877899 0.706900
vt 22.252001 0.157400
vt 21.598400 1.510700
vt 21.598400 0.828800
vt 21.073500 0.463500
vt 21.318800 0.682400
vt 22.329901 0.337300
vt 22.510000 0.604300
vt 22.755800 0.771000
vt 22.910900 0.841300
vt 22.910900 1.510700
vt 23.035999 0.801200
vt 23.481100 1.510700
vt 23.304001 0.614800
vt 23.481100 0.388900
vt 23.645300 0.548700
vt 23.850800 0.722800
vt 24.056400 0.808700
vt 24.056400 1.510700
vt 24.293200 0.700800
vt 24.707800 1.510700
vt 24.529900 0.480800
vt 24.707800 0.117900
vt 24.905500 0.546800
vt 25.163200 0.726400
vt 25.360901 0.825200
vt 25.360901 1.510700
vt 25.534700 0.737400
vt 25.953501 1.510700
vt 25.754400 0.579600
vt 25.927500 0.384200
vt 19.231701 0.001700
vt 18.132500 0.611200
vt 18.518999 0.796300
vt 18.518999 1.510700
vt 18.905600 0.611200
vt 17.939199 0.360500
vt 19.098900 0.360500
vt 3.451300 0.001200
vt 3.627000 0.000000
vt 3.451300 1.510700
vt 3.789300 0.463500
vt 3.997600 0.682400
vt 4.277200 0.828800
vt 4.277200 1.510700
vt 4.802100 0.463500
vt 4.853400 1.510700
vt 4.556800 0.682400
vt 4.873300 0.273700
vt 5.954500 0.470700
vt 6.070100 1.510700
vt 5.709200 0.706900
vt 6.126600 0.157400
vt 5.429600 1.510700
vt 5.429600 0.828800
vt 4.959900 0.463500
vt 5.150000 0.682400
vt 6.196500 0.337300
vt 6.360800 0.604300
vt 6.587000 0.771000
vt 6.742100 0.841300
vt 6.742100 1.510700
vt 6.867300 0.801200
vt 7.312400 1.510700
vt 7.135300 0.614800
vt 7.361000 0.388900
vt 7.476600 0.548700
vt 7.682100 0.722800
vt 7.887600 0.808700
vt 7.887600 1.510700
vt 8.124400 0.700800
vt 8.539100 1.510700
vt 8.361200 0.480800
vt 8.569300 0.117900
vt 8.770900 0.546800
vt 8.994500 0.726400
vt 9.192200 0.825200
vt 9.192200 1.510700
vt 9.366000 0.737400
vt 9.585700 0.579600
vt 3.094000 0.001700
vt 1.719600 1.510700
vt 1.977000 0.611200
vt 2.363500 0.796300
vt 2.363500 1.510700
vt 2.750100 0.611200
vt 1.783700 0.360500
vt 2.943400 0.360500
vt 1.719600 0.263900
vt 32.286999 0.001200
vt 32.286999 1.510700
vt 32.111198 0.000000
vt 31.986000 0.463500
vt 31.740601 0.682400
vt 31.461100 1.510700
vt 31.461100 0.828800
vt 30.936199 0.463500
vt 31.181499 0.682400
vt 30.884899 1.510700
vt 30.884899 0.273700
vt 29.783800 0.470700
vt 30.029100 0.706900
vt 29.668200 1.510700
vt 29.614000 0.157400
vt 30.308599 0.828800
vt 30.308599 1.510700
vt 30.791100 0.463500
vt 30.588200 0.682400
vt 29.547100 0.337300
vt 29.372601 0.604300
vt 29.151199 0.771000
vt 28.996099 1.510700
vt 28.996099 0.841300
vt 28.425900 1.510700
vt 28.871000 0.801200
vt 28.603001 0.614800
vt 28.384899 0.388900
vt 28.261700 0.548700
vt 28.056200 0.722800
vt 27.850599 1.510700
vt 27.850599 0.808700
vt 27.199200 1.510700
vt 27.613800 0.700800
vt 27.377100 0.480800
vt 27.160801 0.117900
vt 26.967300 0.546800
vt 26.743799 0.726400
vt 26.546101 1.510700
vt 26.546101 0.825200
vt 26.372299 0.737400
vt 26.152599 0.579600
vt 0.000000 0.001200
vt 0.363000 0.001700
vt 0.000000 1.510700
vt 1.075700 0.796300
vt 1.462300 0.611200
vt 1.075700 1.510700
vt 0.689200 0.611200
vt 1.655600 0.360500
vt 0.495900 0.360500
vn 0.000000 0.000000 1.000000
vn 0.000000 -0.000000 1.000000
vn -0.000000 0.000000 1.000000
vn -0.000000 -0.000000 1.000000
vn 1.000000 0.000000 -0.000000
vn 0.000000 0.000000 -1.000000
vn -0.000000 -0.000000 -1.000000
vn 0.000000 -0.000000 -1.000000
vn -1.000000 0.000000 -0.000000
f 1/1/1 2/2/1 3/3/2
f 4/4/2 2/2/1 5/5/1
f 3/3/2 2/2/1 4/4/2
f 6/6/1 7/7/1 5/5/1
f 6/6/1 5/5/1 2/2/1
f 8/8/1 9/9/1 10/10/1
f 9/9/1 7/7/1 6/6/1
f 9/9/1 6/6/1 10/10/1
f 10/10/1 11/11/1 8/8/1
f 12/12/3 13/13/1 14/14/3
f 15/15/2 12/12/3 14/14/3
f 13/13/1 16/16/4 17/17/4
f 13/13/1 17/17/4 14/14/3
f 18/18/1 10/10/1 19/19/4
f 17/17/4 16/16/4 19/19/4
f 17/17/4 19/19/4 10/10/1
f 11/11/1 10/10/1 18/18/1
f 15/15/2 14/14/3 20/20/1
f 21/21/1 14/14/3 22/22/1
f 20/20/1 14/14/3 21/21/1
f 22/22/1 14/14/3 23/23/1
f 22/22/1 23/23/1 24/24/1
f 23/23/1 25/25/4 26/26/1
f 23/23/1 26/26/1 24/24/1
f 26/26/1 25/25/4 27/27/4
f 27/27/4 25/25/4 28/28/4
f 28/28/4 25/25/4 29/29/4
f 29/29/4 25/25/4 30/30/4
f 30/30/4 25/25/4 31/31/4
f 30/30/4 31/31/4 32/32/2
f 31/31/4 33/33/4 34/34/4
f 31/31/4 34/34/4 32/32/2
f 35/35/4 33/33/4 36/36/4
f 34/34/4 33/33/4 35/35/4
f 36/36/4 33/33/4 37/37/2
f 38/38/1 33/33/4 39/39/4
f 38/38/1 39/39/4 40/40/3
f 37/37/2 33/33/4 38/38/1
f 39/39/4 41/41/4 42/42/4
f 39/39/4 42/42/4 40/40/3
f 43/43/2 41/41/4 44/44/2
f 42/42/4 41/41/4 43/43/2
f 1/1/5 45/45/5 2/2/5
f 46/46/5 47/47/5 48/48/5
f 46/46/5 48/48/5 49/49/5
f 50/50/5 46/46/5 49/49/5
f 50/50/5 49/49/5 2/2/5
f 48/48/5 47/47/5 51/51/5
f 2/2/5 52/52/5 50/50/5
f 48/48/5 51/51/5 53/53/5
f 2/2/5 45/45/5 52/52/5
f 54/54/6 55/55/6 56/56/6
f 57/57/6 58/58/7 56/56/6
f 55/55/6 57/57/6 56/56/6
f 58/58/7 59/59/8 60/60/7
f 58/58/7 60/60/7 56/56/6
f 61/61/6 62/62/6 63/63/8
f 60/60/7 59/59/8 63/63/8
f 60/60/7 63/63/8 62/62/6
f 62/62/6 61/61/6 64/64/6
f 65/65/6 66/66/6 67/67/8
f 68/68/6 66/66/6 65/65/6
f 69/69/7 70/70/7 67/67/8
f 69/69/7 67/67/8 66/66/6
f 71/71/6 72/72/7 62/62/6
f 72/72/7 70/70/7 69/69/7
f 72/72/7 69/69/7 62/62/6
f 64/64/6 71/71/6 62/62/6
f 68/68/6 73/73/6 66/66/6
f 74/74/6 75/75/6 66/66/6
f 73/73/6 74/74/6 66/66/6
f 75/75/6 76/76/6 77/77/6
f 75/75/6 77/77/6 66/66/6
f 77/77/6 76/76/6 78/78/6
f 77/77/6 78/78/6 79/79/7
f 78/78/6 80/80/7 79/79/7
f 80/80/7 81/81/7 79/79/7
f 81/81/7 82/82/7 79/79/7
f 82/82/7 83/83/7 79/79/7
f 83/83/7 84/84/8 85/85/8
f 83/83/7 85/85/8 79/79/7
f 85/85/8 84/84/8 86/86/8
f 85/85/8 86/86/8 87/87/7
f 88/88/7 89/89/7 87/87/7
f 86/86/8 88/88/7 87/87/7
f 89/89/7 90/90/7 87/87/7
f 91/91/7 92/92/7 93/93/7
f 91/91/7 93/93/7 87/87/7
f 90/90/7 91/91/7 87/87/7
f 93/93/7 92/92/7 94/94/7
f 93/93/7 94/94/7 95/95/7
f 96/96/8 97/97/8 95/95/7
f 94/94/7 96/96/8 95/95/7
f 54/54/5 56/56/5 98/98/5
f 48/48/5 99/99/5 100/100/5
f 48/48/5 100/100/5 101/101/5
f 101/101/5 100/100/5 102/102/5
f 101/101/5 102/102/5 56/56/5
f 99/99/5 48/48/5 103/103/5
f 56/56/5 102/102/5 104/104/5
f 103/103/5 48/48/5 53/53/5
f 56/56/5 104/104/5 98/98/5
f 105/105/1 106/106/1 107/107/1
f 108/108/1 109/109/1 107/107/1
f 106/106/1 108/108/1 107/107/1
f 109/109/1 110/110/1 111/111/3
f 109/109/1 111/111/3 107/107/1
f 112/112/1 113/113/3 114/114/3
f 111/111/3 110/110/1 114/114/3
f 111/111/3 114/114/3 113/113/3
f 113/113/3 112/112/1 115/115/1
f 116/116/1 117/117/1 118/118/4
f 119/119/1 117/117/1 116/116/1
f 120/120/2 121/121/2 118/118/4
f 120/120/2 118/118/4 117/117/1
f 122/122/1 123/123/2 113/113/3
f 123/123/2 121/121/2 120/120/2
f 123/123/2 120/120/2 113/113/3
f 115/115/1 122/122/1 113/113/3
f 119/119/1 124/124/1 117/117/1
f 125/125/1 126/126/1 117/117/1
f 124/124/1 125/125/1 117/117/1
f 126/126/1 127/127/3 128/128/3
f 126/126/1 128/128/3 117/117/1
f 128/128/3 127/127/3 129/129/3
f 128/128/3 129/129/3 130/130/4
f 129/129/3 131/131/2 130/130/4
f 131/131/2 132/132/2 130/130/4
f 132/132/2 133/133/2 130/130/4
f 133/133/2 134/134/2 130/130/4
f 134/134/2 135/135/4 136/136/4
f 134/134/2 136/136/4 130/130/4
f 136/136/4 135/135/4 137/137/4
f 136/136/4 137/137/4 138/138/2
f 139/139/4 140/140/2 138/138/2
f 137/137/4 139/139/4 138/138/2
f 140/140/2 141/141/2 138/138/2
f 142/142/2 143/143/1 144/144/2
f 142/142/2 144/144/2 138/138/2
f 141/141/2 142/142/2 138/138/2
f 144/144/2 143/143/1 145/145/2
f 144/144/2 145/145/2 41/41/4
f 146/146/4 44/44/2 41/41/4
f 145/145/2 146/146/4 41/41/4
f 105/105/9 107/107/9 147/147/9
f 148/148/9 149/149/9 150/150/9
f 148/148/9 150/150/9 151/151/9
f 151/151/9 150/150/9 152/152/9
f 151/151/9 152/152/9 107/107/9
f 148/148/9 153/153/9 149/149/9
f 107/107/9 152/152/9 154/154/9
f 148/148/9 155/155/9 153/153/9
f 107/107/9 154/154/9 147/147/9
f 156/156/6 157/157/6 158/158/6
f 159/159/6 157/157/6 160/160/8
f 158/158/6 157/157/6 159/159/6
f 161/161/8 162/162/8 160/160/8
f 161/161/8 160/160/8 157/157/6
f 163/163/6 164/164/7 165/165/6
f 164/164/7 162/162/8 161/161/8
f 164/164/7 161/161/8 165/165/6
f 165/165/6 166/166/6 163/163/6
f 167/167/6 168/168/7 169/169/6
f 170/170/6 167/167/6 169/169/6
f 168/168/7 171/171/8 172/172/8
f 168/168/7 172/172/8 169/169/6
f 173/173/6 165/165/6 174/174/8
f 172/172/8 171/171/8 174/174/8
f 172/172/8 174/174/8 165/165/6
f 166/166/6 165/165/6 173/173/6
f 170/170/6 169/169/6 175/175/6
f 176/176/6 169/169/6 177/177/6
f 175/175/6 169/169/6 176/176/6
f 177/177/6 169/169/6 178/178/6
f 177/177/6 178/178/6 179/179/6
f 178/178/6 180/180/8 181/181/6
f 178/178/6 181/181/6 179/179/6
f 181/181/6 180/180/8 182/182/8
f 182/182/8 180/180/8 183/183/8
f 183/183/8 180/180/8 184/184/8
f 184/184/8 180/180/8 185/185/8
f 185/185/8 180/180/8 186/186/7
f 185/185/8 186/186/7 187/187/7
f 186/186/7 188/188/8 189/189/7
f 186/186/7 189/189/7 187/187/7
f 190/190/8 188/188/8 191/191/8
f 189/189/7 188/188/8 190/190/8
f 191/191/8 188/188/8 192/192/8
f 193/193/8 188/188/8 194/194/8
f 193/193/8 194/194/8 195/195/8
f 192/192/8 188/188/8 193/193/8
f 194/194/8 95/95/7 196/196/8
f 194/194/8 196/196/8 195/195/8
f 197/197/7 95/95/7 97/97/8
f 196/196/8 95/95/7 197/197/7
f 156/198/9 198/199/9 157/200/9
f 199/201/9 200/202/9 148/148/9
f 199/201/9 148/148/9 201/203/9
f 202/204/9 199/201/9 201/203/9
f 202/204/9 201/203/9 157/200/9
f 200/202/9 203/205/9 148/148/9
f 157/200/9 204/206/9 202/204/9
f 203/205/9 155/155/9 148/148/9
f 157/200/9 198/199/9 204/206/9
