v 2.849022 0.000000 -2.949690
v 2.891228 0.000000 -2.932209
v 2.937481 0.000000 -2.885960
v 2.954964 0.000000 2.843740
v 2.954964 0.000000 -2.768099
v 2.954964 0.000000 2.726580
v 2.954964 0.000000 -2.843748
v 2.937481 0.000000 2.885950
v 2.891228 0.000000 2.932199
v -2.849020 0.000000 2.949692
v 2.717232 0.000000 2.949692
v -2.751730 0.000000 2.949692
v 2.849022 0.000000 2.949692
v -2.891220 0.000000 2.932199
v -2.937479 0.000000 2.885950
v -2.954960 0.000000 -2.843748
v -2.954960 0.000000 2.728571
v -2.954960 0.000000 -2.706518
v -2.954960 0.000000 2.843740
v -2.937479 0.000000 -2.885948
v -2.891230 0.000000 -2.932209
v -2.720911 0.000000 -2.949690
v 2.804031 0.000000 -2.949690
v -2.849020 0.000000 -2.949690
v -2.954960 0.847488 2.843740
v -2.937479 0.847488 2.885950
v -2.891220 0.847488 2.932199
v 2.849022 0.847488 2.949692
v -2.751730 0.847488 2.949692
v 2.717232 0.847488 2.949692
v -2.849020 0.847488 2.949692
v 2.891228 0.847488 2.932199
v 2.937481 0.847488 2.885950
v 2.954964 0.847488 -2.843748
v 2.954964 0.847488 2.726580
v 2.954964 0.847488 -2.768099
v 2.954964 0.847488 2.843740
v 2.937481 0.847488 -2.885960
v 2.891228 0.847488 -2.932209
v -2.849020 0.847488 -2.949690
v 2.804031 0.847488 -2.949690
v -2.720911 0.847488 -2.949690
v 2.849022 0.847488 -2.949690
v -2.891230 0.847488 -2.932209
v -2.937479 0.847488 -2.885948
v -2.954960 0.847488 -2.706518
v -2.954960 0.847488 2.728571
v -2.954960 0.847488 -2.843748
v -2.855921 0.034676 -2.984369
v -2.855921 0.620369 -2.984369
v -2.727491 0.423973 -2.984369
v -2.727491 0.227570 -2.984369
v 2.989639 0.034676 -2.850649
v 2.989639 0.620369 -2.850649
v 2.989639 0.423973 -2.774809
v 2.989639 0.227570 -2.774809
v 2.910870 0.034676 -2.961609
v 2.910870 0.812813 -2.961609
v 2.966881 0.812813 -2.905600
v 2.966881 0.034676 -2.905600
v -2.910872 0.034676 -2.961609
v -2.966879 0.034676 -2.905600
v -2.966879 0.812813 -2.905600
v -2.910872 0.812813 -2.961609
v 2.966881 0.034676 2.905602
v 2.966881 0.812813 2.905602
v 2.910870 0.812813 2.961601
v 2.910870 0.034676 2.961601
v 2.855919 0.620369 -2.984369
v 2.855919 0.812813 -2.984369
v 2.855919 0.034676 -2.984369
v -2.855921 0.812813 -2.984369
v 2.989639 0.034676 2.850641
v 2.989639 0.620369 2.850641
v 2.989639 0.812813 -2.850649
v -2.989639 0.034676 -2.850649
v -2.989639 0.620369 -2.850649
v -2.989639 0.812813 -2.850649
v 2.855919 0.620369 2.984362
v 2.855919 0.034676 2.984362
v 2.989639 0.034676 2.733191
v 2.810822 0.034676 -2.984369
v -2.727491 0.812813 -2.984369
v 2.989639 0.812813 -2.774809
v 2.855919 0.812813 2.984362
v 2.989639 0.812813 2.850641
v 2.723808 0.423973 2.984362
v 2.723808 0.227570 2.984362
v -2.989639 0.034676 2.850641
v -2.989639 0.620369 2.850641
v -2.989639 0.423973 2.735191
v -2.989639 0.227570 2.735191
v -2.910872 0.034676 2.961601
v -2.910872 0.812813 2.961601
v -2.966879 0.812813 2.905602
v -2.966879 0.034676 2.905602
v -2.855921 0.620369 2.984371
v -2.855921 0.812813 2.984371
v -2.855921 0.034676 2.984371
v -2.989639 0.812813 2.850641
v -2.989639 0.034676 -2.713089
v -2.758390 0.034676 2.984371
v 2.723808 0.812813 2.984362
v -2.989639 0.812813 2.735191
v 2.810822 0.620369 -2.984369
v 2.989639 0.620369 2.733191
v 2.989639 0.812813 2.733191
v -2.758390 0.620369 2.984371
v -2.989639 0.620369 -2.713089
v -2.727491 0.034676 -2.984369
v -2.679270 0.227570 -2.984369
v 2.810822 0.812813 -2.984369
v -2.727491 0.620369 -2.984369
v 2.743469 0.620369 -2.984369
v 2.810822 0.423973 -2.984369
v 2.743469 0.423973 -2.713148
v 2.810822 0.227570 -2.984369
v 2.989639 0.227570 2.733191
v 2.989639 0.034676 -2.774809
v 2.989639 0.620369 2.680820
v 2.989639 0.423973 2.733191
v 2.794750 0.423973 2.680820
v 2.989639 0.227570 -2.702269
v 2.989639 0.620369 -2.774809
v -2.758390 0.227570 2.984371
v 2.723808 0.034676 2.984362
v -2.758390 0.812813 2.984371
v -2.701410 0.620369 2.984371
v -2.758390 0.423973 2.984371
v -2.701410 0.423973 2.786081
v 2.660923 0.227570 2.984362
v 2.723808 0.620369 2.984362
v -2.989639 0.227570 -2.713089
v -2.989639 0.034676 2.735191
v -2.989639 0.812813 -2.713089
v -2.989639 0.620369 -2.647619
v -2.989639 0.423973 -2.713089
v -2.744480 0.423973 -2.647619
v -2.989639 0.227570 2.684792
v -2.989639 0.620369 2.735191
v -2.679270 0.423973 -2.713148
v 2.794743 0.423973 -2.702269
v 2.660923 0.423973 2.786072
v -2.744471 0.423973 2.684792
v -2.989639 0.620369 2.684792
v -2.989639 0.227570 -2.647619
v 2.660923 0.620369 2.984362
v -2.701410 0.227570 2.984371
v 2.989639 0.620369 -2.702269
v 2.989639 0.227570 2.680820
v -2.679270 0.620369 -2.984369
v 2.743469 0.227570 -2.984369
vt 0.673400 -0.662200
vt 0.671300 -0.663100
vt 0.668700 -0.665600
vt 0.667800 -0.976900
vt 0.667800 -0.672000
vt 0.667800 -0.970500
vt 0.667800 -0.667900
vt 0.668700 -0.979200
vt 0.671300 -0.981700
vt 0.983100 -0.982600
vt 0.680700 -0.982600
vt 0.977800 -0.982600
vt 0.673600 -0.982600
vt 0.985300 -0.981700
vt 0.987900 -0.979200
vt 0.988800 -0.667900
vt 0.988800 -0.970600
vt 0.988800 -0.675400
vt 0.988800 -0.976900
vt 0.987900 -0.665600
vt 0.985300 -0.663100
vt 0.976100 -0.662100
vt 0.675800 -0.662200
vt 0.983100 -0.662100
vt 0.563100 -0.653600
vt 0.562600 -0.652600
vt 0.561600 -0.651500
vt 0.427600 -0.651100
vt 0.558300 -0.651100
vt 0.430700 -0.651100
vt 0.560600 -0.651100
vt 0.426600 -0.651500
vt 0.425600 -0.652600
vt 0.425200 -0.786300
vt 0.425200 -0.656300
vt 0.425200 -0.784500
vt 0.425200 -0.653600
vt 0.425600 -0.787300
vt 0.426600 -0.788400
vt 0.560600 -0.788800
vt 0.428600 -0.788800
vt 0.557700 -0.788800
vt 0.427600 -0.788800
vt 0.561600 -0.788400
vt 0.562600 -0.787300
vt 0.563100 -0.783100
vt 0.563100 -0.656300
vt 0.563100 -0.786300
vt 0.014300 -0.623300
vt 0.045000 -0.623300
vt 0.034700 -0.616600
vt 0.024400 -0.616600
vt 0.014300 -0.315200
vt 0.045000 -0.315200
vt 0.034700 -0.311200
vt 0.024400 -0.311200
vt 0.014300 -0.321000
vt 0.055100 -0.321000
vt 0.055100 -0.318100
vt 0.014300 -0.318100
vt 0.014300 -0.626200
vt 0.014300 -0.629100
vt 0.055100 -0.629100
vt 0.055100 -0.626200
vt 0.014300 -0.013400
vt 0.055100 -0.013400
vt 0.055100 -0.010500
vt 0.014300 -0.010500
vt 0.045000 -0.323900
vt 0.055100 -0.323900
vt 0.014300 -0.323900
vt 0.055100 -0.623300
vt 0.014300 -0.016300
vt 0.045000 -0.016300
vt 0.055100 -0.315200
vt 0.014300 -0.632000
vt 0.045000 -0.632000
vt 0.055100 -0.632000
vt 0.045000 -0.007600
vt 0.014300 -0.007600
vt 0.012400 -0.016500
vt 0.012400 -0.022600
vt 0.014300 -0.022400
vt 0.012500 -0.324100
vt 0.012500 -0.326400
vt 0.014300 -0.326200
vt 0.056900 -0.623100
vt 0.056900 -0.616400
vt 0.055100 -0.616600
vt 0.057000 -0.315100
vt 0.057000 -0.311200
vt 0.055100 -0.311200
vt 0.012500 -0.626200
vt 0.012500 -0.629200
vt 0.012600 -0.318000
vt 0.012600 -0.321000
vt 0.012500 -0.010400
vt 0.012200 -0.013400
vt 0.057200 -0.629200
vt 0.056900 -0.626200
vt 0.056800 -0.321000
vt 0.057000 -0.318000
vt 0.057200 -0.013400
vt 0.057200 -0.010400
vt 0.012600 -0.623000
vt 0.057600 -0.007900
vt 0.055100 -0.007600
vt 0.012600 -0.631700
vt 0.012500 -0.315200
vt 0.012600 -0.007900
vt 0.057100 -0.631700
vt 0.056900 -0.324100
vt 0.055100 -0.016300
vt 0.057200 -0.016300
vt 0.034700 -0.616400
vt 0.024400 -0.616400
vt 0.034700 -0.309100
vt 0.024400 -0.309100
vt 0.012400 -0.023700
vt 0.014300 -0.023500
vt 0.012500 -0.329200
vt 0.014300 -0.329000
vt 0.056900 -0.616200
vt 0.055100 -0.616400
vt 0.057000 -0.309100
vt 0.055100 -0.309100
vt 0.045000 -0.326200
vt 0.045000 -0.022400
vt 0.055100 -0.022400
vt 0.045000 -0.329000
vt 0.045000 -0.023500
vt 0.014300 -0.616600
vt 0.024400 -0.614100
vt 0.012600 -0.616300
vt 0.056900 -0.326500
vt 0.055100 -0.326200
vt 0.045000 -0.616600
vt 0.045000 -0.329800
vt 0.034700 -0.326200
vt 0.034700 -0.329800
vt 0.024400 -0.326200
vt 0.024400 -0.022400
vt 0.012500 -0.311200
vt 0.014300 -0.311200
vt 0.057200 -0.022500
vt 0.045000 -0.025200
vt 0.034700 -0.022400
vt 0.034700 -0.025200
vt 0.024400 -0.307400
vt 0.045000 -0.311200
vt 0.024400 -0.329000
vt 0.012600 -0.616100
vt 0.014300 -0.616400
vt 0.055100 -0.329000
vt 0.056900 -0.329200
vt 0.045000 -0.332000
vt 0.034700 -0.329000
vt 0.034700 -0.332000
vt 0.024400 -0.613100
vt 0.045000 -0.616400
vt 0.024400 -0.023500
vt 0.012500 -0.309100
vt 0.014300 -0.309100
vt 0.055100 -0.023500
vt 0.057200 -0.023500
vt 0.045000 -0.026900
vt 0.034700 -0.023500
vt 0.034700 -0.026900
vt 0.024400 -0.306500
vt 0.045000 -0.309100
vt 0.034700 -0.614100
vt 0.034700 -0.307400
vt 0.034700 -0.613100
vt 0.034700 -0.306500
vt 0.045000 -0.306500
vt 0.024400 -0.026900
vt 0.045000 -0.613100
vt 0.024400 -0.332000
vt 0.045000 -0.307400
vt 0.024400 -0.025200
vt 0.045000 -0.614100
vt 0.024400 -0.329800
vn 0.081400 -0.908800 -0.409200
vn 0.231800 -0.908800 -0.346900
vn 0.346900 -0.908800 -0.231800
vn 0.409200 -0.908800 0.081400
vn 0.382700 -0.923900 -0.000000
vn 0.409200 -0.908800 -0.081400
vn 0.346900 -0.908800 0.231800
vn 0.231800 -0.908800 0.346900
vn -0.081400 -0.908800 0.409200
vn 0.000000 -0.923900 0.382700
vn 0.081400 -0.908800 0.409200
vn -0.231800 -0.908800 0.346900
vn -0.346900 -0.908800 0.231800
vn -0.409200 -0.908800 -0.081400
vn -0.382700 -0.923900 -0.000000
vn -0.382700 -0.923900 0.000000
vn -0.409200 -0.908800 0.081400
vn -0.346900 -0.908800 -0.231800
vn -0.231800 -0.908800 -0.346900
vn -0.000000 -0.923900 -0.382700
vn -0.081400 -0.908800 -0.409200
vn -0.409200 0.908800 0.081400
vn -0.346900 0.908800 0.231800
vn -0.231800 0.908800 0.346900
vn 0.081400 0.908800 0.409300
vn 0.000000 0.923900 0.382700
vn -0.081400 0.908800 0.409200
vn 0.231800 0.908800 0.346900
vn 0.346900 0.908800 0.231800
vn 0.409200 0.908800 -0.081400
vn 0.382700 0.923900 -0.000000
vn 0.409200 0.908800 0.081400
vn 0.346900 0.908800 -0.231800
vn 0.231800 0.908800 -0.346900
vn -0.081400 0.908800 -0.409200
vn -0.000000 0.923900 -0.382700
vn 0.081400 0.908800 -0.409200
vn -0.231800 0.908800 -0.346900
vn -0.346900 0.908800 -0.231800
vn -0.382700 0.923900 -0.000000
vn -0.382700 0.923900 0.000000
vn -0.409200 0.908800 -0.081400
vn -0.181200 -0.371000 -0.910800
vn -0.195100 0.000000 -0.980800
vn 0.000000 0.000000 -1.000000
vn 0.910800 -0.371000 -0.181100
vn 0.980800 0.000000 -0.195100
vn 1.000000 0.000000 -0.000000
vn 0.515900 -0.371000 -0.772200
vn 0.515900 0.371000 -0.772200
vn 0.772100 0.371000 -0.515900
vn 0.772100 -0.371000 -0.515900
vn -0.515900 -0.371000 -0.772100
vn -0.772100 -0.371000 -0.515900
vn -0.772100 0.371000 -0.515900
vn -0.515900 0.371000 -0.772100
vn 0.772100 -0.371000 0.515900
vn 0.772100 0.371000 0.515900
vn 0.515900 0.371000 0.772100
vn 0.515900 -0.371000 0.772100
vn 0.195100 0.000000 -0.980800
vn 0.181200 0.371000 -0.910800
vn 0.181200 -0.371000 -0.910800
vn -0.181200 0.371000 -0.910800
vn 0.910800 -0.371000 0.181200
vn 0.980800 0.000000 0.195100
vn 0.910800 0.371000 -0.181100
vn -0.910800 -0.371000 -0.181200
vn -0.980800 0.000000 -0.195100
vn -0.910800 0.371000 -0.181200
vn 0.195100 0.000000 0.980800
vn 0.181200 -0.371000 0.910800
vn 0.923900 -0.382700 -0.000000
vn 0.000000 -0.382700 -0.923900
vn 0.000000 0.382700 -0.923900
vn 0.923900 0.382700 -0.000000
vn 0.181200 0.371000 0.910800
vn 0.910800 0.371000 0.181200
vn 0.000000 0.000000 1.000000
vn -0.910800 -0.371000 0.181200
vn -0.980800 0.000000 0.195100
vn -1.000000 0.000000 -0.000000
vn -0.515900 -0.371000 0.772100
vn -0.515900 0.371000 0.772100
vn -0.772100 0.371000 0.515900
vn -0.772100 -0.371000 0.515900
vn -0.195100 0.000000 0.980800
vn -0.181200 0.371000 0.910800
vn -0.181200 -0.371000 0.910800
vn -0.910800 0.371000 0.181200
vn -0.923900 -0.382700 0.000000
vn 0.000000 -0.382700 0.923900
vn 0.000000 0.382700 0.923900
vn -0.923900 0.382700 0.000000
vn -0.000000 -0.382700 -0.923900
vn -0.000000 0.382700 -0.923900
vn -0.517200 -0.177400 -0.837300
vn -0.898400 -0.000000 -0.439100
vn -0.970500 -0.000000 -0.241000
vn 0.967800 -0.251600 -0.000000
vn 0.887000 -0.119000 -0.446300
vn 0.413400 -0.000000 -0.910600
vn 0.259500 -0.000000 -0.965700
vn 0.967800 0.251600 -0.000000
vn 0.449400 -0.130400 0.883800
vn 0.897400 -0.000000 0.441200
vn 0.961100 -0.000000 0.276200
vn -1.000000 0.000000 0.000000
vn -0.852400 -0.165400 0.496100
vn -0.448600 -0.000000 0.893700
vn -0.258000 -0.000000 0.966100
vn 0.946100 -0.000000 -0.323900
vn 0.984600 -0.000000 -0.175100
vn 0.521300 0.128000 -0.843700
vn 0.543700 -0.000000 0.839300
vn 0.348800 -0.000000 0.937200
vn 0.882800 0.162700 0.440600
vn -0.877300 -0.000000 0.480000
vn -0.953200 -0.000000 0.302300
vn -0.447800 0.143400 0.882600
vn -0.354800 -0.000000 -0.934900
vn -0.201400 -0.000000 -0.979500
vn -0.856700 0.128200 -0.499600
vn -0.625200 -0.780500 0.000000
vn -0.852400 0.165400 0.496100
vn -0.625200 0.780500 0.000000
vn -0.856700 -0.128200 -0.499600
vn 0.000000 -0.710500 0.703700
vn 0.449400 0.130400 0.883800
vn 0.000000 0.710500 0.703700
vn -0.447800 -0.143400 0.882600
vn 1.000000 -0.000000 -0.000000
vn 0.887000 0.119000 -0.446200
vn 0.882800 -0.162700 0.440600
vn 0.000000 -0.809900 -0.586500
vn -0.517100 0.177400 -0.837300
vn 0.000000 0.809900 -0.586500
vn 0.521300 -0.128000 -0.843700
vn 0.000000 -0.000000 1.000000
vn -1.000000 -0.000000 0.000000
usemtl sponza/column_b
f 1/1/1 2/2/2 3/3/3
f 1/1/1 3/3/3 4/4/4
f 5/5/5 6/6/5 3/3/3
f 5/5/5 3/3/3 7/7/6
f 3/3/3 6/6/5 4/4/4
f 4/4/4 8/8/7 9/9/8
f 4/4/4 9/9/8 10/10/9
f 11/11/10 12/12/10 9/9/8
f 11/11/10 9/9/8 13/13/11
f 9/9/8 12/12/10 10/10/9
f 10/10/9 14/14/12 15/15/13
f 10/10/9 15/15/13 16/16/14
f 17/17/15 18/18/16 15/15/13
f 17/17/15 15/15/13 19/19/17
f 15/15/13 18/18/16 16/16/14
f 10/10/9 16/16/14 1/1/1
f 10/10/9 1/1/1 4/4/4
f 16/16/14 20/20/18 21/21/19
f 16/16/14 21/21/19 1/1/1
f 21/21/19 22/22/20 23/23/20
f 21/21/19 23/23/20 1/1/1
f 24/24/21 22/22/20 21/21/19
f 25/25/22 26/26/23 27/27/24
f 25/25/22 27/27/24 28/28/25
f 29/29/26 30/30/26 27/27/24
f 29/29/26 27/27/24 31/31/27
f 27/27/24 30/30/26 28/28/25
f 28/28/25 32/32/28 33/33/29
f 28/28/25 33/33/29 34/34/30
f 35/35/31 36/36/31 33/33/29
f 35/35/31 33/33/29 37/37/32
f 33/33/29 36/36/31 34/34/30
f 34/34/30 38/38/33 39/39/34
f 34/34/30 39/39/34 40/40/35
f 41/41/36 42/42/36 39/39/34
f 41/41/36 39/39/34 43/43/37
f 39/39/34 42/42/36 40/40/35
f 34/34/30 40/40/35 25/25/22
f 34/34/30 25/25/22 28/28/25
f 40/40/35 44/44/38 45/45/39
f 40/40/35 45/45/39 25/25/22
f 45/45/39 46/46/40 47/47/41
f 45/45/39 47/47/41 25/25/22
f 48/48/42 46/46/40 45/45/39
f 49/49/43 50/50/44 51/51/45
f 49/49/43 51/51/45 52/52/45
f 53/53/46 54/54/47 55/55/48
f 53/53/46 55/55/48 56/56/48
f 57/57/49 58/58/50 59/59/51
f 57/57/49 59/59/51 60/60/52
f 61/61/53 62/62/54 63/63/55
f 61/61/53 63/63/55 64/64/56
f 65/65/57 66/66/58 67/67/59
f 65/65/57 67/67/59 68/68/60
f 69/69/61 70/70/62 58/58/50
f 69/69/61 58/58/50 57/57/49
f 71/71/63 69/69/61 57/57/49
f 50/50/44 49/49/43 61/61/53
f 50/50/44 61/61/53 64/64/56
f 72/72/64 50/50/44 64/64/56
f 65/65/57 73/73/65 74/74/66
f 65/65/57 74/74/66 66/66/58
f 54/54/47 53/53/46 59/59/51
f 54/54/47 59/59/51 75/75/67
f 60/60/52 59/59/51 53/53/46
f 62/62/54 76/76/68 77/77/69
f 62/62/54 77/77/69 63/63/55
f 63/63/55 77/77/69 78/78/70
f 68/68/60 67/67/59 79/79/71
f 68/68/60 79/79/71 80/80/72
f 4/81/4 6/82/5 81/83/73
f 4/81/4 81/83/73 73/73/65
f 1/84/1 23/85/20 82/86/74
f 1/84/1 82/86/74 71/71/63
f 40/87/35 42/88/36 83/89/75
f 40/87/35 83/89/75 72/72/64
f 34/90/30 36/91/31 84/92/76
f 34/90/30 84/92/76 75/75/67
f 61/61/53 21/93/19 20/94/18
f 61/61/53 20/94/18 62/62/54
f 60/60/52 3/95/3 2/96/2
f 60/60/52 2/96/2 57/57/49
f 68/68/60 9/97/8 8/98/7
f 68/68/60 8/98/7 65/65/57
f 63/63/55 45/99/39 44/100/38
f 63/63/55 44/100/38 64/64/56
f 58/58/50 39/101/34 38/102/33
f 58/58/50 38/102/33 59/59/51
f 66/66/58 33/103/29 32/104/28
f 66/66/58 32/104/28 67/67/59
f 49/49/43 24/105/21 21/93/19
f 49/49/43 21/93/19 61/61/53
f 57/57/49 2/96/2 1/84/1
f 57/57/49 1/84/1 71/71/63
f 65/65/57 8/98/7 4/81/4
f 65/65/57 4/81/4 73/73/65
f 64/64/56 44/100/38 40/87/35
f 64/64/56 40/87/35 72/72/64
f 59/59/51 38/102/33 34/90/30
f 59/59/51 34/90/30 75/75/67
f 67/67/59 32/104/28 28/106/25
f 67/67/59 28/106/25 85/107/77
f 62/62/54 20/94/18 16/108/14
f 62/62/54 16/108/14 76/76/68
f 53/53/46 7/109/6 3/95/3
f 53/53/46 3/95/3 60/60/52
f 80/80/72 13/110/11 9/97/8
f 80/80/72 9/97/8 68/68/60
f 78/78/70 48/111/42 45/99/39
f 78/78/70 45/99/39 63/63/55
f 70/70/62 43/112/37 39/101/34
f 70/70/62 39/101/34 58/58/50
f 86/113/78 37/114/32 33/103/29
f 86/113/78 33/103/29 66/66/58
f 80/49/72 79/50/71 87/115/79
f 80/49/72 87/115/79 88/116/79
f 89/53/80 90/54/81 91/117/82
f 89/53/80 91/117/82 92/118/82
f 93/57/83 94/58/84 95/59/85
f 93/57/83 95/59/85 96/60/86
f 97/69/87 98/70/88 94/58/84
f 97/69/87 94/58/84 93/57/83
f 99/71/89 97/69/87 93/57/83
f 90/54/81 89/53/80 95/59/85
f 90/54/81 95/59/85 100/75/90
f 96/60/86 95/59/85 89/53/80
f 16/81/14 18/119/16 101/120/91
f 16/81/14 101/120/91 76/73/68
f 10/84/9 12/121/10 102/122/92
f 10/84/9 102/122/92 99/71/89
f 28/87/25 30/123/26 103/124/93
f 28/87/25 103/124/93 85/72/77
f 25/90/22 47/125/41 104/126/94
f 25/90/22 104/126/94 100/75/90
f 96/60/86 15/95/13 14/96/12
f 96/60/86 14/96/12 93/57/83
f 94/58/84 27/101/24 26/102/23
f 94/58/84 26/102/23 95/59/85
f 93/57/83 14/96/12 10/84/9
f 93/57/83 10/84/9 99/71/89
f 95/59/85 26/102/23 25/90/22
f 95/59/85 25/90/22 100/75/90
f 89/53/80 19/109/17 15/95/13
f 89/53/80 15/95/13 96/60/86
f 98/70/88 31/112/27 27/101/24
f 98/70/88 27/101/24 94/58/84
f 69/69/61 105/127/45 70/70/62
f 74/74/66 106/128/48 107/129/76
f 74/74/66 107/129/76 86/113/78
f 97/69/87 108/130/79 98/70/88
f 77/74/69 109/131/82 78/113/70
f 110/132/95 52/52/45 111/133/45
f 110/132/95 22/134/20 24/105/21
f 110/132/95 24/105/21 49/49/43
f 42/88/36 41/135/36 112/136/96
f 42/88/36 112/136/96 83/89/75
f 83/89/75 113/137/45 72/72/64
f 113/137/45 51/51/45 50/50/44
f 23/85/20 22/134/20 110/132/95
f 23/85/20 110/132/95 82/86/74
f 112/136/96 105/127/45 114/138/45
f 114/138/97 105/127/45 115/139/98
f 114/138/97 115/139/98 116/140/99
f 82/86/74 117/141/45 71/71/63
f 112/136/96 41/135/36 43/112/37
f 112/136/96 43/112/37 70/70/62
f 81/83/73 118/142/48 73/73/65
f 6/82/5 5/143/5 119/144/73
f 6/82/5 119/144/73 81/83/73
f 107/129/76 35/145/31 37/114/32
f 107/129/76 37/114/32 86/113/78
f 107/129/76 106/128/48 120/146/100
f 120/146/101 106/128/48 121/147/102
f 120/146/101 121/147/102 122/148/103
f 119/144/73 56/56/48 123/149/104
f 36/91/31 35/145/31 107/129/76
f 36/91/31 107/129/76 84/92/76
f 119/144/73 5/143/5 7/109/6
f 119/144/73 7/109/6 53/53/46
f 84/92/76 124/150/48 75/75/67
f 124/150/48 55/55/48 54/54/47
f 102/122/92 125/151/79 99/71/89
f 12/121/10 11/152/10 126/153/92
f 12/121/10 126/153/92 102/122/92
f 127/154/93 29/155/26 31/112/27
f 127/154/93 31/112/27 98/70/88
f 127/154/93 108/130/79 128/156/79
f 128/156/105 108/130/79 129/157/106
f 128/156/105 129/157/106 130/158/107
f 126/153/92 88/116/79 131/159/79
f 30/123/26 29/155/26 127/154/93
f 30/123/26 127/154/93 103/124/93
f 126/153/92 11/152/10 13/105/11
f 126/153/92 13/105/11 80/49/72
f 103/124/93 132/160/79 79/50/71
f 103/124/93 79/50/71 85/72/77
f 132/160/79 87/115/79 79/50/71
f 101/120/91 133/161/82 76/73/68
f 18/119/16 17/162/15 134/163/91
f 18/119/16 134/163/91 101/120/91
f 135/164/94 46/165/40 48/114/42
f 135/164/94 48/114/42 78/113/70
f 135/164/94 109/131/82 136/166/108
f 136/166/109 109/131/82 137/167/110
f 136/166/109 137/167/110 138/168/111
f 134/163/91 92/118/82 139/169/108
f 47/125/41 46/165/40 135/164/94
f 47/125/41 135/164/94 104/126/94
f 134/163/91 17/162/15 19/109/17
f 134/163/91 19/109/17 89/53/80
f 104/126/94 140/170/82 100/75/90
f 140/170/82 91/117/82 90/54/81
f 51/51/112 141/171/113 111/133/114
f 51/51/112 111/133/114 52/52/45
f 55/55/115 142/172/116 123/149/117
f 55/55/115 123/149/117 56/56/48
f 87/115/118 143/173/119 131/159/120
f 87/115/118 131/159/120 88/116/79
f 91/117/121 144/174/122 139/169/123
f 91/117/121 139/169/123 92/118/82
f 136/166/124 138/168/124 144/174/124
f 136/166/124 144/174/124 145/175/124
f 146/176/125 138/168/111 137/167/110
f 146/176/125 137/167/110 133/161/82
f 139/169/126 144/174/126 138/168/126
f 139/169/126 138/168/126 146/176/126
f 145/175/127 144/174/122 91/117/121
f 145/175/127 91/117/121 140/170/82
f 128/156/128 130/158/128 143/173/128
f 128/156/128 143/173/128 147/177/128
f 148/178/129 130/158/107 129/157/106
f 148/178/129 129/157/106 125/151/79
f 131/159/130 143/173/130 130/158/130
f 131/159/130 130/158/130 148/178/130
f 147/177/131 143/173/119 87/115/118
f 147/177/131 87/115/118 132/160/79
f 120/146/100 122/148/132 142/172/132
f 120/146/100 142/172/132 149/179/100
f 150/180/133 122/148/103 121/147/102
f 150/180/133 121/147/102 118/142/48
f 123/149/104 142/172/132 122/148/132
f 123/149/104 122/148/132 150/180/104
f 149/179/134 142/172/116 55/55/115
f 149/179/134 55/55/115 124/150/48
f 114/138/135 116/140/135 141/171/135
f 114/138/135 141/171/135 151/181/135
f 152/182/136 116/140/99 115/139/98
f 152/182/136 115/139/98 117/141/45
f 111/133/137 141/171/137 116/140/137
f 111/133/137 116/140/137 152/182/137
f 151/181/138 141/171/113 51/51/112
f 151/181/138 51/51/112 113/137/45
f 69/69/61 115/139/45 105/127/45
f 84/92/76 149/179/100 124/150/48
f 119/144/73 123/149/104 150/180/104
f 119/144/73 150/180/104 81/83/73
f 112/136/96 114/138/45 151/181/45
f 112/136/96 151/181/45 83/89/75
f 82/86/74 152/182/45 117/141/45
f 107/129/76 120/146/100 149/179/100
f 107/129/76 149/179/100 84/92/76
f 81/83/73 150/180/104 118/142/48
f 74/74/66 121/147/48 106/128/48
f 126/153/92 131/159/79 148/178/139
f 126/153/92 148/178/139 102/122/92
f 103/124/93 147/177/139 132/160/79
f 127/154/93 128/156/79 147/177/139
f 127/154/93 147/177/139 103/124/93
f 97/69/87 129/157/79 108/130/79
f 134/163/91 139/169/108 146/176/140
f 134/163/91 146/176/140 101/120/91
f 104/126/94 145/175/140 140/170/82
f 102/122/92 148/178/139 125/151/79
f 77/74/69 137/167/82 109/131/82
f 83/89/75 151/181/45 113/137/45
f 110/132/95 111/133/45 152/182/45
f 110/132/95 152/182/45 82/86/74
f 101/120/91 146/176/140 133/161/82
f 135/164/94 136/166/108 145/175/140
f 135/164/94 145/175/140 104/126/94
f 53/53/46 56/56/48 119/144/73
f 75/75/67 124/150/48 54/54/47
f 70/70/62 105/127/45 112/136/96
f 71/71/63 117/141/45 115/139/45
f 71/71/63 115/139/45 69/69/61
f 66/66/58 74/74/66 86/113/78
f 79/79/71 67/67/59 85/107/77
f 80/49/72 88/116/79 126/153/92
f 73/73/65 118/142/48 121/147/48
f 73/73/65 121/147/48 74/74/66
f 100/75/90 140/170/82 90/54/81
f 99/71/89 125/151/79 129/157/79
f 99/71/89 129/157/79 97/69/87
f 89/53/80 92/118/82 134/163/91
f 98/70/88 108/130/79 127/154/93
f 78/113/70 109/131/82 135/164/94
f 72/72/64 113/137/45 50/50/44
f 49/49/43 52/52/45 110/132/95
f 76/73/68 133/161/82 137/167/82
f 76/73/68 137/167/82 77/74/69
