v -0.075015 0.000008 20.860723
v -0.075015 0.000008 28.083115
v -39.236416 0.000008 28.083174
v -39.236416 0.000008 20.860834
v -0.075015 1.232895 28.083115
v -39.236416 1.232895 28.083185
v -0.075015 1.481453 27.834564
v -0.075015 1.481453 20.284035
v -39.236416 1.481430 20.284115
v -39.236416 1.481430 27.834616
v -0.075015 0.825218 20.035484
v -39.236416 0.825218 20.035543
v -78.293396 0.000008 28.083115
v -78.293396 0.000000 20.860723
v -78.293396 1.232895 28.083115
v -78.293396 1.481453 20.284044
v -78.293396 1.481430 27.834564
v -78.293396 0.825218 20.035484
v -39.236416 1.232895 20.035543
v -0.075015 1.232895 20.035494
v -78.293396 1.232895 20.035484
v -90.251846 0.825218 20.035465
v -90.251846 1.232895 20.035465
v -90.500412 1.481453 20.284025
v -91.077118 0.000008 20.860723
v -98.299576 0.000008 28.083195
v -98.299591 1.232895 28.083195
v -98.051010 1.481430 27.834635
v -90.251862 0.825218 8.077004
v -90.251877 0.825218 0.000004
v -90.251877 1.232895 0.000004
v -90.251862 1.232895 8.077004
v -90.500443 1.481453 0.000004
v -90.500427 1.481453 8.077004
v -98.299500 0.000008 8.077015
v -91.077118 0.000000 8.077015
v -98.299500 1.232895 8.077015
v -98.050949 1.481430 8.077015
v -98.299515 0.000008 0.000004
v -91.077133 0.000008 0.000004
v -98.299515 1.232895 0.000004
v -98.050964 1.481430 0.000004
v -39.236416 0.000008 -28.083178
v -0.075015 0.000008 -28.083107
v -0.075015 0.000008 -20.860725
v -39.236416 0.000008 -20.860836
v -39.236416 1.232895 -28.083178
v -0.075015 1.232895 -28.083107
v -39.236416 1.481430 -20.284117
v -0.075015 1.481453 -20.284037
v -0.075015 1.481453 -27.834566
v -39.236416 1.481430 -27.834616
v -0.075015 0.825218 -20.035486
v -39.236416 0.825218 -20.035536
v -78.293381 0.000000 -20.860725
v -78.293381 0.000008 -28.083107
v -78.293381 1.232895 -28.083107
v -78.293381 1.481430 -27.834566
v -78.293381 1.481453 -20.284037
v -78.293381 0.825218 -20.035486
v -0.075015 1.232895 -20.035486
v -39.236416 1.232895 -20.035536
v -78.293381 1.232895 -20.035486
v -90.251862 1.232895 -20.035456
v -90.251862 0.825218 -20.035456
v -90.500412 1.481453 -20.284018
v -91.077118 0.000008 -20.860725
v -98.299591 0.000008 -28.083187
v -98.299591 1.232895 -28.083197
v -98.050995 1.481430 -27.834627
v -90.251877 0.825218 -8.077006
v -90.251877 1.232895 -8.077006
v -90.500412 1.481453 -8.077006
v -91.077118 0.000000 -8.077006
v -98.299484 0.000008 -8.077006
v -98.299484 1.232895 -8.077006
v -98.050949 1.481430 -8.077006
v 39.086395 0.000008 28.083185
v 39.086395 0.000008 20.860846
v 39.086395 1.232895 28.083185
v 39.086395 1.481430 20.284103
v 39.086395 1.481430 27.834623
v 39.086395 0.825218 20.035543
v 78.143372 0.000000 20.860723
v 78.143372 0.000008 28.083105
v 78.143372 1.232895 28.083105
v 78.143372 1.481430 27.834574
v 78.143372 1.481453 20.284035
v 78.143372 0.825218 20.035475
v 39.086395 1.232895 20.035543
v 78.143372 1.232895 20.035505
v 90.251862 1.232895 20.035454
v 90.251862 0.825218 20.035454
v 90.500412 1.481453 20.284035
v 91.077118 0.000008 20.860723
v 98.299576 0.000008 28.083185
v 98.299591 1.232895 28.083204
v 98.051010 1.481430 27.834623
v 90.251892 1.232895 0.000004
v 90.251892 0.825218 0.000004
v 90.251892 0.825218 8.077004
v 90.251892 1.232895 8.077004
v 90.500443 1.481453 0.000004
v 90.500427 1.481453 8.077004
v 91.077118 0.000000 8.077004
v 98.299515 0.000008 8.077004
v 98.299515 1.232895 8.077004
v 98.050949 1.481430 8.077004
v 98.299515 0.000008 0.000004
v 91.077133 0.000008 0.000004
v 98.299515 1.232895 0.000004
v 98.050949 1.481430 0.000004
v 39.086395 0.000008 -28.083178
v 39.086395 0.000008 -20.860836
v 39.086395 1.232895 -28.083178
v 39.086395 1.481430 -20.284107
v 39.086395 1.481430 -27.834616
v 39.086395 0.825218 -20.035536
v 78.143372 0.000008 -28.083107
v 78.143372 0.000000 -20.860716
v 78.143372 1.232895 -28.083107
v 78.143372 1.481453 -20.284037
v 78.143372 1.481430 -27.834566
v 78.143372 0.825218 -20.035486
v 39.086395 1.232895 -20.035536
v 78.143372 1.232895 -20.035486
v 90.251862 0.825218 -20.035456
v 90.251862 1.232895 -20.035456
v 90.500412 1.481453 -20.284018
v 91.077133 0.000008 -20.860725
v 98.299591 0.000008 -28.083187
v 98.299591 1.232895 -28.083204
v 98.051010 1.481430 -27.834627
v 90.251892 0.825218 -8.076996
v 90.251892 1.232895 -8.076996
v 90.500412 1.481453 -8.076996
v 98.299484 0.000008 -8.076996
v 91.077133 0.000000 -8.076996
v 98.299484 1.232895 -8.076996
v 98.050949 1.481430 -8.076996
vt 0.989700 -0.570500
vt 0.989700 -0.751300
vt 0.011100 -0.751300
vt 0.011100 -0.570500
vt 0.989700 -0.782100
vt 0.011100 -0.782100
vt 0.989700 -0.344400
vt 0.989700 -0.533400
vt 0.011100 -0.533400
vt 0.011100 -0.344400
vt 0.989700 -0.549800
vt 0.011100 -0.549800
vt 0.989700 -0.338200
vt 0.011100 -0.338200
vt 0.988700 -0.751300
vt 0.988700 -0.570500
vt 0.988700 -0.782100
vt 0.988700 -0.533400
vt 0.988700 -0.344400
vt 0.988700 -0.549800
vt 0.988700 -0.338200
vt 0.011100 -0.539600
vt 0.989700 -0.539600
vt 0.988700 -0.539600
vt 0.689300 -0.549800
vt 0.689300 -0.539600
vt 0.683100 -0.533400
vt 0.668700 -0.570500
vt 0.487900 -0.751300
vt 0.487900 -0.782100
vt 0.494100 -0.344400
vt 0.487900 -0.338200
vt 0.786500 -0.549800
vt 0.786500 -0.539600
vt 0.786500 -0.533400
vt 0.786500 -0.751300
vt 0.786500 -0.570500
vt 0.786500 -0.782100
vt 0.786500 -0.344400
vt 0.786500 -0.338200
vn 0.000000 -1.000000 -0.000000
vn -0.000000 -1.000000 -0.000000
vn 0.000000 -1.000000 0.000000
vn -0.000000 -0.000000 1.000000
vn 0.000000 0.000000 1.000000
vn -0.000000 1.000000 -0.000000
vn 0.000000 1.000000 -0.000000
vn -0.000000 1.000000 0.000000
vn 0.000000 -0.707100 -0.707100
vn -0.000000 -0.707100 -0.707100
vn -0.000000 0.707100 0.707100
vn 0.000000 0.707100 0.707100
vn -0.000000 -1.000000 0.000000
vn 0.000000 -0.000000 1.000000
vn 0.000000 1.000000 0.000000
vn 0.000000 0.000000 -1.000000
vn -0.000000 0.707200 -0.707100
vn 0.000000 0.707100 -0.707100
vn 1.000000 0.000000 -0.000000
vn 0.707100 0.707100 -0.000000
vn -1.000000 -0.000000 -0.000000
vn -1.000000 0.000000 -0.000000
vn 0.707100 -0.707100 0.000000
vn 0.707100 -0.707100 -0.000000
vn -0.707100 0.707100 -0.000000
vn -0.000000 0.000000 -1.000000
vn 0.000000 -0.707100 0.707100
vn -0.000000 0.707100 -0.707100
vn 0.000000 -0.000000 -1.000000
vn -0.000000 0.000000 1.000000
vn -0.000000 0.707200 0.707100
vn -0.000000 -0.707100 0.707100
vn 1.000000 0.000000 0.000000
vn 0.707100 0.707100 0.000000
vn -1.000000 0.000000 0.000000
vn -0.707100 0.707100 0.000000
vn -0.707000 0.707200 0.000000
vn -0.000000 0.000100 -1.000000
vn 0.000000 0.707200 -0.707100
vn -0.000000 0.707200 0.707000
vn 1.000000 -0.000000 -0.000000
vn -0.707100 -0.707100 0.000000
vn -0.707100 -0.707100 -0.000000
vn -0.000000 -0.000000 -1.000000
vn 0.000000 0.707200 0.707100
vn 0.707000 0.707200 0.000000
usemtl sponza/arch
f 1/1/1 2/2/2 3/3/3
f 1/1/1 3/3/3 4/4/1
f 2/2/4 5/5/5 6/6/4
f 2/2/4 6/6/4 3/3/4
f 7/7/6 8/8/7 9/9/8
f 7/7/6 9/9/8 10/10/6
f 11/11/9 1/1/9 4/4/10
f 11/11/9 4/4/10 12/12/10
f 5/13/11 7/7/11 10/10/12
f 5/13/11 10/10/12 6/14/12
f 3/3/3 13/15/13 14/16/13
f 3/3/3 14/16/13 4/4/1
f 6/6/4 15/17/14 13/15/14
f 6/6/4 13/15/14 3/3/4
f 9/9/8 16/18/15 17/19/15
f 9/9/8 17/19/15 10/10/6
f 4/4/10 14/16/9 18/20/9
f 4/4/10 18/20/9 12/12/10
f 10/10/12 17/19/12 15/21/12
f 10/10/12 15/21/12 6/14/12
f 12/12/16 19/22/16 20/23/16
f 12/12/16 20/23/16 11/11/16
f 19/22/17 9/9/17 8/8/18
f 19/22/17 8/8/18 20/23/18
f 19/22/16 12/12/16 18/20/16
f 19/22/16 18/20/16 21/24/16
f 9/9/17 19/22/17 21/24/18
f 9/9/17 21/24/18 16/18/18
f 18/20/16 22/25/16 23/26/16
f 18/20/16 23/26/16 21/24/16
f 16/18/18 21/24/18 23/26/18
f 16/18/18 23/26/18 24/27/18
f 25/28/13 14/16/13 13/15/13
f 25/28/13 13/15/13 26/29/1
f 13/15/14 15/17/14 27/30/14
f 13/15/14 27/30/14 26/29/14
f 17/19/15 16/18/15 24/27/8
f 17/19/15 24/27/8 28/31/8
f 22/25/10 18/20/9 14/16/9
f 22/25/10 14/16/9 25/28/10
f 15/21/12 17/19/12 28/31/12
f 15/21/12 28/31/12 27/32/12
f 29/20/19 30/33/19 31/34/19
f 29/20/19 31/34/19 32/24/19
f 32/24/20 31/34/20 33/35/20
f 32/24/20 33/35/20 34/18/20
f 23/26/19 22/25/19 29/20/19
f 23/26/19 29/20/19 32/24/19
f 34/18/20 24/27/20 23/26/20
f 34/18/20 23/26/20 32/24/20
f 25/28/13 26/29/1 35/15/2
f 25/28/13 35/15/2 36/16/2
f 27/30/21 37/17/22 35/15/21
f 27/30/21 35/15/21 26/29/21
f 24/27/8 34/18/8 38/19/8
f 24/27/8 38/19/8 28/31/8
f 22/25/23 25/28/23 36/16/24
f 22/25/23 36/16/24 29/20/24
f 28/31/25 38/19/25 37/21/25
f 28/31/25 37/21/25 27/32/25
f 36/16/2 35/15/2 39/36/2
f 36/16/2 39/36/2 40/37/13
f 35/15/21 37/17/22 41/38/22
f 35/15/21 41/38/22 39/36/22
f 38/19/8 34/18/8 33/35/6
f 38/19/8 33/35/6 42/39/6
f 29/20/24 36/16/24 40/37/24
f 29/20/24 40/37/24 30/33/24
f 37/21/25 38/19/25 42/39/25
f 37/21/25 42/39/25 41/40/25
f 43/3/1 44/2/1 45/1/2
f 43/3/1 45/1/2 46/4/1
f 47/6/26 48/5/16 44/2/26
f 47/6/26 44/2/26 43/3/26
f 49/9/6 50/8/7 51/7/7
f 49/9/6 51/7/7 52/10/6
f 46/4/27 45/1/27 53/11/27
f 46/4/27 53/11/27 54/12/27
f 52/10/28 51/7/28 48/13/28
f 52/10/28 48/13/28 47/14/28
f 55/16/2 56/15/2 43/3/1
f 55/16/2 43/3/1 46/4/1
f 56/15/29 57/17/16 47/6/26
f 56/15/29 47/6/26 43/3/26
f 58/19/7 59/18/7 49/9/6
f 58/19/7 49/9/6 52/10/6
f 60/20/27 55/16/27 46/4/27
f 60/20/27 46/4/27 54/12/27
f 57/21/18 58/19/18 52/10/28
f 57/21/18 52/10/28 47/14/28
f 61/23/30 62/22/30 54/12/30
f 61/23/30 54/12/30 53/11/5
f 50/8/11 49/9/31 62/22/31
f 50/8/11 62/22/31 61/23/11
f 60/20/5 54/12/30 62/22/30
f 60/20/5 62/22/30 63/24/5
f 63/24/12 62/22/31 49/9/31
f 63/24/12 49/9/31 59/18/12
f 64/26/5 65/25/5 60/20/5
f 64/26/5 60/20/5 63/24/5
f 59/18/12 66/27/12 64/26/12
f 59/18/12 64/26/12 63/24/12
f 67/28/2 68/29/1 56/15/2
f 67/28/2 56/15/2 55/16/2
f 69/30/29 57/17/16 56/15/29
f 69/30/29 56/15/29 68/29/29
f 66/27/6 59/18/7 58/19/7
f 66/27/6 58/19/7 70/31/6
f 65/25/32 67/28/32 55/16/27
f 65/25/32 55/16/27 60/20/27
f 70/31/18 58/19/18 57/21/18
f 70/31/18 57/21/18 69/32/18
f 31/34/19 30/33/19 71/20/33
f 31/34/19 71/20/33 72/24/33
f 33/35/20 31/34/20 72/24/34
f 33/35/20 72/24/34 73/18/34
f 71/20/33 65/25/33 64/26/33
f 71/20/33 64/26/33 72/24/33
f 73/18/34 72/24/34 64/26/34
f 73/18/34 64/26/34 66/27/20
f 67/28/2 74/16/13 75/15/13
f 67/28/2 75/15/13 68/29/1
f 75/15/35 76/17/35 69/30/35
f 75/15/35 69/30/35 68/29/35
f 77/19/6 73/18/6 66/27/6
f 77/19/6 66/27/6 70/31/6
f 65/25/24 71/20/23 74/16/23
f 65/25/24 74/16/23 67/28/24
f 76/21/36 77/19/36 70/31/37
f 76/21/36 70/31/37 69/32/37
f 39/36/2 75/15/13 74/16/13
f 39/36/2 74/16/13 40/37/13
f 41/38/22 76/17/35 75/15/35
f 41/38/22 75/15/35 39/36/22
f 33/35/6 73/18/6 77/19/6
f 33/35/6 77/19/6 42/39/6
f 40/37/24 74/16/23 71/20/23
f 40/37/24 71/20/23 30/33/24
f 42/39/25 77/19/36 76/21/36
f 42/39/25 76/21/36 41/40/25
f 78/3/13 2/2/2 1/1/1
f 78/3/13 1/1/1 79/4/2
f 80/6/5 5/5/5 2/2/4
f 80/6/5 2/2/4 78/3/5
f 81/9/15 8/8/7 7/7/6
f 81/9/15 7/7/6 82/10/7
f 79/4/10 1/1/9 11/11/9
f 79/4/10 11/11/9 83/12/10
f 82/10/12 7/7/11 5/13/11
f 82/10/12 5/13/11 80/14/12
f 84/16/3 85/15/3 78/3/13
f 84/16/3 78/3/13 79/4/2
f 85/15/4 86/17/30 80/6/5
f 85/15/4 80/6/5 78/3/5
f 87/19/8 88/18/8 81/9/15
f 87/19/8 81/9/15 82/10/7
f 89/20/10 84/16/10 79/4/10
f 89/20/10 79/4/10 83/12/10
f 86/21/11 87/19/11 82/10/12
f 86/21/11 82/10/12 80/14/12
f 20/23/16 90/22/26 83/12/26
f 20/23/16 83/12/26 11/11/16
f 8/8/18 81/9/18 90/22/18
f 8/8/18 90/22/18 20/23/18
f 89/20/38 83/12/26 90/22/26
f 89/20/38 90/22/26 91/24/38
f 91/24/28 90/22/18 81/9/18
f 91/24/28 81/9/18 88/18/28
f 92/26/26 93/25/26 89/20/38
f 92/26/26 89/20/38 91/24/38
f 88/18/28 94/27/39 92/26/17
f 88/18/28 92/26/17 91/24/28
f 95/28/3 96/29/1 85/15/3
f 95/28/3 85/15/3 84/16/3
f 97/30/4 86/17/30 85/15/4
f 97/30/4 85/15/4 96/29/4
f 94/27/15 88/18/8 87/19/8
f 94/27/15 87/19/8 98/31/15
f 93/25/9 95/28/9 84/16/10
f 93/25/9 84/16/10 89/20/10
f 98/31/40 87/19/11 86/21/11
f 98/31/40 86/21/11 97/32/40
f 99/34/22 100/33/22 101/20/22
f 99/34/22 101/20/22 102/24/22
f 103/35/36 99/34/25 102/24/25
f 103/35/36 102/24/25 104/18/25
f 101/20/22 93/25/22 92/26/22
f 101/20/22 92/26/22 102/24/22
f 104/18/25 102/24/25 92/26/25
f 104/18/25 92/26/25 94/27/25
f 95/28/3 105/16/1 106/15/1
f 95/28/3 106/15/1 96/29/1
f 106/15/41 107/17/19 97/30/41
f 106/15/41 97/30/41 96/29/41
f 108/19/15 104/18/15 94/27/15
f 108/19/15 94/27/15 98/31/15
f 93/25/42 101/20/43 105/16/43
f 93/25/42 105/16/43 95/28/42
f 107/21/20 108/19/20 98/31/20
f 107/21/20 98/31/20 97/32/20
f 109/36/1 106/15/1 105/16/1
f 109/36/1 105/16/1 110/37/3
f 111/38/19 107/17/19 106/15/41
f 111/38/19 106/15/41 109/36/19
f 103/35/7 104/18/15 108/19/15
f 103/35/7 108/19/15 112/39/7
f 110/37/43 105/16/43 101/20/43
f 110/37/43 101/20/43 100/33/43
f 112/39/20 108/19/20 107/21/20
f 112/39/20 107/21/20 111/40/20
f 45/1/2 44/2/1 113/3/2
f 45/1/2 113/3/2 114/4/2
f 44/2/26 48/5/16 115/6/16
f 44/2/26 115/6/16 113/3/16
f 51/7/7 50/8/7 116/9/7
f 51/7/7 116/9/7 117/10/7
f 53/11/27 45/1/27 114/4/32
f 53/11/27 114/4/32 118/12/32
f 48/13/28 51/7/28 117/10/18
f 48/13/28 117/10/18 115/14/18
f 113/3/2 119/15/1 120/16/1
f 113/3/2 120/16/1 114/4/2
f 115/6/16 121/17/26 119/15/44
f 115/6/16 119/15/44 113/3/16
f 116/9/7 122/18/6 123/19/6
f 116/9/7 123/19/6 117/10/7
f 114/4/32 120/16/32 124/20/32
f 114/4/32 124/20/32 118/12/32
f 117/10/18 123/19/28 121/21/28
f 117/10/18 121/21/28 115/14/18
f 118/12/30 125/22/30 61/23/30
f 118/12/30 61/23/30 53/11/5
f 125/22/45 116/9/45 50/8/11
f 125/22/45 50/8/11 61/23/11
f 125/22/30 118/12/30 124/20/30
f 125/22/30 124/20/30 126/24/30
f 116/9/45 125/22/45 126/24/11
f 116/9/45 126/24/11 122/18/11
f 124/20/30 127/25/30 128/26/30
f 124/20/30 128/26/30 126/24/30
f 122/18/11 126/24/11 128/26/11
f 122/18/11 128/26/11 129/27/11
f 130/28/1 120/16/1 119/15/1
f 130/28/1 119/15/1 131/29/1
f 119/15/44 121/17/26 132/30/44
f 119/15/44 132/30/44 131/29/44
f 123/19/6 122/18/6 129/27/7
f 123/19/6 129/27/7 133/31/7
f 127/25/27 124/20/32 120/16/32
f 127/25/27 120/16/32 130/28/27
f 121/21/28 123/19/28 133/31/28
f 121/21/28 133/31/28 132/32/28
f 134/20/35 100/33/22 99/34/22
f 134/20/35 99/34/22 135/24/35
f 135/24/36 99/34/25 103/35/36
f 135/24/36 103/35/36 136/18/36
f 128/26/35 127/25/35 134/20/35
f 128/26/35 134/20/35 135/24/35
f 136/18/36 129/27/25 128/26/36
f 136/18/36 128/26/36 135/24/36
f 130/28/1 131/29/1 137/15/3
f 130/28/1 137/15/3 138/16/3
f 132/30/33 139/17/33 137/15/33
f 132/30/33 137/15/33 131/29/33
f 129/27/7 136/18/7 140/19/7
f 129/27/7 140/19/7 133/31/7
f 127/25/43 130/28/43 138/16/42
f 127/25/43 138/16/42 134/20/42
f 133/31/46 140/19/34 139/21/34
f 133/31/46 139/21/34 132/32/46
f 138/16/3 137/15/3 109/36/1
f 138/16/3 109/36/1 110/37/3
f 137/15/33 139/17/33 111/38/19
f 137/15/33 111/38/19 109/36/19
f 140/19/7 136/18/7 103/35/7
f 140/19/7 103/35/7 112/39/7
f 134/20/42 138/16/42 110/37/43
f 134/20/42 110/37/43 100/33/43
f 139/21/34 140/19/34 112/39/20
f 139/21/34 112/39/20 111/40/20
