v 0.504173 0.962540 -0.000005
v 0.670036 0.481285 -0.000005
v 0.670036 0.678856 -0.953155
v 0.504173 1.120461 -0.761875
v 0.302605 2.993019 -1.767345
v -1.024590 2.993019 -1.767345
v -1.024590 2.281174 -1.666925
v 0.302605 2.281174 -1.666925
v 0.504097 3.002365 -1.912605
v 0.670036 3.033287 -2.393075
v 0.670036 3.902634 -2.168685
v 0.504051 3.697098 -1.733095
v 0.670036 2.069412 -2.257115
v 1.024582 1.906876 -2.710115
v 1.024582 3.064194 -2.873345
v -1.024590 1.906876 -2.710115
v -1.024590 3.064194 -2.873345
v 0.302620 4.650284 -0.000005
v -1.024590 4.650284 -0.000005
v -1.024590 4.526146 -0.651355
v 0.302620 4.526146 -0.651355
v 0.670036 5.277306 -0.000005
v 0.670036 5.109230 -0.881985
v 1.024582 5.556778 -1.058995
v 1.024567 5.758591 -0.000005
v -1.024590 5.556778 -1.058995
v -1.024590 5.758591 -0.000005
v 0.504173 1.120461 0.761855
v 0.670036 0.678856 0.953135
v 0.302620 2.281174 1.666905
v -1.024590 2.281174 1.666905
v -1.024590 2.993019 1.767325
v 0.302620 2.993019 1.767325
v 0.504036 3.697098 1.733075
v 0.670036 3.902634 2.168675
v 0.670036 3.033287 2.393055
v 0.504097 3.002365 1.912585
v 1.024567 1.906876 2.710105
v 0.670036 2.069412 2.257095
v 1.024567 3.064194 2.873345
v -1.024590 1.906876 2.710105
v -1.024590 3.064194 2.873345
v 0.302620 4.526146 0.651345
v -1.024590 4.526146 0.651345
v 1.024567 5.556778 1.058975
v 0.670036 5.109230 0.881975
v -1.024590 5.556778 1.058975
v 0.504173 1.568192 -1.398206
v 0.670036 1.238991 -1.749255
v 0.504173 2.231949 -1.804135
v 0.302605 1.667892 -1.291865
v -1.024590 1.667892 -1.291865
v -1.024590 1.254211 -0.703945
v 0.302620 1.254211 -0.703945
v 0.504051 4.277184 -1.310825
v 0.670036 4.628540 -1.640305
v 0.504051 4.661316 -0.704815
v 1.024582 0.237221 -1.144455
v 1.024582 0.909790 -2.100325
v -1.024590 0.237221 -1.144455
v -1.024590 0.909790 -2.100325
v 0.302605 4.171158 -1.211415
v -1.024590 4.171158 -1.211415
v -1.024590 3.635056 -1.601635
v 0.302605 3.635056 -1.601635
v 1.024582 4.108032 -2.603955
v 1.024582 4.979614 -1.969515
v -1.024590 4.108032 -2.603955
v -1.024590 4.979614 -1.969515
v 0.504173 1.568192 1.398185
v 0.504173 2.231956 1.804115
v 0.670036 1.238991 1.749235
v 0.302620 1.667892 1.291865
v 0.302620 1.254227 0.703925
v -1.024590 1.254227 0.703925
v -1.024590 1.667892 1.291865
v 0.504036 4.277184 1.310815
v 0.504036 4.661316 0.704795
v 0.670036 4.628540 1.640295
v 1.024567 0.909790 2.100315
v 1.024567 0.237221 1.144445
v -1.024590 0.909790 2.100315
v -1.024590 0.237221 1.144445
v 0.302620 4.171158 1.211395
v 0.302620 3.635056 1.601625
v -1.024590 3.635056 1.601625
v -1.024590 4.171158 1.211395
v 1.024567 4.979614 1.969495
v 1.024567 4.108032 2.603945
v -1.024590 4.979614 1.969495
v -1.024590 4.108032 2.603945
v -1.024590 1.108299 -0.000005
v 0.302620 1.108299 -0.000005
v 0.504036 4.795631 -0.000005
v 1.024567 0.000000 -0.000005
v -1.024590 0.000000 -0.000005
vt 0.003300 -0.162100
vt 0.003300 -0.187800
vt 0.127500 -0.187800
vt 0.127500 -0.162100
vt 0.499900 -0.145100
vt 0.499900 -0.063800
vt 0.375800 -0.063800
vt 0.375800 -0.145100
vt 0.499900 -0.162100
vt 0.499900 -0.187800
vt 0.614300 -0.187800
vt 0.614300 -0.162100
vt 0.375800 -0.187800
vt 0.375800 -0.216900
vt 0.499900 -0.216900
vt 0.375800 -0.326300
vt 0.499900 -0.326300
vt 0.957500 -0.145100
vt 0.957500 -0.063800
vt 0.843100 -0.063800
vt 0.843100 -0.145100
vt 0.957500 -0.187800
vt 0.843100 -0.187800
vt 0.843100 -0.216900
vt 0.957500 -0.216900
vt 0.843100 -0.326300
vt 0.957500 -0.326300
vt 0.251600 -0.162100
vt 0.251600 -0.187800
vt 0.375800 -0.162100
vt 0.251600 -0.145100
vt 0.251600 -0.063800
vt 0.127500 -0.063800
vt 0.127500 -0.145100
vt 0.728700 -0.162100
vt 0.728700 -0.187800
vt 0.843100 -0.162100
vt 0.127500 -0.216900
vt 0.251600 -0.216900
vt 0.127500 -0.326300
vt 0.251600 -0.326300
vt 0.728700 -0.145100
vt 0.728700 -0.063800
vt 0.614300 -0.063800
vt 0.614300 -0.145100
vt 0.614300 -0.216900
vt 0.728700 -0.216900
vt 0.614300 -0.326300
vt 0.728700 -0.326300
vt 0.003300 -0.063800
vt 0.003300 -0.145100
vt 0.957500 -0.162100
vt 0.003300 -0.216900
vt 0.003300 -0.326300
vn 0.822100 0.569400 -0.000000
vn 0.877300 0.479900 -0.000000
vn 0.877300 0.440400 0.190700
vn 0.822100 0.522500 0.226300
vn 0.319500 -0.053000 0.946100
vn 0.000000 -0.056200 0.998400
vn 0.000000 0.337700 0.941200
vn 0.320300 0.319900 0.891700
vn 0.821200 -0.032100 0.569700
vn 0.877600 -0.026700 0.478600
vn 0.878000 -0.204300 0.432900
vn 0.820300 -0.244100 0.517200
vn 0.877300 0.162100 0.451700
vn 0.805100 0.200300 0.558300
vn 0.805100 -0.033800 0.592200
vn 0.000000 0.056200 -0.998400
vn 0.000000 -0.337700 -0.941200
vn 0.318800 -0.947800 0.000000
vn 0.000000 -1.000000 0.000000
vn 0.000000 -0.929900 0.367800
vn 0.318800 -0.881400 0.348600
vn 0.878000 -0.478700 0.000000
vn 0.878000 -0.445200 0.176100
vn 0.805100 -0.551500 0.218100
vn 0.805100 -0.593100 0.000000
vn 0.000000 1.000000 -0.000000
vn 0.000000 0.929900 -0.367800
vn 0.822100 0.522500 -0.226300
vn 0.877300 0.440300 -0.190700
vn 0.320300 0.319900 -0.891600
vn 0.000000 0.337700 -0.941200
vn 0.000000 -0.056200 -0.998400
vn 0.319600 -0.053000 -0.946100
vn 0.820300 -0.244100 -0.517200
vn 0.878000 -0.204300 -0.432900
vn 0.877600 -0.026700 -0.478600
vn 0.821200 -0.032100 -0.569800
vn 0.805100 0.200300 -0.558200
vn 0.877300 0.162100 -0.451700
vn 0.805100 -0.033700 -0.592100
vn 0.000000 -0.337700 0.941200
vn 0.000000 0.056200 0.998400
vn 0.318800 -0.881400 -0.348600
vn 0.000000 -0.929900 -0.367800
vn 0.805100 -0.551500 -0.218100
vn 0.878000 -0.445200 -0.176100
vn 0.000000 0.929900 0.367800
vn 0.822100 0.389500 0.415300
vn 0.877300 0.328300 0.350100
vn 0.822100 0.192300 0.535900
vn 0.320300 0.648000 0.691000
vn 0.000000 0.684000 0.729500
vn 0.000000 0.917600 0.397500
vn 0.320300 0.869300 0.376500
vn 0.820300 -0.417200 0.391200
vn 0.878000 -0.349200 0.327500
vn 0.820300 -0.531800 0.210300
vn 0.805100 0.544200 0.235700
vn 0.805100 0.405700 0.432600
vn 0.000000 -0.684000 -0.729500
vn 0.000000 -0.917600 -0.397500
vn 0.318700 -0.691400 0.648400
vn 0.000000 -0.729500 0.684000
vn 0.000000 -0.426800 0.904400
vn 0.318800 -0.404500 0.857200
vn 0.805100 -0.253100 0.536400
vn 0.805100 -0.432600 0.405700
vn 0.000000 0.729500 -0.684000
vn 0.000000 0.426700 -0.904400
vn 0.822100 0.389500 -0.415300
vn 0.822100 0.192300 -0.535900
vn 0.877300 0.328300 -0.350100
vn 0.320300 0.648000 -0.691000
vn 0.320300 0.869300 -0.376500
vn 0.000000 0.917600 -0.397500
vn 0.000000 0.684000 -0.729500
vn 0.820300 -0.417200 -0.391200
vn 0.820300 -0.531800 -0.210300
vn 0.878000 -0.349200 -0.327500
vn 0.805100 0.405700 -0.432600
vn 0.805100 0.544200 -0.235700
vn 0.000000 -0.684000 0.729500
vn 0.000000 -0.917600 0.397500
vn 0.318800 -0.691400 -0.648300
vn 0.318800 -0.404500 -0.857200
vn 0.000000 -0.426700 -0.904400
vn 0.000000 -0.729500 -0.684000
vn 0.805100 -0.432600 -0.405700
vn 0.805100 -0.253100 -0.536400
vn 0.000000 0.729500 0.684000
vn 0.000000 0.426800 0.904400
vn 0.320300 0.947300 -0.000000
vn 0.820300 -0.571900 0.000000
vn 0.805100 0.593100 0.000000
vn 0.000000 -1.000000 -0.000000
usemtl sponza/arch
f 1/1/1 2/2/2 3/3/3
f 1/1/1 3/3/3 4/4/4
f 5/5/5 6/6/6 7/7/7
f 5/5/5 7/7/7 8/8/8
f 9/9/9 10/10/10 11/11/11
f 9/9/9 11/11/11 12/12/12
f 10/10/10 13/13/13 14/14/14
f 10/10/10 14/14/14 15/15/15
f 15/15/16 14/14/17 16/16/17
f 15/15/16 16/16/17 17/17/16
f 18/18/18 19/19/19 20/20/20
f 18/18/18 20/20/20 21/21/21
f 22/22/22 23/23/23 24/24/24
f 22/22/22 24/24/24 25/25/25
f 25/25/26 24/24/27 26/26/27
f 25/25/26 26/26/27 27/27/26
f 28/4/28 29/3/29 2/2/2
f 28/4/28 2/2/2 1/1/1
f 30/8/30 31/7/31 32/6/32
f 30/8/30 32/6/32 33/5/33
f 34/12/34 35/11/35 36/10/36
f 34/12/34 36/10/36 37/9/37
f 38/14/38 39/13/39 36/10/36
f 38/14/38 36/10/36 40/15/40
f 41/16/41 38/14/41 40/15/42
f 41/16/41 40/15/42 42/17/42
f 43/21/43 44/20/44 19/19/19
f 43/21/43 19/19/19 18/18/18
f 45/24/45 46/23/46 22/22/22
f 45/24/45 22/22/22 25/25/25
f 47/26/47 45/24/47 25/25/26
f 47/26/47 25/25/26 27/27/26
f 48/28/48 49/29/49 13/13/13
f 48/28/48 13/13/13 50/30/50
f 51/31/51 52/32/52 53/33/53
f 51/31/51 53/33/53 54/34/54
f 55/35/55 56/36/56 23/23/23
f 55/35/55 23/23/23 57/37/57
f 49/29/49 3/3/3 58/38/58
f 49/29/49 58/38/58 59/39/59
f 59/39/60 58/38/61 60/40/61
f 59/39/60 60/40/61 61/41/60
f 62/42/62 63/43/63 64/44/64
f 62/42/62 64/44/64 65/45/65
f 56/36/56 11/11/11 66/46/66
f 56/36/56 66/46/66 67/47/67
f 67/47/68 66/46/69 68/48/69
f 67/47/68 68/48/69 69/49/68
f 70/28/70 71/30/71 39/13/39
f 70/28/70 39/13/39 72/29/72
f 73/31/73 74/34/74 75/33/75
f 73/31/73 75/33/75 76/32/76
f 77/35/77 78/37/78 46/23/46
f 77/35/77 46/23/46 79/36/79
f 80/39/80 81/38/81 29/3/29
f 80/39/80 29/3/29 72/29/72
f 82/41/82 83/40/83 81/38/83
f 82/41/82 81/38/83 80/39/82
f 84/42/84 85/45/85 86/44/86
f 84/42/84 86/44/86 87/43/87
f 88/47/88 89/46/89 35/11/35
f 88/47/88 35/11/35 79/36/79
f 90/49/90 91/48/91 89/46/91
f 90/49/90 89/46/91 88/47/90
f 4/4/4 3/3/3 49/29/49
f 4/4/4 49/29/49 48/28/48
f 8/8/8 7/7/7 52/32/52
f 8/8/8 52/32/52 51/31/51
f 12/12/12 11/11/11 56/36/56
f 12/12/12 56/36/56 55/35/55
f 13/13/13 49/29/49 59/39/59
f 13/13/13 59/39/59 14/14/14
f 14/14/17 59/39/60 61/41/60
f 14/14/17 61/41/60 16/16/17
f 21/21/21 20/20/20 63/43/63
f 21/21/21 63/43/63 62/42/62
f 23/23/23 56/36/56 67/47/67
f 23/23/23 67/47/67 24/24/24
f 24/24/27 67/47/68 69/49/68
f 24/24/27 69/49/68 26/26/27
f 28/4/28 70/28/70 72/29/72
f 28/4/28 72/29/72 29/3/29
f 30/8/30 73/31/73 76/32/76
f 30/8/30 76/32/76 31/7/31
f 34/12/34 77/35/77 79/36/79
f 34/12/34 79/36/79 35/11/35
f 38/14/38 80/39/80 72/29/72
f 38/14/38 72/29/72 39/13/39
f 41/16/41 82/41/82 80/39/82
f 41/16/41 80/39/82 38/14/41
f 43/21/43 84/42/84 87/43/87
f 43/21/43 87/43/87 44/20/44
f 45/24/45 88/47/88 79/36/79
f 45/24/45 79/36/79 46/23/46
f 47/26/47 90/49/90 88/47/90
f 47/26/47 88/47/90 45/24/47
f 50/30/50 13/13/13 10/10/10
f 50/30/50 10/10/10 9/9/9
f 54/34/54 53/33/53 92/50/26
f 54/34/54 92/50/26 93/51/92
f 57/37/57 23/23/23 22/22/22
f 57/37/57 22/22/22 94/52/93
f 3/3/3 2/2/2 95/53/94
f 3/3/3 95/53/94 58/38/58
f 58/38/61 95/53/95 96/54/95
f 58/38/61 96/54/95 60/40/61
f 65/45/65 64/44/64 6/6/6
f 65/45/65 6/6/6 5/5/5
f 11/11/11 10/10/10 15/15/15
f 11/11/11 15/15/15 66/46/66
f 66/46/69 15/15/16 17/17/16
f 66/46/69 17/17/16 68/48/69
f 71/30/71 37/9/37 36/10/36
f 71/30/71 36/10/36 39/13/39
f 74/34/74 93/51/92 92/50/26
f 74/34/74 92/50/26 75/33/75
f 78/37/78 94/52/93 22/22/22
f 78/37/78 22/22/22 46/23/46
f 81/38/81 95/53/94 2/2/2
f 81/38/81 2/2/2 29/3/29
f 83/40/83 96/54/95 95/53/95
f 83/40/83 95/53/95 81/38/83
f 85/45/85 33/5/33 32/6/32
f 85/45/85 32/6/32 86/44/86
f 89/46/89 40/15/40 36/10/36
f 89/46/89 36/10/36 35/11/35
f 91/48/91 42/17/42 40/15/42
f 91/48/91 40/15/42 89/46/91
f 8/8/8 50/30/50 9/9/9
f 8/8/8 9/9/9 5/5/5
f 21/21/21 57/37/57 94/52/93
f 21/21/21 94/52/93 18/18/18
f 33/5/33 37/9/37 71/30/71
f 33/5/33 71/30/71 30/8/30
f 18/18/18 94/52/93 78/37/78
f 18/18/18 78/37/78 43/21/43
f 54/34/54 4/4/4 48/28/48
f 54/34/54 48/28/48 51/31/51
f 65/45/65 12/12/12 55/35/55
f 65/45/65 55/35/55 62/42/62
f 73/31/73 70/28/70 28/4/28
f 73/31/73 28/4/28 74/34/74
f 84/42/84 77/35/77 34/12/34
f 84/42/84 34/12/34 85/45/85
f 51/31/51 48/28/48 50/30/50
f 51/31/51 50/30/50 8/8/8
f 62/42/62 55/35/55 57/37/57
f 62/42/62 57/37/57 21/21/21
f 30/8/30 71/30/71 70/28/70
f 30/8/30 70/28/70 73/31/73
f 43/21/43 78/37/78 77/35/77
f 43/21/43 77/35/77 84/42/84
f 93/51/92 1/1/1 4/4/4
f 93/51/92 4/4/4 54/34/54
f 5/5/5 9/9/9 12/12/12
f 5/5/5 12/12/12 65/45/65
f 74/34/74 28/4/28 1/1/1
f 74/34/74 1/1/1 93/51/92
f 85/45/85 34/12/34 37/9/37
f 85/45/85 37/9/37 33/5/33
