v 1.710845 0.000000 1.094366
v 1.710825 6.343193 1.094366
v 1.710825 6.343193 -1.673386
v 1.710845 0.000000 -1.673386
v 4.516466 0.000000 1.673386
v 4.516476 8.710785 1.673386
v 4.205396 8.399704 1.673386
v 4.205386 0.000000 1.673386
v 4.516476 8.710785 -1.673386
v 4.516466 0.000000 -1.673386
v 3.730416 0.000000 1.094366
v 3.730416 7.924721 1.094366
v -0.141325 7.924721 1.094366
v -0.141325 6.343193 1.094366
v -0.141325 8.399696 1.673386
v -0.141325 6.343193 -1.673386
v -0.141325 8.710785 1.673386
v -0.141325 8.710785 -1.673386
v -1.993474 6.343193 -1.673386
v -1.993474 6.343193 1.094366
v -1.993495 0.000000 1.094366
v -1.993495 0.000000 -1.673386
v -4.205394 8.399704 1.673386
v -4.516475 8.710785 1.673386
v -4.516475 0.000000 1.673386
v -4.205385 0.000000 1.673386
v -4.516475 8.710785 -1.673372
v -4.516475 0.000000 -1.673372
v -3.730415 7.924721 1.094366
v -3.730415 0.000000 1.094366
vt 0.996500 -0.154300
vt 0.787800 -0.154300
vt 0.787800 -0.063800
vt 0.996500 -0.063800
vt 0.996500 -0.216900
vt 0.728200 -0.216900
vt 0.738400 -0.206700
vt 0.996500 -0.206700
vt 0.728200 -0.326300
vt 0.996500 -0.326300
vt 0.996500 -0.187800
vt 0.754100 -0.187800
vt 0.848700 -0.187800
vt 0.848700 -0.154300
vt 0.848700 -0.206700
vt 0.848700 -0.063800
vt 0.848700 -0.216900
vt 0.848700 -0.326300
vn -1.000000 -0.000000 -0.000000
vn 0.000000 0.000000 1.000000
vn 0.000000 -0.000000 1.000000
vn 1.000000 -0.000000 -0.000000
vn -0.773100 0.000000 0.634200
vn -0.773200 0.000000 0.634200
vn 0.000000 -0.773100 0.634200
vn -0.000000 -0.773100 0.634200
vn 0.000000 -1.000000 -0.000000
vn 0.000000 1.000000 -0.000000
vn -1.000000 0.000000 -0.000000
vn -0.000000 0.000000 1.000000
vn 0.773100 0.000000 0.634200
vn 0.773200 0.000000 0.634200
usemtl sponza/arch
f 1/1/1 2/2/1 3/3/1
f 1/1/1 3/3/1 4/4/1
f 5/5/2 6/6/3 7/7/3
f 5/5/2 7/7/3 8/8/2
f 9/9/4 6/6/4 5/5/4
f 9/9/4 5/5/4 10/10/4
f 2/2/2 1/1/2 11/11/2
f 2/2/2 11/11/2 12/12/2
f 12/12/5 11/11/6 8/8/6
f 12/12/5 8/8/6 7/7/5
f 2/2/2 12/12/2 13/13/2
f 2/2/2 13/13/2 14/14/2
f 12/12/7 7/7/7 15/15/8
f 12/12/7 15/15/8 13/13/8
f 3/3/9 2/2/9 14/14/9
f 3/3/9 14/14/9 16/16/9
f 7/7/3 6/6/3 17/17/3
f 7/7/3 17/17/3 15/15/2
f 6/6/10 9/9/10 18/18/10
f 6/6/10 18/18/10 17/17/10
f 19/3/4 20/2/4 21/1/4
f 19/3/4 21/1/4 22/4/4
f 23/7/2 24/6/2 25/5/2
f 23/7/2 25/5/2 26/8/2
f 25/5/11 24/6/11 27/9/11
f 25/5/11 27/9/11 28/10/11
f 20/2/12 29/12/12 30/11/12
f 20/2/12 30/11/12 21/1/12
f 29/12/13 23/7/13 26/8/14
f 29/12/13 26/8/14 30/11/14
f 20/2/12 14/14/2 13/13/2
f 20/2/12 13/13/2 29/12/12
f 29/12/8 13/13/8 15/15/8
f 29/12/8 15/15/8 23/7/8
f 14/14/9 20/2/9 19/3/9
f 14/14/9 19/3/9 16/16/9
f 17/17/3 24/6/2 23/7/2
f 17/17/3 23/7/2 15/15/2
f 18/18/10 27/9/10 24/6/10
f 18/18/10 24/6/10 17/17/10
