v 0.059265 0.386869 0.193684
v 0.059265 0.386869 0.804665
v -0.003922 1.033310 0.804665
v -0.003922 1.033310 0.111496
v 0.105621 0.000000 0.252003
v 0.105621 0.000000 0.804665
v -0.073151 0.193430 0.804665
v -0.073151 0.193430 0.039639
v -0.488510 3.059641 -0.478836
v -0.488510 3.059641 0.804665
v -0.655060 3.277790 0.804665
v -0.655060 3.277790 -0.675602
v -0.488510 3.495939 0.804665
v -0.488510 3.495939 -0.471062
v -0.217911 1.933201 -0.148582
v -0.217911 1.933201 0.804665
v -0.488510 2.623331 0.804665
v -0.488510 2.623331 -0.482365
v 0.043427 1.033310 0.053333
v 0.108459 0.386869 0.133247
v -0.439148 3.059641 -0.539474
v -0.440582 2.623331 -0.541252
v -0.602509 3.277790 -0.740147
v -0.436005 3.495939 -0.535606
v -0.169449 1.933201 -0.208145
v 0.205215 0.000000 0.252083
v 0.655060 0.000000 0.804714
v -0.020447 0.193430 -0.025127
v 0.155380 0.000000 0.190884
v 0.655060 3.495939 0.804726
v 0.157654 0.386869 0.072819
v 0.090759 1.033310 -0.004803
v 0.654999 1.033310 -0.004803
v 0.654999 0.386869 0.072819
v 0.205109 0.000000 0.129776
v 0.032257 0.193430 -0.089870
v 0.654999 0.193430 -0.089870
v 0.654999 0.000000 0.129776
v -0.389786 3.059641 -0.600132
v -0.549957 3.277790 -0.804714
v 0.654999 3.277790 -0.804722
v 0.654999 3.059641 -0.600132
v -0.383453 3.495939 -0.600124
v 0.654999 3.495939 -0.600132
v -0.120956 1.933201 -0.267685
v -0.392670 2.623331 -0.600132
v 0.654999 2.623331 -0.600132
v 0.654999 1.933201 -0.267685
vt 0.550400 -0.888100
vt 0.533700 -0.888100
vt 0.533700 -0.908400
vt 0.552600 -0.908400
vt 0.986500 -0.767200
vt 0.961900 -0.767200
vt 0.963200 -0.779100
vt 0.995900 -0.779100
vt 0.533700 -0.882000
vt 0.554600 -0.882000
vt 0.568700 -0.972100
vt 0.533700 -0.972100
vt 0.533700 -0.979000
vt 0.574100 -0.979000
vt 0.533700 -0.985900
vt 0.568500 -0.985900
vt 0.559700 -0.936700
vt 0.533700 -0.936700
vt 0.533700 -0.958400
vt 0.568800 -0.958400
vt 0.602800 -0.909400
vt 0.605000 -0.909900
vt 0.607100 -0.889900
vt 0.605000 -0.890700
vt 0.586700 -0.972600
vt 0.588800 -0.973500
vt 0.588700 -0.959900
vt 0.586500 -0.959300
vt 0.581500 -0.980600
vt 0.583400 -0.980600
vt 0.587100 -0.990000
vt 0.589000 -0.988000
vt 0.597800 -0.938100
vt 0.595700 -0.937200
vt 0.447600 -0.674200
vt 0.447600 -0.691100
vt 0.443900 -0.691100
vt 0.427000 -0.674200
vt 0.602800 -0.884200
vt 0.600700 -0.886200
vt 0.010700 -0.767200
vt 0.007900 -0.767200
vt 0.007800 -0.778900
vt 0.010400 -0.779000
vt 0.010500 -0.874900
vt 0.009100 -0.876000
vt 0.009100 -0.897600
vt 0.040600 -0.897600
vt 0.445700 -0.692900
vn -0.995300 -0.097300 -0.000000
vn -0.986300 -0.164700 -0.000000
vn -0.984900 -0.172900 -0.000000
vn -0.734300 -0.678800 -0.000000
vn -0.825100 0.564900 -0.000000
vn -0.794900 -0.606800 -0.000000
vn -0.794900 0.606800 -0.000000
vn -0.949700 -0.313100 -0.000000
vn -0.954300 -0.298900 -0.000000
vn -0.931000 -0.365100 -0.000000
vn -0.751500 -0.247300 -0.611700
vn -0.750800 -0.250500 -0.611100
vn -0.766300 -0.154200 -0.623700
vn -0.775400 0.005100 -0.631400
vn -0.775600 0.005100 -0.631300
vn -0.775500 0.005100 -0.631300
vn -0.505900 -0.757800 -0.412000
vn -0.506000 -0.757800 -0.411900
vn -0.500400 0.763900 -0.407500
vn -0.500500 0.764000 -0.407300
vn -0.500400 0.763900 -0.407400
vn -0.662200 -0.520400 -0.539100
vn -0.662300 -0.520400 -0.539100
vn -0.698500 -0.434500 -0.568600
vn -0.700500 -0.429400 -0.570000
vn -1.000000 0.000000 -0.000000
vn 0.000000 -1.000000 -0.000000
vn -0.539300 0.718700 -0.438900
vn -0.539200 0.718700 -0.438900
vn -0.448700 -0.815700 -0.365200
vn 0.000000 1.000000 -0.000000
vn 0.000000 -0.119200 -0.992900
vn 0.000000 -0.208500 -0.978000
vn 0.000000 -0.200500 -0.979700
vn 0.000000 -0.750500 -0.660900
vn 0.000000 0.643700 -0.765300
vn -0.000000 -0.684000 -0.729400
vn 0.000000 -0.684100 -0.729400
vn -0.000000 0.684100 -0.729400
vn -0.000000 -0.371700 -0.928400
vn 0.000000 -0.434000 -0.900900
vn -0.000000 -0.434000 -0.900900
vn -0.000000 -0.358400 -0.933600
vn -0.766400 -0.154200 -0.623600
vn -0.750200 -0.253500 -0.610600
vn -0.775700 0.005100 -0.631100
vn -0.775600 0.005100 -0.631200
vn -0.506100 -0.757800 -0.411800
vn -0.500500 0.763900 -0.407400
vn -0.500500 0.763900 -0.407300
vn -0.696500 -0.439500 -0.567200
vn -0.662300 -0.520400 -0.539000
vn 0.000000 -0.000000 -1.000000
vn 0.000000 0.000000 -1.000000
usemtl sponza/column_c
f 1/1/1 2/2/1 3/3/2
f 1/1/1 3/3/2 4/4/3
f 5/5/4 6/6/4 7/7/4
f 5/5/4 7/7/4 8/8/4
f 7/9/5 2/2/5 1/1/5
f 7/9/5 1/1/5 8/10/5
f 9/11/6 10/12/6 11/13/6
f 9/11/6 11/13/6 12/14/6
f 11/13/7 13/15/7 14/16/7
f 11/13/7 14/16/7 12/14/7
f 15/17/8 16/18/9 17/19/10
f 15/17/8 17/19/10 18/20/10
f 4/4/3 3/3/2 16/18/9
f 4/4/3 16/18/9 15/17/8
f 4/21/11 19/22/12 20/23/13
f 4/21/11 20/23/13 1/24/13
f 9/25/14 21/26/15 22/27/15
f 9/25/14 22/27/15 18/28/16
f 12/29/17 23/30/18 21/26/18
f 12/29/17 21/26/18 9/25/17
f 12/29/19 14/31/20 24/32/21
f 12/29/19 24/32/21 23/30/21
f 18/28/22 22/27/23 25/33/24
f 18/28/22 25/33/24 15/34/25
f 15/34/25 25/33/24 19/22/12
f 15/34/25 19/22/12 4/21/11
f 9/11/26 18/20/26 17/19/26
f 9/11/26 17/19/26 10/12/26
f 6/35/27 5/36/27 26/37/27
f 6/35/27 26/37/27 27/38/27
f 20/23/28 28/39/29 8/40/29
f 20/23/28 8/40/29 1/24/29
f 29/41/30 5/42/30 8/43/30
f 29/41/30 8/43/30 28/44/30
f 24/45/31 14/46/31 13/47/31
f 24/45/31 13/47/31 30/48/31
f 29/49/27 26/37/27 5/36/27
f 31/1/32 32/4/33 33/3/34
f 31/1/32 33/3/34 34/2/32
f 35/5/35 36/8/35 37/7/35
f 35/5/35 37/7/35 38/6/35
f 31/1/36 34/2/36 37/9/36
f 31/1/36 37/9/36 36/10/36
f 39/11/37 40/14/37 41/13/38
f 39/11/37 41/13/38 42/12/38
f 43/16/39 44/15/39 41/13/39
f 43/16/39 41/13/39 40/14/39
f 45/17/40 46/20/41 47/19/42
f 45/17/40 47/19/42 48/18/43
f 32/4/33 45/17/40 48/18/43
f 32/4/33 48/18/43 33/3/34
f 31/24/44 20/23/13 19/22/12
f 31/24/44 19/22/12 32/21/45
f 22/27/15 21/26/15 39/25/46
f 22/27/15 39/25/46 46/28/47
f 39/25/48 21/26/18 23/30/18
f 39/25/48 23/30/18 40/29/48
f 23/30/21 24/32/21 43/31/49
f 23/30/21 43/31/49 40/29/50
f 45/34/51 25/33/24 22/27/23
f 45/34/51 22/27/23 46/28/52
f 32/21/45 19/22/12 25/33/24
f 32/21/45 25/33/24 45/34/51
f 47/19/53 46/20/53 39/11/53
f 47/19/53 39/11/53 42/12/54
f 38/35/27 27/38/27 26/37/27
f 38/35/27 26/37/27 35/36/27
f 31/24/28 36/40/28 28/39/29
f 31/24/28 28/39/29 20/23/28
f 28/44/30 36/43/30 35/42/30
f 28/44/30 35/42/30 29/41/30
f 44/47/31 43/46/31 24/45/31
f 44/47/31 24/45/31 30/48/31
f 29/49/27 35/36/27 26/37/27
