v 0.105080 22.345770 0.105082
v -2.224579 22.345781 -2.224579
v -5.463226 22.345781 -2.224579
v 0.105080 22.345781 5.463230
v -5.463226 22.345781 5.463230
v 0.105080 21.034872 5.463230
v 0.105080 21.543890 5.463230
v -5.463226 21.543890 5.463230
v -5.463226 21.034872 5.463230
v -5.463226 21.543890 -2.224579
v -5.463226 21.034872 -2.224579
v -5.214760 20.654730 -2.005550
v -5.214760 20.654730 5.244202
v -2.224579 21.034872 -2.224579
v -2.005554 20.654730 -2.005539
v -4.586807 20.363281 -1.451988
v -4.586807 20.363281 4.690641
v 0.105080 20.363281 4.690641
v 0.105080 20.654730 5.244202
v -4.009285 0.000000 0.524061
v -4.009285 18.911201 0.524061
v -2.292778 18.911201 -0.986629
v -2.292778 0.000000 -0.986629
v -4.009285 0.000000 2.660511
v -4.009285 18.911201 2.660511
v -2.292778 0.000000 4.171211
v -2.292778 18.911201 4.171211
v 0.105080 0.000000 4.171211
v 0.105080 18.911201 4.171211
v -4.009285 19.368671 0.524061
v -4.188179 19.496082 0.458851
v -2.366898 19.496082 -1.144079
v -2.292778 19.368671 -0.986629
v -4.009285 19.368671 2.660511
v -4.188179 19.496082 2.725731
v -2.292778 19.368671 4.171211
v -2.366898 19.496082 4.328661
v 0.105080 19.368671 4.171211
v 0.105080 19.496082 4.328661
v -4.064400 19.878321 0.503981
v -4.264435 20.172112 0.431051
v -2.398468 20.172112 -1.211189
v -2.315613 19.878321 -1.035130
v -4.064400 19.878321 2.680601
v -4.264435 20.172112 2.753531
v -2.315613 19.878321 4.219700
v -2.398468 20.172112 4.395771
v 0.105080 19.878321 4.219700
v 0.105080 20.172112 4.395771
v -1.451996 20.363281 -1.451988
v -1.211189 20.172112 -1.211189
v -2.410217 19.139942 -1.236139
v -1.236137 19.139931 -1.236139
v -0.986633 18.911201 -0.986629
v -4.292801 19.139942 0.420712
v -4.292801 19.139942 2.763861
v -2.410217 19.139942 4.420721
v -0.986633 19.368671 -0.986629
v -1.035126 19.878321 -1.035120
v -1.049011 19.623491 -1.049009
v -2.322174 19.623491 -1.049009
v -4.080162 19.623491 0.498232
v -4.080162 19.623491 2.686352
v -2.322174 19.623491 4.233591
v -1.144089 19.496082 -1.144079
v 0.105080 21.543890 5.370371
v 0.105080 21.767002 5.370371
v -5.357735 21.767002 5.370371
v -5.357735 21.543890 5.370371
v -5.357735 21.767002 -2.131718
v -5.357735 21.543890 -2.131718
v -2.224579 21.767002 -2.224579
v -5.463226 21.767002 -2.224579
v -5.463226 21.767002 5.463230
v -2.131714 21.767002 -2.131718
v 0.105080 19.139931 4.420721
v 0.105080 19.623491 4.233591
v 0.105080 21.767002 5.463230
v 2.502937 18.911201 4.171211
v 2.502937 0.000000 4.171211
v 2.502937 19.368671 4.171211
v 2.577057 19.496082 4.328661
v 2.525772 19.878321 4.219700
v 2.608635 20.172112 4.395771
v 3.390274 18.911201 3.390270
v 3.577942 19.139942 3.577951
v 2.620361 19.139942 4.420721
v 3.390274 19.368671 3.390270
v 3.437202 19.623491 3.437201
v 3.426750 19.878321 3.426762
v 2.532333 19.623491 4.233591
v 3.508713 19.496082 3.508711
v 5.244194 20.654730 5.244190
v 5.463226 21.034872 5.463230
v 4.674072 20.352541 4.674082
v 4.690643 20.363281 4.690641
v 5.463226 21.767002 5.463230
v 5.463226 22.345781 5.463230
v 5.370361 21.767002 5.370371
v -2.224579 21.543890 -2.224579
v -0.986633 0.000000 -0.986629
v -2.131714 21.543890 -2.131718
v 5.463226 21.543890 5.463230
v 3.390274 0.000000 3.390270
v 3.559181 20.172112 3.559181
v 5.370361 21.543890 5.370371
v -2.224579 22.345781 -5.463229
v 5.463226 22.345781 0.105091
v 5.463226 22.345781 -5.463219
v 5.463226 21.543890 -5.463219
v 5.463226 21.543890 0.105091
v 5.463226 21.034872 0.105091
v 5.463226 21.034872 -5.463219
v -2.224579 21.543890 -5.463229
v -2.224579 21.034872 -5.463229
v 5.244194 20.654730 -5.214749
v -2.005554 20.654730 -5.214749
v 4.690643 20.363281 -4.586809
v -1.451996 20.363281 -4.586809
v 5.244194 20.654730 0.105091
v 4.690643 20.363281 0.105091
v -0.986633 18.911201 -2.292780
v 0.524063 18.911201 -4.009290
v 0.524063 0.000000 -4.009290
v -0.986633 0.000000 -2.292780
v 2.660515 18.911201 -4.009290
v 2.660515 0.000000 -4.009290
v 4.171211 18.911201 -2.292780
v 4.171211 0.000000 -2.292780
v 4.171211 18.911201 0.105091
v 4.171211 0.000000 0.105091
v -1.144089 19.496082 -2.366899
v 0.458839 19.496082 -4.188169
v 0.524063 19.368671 -4.009290
v -0.986633 19.368671 -2.292780
v 2.725723 19.496082 -4.188169
v 2.660515 19.368671 -4.009290
v 4.328651 19.496082 -2.366899
v 4.171211 19.368671 -2.292780
v 4.328651 19.496082 0.105091
v 4.171211 19.368671 0.105091
v -1.211189 20.172112 -2.398458
v 0.431038 20.172112 -4.264440
v 0.503967 19.878321 -4.064389
v -1.035126 19.878321 -2.315619
v 2.753517 20.172112 -4.264429
v 2.680595 19.878321 -4.064400
v 4.395775 20.172112 -2.398458
v 4.219696 19.878321 -2.315619
v 4.395775 20.172112 0.105091
v 4.219696 19.878321 0.105091
v -1.236137 19.139942 -2.410210
v 0.420700 19.139942 -4.292789
v 2.763863 19.139942 -4.292789
v 4.420715 19.139942 -2.410210
v -1.049011 19.623491 -2.322159
v 0.498222 19.623491 -4.080149
v 2.686340 19.623491 -4.080149
v 4.233582 19.623491 -2.322159
v 5.370361 21.767002 -5.357729
v 5.370361 21.767002 0.105091
v 5.370361 21.543890 0.105091
v 5.370361 21.543890 -5.357729
v -2.131714 21.767002 -5.357739
v -2.131714 21.543890 -5.357739
v -2.224579 21.767002 -5.463229
v 5.463226 21.767002 -5.463219
v 4.420715 19.139931 0.105091
v 4.233582 19.623491 0.105091
v 5.463226 21.767002 0.105091
v 4.171211 18.911201 2.502951
v 4.171211 0.000000 2.502951
v 4.171211 19.368671 2.502951
v 4.328651 19.496082 2.577070
v 4.219696 19.878321 2.525782
v 4.395775 20.172112 2.608641
v 4.420715 19.139942 2.620371
v 4.233582 19.623491 2.532330
vt 0.238800 0.782800
vt 0.296900 0.833900
vt 0.296900 0.905000
vt 0.105200 0.782800
vt 0.105200 0.905000
vt 0.057900 0.168800
vt 0.041900 0.168800
vt 0.041900 0.014900
vt 0.057900 0.014900
vt 0.057900 0.974000
vt 0.041900 0.974000
vt 0.041900 0.732500
vt 0.057700 0.732500
vt 0.069800 0.739400
vt 0.069800 0.967100
vt 0.057700 0.644100
vt 0.069400 0.638100
vt 0.069400 0.725700
vt 0.087100 0.756800
vt 0.087100 0.949700
vt 0.087200 0.039100
vt 0.087200 0.168800
vt 0.069800 0.168800
vt 0.069800 0.021700
vt 0.892900 0.009100
vt 0.892900 0.900500
vt 0.996700 0.900500
vt 0.996700 0.009100
vt 0.804800 0.009100
vt 0.804800 0.900500
vt 0.649000 0.009100
vt 0.649000 0.900500
vt 0.718400 0.900500
vt 0.718400 0.009100
vt 0.475000 0.009100
vt 0.475000 0.900500
vt 0.457100 0.941400
vt 0.457100 0.949300
vt 0.350000 0.949300
vt 0.350000 0.941400
vt 0.564300 0.941400
vt 0.564300 0.949300
vt 0.671500 0.941400
vt 0.671500 0.949300
vt 0.777400 0.941400
vt 0.774400 0.949300
vt 0.457100 0.972700
vt 0.457100 0.990800
vt 0.350000 0.990800
vt 0.350000 0.972700
vt 0.564300 0.972700
vt 0.564300 0.990800
vt 0.671500 0.972700
vt 0.671500 0.990800
vt 0.776400 0.972700
vt 0.773200 0.990800
vt 0.086600 0.623000
vt 0.094100 0.616400
vt 0.094100 0.648800
vt 0.086600 0.708600
vt 0.148000 0.048000
vt 0.096400 0.099600
vt 0.096100 0.815900
vt 0.096100 0.888900
vt 0.145000 0.699800
vt 0.350000 0.913300
vt 0.350000 0.927400
vt 0.302700 0.927400
vt 0.292300 0.913300
vt 0.457100 0.913300
vt 0.457100 0.927400
vt 0.564300 0.927400
vt 0.564300 0.913300
vt 0.671500 0.927400
vt 0.671500 0.913300
vt 0.292300 0.941400
vt 0.294500 0.972700
vt 0.295100 0.957100
vt 0.350000 0.957100
vt 0.457100 0.957100
vt 0.564300 0.957100
vt 0.671500 0.957100
vt 0.299100 0.949300
vt 0.038900 0.170700
vt 0.031800 0.170700
vt 0.031800 0.017800
vt 0.038900 0.017800
vt 0.038900 0.971000
vt 0.031800 0.971000
vt 0.031800 0.732500
vt 0.038900 0.732500
vt 0.005900 0.250100
vt 0.005900 0.159500
vt 0.024300 0.159500
vt 0.024300 0.250100
vt 0.005900 0.494500
vt 0.024300 0.494500
vt 0.027200 0.253000
vt 0.027200 0.491500
vt 0.027200 0.156900
vt 0.027200 0.247100
vt 0.096400 0.168800
vt 0.772800 0.927400
vt 0.777400 0.913300
vt 0.776100 0.957100
vt 0.024300 0.650300
vt 0.005900 0.650300
vt 0.027200 0.497400
vt 0.027200 0.650300
vt 0.369800 0.900500
vt 0.369800 0.009100
vt 0.616100 0.913300
vt 0.617000 0.927400
vt 0.616100 0.941400
vt 0.616300 0.957100
vt 0.616300 0.972700
vt 0.616700 0.949300
vt 0.069800 0.026700
vt 0.057900 0.020700
vt 0.087700 0.042500
vt 0.087200 0.042000
vt 0.024300 0.500400
vt 0.005900 0.500400
vt 0.027200 0.503000
vt 0.041900 0.644100
vt 0.317700 0.009100
vt 0.317700 0.900500
vt 0.356300 0.900500
vt 0.356300 0.009100
vt 0.301700 0.990800
vt 0.031800 0.642200
vt 0.038900 0.642200
vt 0.105200 0.900400
vt 0.041900 0.020700
vt 0.316100 0.009100
vt 0.316100 0.900500
vt 0.616900 0.990800
vt 0.122700 0.073300
vt 0.038900 0.023300
vt 0.031800 0.023300
vt 0.380000 0.900500
vt 0.480000 0.900500
vt 0.480000 0.009100
vt 0.380000 0.009100
vt 0.547200 0.900500
vt 0.547200 0.009100
vt 0.646700 0.900500
vt 0.646700 0.009100
vt 0.743200 0.900500
vt 0.743200 0.009100
vt 0.893100 0.900500
vt 0.893100 0.009100
vt 0.339000 0.900500
vt 0.339000 0.009100
vt 0.997200 0.009100
vt 0.997200 0.900500
vn 0.000000 1.000000 0.000000
vn 0.000000 1.000000 -0.000000
vn 0.000000 -0.258400 0.966000
vn 0.000000 0.000000 1.000000
vn -0.707100 0.000000 0.707100
vn -0.676100 -0.307300 0.669600
vn -0.707100 0.000000 -0.707100
vn -0.676100 -0.307300 -0.669600
vn -0.437600 -0.772800 -0.459600
vn -0.437600 -0.772800 0.459600
vn -0.649400 -0.395700 -0.649400
vn -0.343300 -0.874300 -0.343300
vn -0.192800 -0.956600 -0.218700
vn -0.191800 -0.956900 0.218000
vn 0.000000 -0.862900 0.505400
vn 0.000000 -0.720400 0.693500
vn -0.660700 0.000000 -0.750700
vn -1.000000 0.000000 -0.000000
vn -0.660700 0.000000 0.750700
vn -0.502800 -0.829800 -0.242100
vn -0.510300 -0.830600 -0.223100
vn -0.215200 -0.806200 -0.551100
vn -0.198300 -0.805500 -0.558400
vn -0.502800 -0.829800 0.242100
vn -0.510300 -0.830600 0.223100
vn -0.198300 -0.805500 0.558400
vn -0.215200 -0.806200 0.551100
vn 0.000000 -0.777400 0.629100
vn -0.865200 -0.303100 -0.399400
vn -0.558800 -0.816100 -0.147300
vn -0.138600 -0.750700 -0.646000
vn -0.333400 -0.278300 -0.900800
vn -0.865200 -0.303100 0.399400
vn -0.558800 -0.816200 0.146900
vn -0.333400 -0.278300 0.900800
vn -0.139000 -0.781500 0.608200
vn 0.000000 -0.240400 0.970700
vn 0.000000 -0.694500 0.719500
vn -0.318600 -0.892700 -0.318600
vn -0.481700 -0.732000 -0.481700
vn -0.215000 -0.768200 -0.603000
vn -0.232200 -0.769000 -0.595600
vn -0.384600 -0.839100 -0.384600
vn -0.546300 -0.795500 -0.262000
vn -0.554100 -0.796300 -0.242500
vn -0.554100 -0.796300 0.242500
vn -0.546300 -0.795500 0.262000
vn -0.232200 -0.769000 0.595600
vn -0.215000 -0.768200 0.603000
vn -0.215000 0.768200 -0.603000
vn -0.384600 0.839100 -0.384600
vn -0.232200 0.769000 -0.595600
vn -0.546300 0.795500 -0.262000
vn -0.554100 0.796400 -0.242500
vn -0.546300 0.795500 0.262000
vn -0.554100 0.796400 0.242500
vn -0.232200 0.769000 0.595600
vn -0.215000 0.768200 0.603000
vn -0.681400 -0.267000 -0.681400
vn -0.654900 0.377200 -0.654900
vn -0.319500 0.391100 -0.863100
vn -0.822700 0.422900 -0.379800
vn -0.822700 0.422900 0.379800
vn -0.319500 0.391100 0.863100
vn -0.486400 0.725900 -0.486400
vn -0.279400 0.635300 -0.719900
vn -0.680300 0.669200 -0.299000
vn -0.680300 0.669200 0.299000
vn -0.279400 0.635300 0.719900
vn 0.000000 0.000000 -1.000000
vn 0.000000 -1.000000 -0.000000
vn 0.000000 -0.737100 0.675700
vn -0.000000 0.737100 0.675800
vn 0.000000 0.737100 0.675800
vn 0.000000 0.340800 0.940100
vn 0.000000 0.598000 0.801500
vn 0.198300 -0.805500 0.558400
vn 0.215200 -0.806200 0.551100
vn 0.333400 -0.278300 0.900800
vn 0.139000 -0.781500 0.608200
vn 0.215000 -0.768200 0.603000
vn 0.461600 -0.757500 0.461600
vn 0.232200 -0.769000 0.595600
vn 0.461600 0.757500 0.461600
vn 0.215000 0.768200 0.603000
vn 0.232200 0.769000 0.595600
vn 0.659500 0.360500 0.659500
vn 0.683700 -0.255200 0.683700
vn 0.319500 0.391100 0.863100
vn 0.553800 0.621700 0.553800
vn 0.279400 0.635300 0.719900
vn 0.462400 -0.756600 0.462400
vn 0.675600 -0.295300 0.675600
vn 0.248600 -0.936100 0.248700
vn 0.259800 -0.930000 0.259800
vn -0.351200 -0.868000 -0.351200
vn -0.000000 1.000000 -0.000000
vn 0.707100 0.000000 0.707100
vn 0.660700 0.000000 0.750700
vn 0.428100 -0.795900 0.428100
vn 0.365700 -0.855800 0.365700
vn -0.000000 1.000000 0.000000
vn 0.707100 0.000000 -0.707100
vn 1.000000 0.000000 -0.000000
vn 0.966000 -0.258400 -0.000000
vn 0.669600 -0.307300 -0.676100
vn -0.669600 -0.307300 -0.676100
vn 0.459600 -0.772800 -0.437600
vn -0.459600 -0.772800 -0.437600
vn 0.218000 -0.956900 -0.191800
vn -0.218700 -0.956600 -0.192800
vn 0.693500 -0.720400 -0.000000
vn 0.505400 -0.862900 -0.000000
vn -0.750700 0.000000 -0.660700
vn 0.750700 0.000000 -0.660700
vn -0.551100 -0.806200 -0.215200
vn -0.223100 -0.830600 -0.510300
vn -0.242100 -0.829800 -0.502800
vn -0.558400 -0.805500 -0.198300
vn 0.223100 -0.830600 -0.510300
vn 0.242100 -0.829800 -0.502800
vn 0.551100 -0.806200 -0.215200
vn 0.558500 -0.805500 -0.198300
vn 0.629100 -0.777400 -0.000000
vn -0.646000 -0.750700 -0.138600
vn -0.147300 -0.816100 -0.558800
vn -0.399400 -0.303100 -0.865200
vn -0.900800 -0.278300 -0.333400
vn 0.146900 -0.816200 -0.558800
vn 0.399400 -0.303100 -0.865200
vn 0.608200 -0.781500 -0.139000
vn 0.900800 -0.278300 -0.333400
vn 0.719500 -0.694500 -0.000000
vn 0.970700 -0.240400 -0.000000
vn -0.603000 -0.768200 -0.215000
vn -0.595600 -0.769000 -0.232200
vn -0.262000 -0.795500 -0.546300
vn -0.242500 -0.796300 -0.554100
vn 0.242500 -0.796300 -0.554100
vn 0.262100 -0.795500 -0.546300
vn 0.595600 -0.769000 -0.232200
vn 0.603000 -0.768200 -0.215000
vn -0.603000 0.768200 -0.215000
vn -0.595600 0.769000 -0.232200
vn -0.262000 0.795500 -0.546300
vn -0.242500 0.796300 -0.554100
vn 0.262000 0.795500 -0.546300
vn 0.242500 0.796300 -0.554100
vn 0.595600 0.769000 -0.232200
vn 0.603000 0.768200 -0.215000
vn -0.863100 0.391100 -0.319500
vn -0.379800 0.422900 -0.822700
vn 0.379800 0.422900 -0.822700
vn 0.863100 0.391100 -0.319500
vn -0.719900 0.635300 -0.279400
vn -0.299000 0.669200 -0.680300
vn 0.299000 0.669200 -0.680300
vn 0.719900 0.635300 -0.279400
vn 0.675700 -0.737100 0.000000
vn 0.675700 -0.737100 -0.000000
vn 0.675800 0.737100 -0.000000
vn 0.940100 0.340800 -0.000000
vn 0.801500 0.598000 -0.000000
vn 0.558500 -0.805500 0.198300
vn 0.551100 -0.806200 0.215200
vn 0.900800 -0.278300 0.333400
vn 0.608200 -0.781500 0.139000
vn 0.603000 -0.768200 0.215000
vn 0.595600 -0.769000 0.232200
vn 0.603000 0.768200 0.215000
vn 0.595600 0.769000 0.232200
vn 0.863100 0.391100 0.319500
vn 0.719900 0.635300 0.279400
vn 0.750700 0.000000 0.660700
usemtl sponza/column_a
f 1/1/1 2/2/1 3/3/1
f 1/1/1 3/3/1 4/4/2
f 5/5/2 4/4/2 3/3/1
f 6/6/3 7/7/4 8/8/5
f 6/6/3 8/8/5 9/9/6
f 9/10/6 8/11/5 10/12/7
f 9/10/6 10/12/7 11/13/8
f 11/13/8 12/14/9 13/15/10
f 11/13/8 13/15/10 9/10/6
f 14/16/11 15/17/12 12/18/9
f 14/16/11 12/18/9 11/13/8
f 16/19/13 17/20/14 13/15/10
f 16/19/13 13/15/10 12/14/9
f 17/21/14 18/22/15 19/23/16
f 17/21/14 19/23/16 13/24/10
f 20/25/17 21/26/17 22/27/17
f 20/25/17 22/27/17 23/28/17
f 24/29/18 25/30/18 21/26/18
f 24/29/18 21/26/18 20/25/18
f 26/31/19 27/32/19 25/33/19
f 26/31/19 25/33/19 24/34/19
f 28/35/4 29/36/4 27/32/4
f 28/35/4 27/32/4 26/31/4
f 30/37/20 31/38/21 32/39/22
f 30/37/20 32/39/22 33/40/23
f 34/41/24 35/42/25 31/38/21
f 34/41/24 31/38/21 30/37/20
f 34/41/24 36/43/26 37/44/27
f 34/41/24 37/44/27 35/42/25
f 36/43/26 38/45/28 39/46/28
f 36/43/26 39/46/28 37/44/27
f 40/47/29 41/48/30 42/49/31
f 40/47/29 42/49/31 43/50/32
f 44/51/33 45/52/34 41/48/30
f 44/51/33 41/48/30 40/47/29
f 44/51/33 46/53/35 47/54/36
f 44/51/33 47/54/36 45/52/34
f 46/53/35 48/55/37 49/56/38
f 46/53/35 49/56/38 47/54/36
f 50/57/39 51/58/40 42/59/31
f 50/57/39 42/59/31 16/60/13
f 17/21/14 45/61/34 47/62/36
f 16/19/13 41/63/30 45/64/34
f 16/19/13 45/64/34 17/20/14
f 16/60/13 42/59/31 41/65/30
f 22/66/41 52/67/42 53/68/43
f 22/66/41 53/68/43 54/69/43
f 21/70/44 55/71/45 52/67/42
f 21/70/44 52/67/42 22/66/41
f 56/72/46 55/71/45 21/70/44
f 56/72/46 21/70/44 25/73/47
f 57/74/48 56/72/46 25/73/47
f 57/74/48 25/73/47 27/75/49
f 33/40/50 58/76/51 53/68/51
f 33/40/50 53/68/51 52/67/52
f 30/37/53 33/40/50 52/67/52
f 30/37/53 52/67/52 55/71/54
f 34/41/55 30/37/53 55/71/54
f 34/41/55 55/71/54 56/72/56
f 57/74/57 36/43/58 34/41/55
f 57/74/57 34/41/55 56/72/56
f 43/50/32 59/77/59 60/78/60
f 43/50/32 60/78/60 61/79/61
f 40/47/29 43/50/32 61/79/61
f 40/47/29 61/79/61 62/80/62
f 44/51/33 40/47/29 62/80/62
f 44/51/33 62/80/62 63/81/63
f 46/53/35 44/51/33 63/81/63
f 46/53/35 63/81/63 64/82/64
f 61/79/61 60/78/60 65/83/65
f 61/79/61 65/83/65 32/39/66
f 62/80/62 61/79/61 32/39/66
f 62/80/62 32/39/66 31/38/67
f 63/81/63 62/80/62 31/38/67
f 63/81/63 31/38/67 35/42/68
f 37/44/69 64/82/64 63/81/63
f 37/44/69 63/81/63 35/42/68
f 66/84/4 67/85/4 68/86/4
f 66/84/4 68/86/4 69/87/4
f 69/88/18 68/89/18 70/90/18
f 69/88/18 70/90/18 71/91/18
f 3/92/70 2/93/70 72/94/70
f 3/92/70 72/94/70 73/95/70
f 5/96/18 3/92/18 73/95/18
f 5/96/18 73/95/18 74/97/18
f 7/7/2 66/84/2 69/87/2
f 7/7/2 69/87/2 8/8/2
f 8/11/2 69/88/2 71/91/2
f 8/11/2 71/91/2 10/12/2
f 73/95/71 70/98/71 68/99/71
f 73/95/71 68/99/71 74/97/71
f 72/94/71 75/100/71 70/101/71
f 72/94/71 70/101/71 73/95/71
f 6/6/3 9/9/6 13/24/10
f 6/6/3 13/24/10 19/23/16
f 18/22/15 17/21/14 47/62/36
f 18/22/15 47/62/36 49/102/38
f 76/103/72 57/74/48 27/75/49
f 76/103/72 27/75/49 29/104/72
f 36/43/58 57/74/57 76/103/73
f 36/43/58 76/103/73 38/45/74
f 46/53/35 64/82/64 77/105/75
f 46/53/35 77/105/75 48/55/37
f 64/82/64 37/44/69 39/46/76
f 64/82/64 39/46/76 77/105/75
f 5/96/4 74/97/4 78/106/4
f 5/96/4 78/106/4 4/107/4
f 78/106/71 74/97/71 68/108/71
f 78/106/71 68/108/71 67/109/71
f 79/110/4 29/36/4 28/35/4
f 79/110/4 28/35/4 80/111/4
f 81/43/77 82/44/78 39/46/28
f 81/43/77 39/46/28 38/45/28
f 83/53/79 84/54/80 49/56/38
f 83/53/79 49/56/38 48/55/37
f 79/75/81 85/112/82 86/113/82
f 79/75/81 86/113/82 87/74/83
f 86/113/84 88/114/84 81/43/85
f 86/113/84 81/43/85 87/74/86
f 89/115/87 90/116/88 83/53/79
f 89/115/87 83/53/79 91/82/89
f 92/117/90 89/115/87 91/82/89
f 92/117/90 91/82/89 82/44/91
f 6/6/3 19/23/16 93/118/92
f 6/6/3 93/118/92 94/119/93
f 84/62/80 95/120/94 96/121/95
f 84/62/80 96/121/95 49/102/38
f 18/22/15 49/102/38 96/121/95
f 76/103/72 29/104/72 79/75/81
f 76/103/72 79/75/81 87/74/83
f 76/103/73 87/74/86 81/43/85
f 76/103/73 81/43/85 38/45/74
f 77/105/75 91/82/89 83/53/79
f 77/105/75 83/53/79 48/55/37
f 39/46/76 82/44/91 91/82/89
f 39/46/76 91/82/89 77/105/75
f 78/106/4 97/122/4 98/123/4
f 78/106/4 98/123/4 4/107/4
f 78/106/71 67/109/71 99/124/71
f 78/106/71 99/124/71 97/122/71
f 11/13/8 10/12/7 100/125/7
f 11/13/8 100/125/7 14/16/11
f 16/60/13 12/18/9 15/17/12
f 16/60/13 15/17/12 50/57/39
f 23/126/70 22/127/70 54/128/70
f 23/126/70 54/128/70 101/129/70
f 33/40/23 32/39/22 65/83/96
f 33/40/23 65/83/96 58/76/96
f 43/50/32 42/49/31 51/130/40
f 43/50/32 51/130/40 59/77/59
f 71/91/70 70/90/70 75/131/70
f 71/91/70 75/131/70 102/132/70
f 100/125/2 10/12/2 71/91/2
f 100/125/2 71/91/2 102/132/2
f 1/1/1 4/4/2 98/133/97
f 7/7/4 6/6/3 94/119/93
f 7/7/4 94/119/93 103/134/98
f 19/23/16 18/22/15 96/121/95
f 19/23/16 96/121/95 93/118/92
f 79/110/99 80/111/99 104/135/98
f 79/110/99 104/135/98 85/136/98
f 92/117/100 82/44/78 81/43/77
f 92/117/100 81/43/77 88/114/100
f 105/137/101 84/54/80 83/53/79
f 105/137/101 83/53/79 90/116/88
f 95/120/94 84/62/80 105/138/101
f 67/85/4 66/84/4 106/139/4
f 67/85/4 106/139/4 99/140/4
f 106/139/2 66/84/2 7/7/2
f 106/139/2 7/7/2 103/134/2
f 107/3/1 2/2/1 1/1/1
f 107/3/1 1/1/1 108/4/102
f 109/5/2 107/3/1 108/4/102
f 110/8/103 111/7/104 112/6/105
f 110/8/103 112/6/105 113/9/106
f 114/12/7 110/11/103 113/10/106
f 114/12/7 113/10/106 115/13/107
f 116/15/108 117/14/109 115/13/107
f 116/15/108 115/13/107 113/10/106
f 117/18/109 15/17/12 14/16/11
f 117/18/109 14/16/11 115/13/107
f 116/15/108 118/20/110 119/19/111
f 116/15/108 119/19/111 117/14/109
f 120/23/112 121/22/113 118/21/110
f 120/23/112 118/21/110 116/24/108
f 122/141/114 123/142/114 124/143/114
f 122/141/114 124/143/114 125/144/114
f 123/142/70 126/145/70 127/146/70
f 123/142/70 127/146/70 124/143/70
f 126/145/115 128/147/115 129/148/115
f 126/145/115 129/148/115 127/146/115
f 128/147/104 130/149/104 131/150/104
f 128/147/104 131/150/104 129/148/104
f 132/39/116 133/38/117 134/37/118
f 132/39/116 134/37/118 135/40/119
f 133/38/117 136/42/120 137/41/121
f 133/38/117 137/41/121 134/37/118
f 137/41/121 136/42/120 138/44/122
f 137/41/121 138/44/122 139/43/123
f 139/43/123 138/44/122 140/46/124
f 139/43/123 140/46/124 141/45/124
f 142/49/125 143/48/126 144/47/127
f 142/49/125 144/47/127 145/50/128
f 143/48/126 146/52/129 147/51/130
f 143/48/126 147/51/130 144/47/127
f 147/51/130 146/52/129 148/54/131
f 147/51/130 148/54/131 149/53/132
f 149/53/132 148/54/131 150/56/133
f 149/53/132 150/56/133 151/55/134
f 142/59/125 51/58/40 50/57/39
f 142/59/125 50/57/39 119/60/111
f 118/21/110 148/62/131 146/61/129
f 146/64/129 143/63/126 119/19/111
f 146/64/129 119/19/111 118/20/110
f 119/60/111 143/65/126 142/59/125
f 122/66/135 54/69/43 53/68/43
f 122/66/135 53/68/43 152/67/136
f 123/70/137 122/66/135 152/67/136
f 123/70/137 152/67/136 153/71/138
f 123/70/137 153/71/138 154/72/139
f 123/70/137 154/72/139 126/73/140
f 126/73/140 154/72/139 155/74/141
f 126/73/140 155/74/141 128/75/142
f 53/68/51 58/76/51 135/40/143
f 53/68/51 135/40/143 152/67/144
f 152/67/144 135/40/143 134/37/145
f 152/67/144 134/37/145 153/71/146
f 153/71/146 134/37/145 137/41/147
f 153/71/146 137/41/147 154/72/148
f 155/74/149 154/72/148 137/41/147
f 155/74/149 137/41/147 139/43/150
f 60/78/60 59/77/59 145/50/128
f 60/78/60 145/50/128 156/79/151
f 156/79/151 145/50/128 144/47/127
f 156/79/151 144/47/127 157/80/152
f 157/80/152 144/47/127 147/51/130
f 157/80/152 147/51/130 158/81/153
f 158/81/153 147/51/130 149/53/132
f 158/81/153 149/53/132 159/82/154
f 65/83/65 60/78/60 156/79/151
f 65/83/65 156/79/151 132/39/155
f 132/39/155 156/79/151 157/80/152
f 132/39/155 157/80/152 133/38/156
f 133/38/156 157/80/152 158/81/153
f 133/38/156 158/81/153 136/42/157
f 138/44/158 136/42/157 158/81/153
f 138/44/158 158/81/153 159/82/154
f 160/86/104 161/85/104 162/84/104
f 160/86/104 162/84/104 163/87/104
f 164/90/70 160/89/70 163/88/70
f 164/90/70 163/88/70 165/91/70
f 72/94/18 2/93/18 107/92/18
f 72/94/18 107/92/18 166/95/18
f 166/95/70 107/92/70 109/96/70
f 166/95/70 109/96/70 167/97/70
f 163/87/2 162/84/2 111/7/2
f 163/87/2 111/7/2 110/8/2
f 165/91/2 163/88/2 110/11/2
f 165/91/2 110/11/2 114/12/2
f 160/99/71 164/98/71 166/95/71
f 160/99/71 166/95/71 167/97/71
f 164/101/71 75/100/71 72/94/71
f 164/101/71 72/94/71 166/95/71
f 112/6/105 120/23/112 116/24/108
f 112/6/105 116/24/108 113/9/106
f 121/22/113 150/102/133 148/62/131
f 121/22/113 148/62/131 118/21/110
f 168/103/159 130/104/160 128/75/142
f 168/103/159 128/75/142 155/74/141
f 168/103/161 155/74/149 139/43/150
f 168/103/161 139/43/150 141/45/161
f 169/105/162 159/82/154 149/53/132
f 169/105/162 149/53/132 151/55/134
f 140/46/163 138/44/158 159/82/154
f 140/46/163 159/82/154 169/105/162
f 170/106/104 167/97/104 109/96/104
f 170/106/104 109/96/104 108/107/104
f 170/106/71 161/109/71 160/108/71
f 170/106/71 160/108/71 167/97/71
f 131/150/104 130/149/104 171/151/104
f 131/150/104 171/151/104 172/152/104
f 173/43/164 141/45/124 140/46/124
f 173/43/164 140/46/124 174/44/165
f 175/53/166 151/55/134 150/56/133
f 175/53/166 150/56/133 176/54/167
f 171/75/168 177/74/169 86/113/82
f 171/75/168 86/113/82 85/112/82
f 173/43/170 88/114/84 86/113/84
f 173/43/170 86/113/84 177/74/171
f 175/53/166 90/116/88 89/115/87
f 175/53/166 89/115/87 178/82/172
f 178/82/172 89/115/87 92/117/90
f 178/82/172 92/117/90 174/44/173
f 112/6/105 94/119/93 93/118/92
f 112/6/105 93/118/92 120/23/112
f 96/121/95 95/120/94 176/62/167
f 96/121/95 176/62/167 150/102/133
f 121/22/113 96/121/95 150/102/133
f 168/103/159 177/74/169 171/75/168
f 168/103/159 171/75/168 130/104/160
f 173/43/170 177/74/171 168/103/161
f 173/43/170 168/103/161 141/45/161
f 175/53/166 178/82/172 169/105/162
f 175/53/166 169/105/162 151/55/134
f 178/82/172 174/44/173 140/46/163
f 178/82/172 140/46/163 169/105/162
f 98/123/104 97/122/104 170/106/104
f 98/123/104 170/106/104 108/107/104
f 170/106/71 97/122/71 99/124/71
f 170/106/71 99/124/71 161/109/71
f 100/125/7 114/12/7 115/13/107
f 100/125/7 115/13/107 14/16/11
f 15/17/12 117/18/109 119/60/111
f 15/17/12 119/60/111 50/57/39
f 54/153/18 122/141/18 125/144/18
f 54/153/18 125/144/18 101/154/18
f 65/83/96 132/39/116 135/40/119
f 65/83/96 135/40/119 58/76/96
f 51/130/40 142/49/125 145/50/128
f 51/130/40 145/50/128 59/77/59
f 75/131/18 164/90/18 165/91/18
f 75/131/18 165/91/18 102/132/18
f 100/125/2 102/132/2 165/91/2
f 100/125/2 165/91/2 114/12/2
f 1/1/1 98/133/97 108/4/102
f 94/119/93 112/6/105 111/7/104
f 94/119/93 111/7/104 103/134/98
f 96/121/95 121/22/113 120/23/112
f 96/121/95 120/23/112 93/118/92
f 104/155/98 172/152/174 171/151/174
f 104/155/98 171/151/174 85/156/98
f 92/117/100 88/114/100 173/43/164
f 92/117/100 173/43/164 174/44/165
f 105/137/101 90/116/88 175/53/166
f 105/137/101 175/53/166 176/54/167
f 95/120/94 105/138/101 176/62/167
f 106/139/104 162/84/104 161/85/104
f 106/139/104 161/85/104 99/140/104
f 106/139/2 103/134/2 111/7/2
f 106/139/2 111/7/2 162/84/2
