v -3.442734 18.818298 3.523550
v 3.442715 18.818298 3.523550
v 3.524044 18.818298 3.442240
v -3.524025 18.818298 -3.442230
v 3.524044 18.818298 -3.442230
v 3.442715 18.818298 -3.523550
v -3.442734 18.818298 -3.523550
v -3.524025 18.818298 3.442240
v 2.726974 1.320248 2.793760
v 2.719559 15.322350 2.793760
v -2.719566 15.322350 2.793760
v -2.726952 1.320248 2.793760
v 2.794136 1.320248 -2.726580
v 2.794136 15.322350 -2.719162
v 2.794136 15.322350 2.719168
v 2.794136 1.320248 2.726589
v -2.726952 1.320248 -2.793749
v -2.719566 15.322350 -2.793749
v 2.719559 15.322350 -2.793749
v 2.726974 1.320248 -2.793749
v -2.794144 1.320248 2.726589
v -2.794144 15.322350 2.719168
v -2.794144 15.322350 -2.719162
v -2.794144 1.320248 -2.726580
v 2.860081 16.355652 2.928308
v -2.860085 16.355659 2.928308
v -2.777885 15.709206 2.850689
v 2.777878 15.709206 2.850689
v 2.928707 16.355652 -2.859671
v 2.928707 16.355652 2.859678
v 2.851093 15.709206 2.777489
v 2.851093 15.709206 -2.777481
v -2.860085 16.355652 -2.928301
v 2.860081 16.355652 -2.928301
v 2.777878 15.709206 -2.850679
v -2.777885 15.709206 -2.850679
v -2.928719 16.355659 2.859678
v -2.928719 16.355652 -2.859671
v -2.851074 15.709206 -2.777481
v -2.851074 15.709206 2.777489
v 3.454025 17.945679 3.523550
v 3.450508 18.381981 3.523550
v -3.450493 18.381981 3.523550
v -3.454033 17.945679 3.523550
v 3.524044 17.945679 -3.453531
v 3.524044 18.381981 -3.449999
v 3.524044 18.381981 3.450010
v 3.524044 17.945679 3.453539
v -3.454033 17.945679 -3.523550
v -3.450493 18.381981 -3.523550
v 3.450508 18.381981 -3.523550
v 3.454025 17.945679 -3.523550
v -3.524025 17.945679 3.453539
v -3.524025 18.381981 3.450010
v -3.524025 18.381981 -3.449999
v -3.524025 17.945679 -3.453531
v 2.931953 15.515778 3.013350
v -2.931961 15.515778 3.013350
v 3.013767 15.515778 -2.931540
v 3.013767 15.515778 2.931540
v -2.931961 15.515778 -3.013351
v 2.931953 15.515778 -3.013351
v -3.013771 15.515778 2.931540
v -3.013771 15.515778 -2.931540
v 3.647285 18.600136 3.728088
v -3.647293 18.600136 3.728088
v 3.728611 18.600136 -3.646770
v 3.728611 18.600136 3.646780
v -3.647293 18.600136 -3.728090
v 3.647285 18.600136 -3.728090
v -3.728615 18.600136 3.646780
v -3.728615 18.600136 -3.646770
v -3.120193 17.255554 3.191160
v 3.120205 17.255554 3.191160
v 3.191597 17.255554 3.119759
v 3.191597 17.255554 -3.119761
v 3.120205 17.255554 -3.191149
v -3.120193 17.255554 -3.191149
v -3.191605 17.255554 -3.119761
v -3.191605 17.255554 3.119759
v -2.855713 1.162441 -2.786722
v -3.549568 0.470089 -3.463812
v -3.549568 0.470089 3.463820
v -2.855713 1.162441 2.786730
v -2.787132 1.162441 -2.855322
v -3.464310 0.470089 -3.549072
v 2.787125 1.162441 -2.855322
v 3.464310 0.470089 -3.549072
v 2.855740 1.162441 -2.786722
v 3.549576 0.470089 -3.463812
v 2.855740 1.162441 2.786730
v 3.549576 0.470089 3.463820
v 2.787125 1.162441 2.855330
v 3.464310 0.470089 3.549078
v -2.787132 1.162441 2.855330
v -3.464310 0.470089 3.549078
v -3.695244 0.470089 -3.524130
v -3.695244 0.235050 -3.524130
v -3.695244 0.235050 3.524160
v -3.695244 0.470089 3.524160
v -3.524635 0.470089 -3.694742
v -3.524635 0.235050 -3.694742
v 3.524654 0.470089 -3.694742
v 3.524654 0.235050 -3.694742
v 3.695236 0.470089 -3.524151
v 3.695236 0.235050 -3.524151
v 3.695236 0.470089 3.524149
v 3.695236 0.235050 3.524149
v 3.524654 0.470089 3.694738
v 3.524654 0.235050 3.694738
v -3.524666 0.470089 3.694738
v -3.524666 0.235050 3.694738
v -2.906914 1.241341 2.836668
v -2.906914 1.241341 -2.836660
v -2.837097 1.241341 -2.906521
v 2.837074 1.241341 -2.906521
v 2.906925 1.241341 -2.836660
v 2.906925 1.241341 2.836668
v 2.837074 1.241341 2.906519
v -2.837097 1.241341 2.906519
v -3.549568 0.000000 -3.463812
v -3.549568 0.000000 3.463820
v -3.549568 0.235050 3.463820
v -3.549568 0.235050 -3.463812
v -3.464310 0.000000 -3.549072
v -3.464310 0.235050 -3.549072
v 3.464310 0.000000 -3.549072
v 3.464310 0.235050 -3.549072
v 3.549576 0.000000 -3.463812
v 3.549576 0.235050 -3.463812
v 3.549576 0.000000 3.463820
v 3.549576 0.235050 3.463820
v 3.464310 0.000000 3.549078
v 3.464310 0.235050 3.549078
v -3.464310 0.000000 3.549078
v -3.464310 0.235050 3.549078
vt 0.165500 -0.993800
vt 0.010900 -0.993800
vt 0.009100 -0.992400
vt 0.167400 -0.876000
vt 0.009100 -0.876000
vt 0.010900 -0.874600
vt 0.165500 -0.874600
vt 0.167400 -0.992400
vt 0.742100 -0.012200
vt 0.741800 -0.767200
vt 0.500600 -0.767200
vt 0.500300 -0.012200
vt 0.986800 -0.012200
vt 0.986500 -0.767200
vt 0.745100 -0.767200
vt 0.745100 -0.012200
vt 0.252800 -0.012200
vt 0.252500 -0.767200
vt 0.011200 -0.767200
vt 0.010900 -0.012200
vt 0.497500 -0.012200
vt 0.497100 -0.767200
vt 0.255800 -0.767200
vt 0.255800 -0.012200
vt 0.347700 -0.908900
vt 0.191600 -0.908900
vt 0.193900 -0.888500
vt 0.345500 -0.888500
vt 0.552600 -0.908400
vt 0.396500 -0.908400
vt 0.398800 -0.888100
vt 0.550400 -0.888100
vt 0.761400 -0.910000
vt 0.605300 -0.910000
vt 0.607600 -0.889700
vt 0.759200 -0.889700
vt 0.965900 -0.909600
vt 0.809800 -0.909600
vt 0.812100 -0.889200
vt 0.963700 -0.889200
vt 0.363900 -0.958900
vt 0.363800 -0.972600
vt 0.175500 -0.972600
vt 0.175400 -0.958900
vt 0.568800 -0.958400
vt 0.568700 -0.972100
vt 0.380400 -0.972100
vt 0.380300 -0.958400
vt 0.777600 -0.960000
vt 0.777500 -0.973700
vt 0.589200 -0.973700
vt 0.589100 -0.960000
vt 0.982100 -0.959600
vt 0.982000 -0.973300
vt 0.793700 -0.973300
vt 0.793600 -0.959600
vt 0.741800 -0.779000
vt 0.500500 -0.779300
vt 0.995900 -0.779100
vt 0.745300 -0.779200
vt 0.252400 -0.779000
vt 0.011100 -0.779000
vt 0.496900 -0.779300
vt 0.255900 -0.779000
vt 0.189700 -0.882500
vt 0.349700 -0.882500
vt 0.394600 -0.882000
vt 0.554600 -0.882000
vt 0.603400 -0.883600
vt 0.763400 -0.883600
vt 0.807900 -0.883200
vt 0.967900 -0.883200
vt 0.369200 -0.979400
vt 0.170100 -0.979400
vt 0.574100 -0.979000
vt 0.375100 -0.979000
vt 0.782900 -0.980600
vt 0.583900 -0.980600
vt 0.987400 -0.980100
vt 0.788400 -0.980100
vt 0.363600 -0.986300
vt 0.175700 -0.986300
vt 0.568500 -0.985900
vt 0.380600 -0.985900
vt 0.777300 -0.987500
vt 0.589400 -0.987500
vt 0.981800 -0.987000
vt 0.793900 -0.987000
vt 0.184500 -0.937200
vt 0.354800 -0.937200
vt 0.389400 -0.936700
vt 0.559700 -0.936700
vt 0.598200 -0.938300
vt 0.768500 -0.938300
vt 0.802700 -0.937900
vt 0.973000 -0.937900
vt 0.975400 -0.936800
vt 0.984900 -0.958900
vt 0.007900 -0.767200
vt 0.007900 -0.012200
vt 0.348000 -0.889500
vt 0.350300 -0.908300
vt 0.602800 -0.909400
vt 0.605000 -0.890700
vt 0.807300 -0.909000
vt 0.809500 -0.890200
vt 0.984800 -0.972100
vt 0.366500 -0.958200
vt 0.366300 -0.971400
vt 0.586700 -0.972600
vt 0.586500 -0.959300
vt 0.791200 -0.972100
vt 0.791000 -0.958900
vt 0.352300 -0.885000
vt 0.970500 -0.885700
vt 0.966400 -0.890200
vt 0.600700 -0.886200
vt 0.805200 -0.885700
vt 0.007800 -0.778900
vt 0.990700 -0.980100
vt 0.371600 -0.979400
vt 0.581500 -0.980600
vt 0.786000 -0.980100
vt 0.984200 -0.989600
vt 0.366000 -0.988900
vt 0.587100 -0.990000
vt 0.791600 -0.989600
vt 0.968600 -0.909000
vt 0.357400 -0.936000
vt 0.595700 -0.937200
vt 0.800200 -0.936700
vt 0.752100 -0.867300
vt 0.740700 -0.844000
vt 0.978700 -0.844000
vt 0.967400 -0.867300
vt 0.723100 -0.867300
vt 0.734400 -0.844000
vt 0.507700 -0.868500
vt 0.496400 -0.844000
vt 0.478700 -0.868500
vt 0.490000 -0.844000
vt 0.263400 -0.868300
vt 0.252100 -0.844000
vt 0.234400 -0.868300
vt 0.245700 -0.844000
vt 0.018500 -0.868200
vt 0.009500 -0.844700
vt 0.983300 -0.843300
vt 0.983000 -0.866500
vt 0.740400 -0.839800
vt 0.740400 -0.831800
vt 0.979000 -0.831800
vt 0.979000 -0.839800
vt 0.734700 -0.839800
vt 0.734700 -0.831800
vt 0.496100 -0.839800
vt 0.496100 -0.831800
vt 0.490300 -0.839800
vt 0.490300 -0.831800
vt 0.251800 -0.839800
vt 0.251800 -0.831800
vt 0.246000 -0.839800
vt 0.246000 -0.831800
vt 0.007500 -0.839800
vt 0.007500 -0.831800
vt 0.984700 -0.831800
vt 0.984700 -0.839800
vt 0.968200 -0.870500
vt 0.751200 -0.869900
vt 0.723900 -0.869900
vt 0.506900 -0.871100
vt 0.479600 -0.871100
vt 0.262600 -0.870900
vt 0.235200 -0.870900
vt 0.016800 -0.870800
vt 0.983000 -0.870200
vt 0.745000 -0.817900
vt 0.503600 -0.817900
vt 0.503600 -0.809700
vt 0.745000 -0.809700
vt 0.747900 -0.817900
vt 0.747900 -0.809700
vt 0.989300 -0.817900
vt 0.989300 -0.809700
vt 0.992200 -0.817900
vt 0.992200 -0.809700
vt 0.256400 -0.817900
vt 0.015000 -0.817900
vt 0.015000 -0.809700
vt 0.256400 -0.809700
vt 0.259300 -0.817900
vt 0.259300 -0.809700
vt 0.500700 -0.817900
vt 0.500700 -0.809700
vt 0.255700 -0.006200
vt 0.497400 -0.006200
vt 0.011000 -0.006200
vt 0.252700 -0.006200
vt 0.745000 -0.006200
vt 0.991700 -0.006200
vt 0.500200 -0.006200
vt 0.742000 -0.006200
vt 0.007900 -0.006200
vt 0.978700 -0.827600
vt 0.740700 -0.827600
vt 0.983300 -0.827600
vt 0.245700 -0.827600
vt 0.009500 -0.827600
vt 0.252100 -0.827600
vt 0.490000 -0.827600
vt 0.496400 -0.827600
vt 0.734400 -0.827600
vn 0.000000 1.000000 -0.000000
vn 0.000000 0.000000 1.000000
vn 1.000000 0.000000 -0.000000
vn 0.000000 0.000000 -1.000000
vn -1.000000 0.000000 -0.000000
vn -0.000000 -0.210200 0.977700
vn -0.000000 -0.119200 0.992900
vn 0.000000 -0.119200 0.992900
vn 0.977700 -0.210200 -0.000000
vn 0.992900 -0.119200 -0.000000
vn 0.000000 -0.210200 -0.977700
vn 0.000000 -0.119200 -0.992900
vn -0.977600 -0.210200 0.000000
vn -0.992900 -0.119200 0.000000
vn -0.992900 -0.119200 -0.000000
vn 0.000000 -0.750400 0.661000
vn 0.660900 -0.750400 -0.000000
vn 0.000000 -0.750400 -0.661000
vn -0.660900 -0.750400 -0.000000
vn 0.000000 0.643600 0.765400
vn 0.765300 0.643600 -0.000000
vn 0.000000 0.643600 -0.765400
vn -0.765300 0.643700 -0.000000
vn 0.000000 -0.684000 0.729500
vn 0.729500 -0.684000 -0.000000
vn 0.000000 -0.684000 -0.729500
vn -0.729400 -0.684100 -0.000000
vn 0.000000 0.684000 0.729500
vn 0.729500 0.684000 -0.000000
vn 0.000000 0.684000 -0.729500
vn -0.729400 0.684100 -0.000000
vn -0.000000 -0.433900 0.900900
vn 0.000000 -0.433900 0.900900
vn -0.000000 -0.374300 0.927300
vn 0.900900 -0.434000 -0.000000
vn 0.927300 -0.374400 -0.000000
vn 0.000000 -0.433900 -0.900900
vn 0.000000 -0.374300 -0.927300
vn -0.900900 -0.434000 0.000000
vn -0.900900 -0.434000 -0.000000
vn -0.927300 -0.374300 0.000000
vn 0.707100 0.000400 0.707100
vn -0.584100 -0.563800 0.583900
vn -0.622300 -0.474500 0.622500
vn 0.707100 0.000400 -0.707100
vn -0.707000 0.000400 -0.707200
vn -0.707100 0.000400 -0.707100
vn 0.696500 -0.172200 0.696600
vn 0.679300 -0.277700 0.679300
vn -0.707100 0.000400 0.707100
vn -0.707000 0.000400 0.707200
vn 0.696500 -0.172200 -0.696600
vn 0.679300 -0.277700 -0.679300
vn -0.696600 -0.172200 -0.696500
vn -0.679300 -0.277700 -0.679300
vn -0.707200 0.005700 0.707000
vn -0.707100 0.005700 0.707100
vn 0.707100 0.005700 0.707100
vn 0.707100 0.005700 -0.707100
vn -0.707200 0.005700 -0.707000
vn -0.707100 0.005700 -0.707100
vn 0.462200 0.756800 0.462200
vn 0.462100 0.756800 0.462300
vn -0.462200 0.756800 0.462200
vn 0.462100 0.756800 -0.462200
vn 0.462200 0.756800 -0.462200
vn -0.462200 0.756800 -0.462200
vn 0.378300 -0.844900 0.378300
vn -0.378300 -0.844900 0.378300
vn 0.378300 -0.844900 -0.378300
vn -0.378300 -0.844900 -0.378300
vn -0.431000 -0.792800 0.430900
vn -0.430900 -0.792800 0.431000
vn 0.431000 -0.792800 0.431000
vn 0.430900 -0.792800 0.431000
vn 0.431000 -0.792800 0.430900
vn 0.431000 -0.792800 -0.430900
vn 0.430900 -0.792800 -0.431000
vn 0.431000 -0.792800 -0.431000
vn -0.431000 -0.792800 -0.430900
vn -0.430900 -0.792800 -0.431000
vn -0.425700 0.798400 0.425700
vn -0.425800 0.798400 0.425700
vn -0.425700 0.798400 0.425800
vn 0.425700 0.798400 0.425800
vn 0.425700 0.798400 -0.425800
vn -0.425700 0.798400 -0.425800
vn -0.425800 0.798400 -0.425700
vn -0.679300 -0.277700 0.679300
vn -0.696600 -0.172200 0.696500
vn 0.622400 -0.474600 0.622400
vn 0.584000 -0.563800 0.584000
vn 0.622400 -0.474600 -0.622400
vn 0.584000 -0.563800 -0.584000
vn -0.622300 -0.474600 -0.622500
vn -0.584100 -0.563800 -0.583900
vn -0.584100 -0.563800 -0.584000
vn -0.706300 0.707900 -0.000000
vn -0.411000 0.813800 -0.410900
vn -0.411000 0.813800 -0.411000
vn 0.000000 0.707800 -0.706400
vn 0.410900 0.813800 -0.411000
vn 0.706300 0.707900 -0.000000
vn 0.410900 0.813800 0.411000
vn 0.000000 0.707800 0.706400
vn -0.411000 0.813800 0.410900
vn -0.707100 0.000000 -0.707100
vn 0.707100 0.000000 -0.707100
vn 0.707100 0.000000 0.707100
vn -0.707100 0.000000 0.707100
vn -0.838900 -0.544300 -0.000000
vn 0.000000 -0.544300 -0.838900
vn 0.838900 -0.544300 -0.000000
vn 0.000000 -0.544300 0.838900
vn -0.524000 -0.671600 0.523800
vn 0.523900 -0.671600 0.523900
vn -0.524000 -0.671600 -0.523800
vn 0.523900 -0.671600 -0.523900
vn 0.524000 -0.671600 -0.523900
vn 0.707000 0.000000 -0.707200
vn 0.707100 0.000000 0.707200
vn -0.707200 0.000000 0.707100
vn -0.477200 0.868600 0.133700
vn -0.477200 0.868600 -0.133600
vn -0.418700 0.884600 -0.205200
vn -0.418700 0.884700 0.205200
vn -0.133600 0.868600 -0.477300
vn 0.133600 0.868600 -0.477200
vn 0.205200 0.884700 -0.418600
vn -0.205200 0.884700 -0.418600
vn 0.477200 0.868600 -0.133600
vn 0.477200 0.868600 0.133600
vn 0.418600 0.884700 0.205200
vn 0.418600 0.884700 -0.205200
vn 0.133600 0.868600 0.477200
vn -0.133600 0.868500 0.477300
vn -0.205200 0.884700 0.418600
vn 0.205200 0.884700 0.418600
vn 0.000000 -1.000000 -0.000000
usemtl sponza/column_c
f 1/1/1 2/2/1 3/3/1
f 1/1/1 3/3/1 4/4/1
f 3/3/1 5/5/1 6/6/1
f 3/3/1 6/6/1 4/4/1
f 6/6/1 7/7/1 4/4/1
f 8/8/1 1/1/1 4/4/1
f 9/9/2 10/10/2 11/11/2
f 9/9/2 11/11/2 12/12/2
f 13/13/3 14/14/3 15/15/3
f 13/13/3 15/15/3 16/16/3
f 17/17/4 18/18/4 19/19/4
f 17/17/4 19/19/4 20/20/4
f 21/21/5 22/22/5 23/23/5
f 21/21/5 23/23/5 24/24/5
f 25/25/6 26/26/6 27/27/7
f 25/25/6 27/27/7 28/28/8
f 29/29/9 30/30/9 31/31/10
f 29/29/9 31/31/10 32/32/10
f 33/33/11 34/34/11 35/35/12
f 33/33/11 35/35/12 36/36/12
f 37/37/13 38/38/13 39/39/14
f 37/37/13 39/39/14 40/40/15
f 41/41/2 42/42/2 43/43/2
f 41/41/2 43/43/2 44/44/2
f 45/45/3 46/46/3 47/47/3
f 45/45/3 47/47/3 48/48/3
f 49/49/4 50/50/4 51/51/4
f 49/49/4 51/51/4 52/52/4
f 53/53/5 54/54/5 55/55/5
f 53/53/5 55/55/5 56/56/5
f 57/57/16 58/58/16 11/11/16
f 57/57/16 11/11/16 10/10/16
f 59/59/17 60/60/17 15/15/17
f 59/59/17 15/15/17 14/14/17
f 61/61/18 62/62/18 19/19/18
f 61/61/18 19/19/18 18/18/18
f 63/63/19 64/64/19 23/23/19
f 63/63/19 23/23/19 22/22/19
f 28/28/20 27/27/20 58/65/20
f 28/28/20 58/65/20 57/66/20
f 32/32/21 31/31/21 60/67/21
f 32/32/21 60/67/21 59/68/21
f 36/36/22 35/35/22 62/69/22
f 36/36/22 62/69/22 61/70/22
f 40/40/23 39/39/23 64/71/23
f 40/40/23 64/71/23 63/72/23
f 65/73/24 66/74/24 43/43/24
f 65/73/24 43/43/24 42/42/24
f 67/75/25 68/76/25 47/47/25
f 67/75/25 47/47/25 46/46/25
f 69/77/26 70/78/26 51/51/26
f 69/77/26 51/51/26 50/50/26
f 71/79/27 72/80/27 55/55/27
f 71/79/27 55/55/27 54/54/27
f 2/81/28 1/82/28 66/74/28
f 2/81/28 66/74/28 65/73/28
f 5/83/29 3/84/29 68/76/29
f 5/83/29 68/76/29 67/75/29
f 7/85/30 6/86/30 70/78/30
f 7/85/30 70/78/30 69/77/30
f 8/87/31 4/88/31 72/80/31
f 8/87/31 72/80/31 71/79/31
f 41/41/32 44/44/33 73/89/34
f 41/41/32 73/89/34 74/90/34
f 45/45/35 48/48/35 75/91/36
f 45/45/35 75/91/36 76/92/36
f 49/49/37 52/52/37 77/93/38
f 49/49/37 77/93/38 78/94/38
f 53/53/39 56/56/40 79/95/41
f 53/53/39 79/95/41 80/96/41
f 74/90/34 73/89/34 26/26/6
f 74/90/34 26/26/6 25/25/6
f 76/92/36 75/91/36 30/30/9
f 76/92/36 30/30/9 29/29/9
f 78/94/38 77/93/38 34/34/11
f 78/94/38 34/34/11 33/33/11
f 80/96/41 79/95/41 38/38/13
f 80/96/41 38/38/13 37/37/13
f 16/16/42 15/15/42 10/10/42
f 16/16/42 10/10/42 9/9/42
f 53/53/43 80/96/44 73/97/44
f 53/53/43 73/97/44 44/98/43
f 20/20/45 19/19/45 14/99/45
f 20/20/45 14/99/45 13/100/45
f 24/24/46 23/23/47 18/18/47
f 24/24/46 18/18/47 17/17/46
f 31/101/48 30/102/49 25/25/49
f 31/101/48 25/25/49 28/28/48
f 22/22/50 21/21/51 12/12/51
f 22/22/50 12/12/51 11/11/50
f 35/35/52 34/34/53 29/103/53
f 35/35/52 29/103/53 32/104/52
f 39/39/54 38/38/55 33/105/55
f 39/39/54 33/105/55 36/106/54
f 44/98/56 43/107/57 54/54/57
f 44/98/56 54/54/57 53/53/56
f 48/108/58 47/109/58 42/42/58
f 48/108/58 42/42/58 41/41/58
f 52/52/59 51/51/59 46/110/59
f 52/52/59 46/110/59 45/111/59
f 56/56/60 55/55/61 50/112/61
f 56/56/60 50/112/61 49/113/60
f 28/28/62 57/66/62 60/114/62
f 28/28/62 60/114/62 31/101/63
f 40/40/64 63/72/64 58/115/64
f 40/40/64 58/115/64 27/116/64
f 32/104/65 59/117/66 62/69/66
f 32/104/65 62/69/66 35/35/65
f 36/106/67 61/118/67 64/71/67
f 36/106/67 64/71/67 39/39/67
f 57/57/68 10/10/68 15/15/68
f 57/57/68 15/15/68 60/60/68
f 63/63/69 22/22/69 11/11/69
f 63/63/69 11/11/69 58/58/69
f 59/119/70 14/99/70 19/19/70
f 59/119/70 19/19/70 62/62/70
f 61/61/71 18/18/71 23/23/71
f 61/61/71 23/23/71 64/64/71
f 43/107/72 66/120/73 71/79/73
f 43/107/72 71/79/73 54/54/72
f 47/109/74 68/121/75 65/73/75
f 47/109/74 65/73/75 42/42/76
f 51/51/77 70/78/78 67/122/79
f 51/51/77 67/122/79 46/110/77
f 55/55/80 72/80/81 69/123/81
f 55/55/80 69/123/81 50/112/80
f 66/120/82 1/124/83 8/87/83
f 66/120/82 8/87/83 71/79/84
f 68/121/85 3/125/85 2/81/85
f 68/121/85 2/81/85 65/73/85
f 70/78/86 6/86/86 5/126/86
f 70/78/86 5/126/86 67/122/86
f 72/80/87 4/88/88 7/127/88
f 72/80/87 7/127/88 69/123/87
f 37/37/89 40/40/90 27/116/90
f 37/37/89 27/116/90 26/128/89
f 75/129/91 48/108/92 41/41/92
f 75/129/91 41/41/92 74/90/91
f 77/93/93 52/52/94 45/111/94
f 77/93/93 45/111/94 76/130/93
f 79/95/95 56/56/96 49/113/97
f 79/95/95 49/113/97 78/131/95
f 26/128/89 73/97/44 80/96/44
f 26/128/89 80/96/44 37/37/89
f 30/102/49 75/129/91 74/90/91
f 30/102/49 74/90/91 25/25/49
f 34/34/53 77/93/93 76/130/93
f 34/34/53 76/130/93 29/103/53
f 38/38/55 79/95/95 78/131/95
f 38/38/55 78/131/95 33/105/55
f 81/132/98 82/133/98 83/134/98
f 81/132/98 83/134/98 84/135/98
f 85/136/99 86/137/100 82/133/100
f 85/136/99 82/133/100 81/132/99
f 87/138/101 88/139/101 86/137/101
f 87/138/101 86/137/101 85/136/101
f 89/140/102 90/141/102 88/139/102
f 89/140/102 88/139/102 87/138/102
f 91/142/103 92/143/103 90/141/103
f 91/142/103 90/141/103 89/140/103
f 93/144/104 94/145/104 92/143/104
f 93/144/104 92/143/104 91/142/104
f 95/146/105 96/147/105 94/145/105
f 95/146/105 94/145/105 93/144/105
f 84/135/106 83/134/106 96/148/106
f 84/135/106 96/148/106 95/149/106
f 97/150/5 98/151/5 99/152/5
f 97/150/5 99/152/5 100/153/5
f 101/154/107 102/155/107 98/151/107
f 101/154/107 98/151/107 97/150/107
f 103/156/4 104/157/4 102/155/4
f 103/156/4 102/155/4 101/154/4
f 105/158/108 106/159/108 104/157/108
f 105/158/108 104/157/108 103/156/108
f 107/160/3 108/161/3 106/159/3
f 107/160/3 106/159/3 105/158/3
f 109/162/109 110/163/109 108/161/109
f 109/162/109 108/161/109 107/160/109
f 111/164/2 112/165/2 110/163/2
f 111/164/2 110/163/2 109/162/2
f 100/153/110 99/152/110 112/166/110
f 100/153/110 112/166/110 111/167/110
f 113/168/111 114/169/111 81/132/111
f 113/168/111 81/132/111 84/135/111
f 115/170/112 116/171/112 87/138/112
f 115/170/112 87/138/112 85/136/112
f 117/172/113 118/173/113 91/142/113
f 117/172/113 91/142/113 89/140/113
f 119/174/114 120/175/114 95/146/114
f 119/174/114 95/146/114 93/144/114
f 120/176/115 113/168/115 84/135/115
f 120/176/115 84/135/115 95/149/115
f 118/173/116 119/174/116 93/144/116
f 118/173/116 93/144/116 91/142/116
f 114/169/117 115/170/117 85/136/117
f 114/169/117 85/136/117 81/132/117
f 116/171/118 117/172/119 89/140/118
f 116/171/118 89/140/118 87/138/118
f 121/177/5 122/178/5 123/179/5
f 121/177/5 123/179/5 124/180/5
f 125/181/107 121/177/107 124/180/107
f 125/181/107 124/180/107 126/182/107
f 127/183/4 125/181/4 126/182/4
f 127/183/4 126/182/4 128/184/4
f 129/185/120 127/183/120 128/184/120
f 129/185/120 128/184/120 130/186/120
f 131/187/3 129/188/3 130/189/3
f 131/187/3 130/189/3 132/190/3
f 133/191/121 131/187/121 132/190/121
f 133/191/121 132/190/121 134/192/121
f 135/193/2 133/191/2 134/192/2
f 135/193/2 134/192/2 136/194/2
f 122/178/122 135/193/122 136/194/122
f 122/178/122 136/194/122 123/179/122
f 21/21/123 24/24/124 114/195/125
f 21/21/123 114/195/125 113/196/126
f 17/17/127 20/20/128 116/197/129
f 17/17/127 116/197/129 115/198/130
f 13/13/131 16/16/132 118/199/133
f 13/13/131 118/199/133 117/200/134
f 9/9/135 12/12/136 120/201/137
f 9/9/135 120/201/137 119/202/138
f 12/12/136 21/21/123 113/196/126
f 12/12/136 113/196/126 120/201/137
f 16/16/132 9/9/135 119/202/138
f 16/16/132 119/202/138 118/199/133
f 24/24/124 17/17/127 115/198/130
f 24/24/124 115/198/130 114/195/125
f 20/20/128 13/100/131 117/203/134
f 20/20/128 117/203/134 116/197/129
f 82/133/1 97/150/1 100/153/1
f 82/133/1 100/153/1 83/134/1
f 86/137/1 101/154/1 97/150/1
f 86/137/1 97/150/1 82/133/1
f 88/139/1 103/156/1 101/154/1
f 88/139/1 101/154/1 86/137/1
f 90/141/1 105/158/1 103/156/1
f 90/141/1 103/156/1 88/139/1
f 92/143/1 107/160/1 105/158/1
f 92/143/1 105/158/1 90/141/1
f 94/145/1 109/162/1 107/160/1
f 94/145/1 107/160/1 92/143/1
f 96/147/1 111/164/1 109/162/1
f 96/147/1 109/162/1 94/145/1
f 83/134/1 100/153/1 111/167/1
f 83/134/1 111/167/1 96/148/1
f 123/204/139 99/152/139 98/151/139
f 123/204/139 98/151/139 124/205/139
f 136/206/139 112/166/139 99/152/139
f 136/206/139 99/152/139 123/204/139
f 134/207/139 110/163/139 112/165/139
f 134/207/139 112/165/139 136/208/139
f 132/209/139 108/161/139 110/163/139
f 132/209/139 110/163/139 134/207/139
f 130/210/139 106/159/139 108/161/139
f 130/210/139 108/161/139 132/209/139
f 128/211/139 104/157/139 106/159/139
f 128/211/139 106/159/139 130/210/139
f 126/212/139 102/155/139 104/157/139
f 126/212/139 104/157/139 128/211/139
f 124/205/139 98/151/139 102/155/139
f 124/205/139 102/155/139 126/212/139
