v 0.357597 0.485718 -0.343821
v 0.225269 0.485718 -0.343821
v 0.052479 0.563477 -0.343821
v 0.551029 0.563477 -0.343821
v 0.707207 0.946968 -0.343821
v -0.289043 0.946968 -0.343821
v -0.185101 1.125038 -0.343821
v 0.664539 1.125038 -0.343821
v 0.009068 1.303101 -0.343821
v 0.511467 1.303101 -0.343821
v -0.044571 0.716003 -0.343821
v 0.678768 0.745811 -0.343821
v -0.420895 0.000000 -0.343821
v -0.707203 0.159691 -0.343821
v 0.664539 1.125038 0.343821
v 0.707207 0.946968 0.343821
v 0.511467 1.303101 0.343821
v 0.052479 0.563477 0.343821
v -0.044571 0.716003 0.343821
v 0.678768 0.745811 0.343821
v 0.551029 0.563477 0.343821
v -0.420895 0.000000 0.343821
v -0.707203 0.159691 0.343821
v 0.357597 0.485718 0.343821
v 0.225269 0.485718 0.343821
v -0.185101 1.125038 0.343821
v -0.289043 0.946968 0.343821
v 0.009068 1.303101 0.343821
vt 0.202900 0.283800
vt 0.199200 0.273600
vt 0.188400 0.262300
vt 0.202200 0.301000
vt 0.176800 0.323700
vt 0.149200 0.246500
vt 0.138200 0.259500
vt 0.161800 0.325400
vt 0.129800 0.279500
vt 0.143700 0.318400
vt 0.173900 0.259000
vt 0.191600 0.316000
vt 0.219000 0.210000
vt 0.198600 0.192200
vt 0.067300 0.615900
vt 0.120600 0.615000
vt 0.120400 0.601200
vt 0.067000 0.602000
vt 0.120800 0.628900
vt 0.067500 0.629700
vt 0.119400 0.532800
vt 0.119200 0.520900
vt 0.065800 0.521800
vt 0.066000 0.533600
vt 0.066800 0.586400
vt 0.120200 0.585600
vt 0.120000 0.571500
vt 0.066600 0.572300
vt 0.118300 0.465400
vt 0.064900 0.466200
vt 0.118000 0.443100
vt 0.064600 0.444000
vt 0.153300 0.331100
vt 0.138500 0.339900
vt 0.179100 0.333500
vt 0.164000 0.329400
vt 0.205600 0.376200
vt 0.211800 0.360300
vt 0.130700 0.373100
vt 0.136500 0.387000
vt 0.192100 0.393100
vt 0.151200 0.399600
vt 0.188900 0.344700
vt 0.130500 0.356400
vt 0.235700 0.290900
vt 0.210400 0.281600
vt 0.119700 0.556400
vt 0.119600 0.546200
vt 0.066200 0.547000
vt 0.066400 0.557300
vn 0.000000 0.000000 -1.000000
vn -0.000000 -0.000000 -1.000000
vn -0.000000 0.000000 -1.000000
vn 0.890400 0.455200 -0.000000
vn 0.998900 0.047400 -0.000000
vn 0.758300 0.651900 -0.000000
vn -0.654500 -0.756100 -0.000000
vn -0.843700 -0.536800 -0.000000
vn 0.930200 -0.367000 -0.000000
vn 0.621700 -0.783200 -0.000000
vn 0.885200 -0.465200 -0.000000
vn -0.487100 -0.873300 -0.000000
vn 0.000000 0.000000 1.000000
vn 0.190000 -0.981800 -0.000000
vn -0.209900 -0.977700 -0.000000
f 1/1/1 2/2/1 3/3/1
f 1/1/1 3/3/1 4/4/1
f 5/5/1 6/6/2 7/7/1
f 5/5/1 7/7/1 8/8/1
f 8/8/1 7/7/1 9/9/1
f 8/8/1 9/9/1 10/10/1
f 11/11/2 6/6/2 5/5/1
f 11/11/2 5/5/1 12/12/1
f 4/4/1 3/3/1 11/11/2
f 4/4/1 11/11/2 12/12/1
f 11/11/2 13/13/3 14/14/3
f 11/11/2 14/14/3 6/6/2
f 8/15/4 15/16/4 16/17/5
f 8/15/4 16/17/5 5/18/5
f 17/19/6 15/16/4 8/15/4
f 17/19/6 8/15/4 10/20/6
f 18/21/7 19/22/8 11/23/8
f 18/21/7 11/23/8 3/24/7
f 12/25/9 20/26/9 21/27/10
f 12/25/9 21/27/10 4/28/10
f 11/23/11 19/22/11 22/29/11
f 11/23/11 22/29/11 13/30/11
f 13/30/12 22/29/12 23/31/12
f 13/30/12 23/31/12 14/32/12
f 24/33/13 21/34/13 18/35/13
f 24/33/13 18/35/13 25/36/13
f 26/37/13 27/38/13 16/39/13
f 26/37/13 16/39/13 15/40/13
f 28/41/13 26/37/13 15/40/13
f 28/41/13 15/40/13 17/42/13
f 16/39/13 27/38/13 19/43/13
f 16/39/13 19/43/13 20/44/13
f 21/34/13 20/44/13 19/43/13
f 21/34/13 19/43/13 18/35/13
f 19/43/13 27/38/13 23/45/13
f 19/43/13 23/45/13 22/46/13
f 24/47/14 25/48/15 2/49/15
f 24/47/14 2/49/15 1/50/14
f 21/27/10 24/47/14 1/50/14
f 21/27/10 1/50/14 4/28/10
f 16/17/5 20/26/9 12/25/9
f 16/17/5 12/25/9 5/18/5
f 25/48/15 18/21/7 3/24/7
f 25/48/15 3/24/7 2/49/15
