v 2.891235 0.000000 -2.932205
v 2.937477 0.000000 -2.885956
v 2.954964 0.000000 -2.843744
v -2.849022 0.000000 -2.949686
v 2.937477 0.000000 2.885954
v 2.954964 0.000000 -2.706514
v 2.954964 0.000000 2.728575
v 2.954964 0.000000 2.843744
v 2.849022 0.000000 2.949696
v 2.891235 0.000000 2.932203
v -2.891220 0.000000 2.932203
v 2.751747 0.000000 2.949696
v -2.717216 0.000000 2.949696
v -2.849022 0.000000 2.949696
v -2.954956 0.000000 2.843744
v -2.937462 0.000000 2.885954
v -2.937462 0.000000 -2.885956
v -2.954956 0.000000 2.726583
v -2.954956 0.000000 -2.768095
v -2.954956 0.000000 -2.843744
v -2.891220 0.000000 -2.932205
v -2.804031 0.000000 -2.949686
v 2.720917 0.000000 -2.949686
v 2.849022 0.000000 -2.949686
v 2.937477 0.847488 -2.885956
v 2.891235 0.847488 -2.932205
v 2.849022 0.847488 -2.949686
v 2.954964 0.847488 2.843744
v -2.891220 0.847488 -2.932205
v 2.720917 0.847488 -2.949686
v -2.804031 0.847488 -2.949686
v -2.849022 0.847488 -2.949686
v -2.954956 0.847488 -2.843744
v -2.937462 0.847488 -2.885956
v -2.937462 0.847488 2.885954
v -2.954956 0.847488 -2.768095
v -2.954956 0.847488 2.726583
v -2.954956 0.847488 2.843744
v -2.849022 0.847488 2.949696
v -2.891220 0.847488 2.932203
v 2.891235 0.847488 2.932203
v -2.717216 0.847488 2.949696
v 2.751747 0.847488 2.949696
v 2.849022 0.847488 2.949696
v 2.937477 0.847488 2.885954
v 2.954964 0.847488 2.728575
v 2.954964 0.847488 -2.706514
v 2.954964 0.847488 -2.843744
v 2.727501 0.423973 -2.984365
v 2.855927 0.620369 -2.984365
v 2.855927 0.034676 -2.984365
v 2.727501 0.227570 -2.984365
v -2.989639 0.423973 -2.774805
v -2.989639 0.620369 -2.850645
v -2.989639 0.034676 -2.850645
v -2.989639 0.227570 -2.774805
v -2.966866 0.812813 -2.905596
v -2.910866 0.812813 -2.961605
v -2.910866 0.034676 -2.961605
v -2.966866 0.034676 -2.905596
v 2.966881 0.812813 -2.905596
v 2.966881 0.034676 -2.905596
v 2.910873 0.034676 -2.961605
v 2.910873 0.812813 -2.961605
v -2.910866 0.812813 2.961605
v -2.966866 0.812813 2.905605
v -2.966866 0.034676 2.905605
v -2.910866 0.034676 2.961605
v -2.855911 0.812813 -2.984365
v -2.855911 0.620369 -2.984365
v -2.855911 0.034676 -2.984365
v 2.855927 0.812813 -2.984365
v -2.989639 0.620369 2.850645
v -2.989639 0.034676 2.850645
v -2.989639 0.812813 -2.850645
v 2.989639 0.620369 -2.850645
v 2.989639 0.034676 -2.850645
v 2.989639 0.812813 -2.850645
v -2.855911 0.620369 2.984365
v -2.855911 0.034676 2.984365
v -2.989639 0.034676 2.733194
v -2.810814 0.034676 -2.984365
v 2.727501 0.812813 -2.984365
v -2.989639 0.812813 -2.774805
v -2.855911 0.812813 2.984365
v -2.989639 0.812813 2.850645
v -2.723801 0.423973 2.984365
v -2.723801 0.227570 2.984365
v 2.989639 0.423973 2.735195
v 2.989639 0.620369 2.850645
v 2.989639 0.034676 2.850645
v 2.989639 0.227570 2.735195
v 2.966881 0.812813 2.905605
v 2.910873 0.812813 2.961605
v 2.910873 0.034676 2.961605
v 2.966881 0.034676 2.905605
v 2.855927 0.812813 2.984365
v 2.855927 0.620369 2.984365
v 2.855927 0.034676 2.984365
v 2.989639 0.812813 2.850645
v 2.989639 0.034676 -2.713085
v 2.758400 0.034676 2.984365
v -2.723801 0.812813 2.984365
v 2.989639 0.812813 2.735195
v -2.810814 0.620369 -2.984365
v -2.989639 0.812813 2.733194
v -2.989639 0.620369 2.733194
v 2.758400 0.620369 2.984365
v 2.989639 0.620369 -2.713085
v 2.727501 0.034676 -2.984365
v 2.679268 0.227570 -2.984365
v -2.810814 0.812813 -2.984365
v 2.727501 0.620369 -2.984365
v -2.743462 0.620369 -2.984365
v -2.743462 0.423973 -2.713144
v -2.810814 0.423973 -2.984365
v -2.810814 0.227570 -2.984365
v -2.989639 0.227570 2.733194
v -2.989639 0.034676 -2.774805
v -2.989639 0.620369 2.680824
v -2.794739 0.423973 2.680824
v -2.989639 0.423973 2.733194
v -2.989639 0.227570 -2.702265
v -2.989639 0.620369 -2.774805
v 2.758400 0.227570 2.984365
v -2.723801 0.034676 2.984365
v 2.758400 0.812813 2.984365
v 2.701416 0.620369 2.984365
v 2.701416 0.423973 2.786076
v 2.758400 0.423973 2.984365
v -2.660912 0.227570 2.984365
v -2.723801 0.620369 2.984365
v 2.989639 0.227570 -2.713085
v 2.989639 0.034676 2.735195
v 2.989639 0.812813 -2.713085
v 2.989639 0.620369 -2.647615
v 2.744484 0.423973 -2.647615
v 2.989639 0.423973 -2.713085
v 2.989639 0.227570 2.684784
v 2.989639 0.620369 2.735195
v 2.679268 0.423973 -2.713156
v -2.794739 0.423973 -2.702265
v -2.660912 0.423973 2.786076
v 2.744484 0.423973 2.684784
v 2.989639 0.620369 2.684784
v 2.989639 0.227570 -2.647615
v -2.660912 0.620369 2.984365
v 2.701416 0.227570 2.984365
v -2.989639 0.620369 -2.702265
v -2.989639 0.227570 2.680824
v 2.679268 0.620369 -2.984365
v -2.743462 0.227570 -2.984365
vt 0.985300 0.663100
vt 0.987900 0.665600
vt 0.988800 0.667900
vt 0.673400 0.662200
vt 0.987900 0.979200
vt 0.988800 0.675400
vt 0.988800 0.970600
vt 0.988800 0.976900
vt 0.983100 0.982600
vt 0.985300 0.981700
vt 0.671300 0.981700
vt 0.977800 0.982600
vt 0.680700 0.982600
vt 0.673600 0.982600
vt 0.667800 0.976900
vt 0.668700 0.979200
vt 0.668700 0.665600
vt 0.667800 0.970500
vt 0.667800 0.672000
vt 0.667800 0.667900
vt 0.671300 0.663100
vt 0.675800 0.662200
vt 0.976100 0.662100
vt 0.983100 0.662100
vt 0.562600 0.787300
vt 0.561600 0.788400
vt 0.560600 0.788800
vt 0.563100 0.653600
vt 0.426600 0.788400
vt 0.557700 0.788800
vt 0.428600 0.788800
vt 0.427600 0.788800
vt 0.425200 0.786300
vt 0.425600 0.787300
vt 0.425600 0.652600
vt 0.425200 0.784500
vt 0.425200 0.656300
vt 0.425200 0.653600
vt 0.427600 0.651100
vt 0.426600 0.651500
vt 0.561600 0.651500
vt 0.430700 0.651100
vt 0.558300 0.651100
vt 0.560600 0.651100
vt 0.562600 0.652600
vt 0.563100 0.656300
vt 0.563100 0.783100
vt 0.563100 0.786300
vt 0.034700 0.616600
vt 0.045000 0.623300
vt 0.014300 0.623300
vt 0.024400 0.616600
vt 0.034700 0.311200
vt 0.045000 0.315200
vt 0.014300 0.315200
vt 0.024400 0.311200
vt 0.055100 0.318100
vt 0.055100 0.321000
vt 0.014300 0.321000
vt 0.014300 0.318100
vt 0.055100 0.629100
vt 0.014300 0.629100
vt 0.014300 0.626200
vt 0.055100 0.626200
vt 0.055100 0.010500
vt 0.055100 0.013400
vt 0.014300 0.013400
vt 0.014300 0.010500
vt 0.055100 0.323900
vt 0.045000 0.323900
vt 0.014300 0.323900
vt 0.055100 0.623300
vt 0.045000 0.016300
vt 0.014300 0.016300
vt 0.055100 0.315200
vt 0.045000 0.632000
vt 0.014300 0.632000
vt 0.055100 0.632000
vt 0.045000 0.007600
vt 0.014300 0.007600
vt 0.012400 0.016500
vt 0.014300 0.022400
vt 0.012400 0.022600
vt 0.012500 0.324100
vt 0.014300 0.326200
vt 0.012500 0.326400
vt 0.056900 0.623100
vt 0.055100 0.616600
vt 0.056900 0.616400
vt 0.057000 0.315100
vt 0.055100 0.311200
vt 0.057000 0.311200
vt 0.012500 0.629200
vt 0.012500 0.626200
vt 0.012600 0.321000
vt 0.012600 0.318000
vt 0.012200 0.013400
vt 0.012500 0.010400
vt 0.056900 0.626200
vt 0.057200 0.629200
vt 0.057000 0.318000
vt 0.056800 0.321000
vt 0.057200 0.010400
vt 0.057200 0.013400
vt 0.012600 0.623000
vt 0.057600 0.007900
vt 0.055100 0.007600
vt 0.012600 0.631700
vt 0.012500 0.315200
vt 0.012600 0.007900
vt 0.057100 0.631700
vt 0.056900 0.324100
vt 0.057200 0.016300
vt 0.055100 0.016300
vt 0.034700 0.616400
vt 0.024400 0.616400
vt 0.034700 0.309100
vt 0.024400 0.309100
vt 0.014300 0.023500
vt 0.012400 0.023700
vt 0.014300 0.329000
vt 0.012500 0.329200
vt 0.055100 0.616400
vt 0.056900 0.616200
vt 0.055100 0.309100
vt 0.057000 0.309100
vt 0.045000 0.326200
vt 0.055100 0.022400
vt 0.045000 0.022400
vt 0.045000 0.329000
vt 0.045000 0.023500
vt 0.014300 0.616600
vt 0.024400 0.614100
vt 0.012600 0.616300
vt 0.055100 0.326200
vt 0.056900 0.326500
vt 0.045000 0.616600
vt 0.045000 0.329800
vt 0.034700 0.329800
vt 0.034700 0.326200
vt 0.024400 0.326200
vt 0.024400 0.022400
vt 0.014300 0.311200
vt 0.012500 0.311200
vt 0.057200 0.022500
vt 0.045000 0.025200
vt 0.034700 0.025200
vt 0.034700 0.022400
vt 0.024400 0.307400
vt 0.045000 0.311200
vt 0.024400 0.329000
vt 0.014300 0.616400
vt 0.012600 0.616100
vt 0.055100 0.329000
vt 0.056900 0.329200
vt 0.045000 0.332000
vt 0.034700 0.332000
vt 0.034700 0.329000
vt 0.024400 0.613100
vt 0.045000 0.616400
vt 0.024400 0.023500
vt 0.014300 0.309100
vt 0.012500 0.309100
vt 0.055100 0.023500
vt 0.057200 0.023500
vt 0.045000 0.026900
vt 0.034700 0.026900
vt 0.034700 0.023500
vt 0.024400 0.306500
vt 0.045000 0.309100
vt 0.034700 0.614100
vt 0.034700 0.307400
vt 0.034700 0.613100
vt 0.034700 0.306500
vt 0.045000 0.306500
vt 0.024400 0.026900
vt 0.045000 0.613100
vt 0.024400 0.332000
vt 0.045000 0.307400
vt 0.024400 0.025200
vt 0.045000 0.614100
vt 0.024400 0.329800
vn 0.231800 -0.908800 -0.346900
vn 0.346900 -0.908800 -0.231800
vn 0.409200 -0.908800 -0.081400
vn -0.081400 -0.908800 -0.409200
vn 0.346900 -0.908800 0.231800
vn 0.382700 -0.923900 -0.000000
vn 0.409200 -0.908800 0.081400
vn 0.081400 -0.908800 0.409200
vn 0.231800 -0.908800 0.346900
vn -0.231800 -0.908800 0.346900
vn 0.000000 -0.923900 0.382700
vn -0.081400 -0.908800 0.409200
vn -0.409200 -0.908800 0.081400
vn -0.346900 -0.908800 0.231800
vn -0.346900 -0.908800 -0.231800
vn -0.382700 -0.923900 -0.000000
vn -0.409200 -0.908800 -0.081400
vn -0.231800 -0.908800 -0.346900
vn -0.000000 -0.923900 -0.382700
vn 0.000000 -0.923900 -0.382700
vn 0.081400 -0.908800 -0.409200
vn 0.346900 0.908800 -0.231800
vn 0.231800 0.908800 -0.346900
vn 0.081400 0.908800 -0.409200
vn 0.409200 0.908800 0.081400
vn -0.231800 0.908800 -0.346900
vn -0.000000 0.923900 -0.382700
vn 0.000000 0.923900 -0.382700
vn -0.081400 0.908800 -0.409200
vn -0.409200 0.908800 -0.081400
vn -0.346900 0.908800 -0.231800
vn -0.346900 0.908800 0.231800
vn -0.382700 0.923900 -0.000000
vn -0.409200 0.908800 0.081400
vn -0.081400 0.908800 0.409200
vn -0.231800 0.908800 0.346900
vn 0.231800 0.908800 0.346900
vn 0.000000 0.923900 0.382700
vn 0.081400 0.908800 0.409200
vn 0.346900 0.908800 0.231800
vn 0.382700 0.923900 -0.000000
vn 0.409200 0.908800 -0.081400
vn 0.000000 0.000000 -1.000000
vn 0.195100 0.000000 -0.980800
vn 0.181200 -0.371000 -0.910800
vn -1.000000 0.000000 -0.000000
vn -0.980800 0.000000 -0.195100
vn -0.910800 -0.371000 -0.181200
vn -0.772100 0.371000 -0.515900
vn -0.515900 0.371000 -0.772100
vn -0.515900 -0.371000 -0.772100
vn -0.772100 -0.371000 -0.515900
vn 0.772100 0.371000 -0.515900
vn 0.772100 -0.371000 -0.515900
vn 0.515900 -0.371000 -0.772100
vn 0.515900 0.371000 -0.772100
vn -0.515900 0.371000 0.772100
vn -0.772100 0.371000 0.515900
vn -0.772100 -0.371000 0.515900
vn -0.515900 -0.371000 0.772100
vn -0.181200 0.371000 -0.910800
vn -0.195100 0.000000 -0.980800
vn -0.181200 -0.371000 -0.910800
vn 0.181200 0.371000 -0.910800
vn -0.980800 0.000000 0.195100
vn -0.910800 -0.371000 0.181200
vn -0.910800 0.371000 -0.181200
vn 0.980800 0.000000 -0.195100
vn 0.910800 -0.371000 -0.181100
vn 0.910800 0.371000 -0.181100
vn -0.195100 0.000000 0.980800
vn -0.181200 -0.371000 0.910800
vn -0.923900 -0.382700 -0.000000
vn -0.000000 -0.382700 -0.923900
vn -0.000000 0.382700 -0.923900
vn -0.923900 0.382700 -0.000000
vn -0.181100 0.371000 0.910800
vn -0.910800 0.371000 0.181200
vn 0.000000 0.000000 1.000000
vn 1.000000 0.000000 -0.000000
vn 0.980800 0.000000 0.195100
vn 0.910800 -0.371000 0.181100
vn 0.772100 0.371000 0.515900
vn 0.515900 0.371000 0.772200
vn 0.515900 -0.371000 0.772200
vn 0.772100 -0.371000 0.515900
vn 0.181200 0.371000 0.910800
vn 0.195100 0.000000 0.980800
vn 0.181200 -0.371000 0.910800
vn 0.910800 0.371000 0.181100
vn 0.923900 -0.382700 -0.000000
vn 0.000000 -0.382700 0.923900
vn 0.000000 0.382700 0.923900
vn 0.923900 0.382700 -0.000000
vn -0.000000 -0.000000 -1.000000
vn 0.517200 -0.177400 -0.837300
vn 0.970500 -0.000000 -0.241000
vn 0.898400 -0.000000 -0.439100
vn -0.967800 -0.251600 -0.000000
vn -0.887000 -0.119000 -0.446300
vn -0.259500 -0.000000 -0.965700
vn -0.413400 -0.000000 -0.910600
vn -0.967800 0.251600 -0.000000
vn -0.449400 -0.130400 0.883800
vn -0.961100 -0.000000 0.276200
vn -0.897400 -0.000000 0.441200
vn 0.852400 -0.165400 0.496100
vn 0.258000 -0.000000 0.966100
vn 0.448600 -0.000000 0.893700
vn -0.521300 0.128000 -0.843700
vn -0.984600 -0.000000 -0.175100
vn -0.946100 -0.000000 -0.323900
vn -0.882800 0.162700 0.440600
vn -0.348800 -0.000000 0.937200
vn -0.543700 -0.000000 0.839300
vn 0.447800 0.143400 0.882600
vn 0.953200 -0.000000 0.302300
vn 0.877300 -0.000000 0.480000
vn 0.856700 0.128200 -0.499600
vn 0.201400 -0.000000 -0.979500
vn 0.354800 -0.000000 -0.934900
vn 0.625200 -0.780500 -0.000000
vn 0.852400 0.165400 0.496100
vn 0.625200 0.780500 -0.000000
vn 0.856700 -0.128200 -0.499600
vn 0.000000 -0.710500 0.703700
vn -0.449400 0.130400 0.883800
vn 0.000000 0.710500 0.703700
vn 0.447800 -0.143400 0.882600
vn -1.000000 -0.000000 -0.000000
vn -0.887000 0.119000 -0.446200
vn -0.882800 -0.162700 0.440600
vn -0.000000 -0.809900 -0.586500
vn 0.517100 0.177400 -0.837300
vn -0.000000 0.809900 -0.586500
vn -0.521300 -0.128000 -0.843700
vn -0.000000 0.000000 -1.000000
f 1/1/1 2/2/2 3/3/3
f 1/1/1 3/3/3 4/4/4
f 5/5/5 6/6/6 7/7/6
f 5/5/5 7/7/6 8/8/7
f 6/6/6 5/5/5 9/9/8
f 6/6/6 9/9/8 3/3/3
f 5/5/5 10/10/9 9/9/8
f 11/11/10 12/12/11 13/13/11
f 11/11/10 13/13/11 14/14/12
f 12/12/11 11/11/10 15/15/13
f 12/12/11 15/15/13 9/9/8
f 11/11/10 16/16/14 15/15/13
f 9/9/8 15/15/13 4/4/4
f 9/9/8 4/4/4 3/3/3
f 17/17/15 18/18/16 19/19/16
f 17/17/15 19/19/16 20/20/17
f 18/18/16 17/17/15 4/4/4
f 18/18/16 4/4/4 15/15/13
f 17/17/15 21/21/18 4/4/4
f 22/22/19 23/23/20 1/1/1
f 22/22/19 1/1/1 4/4/4
f 24/24/21 1/1/1 23/23/20
f 25/25/22 26/26/23 27/27/24
f 25/25/22 27/27/24 28/28/25
f 29/29/26 30/30/27 31/31/28
f 29/29/26 31/31/28 32/32/29
f 30/30/27 29/29/26 33/33/30
f 30/30/27 33/33/30 27/27/24
f 29/29/26 34/34/31 33/33/30
f 35/35/32 36/36/33 37/37/33
f 35/35/32 37/37/33 38/38/34
f 36/36/33 35/35/32 39/39/35
f 36/36/33 39/39/35 33/33/30
f 35/35/32 40/40/36 39/39/35
f 33/33/30 39/39/35 28/28/25
f 33/33/30 28/28/25 27/27/24
f 41/41/37 42/42/38 43/43/38
f 41/41/37 43/43/38 44/44/39
f 42/42/38 41/41/37 28/28/25
f 42/42/38 28/28/25 39/39/35
f 41/41/37 45/45/40 28/28/25
f 46/46/41 47/47/41 25/25/22
f 46/46/41 25/25/22 28/28/25
f 48/48/42 25/25/22 47/47/41
f 49/49/43 50/50/44 51/51/45
f 49/49/43 51/51/45 52/52/43
f 53/53/46 54/54/47 55/55/48
f 53/53/46 55/55/48 56/56/46
f 57/57/49 58/58/50 59/59/51
f 57/57/49 59/59/51 60/60/52
f 61/61/53 62/62/54 63/63/55
f 61/61/53 63/63/55 64/64/56
f 65/65/57 66/66/58 67/67/59
f 65/65/57 67/67/59 68/68/60
f 58/58/50 69/69/61 70/70/62
f 58/58/50 70/70/62 59/59/51
f 71/71/63 59/59/51 70/70/62
f 63/63/55 51/51/45 50/50/44
f 63/63/55 50/50/44 64/64/56
f 72/72/64 64/64/56 50/50/44
f 67/67/59 66/66/58 73/73/65
f 67/67/59 73/73/65 74/74/66
f 57/57/49 55/55/48 54/54/47
f 57/57/49 54/54/47 75/75/67
f 60/60/52 55/55/48 57/57/49
f 76/76/68 77/77/69 61/61/53
f 76/76/68 61/61/53 78/78/70
f 61/61/53 77/77/69 62/62/54
f 79/79/71 65/65/57 68/68/60
f 79/79/71 68/68/60 80/80/72
f 15/81/13 74/74/66 81/82/73
f 15/81/13 81/82/73 18/83/16
f 4/84/4 71/71/63 82/85/74
f 4/84/4 82/85/74 22/86/19
f 27/87/24 72/72/64 83/88/75
f 27/87/24 83/88/75 30/89/27
f 33/90/30 75/75/67 84/91/76
f 33/90/30 84/91/76 36/92/33
f 2/93/2 1/94/1 63/63/55
f 2/93/2 63/63/55 62/62/54
f 21/95/18 17/96/15 60/60/52
f 21/95/18 60/60/52 59/59/51
f 16/97/14 11/98/10 68/68/60
f 16/97/14 68/68/60 67/67/59
f 26/99/23 25/100/22 61/61/53
f 26/99/23 61/61/53 64/64/56
f 34/101/31 29/102/26 58/58/50
f 34/101/31 58/58/50 57/57/49
f 40/103/36 35/104/32 66/66/58
f 40/103/36 66/66/58 65/65/57
f 1/94/1 24/105/21 51/51/45
f 1/94/1 51/51/45 63/63/55
f 4/84/4 21/95/18 59/59/51
f 4/84/4 59/59/51 71/71/63
f 15/81/13 16/97/14 67/67/59
f 15/81/13 67/67/59 74/74/66
f 27/87/24 26/99/23 64/64/56
f 27/87/24 64/64/56 72/72/64
f 33/90/30 34/101/31 57/57/49
f 33/90/30 57/57/49 75/75/67
f 39/106/35 40/103/36 65/65/57
f 39/106/35 65/65/57 85/107/77
f 3/108/3 2/93/2 62/62/54
f 3/108/3 62/62/54 77/77/69
f 17/96/15 20/109/17 55/55/48
f 17/96/15 55/55/48 60/60/52
f 11/98/10 14/110/12 80/80/72
f 11/98/10 80/80/72 68/68/60
f 25/100/22 48/111/42 78/78/70
f 25/100/22 78/78/70 61/61/53
f 29/102/26 32/112/29 69/69/61
f 29/102/26 69/69/61 58/58/50
f 35/104/32 38/113/34 86/114/78
f 35/104/32 86/114/78 66/66/58
f 87/115/79 79/50/71 80/51/72
f 87/115/79 80/51/72 88/116/79
f 89/117/80 90/54/81 91/55/82
f 89/117/80 91/55/82 92/118/80
f 93/57/83 94/58/84 95/59/85
f 93/57/83 95/59/85 96/60/86
f 94/58/84 97/69/87 98/70/88
f 94/58/84 98/70/88 95/59/85
f 99/71/89 95/59/85 98/70/88
f 93/57/83 91/55/82 90/54/81
f 93/57/83 90/54/81 100/75/90
f 96/60/86 91/55/82 93/57/83
f 3/81/3 77/74/69 101/119/91
f 3/81/3 101/119/91 6/120/6
f 9/84/8 99/71/89 102/121/92
f 9/84/8 102/121/92 12/122/11
f 39/87/35 85/72/77 103/123/93
f 39/87/35 103/123/93 42/124/38
f 28/90/25 100/75/90 104/125/94
f 28/90/25 104/125/94 46/126/41
f 10/95/9 5/96/5 96/60/86
f 10/95/9 96/60/86 95/59/85
f 45/101/40 41/102/37 94/58/84
f 45/101/40 94/58/84 93/57/83
f 9/84/8 10/95/9 95/59/85
f 9/84/8 95/59/85 99/71/89
f 28/90/25 45/101/40 93/57/83
f 28/90/25 93/57/83 100/75/90
f 5/96/5 8/109/7 91/55/82
f 5/96/5 91/55/82 96/60/86
f 41/102/37 44/112/39 97/69/87
f 41/102/37 97/69/87 94/58/84
f 70/70/62 69/69/61 105/127/43
f 106/128/76 107/129/46 73/73/65
f 106/128/76 73/73/65 86/114/78
f 98/70/88 97/69/87 108/130/79
f 76/73/68 78/114/70 109/131/80
f 110/132/74 111/133/95 52/52/43
f 110/132/74 51/51/45 24/105/21
f 110/132/74 24/105/21 23/134/20
f 112/135/75 31/136/28 30/89/27
f 112/135/75 30/89/27 83/88/75
f 83/88/75 72/72/64 113/137/43
f 113/137/43 50/50/44 49/49/43
f 110/132/74 23/134/20 22/86/19
f 110/132/74 22/86/19 82/85/74
f 112/135/75 114/138/95 105/127/43
f 114/138/96 115/139/97 116/140/98
f 114/138/96 116/140/98 105/127/43
f 82/85/74 71/71/63 117/141/43
f 112/135/75 69/69/61 32/112/29
f 112/135/75 32/112/29 31/136/28
f 81/82/73 74/74/66 118/142/46
f 119/143/73 19/144/16 18/83/16
f 119/143/73 18/83/16 81/82/73
f 106/128/76 86/114/78 38/113/34
f 106/128/76 38/113/34 37/145/33
f 106/128/76 120/146/99 107/129/46
f 120/146/100 121/147/101 122/148/102
f 120/146/100 122/148/102 107/129/46
f 119/143/73 123/149/103 56/56/46
f 106/128/76 37/145/33 36/92/33
f 106/128/76 36/92/33 84/91/76
f 119/143/73 55/55/48 20/109/17
f 119/143/73 20/109/17 19/144/16
f 84/91/76 75/75/67 124/150/46
f 124/150/46 54/54/47 53/53/46
f 102/121/92 99/71/89 125/151/79
f 126/152/92 13/153/11 12/122/11
f 126/152/92 12/122/11 102/121/92
f 127/154/93 97/69/87 44/112/39
f 127/154/93 44/112/39 43/155/38
f 127/154/93 128/156/79 108/130/79
f 128/156/104 129/157/105 130/158/106
f 128/156/104 130/158/106 108/130/79
f 126/152/92 131/159/79 88/116/79
f 127/154/93 43/155/38 42/124/38
f 127/154/93 42/124/38 103/123/93
f 126/152/92 80/51/72 14/105/12
f 126/152/92 14/105/12 13/153/11
f 79/50/71 132/160/79 103/123/93
f 79/50/71 103/123/93 85/72/77
f 132/160/79 79/50/71 87/115/79
f 101/119/91 77/74/69 133/161/80
f 134/162/91 7/163/6 6/120/6
f 134/162/91 6/120/6 101/119/91
f 135/164/94 78/114/70 48/113/42
f 135/164/94 48/113/42 47/165/41
f 135/164/94 136/166/80 109/131/80
f 136/166/107 137/167/108 138/168/109
f 136/166/107 138/168/109 109/131/80
f 134/162/91 139/169/80 92/118/80
f 135/164/94 47/165/41 46/126/41
f 135/164/94 46/126/41 104/125/94
f 134/162/91 91/55/82 8/109/7
f 134/162/91 8/109/7 7/163/6
f 104/125/94 100/75/90 140/170/80
f 140/170/80 90/54/81 89/117/80
f 111/133/110 141/171/111 49/49/112
f 111/133/110 49/49/112 52/52/43
f 123/149/113 142/172/114 53/53/115
f 123/149/113 53/53/115 56/56/46
f 131/159/116 143/173/117 87/115/118
f 131/159/116 87/115/118 88/116/79
f 139/169/119 144/174/120 89/117/121
f 139/169/119 89/117/121 92/118/80
f 144/174/122 137/167/122 136/166/122
f 144/174/122 136/166/122 145/175/122
f 138/168/109 137/167/108 146/176/123
f 138/168/109 146/176/123 133/161/80
f 137/167/124 144/174/124 139/169/124
f 137/167/124 139/169/124 146/176/124
f 89/117/121 144/174/120 145/175/125
f 89/117/121 145/175/125 140/170/80
f 143/173/126 129/157/126 128/156/126
f 143/173/126 128/156/126 147/177/126
f 130/158/106 129/157/105 148/178/127
f 130/158/106 148/178/127 125/151/79
f 129/157/128 143/173/128 131/159/128
f 129/157/128 131/159/128 148/178/128
f 87/115/118 143/173/117 147/177/129
f 87/115/118 147/177/129 132/160/79
f 142/172/130 121/147/130 120/146/99
f 142/172/130 120/146/99 149/179/99
f 122/148/102 121/147/101 150/180/131
f 122/148/102 150/180/131 118/142/46
f 121/147/130 142/172/130 123/149/103
f 121/147/130 123/149/103 150/180/103
f 53/53/115 142/172/114 149/179/132
f 53/53/115 149/179/132 124/150/46
f 141/171/133 115/139/133 114/138/133
f 141/171/133 114/138/133 151/181/133
f 116/140/98 115/139/97 152/182/134
f 116/140/98 152/182/134 117/141/43
f 115/139/135 141/171/135 111/133/135
f 115/139/135 111/133/135 152/182/135
f 49/49/112 141/171/111 151/181/136
f 49/49/112 151/181/136 113/137/43
f 70/70/62 105/127/43 116/140/43
f 84/91/76 124/150/46 149/179/99
f 150/180/103 123/149/103 119/143/73
f 150/180/103 119/143/73 81/82/73
f 151/181/137 114/138/95 112/135/75
f 151/181/137 112/135/75 83/88/75
f 82/85/74 117/141/43 152/182/137
f 149/179/99 120/146/99 106/128/76
f 149/179/99 106/128/76 84/91/76
f 81/82/73 118/142/46 150/180/103
f 73/73/65 107/129/46 122/148/46
f 148/178/79 131/159/79 126/152/92
f 148/178/79 126/152/92 102/121/92
f 103/123/93 132/160/79 147/177/79
f 147/177/79 128/156/79 127/154/93
f 147/177/79 127/154/93 103/123/93
f 98/70/88 108/130/79 130/158/79
f 146/176/80 139/169/80 134/162/91
f 146/176/80 134/162/91 101/119/91
f 104/125/94 140/170/80 145/175/80
f 102/121/92 125/151/79 148/178/79
f 76/73/68 109/131/80 138/168/80
f 83/88/75 113/137/43 151/181/137
f 152/182/137 111/133/95 110/132/74
f 152/182/137 110/132/74 82/85/74
f 101/119/91 133/161/80 146/176/80
f 145/175/80 136/166/80 135/164/94
f 145/175/80 135/164/94 104/125/94
f 55/55/48 119/143/73 56/56/46
f 75/75/67 54/54/47 124/150/46
f 69/69/61 112/135/75 105/127/43
f 116/140/43 117/141/43 71/71/63
f 116/140/43 71/71/63 70/70/62
f 66/66/58 86/114/78 73/73/65
f 79/79/71 85/107/77 65/65/57
f 80/51/72 126/152/92 88/116/79
f 122/148/46 118/142/46 74/74/66
f 122/148/46 74/74/66 73/73/65
f 100/75/90 90/54/81 140/170/80
f 130/158/79 125/151/79 99/71/89
f 130/158/79 99/71/89 98/70/88
f 91/55/82 134/162/91 92/118/80
f 97/69/87 127/154/93 108/130/79
f 78/114/70 135/164/94 109/131/80
f 72/72/64 50/50/44 113/137/43
f 51/51/45 110/132/74 52/52/43
f 138/168/80 133/161/80 77/74/69
f 138/168/80 77/74/69 76/73/68
