v 0.461250 0.000000 0.408800
v -0.461250 0.000000 0.408800
v -0.461258 0.000000 -0.750031
v 0.461250 0.000000 -0.750031
v -0.461258 1.309555 -0.750031
v -0.461250 1.309555 0.750031
v 0.461250 1.309555 0.750031
v 0.461250 1.309555 -0.750031
v 0.461250 0.190475 0.525480
v -0.461250 0.190475 0.525480
v -0.461250 0.293938 0.750031
v 0.461250 0.293938 0.750031
vt 0.359300 0.807200
vt 0.414300 0.807200
vt 0.414300 0.738100
vt 0.359300 0.738100
vt 0.414300 0.983900
vt 0.414300 0.894500
vt 0.359300 0.894500
vt 0.359300 0.983900
vt 0.491500 0.903100
vt 0.422400 0.903100
vt 0.498400 0.914500
vt 0.359300 0.820500
vt 0.414300 0.820500
vt 0.434600 0.816400
vt 0.427700 0.827800
vt 0.503700 0.816400
vt 0.422400 0.981200
vt 0.511800 0.981200
vt 0.414300 0.833900
vt 0.359300 0.833900
vt 0.503700 0.894500
vt 0.511800 0.920600
vn 0.000000 -1.000000 -0.000000
vn 0.000000 1.000000 -0.000000
vn 1.000000 0.000000 -0.000000
vn 0.000000 -0.522400 0.852700
vn 0.000000 -0.747500 0.664200
vn -1.000000 -0.000000 0.000000
vn 0.000000 0.000000 1.000000
vn 0.000000 -0.908200 0.418500
vn -1.000000 0.000000 -0.000000
f 1/1/1 2/2/1 3/3/1
f 1/1/1 3/3/1 4/4/1
f 5/5/2 6/6/2 7/7/2
f 5/5/2 7/7/2 8/8/2
f 1/9/3 4/10/3 9/11/3
f 1/1/4 9/12/5 10/13/5
f 1/1/4 10/13/5 2/2/4
f 2/14/6 10/15/6 3/16/6
f 9/11/3 4/10/3 8/17/3
f 9/11/3 8/17/3 7/18/3
f 11/19/7 12/20/7 7/7/7
f 11/19/7 7/7/7 6/6/7
f 5/21/6 3/16/6 10/15/6
f 5/21/6 10/15/6 6/6/6
f 7/18/3 12/22/3 9/11/3
f 12/20/8 11/19/8 10/13/5
f 12/20/8 10/13/5 9/12/5
f 10/15/6 11/19/9 6/6/6
