v 11.477402 0.000000 0.000006
v 11.477402 0.030170 -0.112606
v 15.493858 0.030170 -0.112606
v 15.493858 0.000000 0.000006
v 11.477402 0.112610 -0.195044
v 15.493858 0.112610 -0.195044
v 11.477402 0.225220 -0.225225
v 15.493858 0.225220 -0.225225
v 11.477402 0.337843 -0.195044
v 15.493858 0.337843 -0.195044
v 11.477402 0.420271 -0.112606
v 15.493858 0.420271 -0.112606
v 11.477402 0.450453 0.000006
v 15.493858 0.450453 0.000006
v 11.477402 0.420271 0.112616
v 15.493858 0.420271 0.112616
v 11.477402 0.337843 0.195057
v 15.493858 0.337843 0.195057
v 11.477402 0.225220 0.225225
v 15.493858 0.225220 0.225225
v 11.477402 0.112610 0.195057
v 15.493858 0.112610 0.195057
v 11.477402 0.030170 0.112616
v 15.493858 0.030170 0.112616
v 7.460938 0.000000 0.000006
v 7.460938 0.030170 -0.112606
v 7.460938 0.112610 -0.195044
v 7.460938 0.225220 -0.225225
v 7.460938 0.337843 -0.195044
v 7.460938 0.420271 -0.112606
v 7.460938 0.450453 0.000006
v 7.460938 0.420271 0.112616
v 7.460938 0.337843 0.195057
v 7.460938 0.225220 0.225225
v 7.460938 0.112610 0.195057
v 7.460938 0.030170 0.112616
v 3.444481 0.000000 0.000006
v 3.444481 0.030170 -0.112606
v 3.444481 0.112610 -0.195044
v 3.444481 0.225220 -0.225225
v 3.444481 0.337843 -0.195044
v 3.444481 0.420271 -0.112606
v 3.444481 0.450453 0.000006
v 3.444481 0.420271 0.112616
v 3.444481 0.337843 0.195057
v 3.444481 0.225220 0.225225
v 3.444481 0.112610 0.195057
v 3.444481 0.030170 0.112616
v 0.000000 0.000000 0.000006
v 0.000000 0.030170 -0.112606
v 0.000000 0.112610 -0.195044
v 0.000000 0.225220 -0.225225
v 0.000000 0.337843 -0.195044
v 0.000000 0.420271 -0.112606
v 0.000000 0.450453 0.000006
v 0.000000 0.420271 0.112616
v 0.000000 0.337843 0.195057
v 0.000000 0.225220 0.225225
v 0.000000 0.112610 0.195057
v 0.000000 0.030170 0.112616
v -15.493851 0.030170 -0.112606
v -11.477394 0.030170 -0.112606
v -11.477394 0.000000 0.000006
v -15.493851 0.000000 0.000006
v -15.493851 0.112610 -0.195044
v -11.477394 0.112610 -0.195044
v -15.493851 0.225220 -0.225225
v -11.477394 0.225220 -0.225225
v -15.493851 0.337843 -0.195044
v -11.477394 0.337843 -0.195044
v -15.493851 0.420271 -0.112606
v -11.477394 0.420271 -0.112606
v -15.493851 0.450453 0.000006
v -11.477394 0.450453 0.000006
v -15.493851 0.420271 0.112616
v -11.477394 0.420271 0.112616
v -15.493851 0.337843 0.195057
v -11.477394 0.337843 0.195057
v -15.493851 0.225220 0.225225
v -11.477394 0.225220 0.225225
v -15.493851 0.112610 0.195057
v -11.477394 0.112610 0.195057
v -15.493851 0.030170 0.112616
v -11.477394 0.030170 0.112616
v -7.460945 0.030170 -0.112606
v -7.460945 0.000000 0.000006
v -7.460945 0.112610 -0.195044
v -7.460945 0.225220 -0.225225
v -7.460945 0.337843 -0.195044
v -7.460945 0.420271 -0.112606
v -7.460945 0.450453 0.000006
v -7.460945 0.420271 0.112616
v -7.460945 0.337843 0.195057
v -7.460945 0.225220 0.225225
v -7.460945 0.112610 0.195057
v -7.460945 0.030170 0.112616
v -3.444466 0.030170 -0.112606
v -3.444466 0.000000 0.000006
v -3.444466 0.112610 -0.195044
v -3.444466 0.225220 -0.225225
v -3.444466 0.337843 -0.195044
v -3.444466 0.420271 -0.112606
v -3.444466 0.450453 0.000006
v -3.444466 0.420271 0.112616
v -3.444466 0.337843 0.195057
v -3.444466 0.225220 0.225225
v -3.444466 0.112610 0.195057
v -3.444466 0.030170 0.112616
vt 0.987600 -0.524100
vt 0.963300 -0.524100
vt 0.963300 -0.005300
vt 0.987600 -0.005300
vt 0.939100 -0.524100
vt 0.939100 -0.005300
vt 0.914800 -0.524100
vt 0.914800 -0.005300
vt 0.890600 -0.524100
vt 0.890600 -0.005300
vt 0.866300 -0.524100
vt 0.866300 -0.005300
vt 0.842100 -0.524100
vt 0.842100 -0.005300
vt 0.817800 -0.524100
vt 0.817800 -0.005300
vt 0.793600 -0.524100
vt 0.793600 -0.005300
vt 0.769400 -0.524100
vt 0.769400 -0.005300
vt 0.745100 -0.524100
vt 0.745100 -0.005300
vt 0.720900 -0.524100
vt 0.720900 -0.005300
vt 0.696600 -0.524100
vt 0.696600 -0.005300
vt 0.987600 -0.450200
vt 0.963300 -0.450200
vt 0.939100 -0.450200
vt 0.914800 -0.450200
vt 0.890600 -0.450200
vt 0.866300 -0.450200
vt 0.842100 -0.450200
vt 0.817800 -0.450200
vt 0.793600 -0.450200
vt 0.769400 -0.450200
vt 0.745100 -0.450200
vt 0.720900 -0.450200
vt 0.696600 -0.450200
vn 0.000000 -1.000000 0.000000
vn 0.000000 -0.866000 -0.500000
vn 0.000000 -1.000000 -0.000000
vn -0.000000 -0.500000 -0.866000
vn 0.000000 -0.500000 -0.866000
vn -0.000000 0.000000 -1.000000
vn 0.000000 0.000000 -1.000000
vn -0.000000 0.500000 -0.866000
vn -0.000000 0.866000 -0.500000
vn -0.000000 1.000000 0.000000
vn -0.000000 0.866000 0.500000
vn -0.000000 0.500000 0.866000
vn 0.000000 -0.000000 1.000000
vn -0.000000 0.000000 1.000000
vn 0.000000 -0.500000 0.866000
vn -0.000000 -0.866000 0.500000
vn 0.000000 -0.866000 0.500000
vn -0.000000 -0.000000 -1.000000
vn -0.000000 1.000000 -0.000000
vn -0.000000 -0.000000 1.000000
vn -0.000000 -0.500000 0.866000
vn -0.000000 -1.000000 0.000000
vn -0.000000 -0.866000 -0.500000
vn 0.000000 -0.000000 -1.000000
vn 0.000000 0.500000 -0.866000
vn 0.000000 0.866000 -0.500000
vn 0.000000 1.000000 0.000000
vn 0.000000 0.866000 0.500000
vn 0.000000 0.500000 0.866000
vn -0.000000 -1.000000 -0.000000
vn 0.000000 0.000000 1.000000
vn 0.000000 1.000000 -0.000000
usemtl sponza/flagpole
f 1/1/1 2/2/2 3/3/2
f 1/1/1 3/3/2 4/4/3
f 2/2/2 5/5/4 6/6/5
f 2/2/2 6/6/5 3/3/2
f 5/5/4 7/7/6 8/8/7
f 5/5/4 8/8/7 6/6/5
f 7/7/6 9/9/8 10/10/8
f 7/7/6 10/10/8 8/8/7
f 9/9/8 11/11/9 12/12/9
f 9/9/8 12/12/9 10/10/8
f 11/11/9 13/13/10 14/14/10
f 11/11/9 14/14/10 12/12/9
f 13/13/10 15/15/11 16/16/11
f 13/13/10 16/16/11 14/14/10
f 15/15/11 17/17/12 18/18/12
f 15/15/11 18/18/12 16/16/11
f 17/17/12 19/19/13 20/20/14
f 17/17/12 20/20/14 18/18/12
f 19/19/13 21/21/15 22/22/15
f 19/19/13 22/22/15 20/20/14
f 21/21/15 23/23/16 24/24/17
f 21/21/15 24/24/17 22/22/15
f 23/23/16 1/25/1 4/26/3
f 23/23/16 4/26/3 24/24/17
f 25/1/1 26/2/2 2/3/2
f 25/1/1 2/3/2 1/4/1
f 26/2/2 27/5/5 5/6/4
f 26/2/2 5/6/4 2/3/2
f 27/5/5 28/7/18 7/8/6
f 27/5/5 7/8/6 5/6/4
f 28/7/18 29/9/8 9/10/8
f 28/7/18 9/10/8 7/8/6
f 29/9/8 30/11/9 11/12/9
f 29/9/8 11/12/9 9/10/8
f 30/11/9 31/13/19 13/14/10
f 30/11/9 13/14/10 11/12/9
f 31/13/19 32/15/11 15/16/11
f 31/13/19 15/16/11 13/14/10
f 32/15/11 33/17/12 17/18/12
f 32/15/11 17/18/12 15/16/11
f 33/17/12 34/19/20 19/20/13
f 33/17/12 19/20/13 17/18/12
f 34/19/20 35/21/21 21/22/15
f 34/19/20 21/22/15 19/20/13
f 35/21/21 36/23/17 23/24/16
f 35/21/21 23/24/16 21/22/15
f 36/23/17 25/25/1 1/26/1
f 36/23/17 1/26/1 23/24/16
f 37/1/1 38/2/2 26/3/2
f 37/1/1 26/3/2 25/4/1
f 38/2/2 39/5/4 27/6/5
f 38/2/2 27/6/5 26/3/2
f 39/5/4 40/7/6 28/8/18
f 39/5/4 28/8/18 27/6/5
f 40/7/6 41/9/8 29/10/8
f 40/7/6 29/10/8 28/8/18
f 41/9/8 42/11/9 30/12/9
f 41/9/8 30/12/9 29/10/8
f 42/11/9 43/13/19 31/14/19
f 42/11/9 31/14/19 30/12/9
f 43/13/19 44/15/11 32/16/11
f 43/13/19 32/16/11 31/14/19
f 44/15/11 45/17/12 33/18/12
f 44/15/11 33/18/12 32/16/11
f 45/17/12 46/19/14 34/20/20
f 45/17/12 34/20/20 33/18/12
f 46/19/14 47/21/15 35/22/21
f 46/19/14 35/22/21 34/20/20
f 47/21/15 48/23/17 36/24/17
f 47/21/15 36/24/17 35/22/21
f 48/23/17 37/25/1 25/26/1
f 48/23/17 25/26/1 36/24/17
f 49/27/22 50/28/23 38/3/2
f 49/27/22 38/3/2 37/4/1
f 50/28/23 51/29/5 39/6/4
f 50/28/23 39/6/4 38/3/2
f 51/29/5 52/30/24 40/8/6
f 51/29/5 40/8/6 39/6/4
f 52/30/24 53/31/25 41/10/8
f 52/30/24 41/10/8 40/8/6
f 53/31/25 54/32/26 42/12/9
f 53/31/25 42/12/9 41/10/8
f 54/32/26 55/33/27 43/14/19
f 54/32/26 43/14/19 42/12/9
f 55/33/27 56/34/28 44/16/11
f 55/33/27 44/16/11 43/14/19
f 56/34/28 57/35/29 45/18/12
f 56/34/28 45/18/12 44/16/11
f 57/35/29 58/36/13 46/20/14
f 57/35/29 46/20/14 45/18/12
f 58/36/13 59/37/21 47/22/15
f 58/36/13 47/22/15 46/20/14
f 59/37/21 60/38/16 48/24/17
f 59/37/21 48/24/17 47/22/15
f 60/38/16 49/39/22 37/26/1
f 60/38/16 37/26/1 48/24/17
f 61/3/23 62/2/23 63/1/22
f 61/3/23 63/1/22 64/4/30
f 65/6/4 66/5/5 62/2/23
f 65/6/4 62/2/23 61/3/23
f 67/8/24 68/7/7 66/5/5
f 67/8/24 66/5/5 65/6/4
f 69/10/25 70/9/25 68/7/7
f 69/10/25 68/7/7 67/8/24
f 71/12/26 72/11/26 70/9/25
f 71/12/26 70/9/25 69/10/25
f 73/14/27 74/13/27 72/11/26
f 73/14/27 72/11/26 71/12/26
f 75/16/28 76/15/28 74/13/27
f 75/16/28 74/13/27 73/14/27
f 77/18/29 78/17/29 76/15/28
f 77/18/29 76/15/28 75/16/28
f 79/20/31 80/19/20 78/17/29
f 79/20/31 78/17/29 77/18/29
f 81/22/21 82/21/21 80/19/20
f 81/22/21 80/19/20 79/20/31
f 83/24/16 84/23/17 82/21/21
f 83/24/16 82/21/21 81/22/21
f 64/26/30 63/25/22 84/23/17
f 64/26/30 84/23/17 83/24/16
f 62/3/23 85/2/23 86/1/22
f 62/3/23 86/1/22 63/4/22
f 66/6/5 87/5/4 85/2/23
f 66/6/5 85/2/23 62/3/23
f 68/8/7 88/7/24 87/5/4
f 68/8/7 87/5/4 66/6/5
f 70/10/25 89/9/25 88/7/24
f 70/10/25 88/7/24 68/8/7
f 72/12/26 90/11/26 89/9/25
f 72/12/26 89/9/25 70/10/25
f 74/14/27 91/13/32 90/11/26
f 74/14/27 90/11/26 72/12/26
f 76/16/28 92/15/28 91/13/32
f 76/16/28 91/13/32 74/14/27
f 78/18/29 93/17/29 92/15/28
f 78/18/29 92/15/28 76/16/28
f 80/20/20 94/19/13 93/17/29
f 80/20/20 93/17/29 78/18/29
f 82/22/21 95/21/15 94/19/13
f 82/22/21 94/19/13 80/20/20
f 84/24/17 96/23/16 95/21/15
f 84/24/17 95/21/15 82/22/21
f 63/26/22 86/25/22 96/23/16
f 63/26/22 96/23/16 84/24/17
f 85/3/23 97/2/23 98/1/22
f 85/3/23 98/1/22 86/4/22
f 87/6/4 99/5/5 97/2/23
f 87/6/4 97/2/23 85/3/23
f 88/8/24 100/7/7 99/5/5
f 88/8/24 99/5/5 87/6/4
f 89/10/25 101/9/25 100/7/7
f 89/10/25 100/7/7 88/8/24
f 90/12/26 102/11/26 101/9/25
f 90/12/26 101/9/25 89/10/25
f 91/14/32 103/13/32 102/11/26
f 91/14/32 102/11/26 90/12/26
f 92/16/28 104/15/28 103/13/32
f 92/16/28 103/13/32 91/14/32
f 93/18/29 105/17/29 104/15/28
f 93/18/29 104/15/28 92/16/28
f 94/20/13 106/19/31 105/17/29
f 94/20/13 105/17/29 93/18/29
f 95/22/15 107/21/21 106/19/31
f 95/22/15 106/19/31 94/20/13
f 96/24/16 108/23/16 107/21/21
f 96/24/16 107/21/21 95/22/15
f 86/26/22 98/25/22 108/23/16
f 86/26/22 108/23/16 96/24/16
f 97/3/23 50/28/23 49/27/22
f 97/3/23 49/27/22 98/4/22
f 99/6/5 51/29/5 50/28/23
f 99/6/5 50/28/23 97/3/23
f 100/8/7 52/30/24 51/29/5
f 100/8/7 51/29/5 99/6/5
f 101/10/25 53/31/25 52/30/24
f 101/10/25 52/30/24 100/8/7
f 102/12/26 54/32/26 53/31/25
f 102/12/26 53/31/25 101/10/25
f 103/14/32 55/33/27 54/32/26
f 103/14/32 54/32/26 102/12/26
f 104/16/28 56/34/28 55/33/27
f 104/16/28 55/33/27 103/14/32
f 105/18/29 57/35/29 56/34/28
f 105/18/29 56/34/28 104/16/28
f 106/20/31 58/36/13 57/35/29
f 106/20/31 57/35/29 105/18/29
f 107/22/21 59/37/21 58/36/13
f 107/22/21 58/36/13 106/20/31
f 108/24/16 60/38/16 59/37/21
f 108/24/16 59/37/21 107/22/21
f 98/26/22 49/39/22 60/38/16
f 98/26/22 60/38/16 108/24/16
