v -0.059296 0.386864 0.193672
v 0.003937 1.033310 0.111496
v 0.003937 1.033310 0.804653
v -0.059296 0.386864 0.804653
v -0.105637 0.000000 0.251991
v 0.073120 0.193428 0.039627
v 0.073120 0.193428 0.804653
v -0.105637 0.000000 0.804653
v 0.488495 3.059639 -0.478848
v 0.655060 3.277786 -0.675606
v 0.655060 3.277786 0.804653
v 0.488495 3.059639 0.804653
v 0.488495 3.495934 -0.471066
v 0.488495 3.495934 0.804653
v 0.217941 1.933197 -0.148594
v 0.488495 2.623329 -0.482365
v 0.488495 2.623329 0.804653
v 0.217941 1.933197 0.804653
v -0.108475 0.386864 0.133244
v -0.043427 1.033310 0.053337
v 0.440552 2.623329 -0.541256
v 0.439133 3.059639 -0.539486
v 0.602463 3.277786 -0.740158
v 0.436005 3.495934 -0.535606
v 0.169403 1.933197 -0.208157
v -0.655060 0.000000 0.804714
v -0.205200 0.000000 0.252083
v 0.020477 0.193428 -0.025124
v -0.155396 0.000000 0.190872
v -0.655060 3.495934 0.804726
v -0.157639 0.386864 0.072807
v -0.654999 0.386864 0.072811
v -0.654999 1.033310 -0.004807
v -0.090744 1.033310 -0.004814
v -0.205154 0.000000 0.129776
v -0.654999 0.000000 0.129776
v -0.654999 0.193428 -0.089882
v -0.032257 0.193428 -0.089882
v 0.389771 3.059639 -0.600143
v -0.654999 3.059639 -0.600136
v -0.654999 3.277786 -0.804726
v 0.549927 3.277786 -0.804726
v -0.654999 3.495934 -0.600136
v 0.383423 3.495934 -0.600136
v 0.120972 1.933197 -0.267696
v -0.654999 1.933197 -0.267696
v -0.654999 2.623329 -0.600136
v 0.392654 2.623329 -0.600143
vt 0.550400 0.888100
vt 0.552600 0.908400
vt 0.533700 0.908400
vt 0.533700 0.888100
vt 0.986500 0.767200
vt 0.995900 0.779100
vt 0.963200 0.779100
vt 0.961900 0.767200
vt 0.533700 0.882000
vt 0.554600 0.882000
vt 0.568700 0.972100
vt 0.574100 0.979000
vt 0.533700 0.979000
vt 0.533700 0.972100
vt 0.568500 0.985900
vt 0.533700 0.985900
vt 0.559700 0.936700
vt 0.568800 0.958400
vt 0.533700 0.958400
vt 0.533700 0.936700
vt 0.607100 0.889900
vt 0.605000 0.909900
vt 0.602800 0.909400
vt 0.605000 0.890700
vt 0.588700 0.959900
vt 0.588800 0.973500
vt 0.586700 0.972600
vt 0.586500 0.959300
vt 0.583400 0.980600
vt 0.581500 0.980600
vt 0.589000 0.988000
vt 0.587100 0.990000
vt 0.597800 0.938100
vt 0.595700 0.937200
vt 0.447600 0.674200
vt 0.427000 0.674200
vt 0.443900 0.691100
vt 0.447600 0.691100
vt 0.600700 0.886200
vt 0.602800 0.884200
vt 0.007800 0.778900
vt 0.007900 0.767200
vt 0.010700 0.767200
vt 0.010400 0.779000
vt 0.009100 0.897600
vt 0.009100 0.876000
vt 0.010500 0.874900
vt 0.040600 0.897600
vt 0.445700 0.692900
vn 0.995300 -0.097400 -0.000000
vn 0.984900 -0.172900 -0.000000
vn 0.986300 -0.164700 -0.000000
vn 0.734400 -0.678700 -0.000000
vn 0.825200 0.564900 -0.000000
vn 0.794800 -0.606800 -0.000000
vn 0.794800 0.606800 -0.000000
vn 0.949700 -0.313100 -0.000000
vn 0.931000 -0.365000 -0.000000
vn 0.954300 -0.298900 -0.000000
vn 0.766400 -0.154200 -0.623600
vn 0.750800 -0.250500 -0.611200
vn 0.751300 -0.247300 -0.611900
vn 0.775600 0.005100 -0.631200
vn 0.775600 0.005100 -0.631300
vn 0.775500 0.005100 -0.631300
vn 0.775400 0.005100 -0.631400
vn 0.506000 -0.757800 -0.411900
vn 0.506000 -0.757800 -0.412000
vn 0.505900 -0.757800 -0.412100
vn 0.500300 0.763900 -0.407500
vn 0.500400 0.763900 -0.407400
vn 0.500600 0.763900 -0.407200
vn 0.698400 -0.434500 -0.568700
vn 0.662300 -0.520400 -0.539000
vn 0.662200 -0.520400 -0.539200
vn 0.700100 -0.429400 -0.570500
vn 1.000000 0.000000 -0.000000
vn 0.000000 -1.000000 -0.000000
vn 0.539300 0.718700 -0.438800
vn 0.539500 0.718700 -0.438600
vn 0.448900 -0.815700 -0.365000
vn 0.448700 -0.815700 -0.365200
vn 0.448600 -0.815700 -0.365200
vn 0.448700 -0.815700 -0.365100
vn 0.000000 1.000000 -0.000000
vn -0.000000 -0.119200 -0.992900
vn -0.000000 -0.200500 -0.979700
vn -0.000000 -0.208500 -0.978000
vn 0.000000 -0.750500 -0.660900
vn -0.000000 0.643700 -0.765300
vn 0.000000 0.643700 -0.765300
vn 0.000000 -0.684000 -0.729400
vn -0.000000 -0.684100 -0.729400
vn 0.000000 0.684100 -0.729400
vn -0.000000 -0.371700 -0.928400
vn -0.000000 -0.358400 -0.933600
vn -0.000000 -0.434000 -0.900900
vn 0.750300 -0.253500 -0.610500
vn 0.775700 0.005100 -0.631000
vn 0.506100 -0.757800 -0.411900
vn 0.506100 -0.757800 -0.411800
vn 0.500300 0.763900 -0.407600
vn 0.500500 0.764000 -0.407300
vn 0.696800 -0.439500 -0.566900
vn 0.662500 -0.520400 -0.538900
vn -0.000000 -0.000000 -1.000000
vn -0.000000 0.000000 -1.000000
vn 0.539100 0.718700 -0.439000
vn 0.539300 0.718800 -0.438800
vn 0.448500 -0.815700 -0.365300
f 1/1/1 2/2/2 3/3/3
f 1/1/1 3/3/3 4/4/1
f 5/5/4 6/6/4 7/7/4
f 5/5/4 7/7/4 8/8/4
f 1/1/5 4/4/5 7/9/5
f 1/1/5 7/9/5 6/10/5
f 9/11/6 10/12/6 11/13/6
f 9/11/6 11/13/6 12/14/6
f 13/15/7 14/16/7 11/13/7
f 13/15/7 11/13/7 10/12/7
f 15/17/8 16/18/9 17/19/9
f 15/17/8 17/19/9 18/20/10
f 2/2/2 15/17/8 18/20/10
f 2/2/2 18/20/10 3/3/3
f 19/21/11 20/22/12 2/23/13
f 19/21/11 2/23/13 1/24/11
f 21/25/14 22/26/15 9/27/16
f 21/25/14 9/27/16 16/28/17
f 22/26/18 23/29/19 10/30/20
f 22/26/18 10/30/20 9/27/18
f 10/30/21 23/29/22 24/31/22
f 10/30/21 24/31/22 13/32/23
f 25/33/24 21/25/25 16/28/26
f 25/33/24 16/28/26 15/34/27
f 20/22/12 25/33/24 15/34/27
f 20/22/12 15/34/27 2/23/13
f 17/19/28 16/18/28 9/11/28
f 17/19/28 9/11/28 12/14/28
f 8/35/29 26/36/29 27/37/29
f 8/35/29 27/37/29 5/38/29
f 19/21/30 1/24/30 6/39/31
f 19/21/30 6/39/31 28/40/30
f 6/41/32 5/42/33 29/43/34
f 6/41/32 29/43/34 28/44/35
f 14/45/36 13/46/36 24/47/36
f 14/45/36 24/47/36 30/48/36
f 29/49/29 5/38/29 27/37/29
f 31/1/37 32/4/37 33/3/38
f 31/1/37 33/3/38 34/2/39
f 35/5/40 36/8/40 37/7/40
f 35/5/40 37/7/40 38/6/40
f 37/9/41 32/4/41 31/1/41
f 37/9/41 31/1/41 38/10/42
f 39/11/43 40/14/44 41/13/44
f 39/11/43 41/13/44 42/12/43
f 41/13/45 43/16/45 44/15/45
f 41/13/45 44/15/45 42/12/45
f 45/17/46 46/20/47 47/19/48
f 45/17/46 47/19/48 48/18/48
f 34/2/39 33/3/38 46/20/47
f 34/2/39 46/20/47 45/17/46
f 31/24/11 34/23/49 20/22/12
f 31/24/11 20/22/12 19/21/11
f 39/27/14 22/26/15 21/25/14
f 39/27/14 21/25/14 48/28/50
f 39/27/51 42/30/52 23/29/19
f 39/27/51 23/29/19 22/26/18
f 44/32/53 24/31/22 23/29/22
f 44/32/53 23/29/22 42/30/54
f 45/34/55 48/28/56 21/25/25
f 45/34/55 21/25/25 25/33/24
f 34/23/49 45/34/55 25/33/24
f 34/23/49 25/33/24 20/22/12
f 39/11/57 48/18/57 47/19/57
f 39/11/57 47/19/57 40/14/58
f 36/35/29 35/38/29 27/37/29
f 36/35/29 27/37/29 26/36/29
f 28/40/30 38/39/59 31/24/60
f 28/40/30 31/24/60 19/21/30
f 28/44/35 29/43/34 35/42/34
f 28/44/35 35/42/34 38/41/61
f 24/47/36 44/46/36 43/45/36
f 24/47/36 43/45/36 30/48/36
f 29/49/29 27/37/29 35/38/29
