v 2.320835 0.386856 -0.169815
v 2.320835 0.386856 -0.780792
v 2.383995 1.033302 -0.780792
v 2.383995 1.033302 -0.087624
v 2.261211 0.386856 -0.096626
v 2.328167 1.033302 -0.019009
v -2.328171 1.033302 -0.019009
v -2.261269 0.386856 -0.096626
v 2.808750 3.059631 0.576233
v -2.808777 3.059631 0.576233
v -2.811638 2.623329 0.576233
v 2.811630 2.623329 0.576233
v -2.868668 3.059631 0.502705
v -2.868668 3.059631 -0.780792
v -2.868668 2.623329 -0.780792
v -2.868668 2.623329 0.506237
v 2.274456 0.000000 -0.228142
v 2.274456 0.000000 -0.780792
v 2.453251 0.193428 -0.780792
v 2.453251 0.193428 -0.015766
v 2.213730 0.000000 -0.153557
v 2.386654 0.193428 0.066044
v -2.386658 0.193428 0.066044
v -2.213791 0.000000 -0.153557
v 2.868595 3.059631 0.502705
v 2.868595 3.059631 -0.780792
v 3.035160 3.277779 -0.780792
v 3.035160 3.277779 0.699463
v 2.968929 3.277779 0.780792
v -2.968964 3.277779 0.780792
v 2.868595 3.495941 -0.780792
v 2.868595 3.495941 0.494926
v 2.802422 3.495941 0.576233
v -2.802429 3.495941 0.576233
v 2.598015 1.933205 0.172455
v 2.598015 1.933205 -0.780792
v 2.868595 2.623329 -0.780792
v 2.868595 2.623329 0.506237
v 2.539883 1.933205 0.243847
v -2.539886 1.933205 0.243847
v -2.384064 1.033302 -0.087624
v -2.320839 0.386856 -0.169815
v -2.453255 0.193428 -0.015766
v -2.274475 0.000000 -0.228142
v -3.035164 3.277779 0.699463
v -2.868668 3.495941 0.494926
v -2.598038 1.933205 0.172455
v -2.868668 3.495941 -0.780792
v -2.384064 1.033302 -0.780792
v -2.320839 0.386856 -0.780792
v -2.453255 0.193428 -0.780792
v -2.274529 0.000000 -0.780792
v -3.035164 3.277779 -0.780792
v -2.598038 1.933205 -0.780792
vt 0.550400 -0.888100
vt 0.533700 -0.888100
vt 0.533700 -0.908400
vt 0.552600 -0.908400
vt 0.607600 -0.889700
vt 0.605300 -0.910000
vt 0.761400 -0.910000
vt 0.759200 -0.889700
vt 0.589200 -0.973700
vt 0.777500 -0.973700
vt 0.777600 -0.960000
vt 0.589100 -0.960000
vt 0.793700 -0.973300
vt 0.828700 -0.973300
vt 0.828700 -0.959600
vt 0.793600 -0.959600
vt 0.986500 -0.767200
vt 0.961900 -0.767200
vt 0.963200 -0.779100
vt 0.995900 -0.779100
vt 0.011200 -0.767200
vt 0.011100 -0.779000
vt 0.252400 -0.779000
vt 0.252500 -0.767200
vt 0.533700 -0.882000
vt 0.554600 -0.882000
vt 0.603400 -0.883600
vt 0.763400 -0.883600
vt 0.568700 -0.972100
vt 0.533700 -0.972100
vt 0.533700 -0.979000
vt 0.574100 -0.979000
vt 0.583900 -0.980600
vt 0.782900 -0.980600
vt 0.533700 -0.985900
vt 0.568500 -0.985900
vt 0.589400 -0.987500
vt 0.777300 -0.987500
vt 0.559700 -0.936700
vt 0.533700 -0.936700
vt 0.533700 -0.958400
vt 0.568800 -0.958400
vt 0.598200 -0.938300
vt 0.768500 -0.938300
vt 0.602800 -0.909400
vt 0.605000 -0.890700
vt 0.809500 -0.890200
vt 0.807300 -0.909000
vt 0.809800 -0.909600
vt 0.812100 -0.889200
vt 0.586700 -0.972600
vt 0.586500 -0.959300
vt 0.791200 -0.972100
vt 0.791000 -0.958900
vt 0.600700 -0.886200
vt 0.807900 -0.883200
vt 0.805200 -0.885700
vt 0.007900 -0.767200
vt 0.007800 -0.778900
vt 0.255900 -0.779000
vt 0.255800 -0.767200
vt 0.581500 -0.980600
vt 0.786000 -0.980100
vt 0.788400 -0.980100
vt 0.587100 -0.990000
vt 0.791600 -0.989600
vt 0.793900 -0.987000
vt 0.595700 -0.937200
vt 0.800200 -0.936700
vt 0.802700 -0.937900
vt 0.167400 -0.876000
vt 0.165500 -0.874600
vt 0.010900 -0.874600
vt 0.009100 -0.897600
vt 0.009100 -0.876000
vt 0.167400 -0.897600
vt 0.828700 -0.909600
vt 0.828700 -0.889200
vt 0.287400 -0.779000
vt 0.280300 -0.767200
vt 0.828700 -0.883200
vt 0.828700 -0.980100
vt 0.828700 -0.987000
vt 0.828700 -0.937900
vt 0.447600 -0.691100
vt 0.277300 -0.691100
vt 0.277300 -0.674200
vt 0.447600 -0.674200
vt 0.445300 -0.693300
vt 0.279500 -0.693300
vn 0.995300 -0.097200 -0.000000
vn 0.986300 -0.164700 -0.000000
vn 0.984900 -0.172900 -0.000000
vn 0.000000 -0.119200 0.992900
vn 0.000000 -0.208500 0.978000
vn 0.000000 0.000000 1.000000
vn -1.000000 0.000000 -0.000000
vn 0.734300 -0.678800 -0.000000
vn 0.000000 -0.750400 0.661000
vn 0.825200 0.564900 -0.000000
vn 0.000000 0.643600 0.765400
vn 0.794800 -0.606900 -0.000000
vn 0.000000 -0.684000 0.729500
vn 0.794800 0.606900 -0.000000
vn 0.000000 0.684000 0.729500
vn 0.949700 -0.313100 -0.000000
vn 0.954300 -0.298900 -0.000000
vn 0.931000 -0.365000 -0.000000
vn 0.000000 -0.371600 0.928400
vn 0.000000 -0.433900 0.900900
vn 0.751600 -0.247300 0.611500
vn 0.750400 -0.253600 0.610500
vn 0.766100 -0.154200 0.624000
vn -0.766300 -0.154200 0.623700
vn -0.750000 -0.253500 0.610900
vn -0.751300 -0.247300 0.611900
vn 0.775700 0.005100 0.631100
vn -0.775400 0.005100 0.631500
vn -0.775400 0.005100 0.631400
vn -0.775300 0.005100 0.631500
vn -0.775300 0.005100 0.631600
vn 0.539100 0.718700 0.439100
vn 0.539200 0.718800 0.438900
vn 0.539200 0.718800 0.439000
vn -0.539200 0.718700 0.439000
vn -0.539300 0.718700 0.438900
vn 0.448600 -0.815700 0.365200
vn -0.448700 -0.815700 0.365200
vn -0.448700 -0.815700 0.365300
vn 0.505900 -0.757800 0.412000
vn 0.506000 -0.757800 0.411800
vn 0.506100 -0.757800 0.411800
vn -0.506000 -0.757800 0.412000
vn 0.500400 0.764000 0.407500
vn 0.500500 0.764000 0.407200
vn 0.500500 0.764000 0.407300
vn 0.500300 0.763900 0.407500
vn -0.500300 0.763900 0.407500
vn -0.500400 0.764000 0.407400
vn 0.662400 -0.520400 0.538900
vn 0.696600 -0.439500 0.567100
vn 0.700300 -0.429400 0.570200
vn -0.696400 -0.439500 0.567300
vn -0.662000 -0.520400 0.539300
vn -0.700200 -0.429400 0.570400
vn 0.000000 1.000000 -0.000000
vn -0.995300 -0.097400 -0.000000
vn -0.984900 -0.172900 -0.000000
vn -0.986300 -0.164700 -0.000000
vn 1.000000 0.000000 -0.000000
vn -0.734400 -0.678700 0.000000
vn -0.734400 -0.678800 -0.000000
vn -0.734500 -0.678700 0.000100
vn -0.825200 0.564900 -0.000000
vn -0.794900 -0.606700 -0.000000
vn -0.794900 0.606700 -0.000000
vn -0.949700 -0.313100 -0.000000
vn -0.931000 -0.365100 -0.000000
vn -0.954300 -0.298900 -0.000000
vn 0.000000 -1.000000 -0.000000
usemtl sponza/column_c
f 1/1/1 2/2/1 3/3/2
f 1/1/1 3/3/2 4/4/3
f 5/5/4 6/6/5 7/7/5
f 5/5/4 7/7/5 8/8/4
f 9/9/6 10/10/6 11/11/6
f 9/9/6 11/11/6 12/12/6
f 13/13/7 14/14/7 15/15/7
f 13/13/7 15/15/7 16/16/7
f 17/17/8 18/18/8 19/19/8
f 17/17/8 19/19/8 20/20/8
f 21/21/9 22/22/9 23/23/9
f 21/21/9 23/23/9 24/24/9
f 19/25/10 2/2/10 1/1/10
f 19/25/10 1/1/10 20/26/10
f 22/27/11 5/5/11 8/8/11
f 22/27/11 8/8/11 23/28/11
f 25/29/12 26/30/12 27/31/12
f 25/29/12 27/31/12 28/32/12
f 9/9/13 29/33/13 30/34/13
f 9/9/13 30/34/13 10/10/13
f 27/31/14 31/35/14 32/36/14
f 27/31/14 32/36/14 28/32/14
f 29/33/15 33/37/15 34/38/15
f 29/33/15 34/38/15 30/34/15
f 35/39/16 36/40/17 37/41/18
f 35/39/16 37/41/18 38/42/18
f 39/43/19 12/12/20 11/11/20
f 39/43/19 11/11/20 40/44/19
f 4/4/3 3/3/2 36/40/17
f 4/4/3 36/40/17 35/39/16
f 6/6/5 39/43/19 40/44/19
f 6/6/5 40/44/19 7/7/5
f 4/45/21 6/6/22 5/5/23
f 4/45/21 5/5/23 1/46/23
f 8/47/24 7/48/25 41/49/26
f 8/47/24 41/49/26 42/50/24
f 25/51/27 9/9/27 12/12/27
f 25/51/27 12/12/27 38/52/27
f 10/53/28 13/13/29 16/16/30
f 10/53/28 16/16/30 11/54/31
f 5/5/32 22/27/33 20/55/34
f 5/5/32 20/55/34 1/46/32
f 43/56/35 23/57/35 8/47/36
f 43/56/35 8/47/36 42/50/36
f 21/21/37 17/58/37 20/59/37
f 21/21/37 20/59/37 22/22/37
f 43/60/38 44/61/38 24/24/38
f 43/60/38 24/24/38 23/23/39
f 28/62/40 29/33/40 9/9/41
f 28/62/40 9/9/41 25/51/42
f 10/53/43 30/63/43 45/64/43
f 10/53/43 45/64/43 13/13/43
f 28/62/44 32/65/45 33/37/46
f 28/62/44 33/37/46 29/33/47
f 34/66/48 46/67/48 45/64/49
f 34/66/48 45/64/49 30/63/49
f 38/52/50 12/12/50 39/43/51
f 38/52/50 39/43/51 35/68/52
f 40/69/53 11/54/54 16/16/54
f 40/69/53 16/16/54 47/70/55
f 35/68/52 39/43/51 6/6/22
f 35/68/52 6/6/22 4/45/21
f 7/48/25 40/69/53 47/70/55
f 7/48/25 47/70/55 41/49/26
f 46/71/56 34/72/56 33/73/56
f 46/71/56 33/73/56 31/74/56
f 33/73/56 32/75/56 31/74/56
f 48/76/56 46/71/56 31/74/56
f 42/50/57 41/49/58 49/77/59
f 42/50/57 49/77/59 50/78/57
f 25/29/60 38/42/60 37/41/60
f 25/29/60 37/41/60 26/30/60
f 44/61/61 43/60/62 51/79/61
f 44/61/61 51/79/61 52/80/63
f 51/81/64 43/56/64 42/50/64
f 51/81/64 42/50/64 50/78/64
f 13/13/65 45/64/65 53/82/65
f 13/13/65 53/82/65 14/14/65
f 53/82/66 45/64/66 46/67/66
f 53/82/66 46/67/66 48/83/66
f 47/70/67 16/16/68 15/15/68
f 47/70/67 15/15/68 54/84/69
f 41/49/58 47/70/67 54/84/69
f 41/49/58 54/84/69 49/77/59
f 17/85/70 44/86/70 52/87/70
f 17/85/70 52/87/70 18/88/70
f 44/86/70 17/85/70 21/89/70
f 44/86/70 21/89/70 24/90/70
